<svg width="24" height="24" viewBox="0 0 24 24" fill="none" xmlns="http://www.w3.org/2000/svg">
<path d="M15 22.75H9C3.57 22.75 1.25 20.43 1.25 15V9C1.25 3.57 3.57 1.25 9 1.25H15C20.43 1.25 22.75 3.57 22.75 9V15C22.75 20.43 20.43 22.75 15 22.75ZM9 2.75C4.39 2.75 2.75 4.39 2.75 9V15C2.75 19.61 4.39 21.25 9 21.25H15C19.61 21.25 21.25 19.61 21.25 15V9C21.25 4.39 19.61 2.75 15 2.75H9Z" fill="#292D32"/>
<path d="M12.0006 13.0799C11.8706 13.0799 11.7406 13.0499 11.6206 12.9799L6.32061 9.91994C5.96061 9.70994 5.84059 9.24995 6.05059 8.89995C6.26059 8.53995 6.72061 8.41994 7.07061 8.62994L11.9906 11.4799L16.8806 8.64995C17.2406 8.43995 17.7006 8.56994 17.9006 8.91994C18.1006 9.26994 17.9806 9.73995 17.6306 9.93995L12.3706 12.9799C12.2606 13.0399 12.1306 13.0799 12.0006 13.0799Z" fill="#292D32"/>
<path d="M12 18.52C11.59 18.52 11.25 18.18 11.25 17.77V12.33C11.25 11.92 11.59 11.58 12 11.58C12.41 11.58 12.75 11.92 12.75 12.33V17.77C12.75 18.18 12.41 18.52 12 18.52Z" fill="#292D32"/>
<path d="M12.0002 18.75C11.4202 18.75 10.8503 18.62 10.3903 18.37L7.19025 16.59C6.23025 16.06 5.49023 14.79 5.49023 13.69V10.3C5.49023 9.20999 6.24025 7.93999 7.19025 7.39999L10.3903 5.61999C11.3103 5.10999 12.6902 5.10999 13.6102 5.61999L16.8102 7.39999C17.7702 7.92999 18.5103 9.19999 18.5103 10.3V13.69C18.5103 14.78 17.7602 16.05 16.8102 16.59L13.6102 18.37C13.1502 18.63 12.5802 18.75 12.0002 18.75ZM12.0002 6.74998C11.6702 6.74998 11.3502 6.80999 11.1202 6.93999L7.92026 8.71999C7.43026 8.98999 6.99023 9.74999 6.99023 10.3V13.69C6.99023 14.25 7.43026 15 7.92026 15.27L11.1202 17.05C11.5802 17.31 12.4202 17.31 12.8802 17.05L16.0802 15.27C16.5702 15 17.0103 14.24 17.0103 13.69V10.3C17.0103 9.73999 16.5702 8.98999 16.0802 8.71999L12.8802 6.93999C12.6502 6.80999 12.3302 6.74998 12.0002 6.74998Z" fill="#292D32"/>
</svg>
