<svg width="24" height="24" viewBox="0 0 24 24" fill="none" xmlns="http://www.w3.org/2000/svg">
<path d="M12 12.25C11.56 12.25 11.12 12.14 10.72 11.93L4.21 8.41998C3.62 8.09998 3.25 7.46998 3.25 6.76998C3.25 6.06998 3.62 5.43998 4.21 5.11998L10.72 1.60998C11.52 1.17998 12.48 1.17998 13.27 1.60998L19.78 5.11998C20.37 5.43998 20.74 6.06998 20.74 6.76998C20.74 7.46998 20.37 8.09998 19.78 8.41998L13.27 11.93C12.88 12.15 12.44 12.25 12 12.25ZM12 2.77998C11.81 2.77998 11.61 2.82998 11.43 2.92998L4.93 6.42998C4.76 6.51998 4.75 6.70998 4.75 6.76998C4.75 6.82998 4.76 7.01998 4.93 7.09998L11.44 10.61C11.8 10.8 12.21 10.8 12.57 10.61L19.08 7.09998C19.24 7.00998 19.26 6.81998 19.26 6.76998C19.26 6.70998 19.25 6.51998 19.08 6.43998L12.57 2.92998C12.39 2.82998 12.19 2.77998 12 2.77998Z" fill="#292D32"/>
<path d="M9.78 22.72C9.5 22.72 9.21 22.65 8.95 22.52L2.89 19.5C1.88 18.99 1.25 17.97 1.25 16.84V11.12C1.25 10.47 1.58 9.88001 2.13 9.54001C2.69 9.20001 3.36 9.17001 3.94 9.46001L10 12.48C11.01 12.99 11.64 14 11.64 15.14V20.86C11.64 21.51 11.31 22.1 10.76 22.44C10.46 22.63 10.12 22.72 9.78 22.72ZM3.11 10.76C3.03 10.76 2.96 10.79 2.92 10.81C2.86 10.85 2.75 10.94 2.75 11.12V16.84C2.75 17.4 3.06 17.91 3.56 18.16L9.61 21.19C9.77 21.27 9.9 21.21 9.96 21.18C10.02 21.14 10.13 21.05 10.13 20.87V15.15C10.13 14.59 9.82 14.08 9.32 13.83L3.27 10.8C3.21 10.77 3.16 10.76 3.11 10.76Z" fill="#292D32"/>
<path d="M14.2194 22.72C13.8794 22.72 13.5394 22.63 13.2394 22.44C12.6894 22.1 12.3594 21.51 12.3594 20.86V15.14C12.3594 14.01 12.9894 12.99 13.9994 12.48L20.0494 9.45C20.6294 9.16 21.3094 9.19 21.8594 9.53C22.4094 9.87 22.7394 10.46 22.7394 11.11V16.83C22.7394 17.96 22.1094 18.98 21.0994 19.49L15.0494 22.52C14.7894 22.66 14.4994 22.72 14.2194 22.72ZM20.8894 10.76C20.8394 10.76 20.7894 10.77 20.7294 10.8L14.6794 13.83C14.1794 14.08 13.8694 14.58 13.8694 15.15V20.87C13.8694 21.05 13.9794 21.14 14.0394 21.18C14.0994 21.22 14.2294 21.27 14.3894 21.19L20.4394 18.16C20.9394 17.91 21.2494 17.4 21.2494 16.84V11.12C21.2494 10.94 21.1394 10.85 21.0794 10.81C21.0394 10.79 20.9694 10.76 20.8894 10.76Z" fill="#292D32"/>
</svg>
