<svg width="24" height="24" viewBox="0 0 24 24" fill="none" xmlns="http://www.w3.org/2000/svg">
<path d="M11.9995 13.74C11.2195 13.74 10.4795 13.44 9.90946 12.88C9.17946 12.15 8.88946 11.1 9.12946 10.07C9.37946 9.02001 10.2195 8.17999 11.2695 7.92999C12.2895 7.67999 13.3395 7.97002 14.0795 8.71002C14.8195 9.45002 15.0995 10.49 14.8595 11.52C14.6095 12.57 13.7695 13.41 12.7195 13.66C12.4795 13.71 12.2395 13.74 11.9995 13.74ZM11.9995 9.34003C11.8795 9.34003 11.7495 9.36001 11.6295 9.39001C11.1295 9.51001 10.7195 9.91998 10.5995 10.42C10.4695 10.94 10.6095 11.45 10.9795 11.81C11.3495 12.18 11.8495 12.31 12.3795 12.19C12.8795 12.07 13.2895 11.66 13.4095 11.16C13.5395 10.64 13.3995 10.13 13.0295 9.77002C12.7495 9.49002 12.3895 9.34003 11.9995 9.34003Z" fill="#292D32"/>
<path d="M6.01996 17.97C5.83996 17.97 5.64995 17.9 5.50995 17.77C3.56995 15.97 2.45996 13.43 2.45996 10.79C2.45996 5.52998 6.73995 1.25 12 1.25C17.26 1.25 21.5399 5.52998 21.5399 10.79C21.5399 13.45 20.47 15.91 18.53 17.74C18.23 18.02 17.75 18.01 17.47 17.71C17.19 17.41 17.2 16.93 17.5 16.65C19.14 15.11 20.0399 13.04 20.0399 10.8C20.0399 6.36999 16.43 2.76001 12 2.76001C7.56995 2.76001 3.95996 6.36999 3.95996 10.8C3.95996 13.06 4.86995 15.14 6.52995 16.68C6.82995 16.96 6.84996 17.44 6.56996 17.74C6.41996 17.89 6.21996 17.97 6.01996 17.97Z" fill="#292D32"/>
<path d="M15.9995 15.3C15.8195 15.3 15.6295 15.23 15.4895 15.1C15.1895 14.82 15.1695 14.34 15.4595 14.04C16.2895 13.16 16.7495 12 16.7495 10.8C16.7495 8.18005 14.6195 6.06006 12.0095 6.06006C9.39952 6.06006 7.26953 8.19005 7.26953 10.8C7.26953 12.01 7.72952 13.16 8.55952 14.04C8.83952 14.34 8.82953 14.82 8.52953 15.1C8.22953 15.38 7.74953 15.3701 7.46953 15.0701C6.37953 13.9101 5.76953 12.39 5.76953 10.8C5.76953 7.36005 8.56952 4.56006 12.0095 4.56006C15.4495 4.56006 18.2495 7.36005 18.2495 10.8C18.2495 12.39 17.6495 13.9101 16.5495 15.0701C16.3995 15.2201 16.1995 15.3 15.9995 15.3Z" fill="#292D32"/>
<path d="M13.4397 22.75H10.5697C9.42969 22.75 8.41968 22.11 7.92968 21.09C7.43968 20.07 7.56968 18.88 8.27968 17.99L9.71969 16.2C10.2797 15.5 11.1097 15.1 12.0097 15.1C12.9097 15.1 13.7397 15.5 14.2997 16.2L15.7397 17.99C16.4497 18.88 16.5897 20.07 16.0897 21.09C15.5797 22.11 14.5697 22.75 13.4397 22.75ZM10.8797 17.13L9.43969 18.92C9.08969 19.36 9.01969 19.93 9.26969 20.43C9.50969 20.94 9.99968 21.24 10.5597 21.24H13.4297C13.9897 21.24 14.4797 20.94 14.7197 20.43C14.9597 19.92 14.8997 19.36 14.5497 18.92L13.1097 17.13C12.5697 16.45 11.4297 16.45 10.8797 17.13Z" fill="#292D32"/>
</svg>
