<svg width="24" height="24" viewBox="0 0 24 24" fill="none" xmlns="http://www.w3.org/2000/svg">
<path d="M14.4595 19.83C14.2295 19.83 13.9995 19.78 13.7895 19.67C13.7395 19.64 13.6895 19.61 13.6495 19.57L11.9795 18.15L10.3395 19.57C10.2895 19.61 10.2395 19.64 10.1895 19.67C9.79953 19.86 9.35953 19.88 8.96953 19.71C8.56953 19.54 8.26953 19.21 8.12953 18.8L7.80953 17.84C7.63953 17.34 7.78953 16.71 8.15953 16.33L9.82953 14.69L9.81953 13.24L6.80953 14.53C6.30953 14.74 5.78953 14.72 5.38953 14.45C4.99953 14.2 4.76953 13.73 4.76953 13.19V12.26C4.76953 11.48 5.30953 10.65 6.02953 10.34L9.81953 8.71V6.8C9.81953 5.82 10.4695 4.76 11.3395 4.34C11.7695 4.13 12.2595 4.13 12.6895 4.34C13.5595 4.79 14.2095 5.85 14.2095 6.8V8.71L17.9995 10.34C18.7195 10.64 19.2595 11.47 19.2595 12.26V13.19C19.2595 13.73 19.0295 14.2 18.6195 14.46C18.2095 14.72 17.6995 14.75 17.1995 14.54L14.1995 13.25V14.72L15.8295 16.35C16.1995 16.72 16.3495 17.36 16.1795 17.86L15.8595 18.81C15.7195 19.22 15.4195 19.55 15.0195 19.71C14.8395 19.79 14.6495 19.83 14.4595 19.83ZM11.9995 16.67C12.3395 16.67 12.6695 16.78 12.9395 16.99L14.4895 18.31L14.7595 17.38L13.1295 15.76C12.8695 15.51 12.6995 15.09 12.6995 14.72V12.87C12.6995 12.42 12.8895 12.03 13.2295 11.8C13.5695 11.57 14.0095 11.54 14.4295 11.72L17.7495 13.14L17.7595 12.26C17.7595 12.07 17.5795 11.79 17.4095 11.72L13.4595 10.02C13.0295 9.84 12.7095 9.36 12.7095 8.87V6.8C12.7095 6.41 12.3695 5.86 12.0195 5.68C11.6595 5.86 11.3195 6.4 11.3195 6.8V8.87C11.3195 9.34 11.0095 9.83 10.5695 10.02L6.62953 11.72C6.45953 11.79 6.26953 12.08 6.26953 12.26V13.14L9.57953 11.73C9.98953 11.55 10.4195 11.57 10.7695 11.8C11.1195 12.03 11.3195 12.42 11.3195 12.88V14.73C11.3195 15.09 11.1495 15.51 10.8895 15.77L9.20953 17.42L9.52953 18.3L11.0395 17.02C11.3195 16.79 11.6595 16.67 11.9995 16.67ZM14.0495 8.64L14.0595 8.65C14.0595 8.64 14.0495 8.64 14.0495 8.64Z" fill="#292D32"/>
<path d="M15 22.75H9C3.57 22.75 1.25 20.43 1.25 15V9C1.25 3.57 3.57 1.25 9 1.25H15C20.43 1.25 22.75 3.57 22.75 9V15C22.75 20.43 20.43 22.75 15 22.75ZM9 2.75C4.39 2.75 2.75 4.39 2.75 9V15C2.75 19.61 4.39 21.25 9 21.25H15C19.61 21.25 21.25 19.61 21.25 15V9C21.25 4.39 19.61 2.75 15 2.75H9Z" fill="#292D32"/>
</svg>
