<svg width="24" height="24" viewBox="0 0 24 24" fill="none" xmlns="http://www.w3.org/2000/svg">
<path d="M8.58023 22.55C8.36023 22.55 8.13023 22.51 7.92023 22.42C7.45023 22.22 7.09023 21.83 6.93023 21.34L6.49023 20.02C6.29023 19.42 6.47023 18.67 6.91023 18.22L9.18023 15.94C9.21023 15.91 9.25023 15.8 9.25023 15.75V13.28L4.69023 15.25C4.08023 15.51 3.46023 15.48 2.99023 15.17C2.52023 14.86 2.24023 14.3 2.24023 13.65V12.36C2.24023 11.38 2.94023 10.33 3.83023 9.98001L9.24023 7.64001V4.80001C9.24023 3.59001 10.0902 2.20001 11.1702 1.64001C11.6902 1.38001 12.2902 1.38001 12.8002 1.64001C13.8902 2.20001 14.7402 3.58001 14.7402 4.79001V7.63001L20.1802 9.97001C21.0702 10.35 21.7502 11.37 21.7502 12.36V13.65C21.7502 14.31 21.4802 14.86 21.0002 15.17C20.5202 15.48 19.9102 15.51 19.3002 15.26L14.7402 13.29V15.76C14.7402 15.8 14.7802 15.9 14.8102 15.93L17.0902 18.22C17.5302 18.66 17.7102 19.43 17.5102 20.02L17.0702 21.34C16.9002 21.83 16.5402 22.22 16.0602 22.41C15.5902 22.6 15.0702 22.58 14.6202 22.36C14.5702 22.33 14.5202 22.3 14.4702 22.26L12.1402 20.3C12.0602 20.23 11.9002 20.24 11.8302 20.3L9.50023 22.26C9.46023 22.3 9.41023 22.33 9.36023 22.35C9.12023 22.49 8.85023 22.55 8.58023 22.55ZM9.56024 11.64C9.79024 11.64 10.0102 11.7 10.2002 11.83C10.5502 12.06 10.7502 12.45 10.7502 12.91V15.76C10.7502 16.19 10.5402 16.7 10.2402 17L7.97023 19.28C7.93023 19.33 7.89023 19.48 7.91023 19.54L8.35023 20.87C8.38023 20.97 8.45023 21.01 8.49023 21.03C8.52023 21.04 8.57023 21.06 8.63023 21.04L10.8702 19.15C11.5002 18.61 12.4902 18.61 13.1202 19.15L15.3502 21.03C15.4202 21.04 15.4702 21.03 15.5002 21.02C15.5402 21 15.6202 20.96 15.6502 20.86L16.0902 19.54C16.1102 19.47 16.0702 19.32 16.0302 19.28L13.7602 17C13.4602 16.72 13.2402 16.2 13.2402 15.76V12.91C13.2402 12.46 13.4302 12.07 13.7702 11.84C14.1102 11.61 14.5502 11.58 14.9702 11.76L19.8902 13.88C20.0402 13.94 20.1402 13.94 20.1702 13.92C20.2002 13.9 20.2402 13.81 20.2402 13.65V12.36C20.2402 11.98 19.9202 11.49 19.5802 11.35L14.0002 8.94001C13.5602 8.75001 13.2502 8.27001 13.2502 7.79001V4.79001C13.2502 4.13001 12.7302 3.28001 12.1302 2.98001C12.0502 2.94001 11.9502 2.94001 11.8602 2.98001C11.2802 3.28001 10.7502 4.15001 10.7502 4.80001V7.80001C10.7502 8.27001 10.4402 8.76001 10.0002 8.95001L4.42023 11.36C4.07023 11.5 3.75023 11.99 3.75023 12.36V13.65C3.75023 13.81 3.79023 13.9 3.82023 13.92C3.85023 13.94 3.95023 13.94 4.10023 13.88L9.01023 11.76C9.19023 11.68 9.38024 11.64 9.56024 11.64Z" fill="#292D32"/>
</svg>
