<svg width="24" height="24" viewBox="0 0 24 24" fill="none" xmlns="http://www.w3.org/2000/svg">
<path d="M15.1199 22.75H8.87988C4.84988 22.75 2.43988 21.96 1.99988 17.91C1.91988 17.33 1.87988 16.64 1.87988 15.75V8.25C1.87988 7.39 1.91988 6.68 1.99988 6.08C2.45988 2.02 4.76988 1.25 8.88988 1.25H15.1399C19.2599 1.25 21.5799 2.02 22.0199 6.1C22.1199 6.77 22.1399 7.53 22.1399 8.25V15.75C22.1399 16.62 22.0999 17.31 22.0199 17.93C21.5599 21.98 19.2399 22.75 15.1199 22.75ZM8.87988 2.75C4.62988 2.75 3.76988 3.67 3.47988 6.26C3.39988 6.81 3.36988 7.46 3.36988 8.25V15.75C3.36988 16.57 3.40988 17.19 3.47988 17.72C3.76988 20.33 4.61988 21.25 8.87988 21.25H15.1199C19.3699 21.25 20.2299 20.33 20.5199 17.75C20.5899 17.2 20.6299 16.55 20.6299 15.75V8.25C20.6299 7.59 20.6199 6.89 20.5299 6.29C20.2399 3.67 19.3899 2.75 15.1299 2.75H8.87988Z" fill="#292D32"/>
<path d="M21.2299 9.67H17.1299C16.7199 9.67 16.3799 9.33 16.3799 8.92C16.3799 8.51 16.7199 8.17 17.1299 8.17H21.2299C21.6399 8.17 21.9799 8.51 21.9799 8.92C21.9799 9.33 21.6399 9.67 21.2299 9.67Z" fill="#292D32"/>
<path d="M6.86953 9.67H2.76953C2.35953 9.67 2.01953 9.33 2.01953 8.92C2.01953 8.51 2.35953 8.17 2.76953 8.17H6.86953C7.27953 8.17 7.61953 8.51 7.61953 8.92C7.61953 9.33 7.27953 9.67 6.86953 9.67Z" fill="#292D32"/>
<path d="M15.0801 11.72H8.92012C8.17012 11.72 7.45012 11.42 6.93012 10.88C6.41012 10.38 6.12012 9.67 6.12012 8.92C6.12012 7.38 7.38012 6.12 8.92012 6.12H15.0701C15.8201 6.12 16.5401 6.43 17.0601 6.96C17.5801 7.47 17.8801 8.17 17.8801 8.92C17.8801 10.46 16.6201 11.72 15.0801 11.72ZM8.92012 7.62C8.20012 7.62 7.62012 8.2 7.62012 8.92C7.62012 9.27 7.75012 9.58999 7.99012 9.81999C8.24012 10.08 8.57012 10.22 8.92012 10.22H15.0801C15.8001 10.22 16.3801 9.64 16.3801 8.92C16.3801 8.58 16.2401 8.26 16.0001 8.02C15.7501 7.76 15.4201 7.62 15.0701 7.62H8.92012V7.62Z" fill="#292D32"/>
</svg>
