<svg width="24" height="24" viewBox="0 0 24 24" fill="none" xmlns="http://www.w3.org/2000/svg">
<path d="M17.0298 19.75H15.9898C13.9798 19.75 13.0098 18.82 13.0098 16.9V5.09998C13.0098 4.68998 13.3498 4.34998 13.7598 4.34998C14.1698 4.34998 14.5098 4.68998 14.5098 5.09998V16.9C14.5098 17.91 14.7198 18.25 15.9898 18.25H17.0298C18.2998 18.25 18.5098 17.91 18.5098 16.9V5.09998C18.5098 4.68998 18.8498 4.34998 19.2598 4.34998C19.6698 4.34998 20.0098 4.68998 20.0098 5.09998V16.9C20.0098 18.82 19.0398 19.75 17.0298 19.75Z" fill="#292D32"/>
<path d="M8.52977 14.75H7.48977C5.47977 14.75 4.50977 13.82 4.50977 11.9V5.09998C4.50977 4.68998 4.84977 4.34998 5.25977 4.34998C5.66977 4.34998 6.00977 4.68998 6.00977 5.09998V11.9C6.00977 12.91 6.21977 13.25 7.48977 13.25H8.52977C9.79977 13.25 10.0098 12.91 10.0098 11.9V5.09998C10.0098 4.68998 10.3498 4.34998 10.7598 4.34998C11.1698 4.34998 11.5098 4.68998 11.5098 5.09998V11.9C11.5098 13.82 10.5398 14.75 8.52977 14.75Z" fill="#292D32"/>
<path d="M22 5.75H2C1.58 5.75 1.25 5.41 1.25 5C1.25 4.59 1.58 4.25 2 4.25H22C22.41 4.25 22.75 4.59 22.75 5C22.75 5.41 22.42 5.75 22 5.75Z" fill="#292D32"/>
</svg>
