<svg width="24" height="24" viewBox="0 0 24 24" fill="none" xmlns="http://www.w3.org/2000/svg">
<path d="M16.8597 10.64C16.6697 10.64 16.4797 10.57 16.3297 10.42L13.2898 7.37998C12.9998 7.08998 12.9998 6.60998 13.2898 6.31998C13.5798 6.02998 14.0598 6.02998 14.3498 6.31998L17.3898 9.35996C17.6798 9.64996 17.6798 10.13 17.3898 10.42C17.2398 10.56 17.0497 10.64 16.8597 10.64Z" fill="#292D32"/>
<path d="M13.8203 17.9C13.4103 17.9 13.0703 17.56 13.0703 17.15V6.83997C13.0703 6.42997 13.4103 6.08997 13.8203 6.08997C14.2303 6.08997 14.5703 6.42997 14.5703 6.83997V17.15C14.5703 17.57 14.2303 17.9 13.8203 17.9Z" fill="#292D32"/>
<path d="M10.1801 17.8999C9.99009 17.8999 9.80009 17.8299 9.65009 17.6799L6.61008 14.64C6.32008 14.35 6.32008 13.8699 6.61008 13.5799C6.90008 13.2899 7.38011 13.2899 7.67011 13.5799L10.7101 16.6199C11.0001 16.9099 11.0001 17.3899 10.7101 17.6799C10.5701 17.8299 10.3801 17.8999 10.1801 17.8999Z" fill="#292D32"/>
<path d="M10.1797 17.9C9.76969 17.9 9.42969 17.56 9.42969 17.15V6.83997C9.42969 6.42997 9.76969 6.08997 10.1797 6.08997C10.5897 6.08997 10.9297 6.42997 10.9297 6.83997V17.15C10.9297 17.57 10.5997 17.9 10.1797 17.9Z" fill="#292D32"/>
<path d="M12 22.75C6.07 22.75 1.25 17.93 1.25 12C1.25 6.07 6.07 1.25 12 1.25C17.93 1.25 22.75 6.07 22.75 12C22.75 17.93 17.93 22.75 12 22.75ZM12 2.75C6.9 2.75 2.75 6.9 2.75 12C2.75 17.1 6.9 21.25 12 21.25C17.1 21.25 21.25 17.1 21.25 12C21.25 6.9 17.1 2.75 12 2.75Z" fill="#292D32"/>
</svg>
