<svg width="24" height="24" viewBox="0 0 24 24" fill="none" xmlns="http://www.w3.org/2000/svg">
<path d="M14.1108 17.61C13.9208 17.61 13.7308 17.54 13.5808 17.39C13.2908 17.1 13.2908 16.62 13.5808 16.33L16.6208 13.29C16.9108 13 17.3908 13 17.6808 13.29C17.9708 13.58 17.9708 14.06 17.6808 14.35L14.6408 17.39C14.5008 17.53 14.3108 17.61 14.1108 17.61Z" fill="#292D32"/>
<path d="M17.1498 14.57H6.83984C6.42984 14.57 6.08984 14.23 6.08984 13.82C6.08984 13.41 6.42984 13.07 6.83984 13.07H17.1498C17.5598 13.07 17.8998 13.41 17.8998 13.82C17.8998 14.23 17.5698 14.57 17.1498 14.57Z" fill="#292D32"/>
<path d="M6.84906 10.93C6.65906 10.93 6.46906 10.86 6.31906 10.71C6.02906 10.42 6.02906 9.93996 6.31906 9.64996L9.35904 6.60996C9.64904 6.31996 10.1291 6.31996 10.4191 6.60996C10.7091 6.89996 10.7091 7.37998 10.4191 7.66998L7.37906 10.71C7.22906 10.86 7.03906 10.93 6.84906 10.93Z" fill="#292D32"/>
<path d="M17.1498 10.9299H6.83984C6.42984 10.9299 6.08984 10.5899 6.08984 10.1799C6.08984 9.76993 6.42984 9.42993 6.83984 9.42993H17.1498C17.5598 9.42993 17.8998 9.76993 17.8998 10.1799C17.8998 10.5899 17.5698 10.9299 17.1498 10.9299Z" fill="#292D32"/>
<path d="M12 22.75C6.07 22.75 1.25 17.93 1.25 12C1.25 6.07 6.07 1.25 12 1.25C17.93 1.25 22.75 6.07 22.75 12C22.75 17.93 17.93 22.75 12 22.75ZM12 2.75C6.9 2.75 2.75 6.9 2.75 12C2.75 17.1 6.9 21.25 12 21.25C17.1 21.25 21.25 17.1 21.25 12C21.25 6.9 17.1 2.75 12 2.75Z" fill="#292D32"/>
</svg>
