<svg width="24" height="24" viewBox="0 0 24 24" fill="none" xmlns="http://www.w3.org/2000/svg">
<path d="M12 22.75C6.07 22.75 1.25 17.93 1.25 12C1.25 6.07 6.07 1.25 12 1.25C17.93 1.25 22.75 6.07 22.75 12C22.75 17.93 17.93 22.75 12 22.75ZM12 2.75C6.9 2.75 2.75 6.9 2.75 12C2.75 17.1 6.9 21.25 12 21.25C17.1 21.25 21.25 17.1 21.25 12C21.25 6.9 17.1 2.75 12 2.75Z" fill="#292D32"/>
<path d="M15.5302 14.01C15.3402 14.01 15.1502 13.94 15.0002 13.79L12.0002 10.79L9.00016 13.79C8.71016 14.08 8.23016 14.08 7.94016 13.79C7.65016 13.5 7.65016 13.02 7.94016 12.73L11.4702 9.20004C11.7602 8.91004 12.2402 8.91004 12.5302 9.20004L16.0602 12.73C16.3502 13.02 16.3502 13.5 16.0602 13.79C15.9102 13.94 15.7202 14.01 15.5302 14.01Z" fill="#292D32"/>
</svg>
