<svg width="24" height="24" viewBox="0 0 24 24" fill="none" xmlns="http://www.w3.org/2000/svg">
<path d="M18.0691 10.3199C17.8791 10.3199 17.6891 10.2499 17.5391 10.0999L11.9991 4.55994L6.45914 10.0999C6.16914 10.3899 5.68914 10.3899 5.39914 10.0999C5.10914 9.80994 5.10914 9.32994 5.39914 9.03994L11.4691 2.96994C11.7591 2.67994 12.2391 2.67994 12.5291 2.96994L18.5991 9.03994C18.8891 9.32994 18.8891 9.80994 18.5991 10.0999C18.4591 10.2499 18.2591 10.3199 18.0691 10.3199Z" fill="#292D32"/>
<path d="M12 21.25C11.59 21.25 11.25 20.91 11.25 20.5V3.67004C11.25 3.26004 11.59 2.92004 12 2.92004C12.41 2.92004 12.75 3.26004 12.75 3.67004V20.5C12.75 20.91 12.41 21.25 12 21.25Z" fill="#292D32"/>
</svg>
