<svg width="24" height="24" viewBox="0 0 24 24" fill="none" xmlns="http://www.w3.org/2000/svg">
<path d="M11.9991 21.25C11.8091 21.25 11.6191 21.18 11.4691 21.03L5.39914 14.96C5.10914 14.67 5.10914 14.19 5.39914 13.9C5.68914 13.61 6.16914 13.61 6.45914 13.9L11.9991 19.44L17.5391 13.9C17.8291 13.61 18.3091 13.61 18.5991 13.9C18.8891 14.19 18.8891 14.67 18.5991 14.96L12.5291 21.03C12.3791 21.18 12.1891 21.25 11.9991 21.25Z" fill="#292D32"/>
<path d="M12 21.08C11.59 21.08 11.25 20.74 11.25 20.33V3.5C11.25 3.09 11.59 2.75 12 2.75C12.41 2.75 12.75 3.09 12.75 3.5V20.33C12.75 20.74 12.41 21.08 12 21.08Z" fill="#292D32"/>
</svg>
