<svg width="24" height="24" viewBox="0 0 24 24" fill="none" xmlns="http://www.w3.org/2000/svg">
<path d="M15 22.75H9C3.57 22.75 1.25 20.43 1.25 15V9C1.25 3.57 3.57 1.25 9 1.25H15C20.43 1.25 22.75 3.57 22.75 9V15C22.75 20.43 20.43 22.75 15 22.75ZM9 2.75C4.39 2.75 2.75 4.39 2.75 9V15C2.75 19.61 4.39 21.25 9 21.25H15C19.61 21.25 21.25 19.61 21.25 15V9C21.25 4.39 19.61 2.75 15 2.75H9Z" fill="#292D32"/>
<path d="M9.62 18.0499C8.04 18.0499 6.75 16.7599 6.75 15.1799C6.75 13.5999 8.04 12.3099 9.62 12.3099C11.2 12.3099 12.49 13.5999 12.49 15.1799C12.49 16.7599 11.2 18.0499 9.62 18.0499ZM9.62 13.8199C8.87 13.8199 8.25 14.4299 8.25 15.1899C8.25 15.9399 8.86 16.5599 9.62 16.5599C10.37 16.5599 10.99 15.9499 10.99 15.1899C10.99 14.4299 10.37 13.8199 9.62 13.8199Z" fill="#292D32"/>
<path d="M11.7402 15.93C11.3302 15.93 10.9902 15.59 10.9902 15.18V7.77002C10.9902 7.36002 11.3302 7.02002 11.7402 7.02002C12.1502 7.02002 12.4902 7.36002 12.4902 7.77002V15.18C12.4902 15.6 12.1502 15.93 11.7402 15.93Z" fill="#292D32"/>
<path d="M15.5203 11.43C15.3103 11.43 15.0902 11.39 14.8702 11.32L12.5303 10.5399C11.6503 10.2499 10.9902 9.32999 10.9902 8.39999V7.77999C10.9902 7.14999 11.2503 6.59998 11.7103 6.26998C12.1703 5.93998 12.7702 5.85996 13.3702 6.05996L15.7103 6.83999C16.5903 7.12999 17.2502 8.04994 17.2502 8.97994V9.59994C17.2502 10.2299 16.9903 10.7799 16.5303 11.1099C16.2403 11.3199 15.8903 11.43 15.5203 11.43ZM12.7103 7.44997C12.6603 7.44997 12.6103 7.45994 12.5803 7.47994C12.5203 7.51994 12.4802 7.62998 12.4802 7.76998V8.38998C12.4802 8.66998 12.7402 9.01995 13.0002 9.10995L15.3403 9.88998C15.4703 9.92998 15.5903 9.92998 15.6503 9.88998C15.7103 9.84998 15.7502 9.73994 15.7502 9.59994V8.97994C15.7502 8.69994 15.4902 8.34997 15.2302 8.25997L12.8903 7.47994C12.8303 7.45994 12.7603 7.44997 12.7103 7.44997Z" fill="#292D32"/>
</svg>
