<svg width="24" height="24" viewBox="0 0 24 24" fill="none" xmlns="http://www.w3.org/2000/svg">
<path d="M11.9998 22.75C11.3998 22.75 10.8098 22.61 10.3298 22.34L5.59977 19.61C3.63977 18.29 3.50977 18.05 3.50977 15.98V11.02C3.50977 8.95 3.63977 8.71 5.55977 7.42L10.3398 4.66C11.2898 4.11 12.7198 4.11 13.6698 4.66L18.3998 7.39C20.3598 8.71 20.4898 8.95 20.4898 11.02V15.98C20.4898 18.05 20.3598 18.29 18.4398 19.58L13.6598 22.34C13.1898 22.62 12.5898 22.75 11.9998 22.75ZM11.9998 5.75C11.6598 5.75 11.3198 5.82 11.0798 5.96L6.34977 8.69C5.00977 9.6 5.00977 9.6 5.00977 11.02V15.98C5.00977 17.4 5.00977 17.4 6.39977 18.34L11.0898 21.04C11.5698 21.32 12.4398 21.32 12.9198 21.04L17.6498 18.31C18.9898 17.4 18.9898 17.4 18.9898 15.98V11.02C18.9898 9.6 18.9898 9.6 17.5998 8.66L12.9098 5.96C12.6798 5.82 12.3398 5.75 11.9998 5.75Z" fill="#292D32"/>
<path d="M17.5 8.38C17.09 8.38 16.75 8.04 16.75 7.63V5C16.75 3.42 16.08 2.75 14.5 2.75H9.5C7.92 2.75 7.25 3.42 7.25 5V7.56C7.25 7.97 6.91 8.31 6.5 8.31C6.09 8.31 5.75 7.98 5.75 7.56V5C5.75 2.58 7.08 1.25 9.5 1.25H14.5C16.92 1.25 18.25 2.58 18.25 5V7.63C18.25 8.04 17.91 8.38 17.5 8.38Z" fill="#292D32"/>
<path d="M13.6302 17.63C13.4202 17.63 13.2002 17.59 12.9802 17.5L12.0002 17.12L11.0202 17.51C10.4902 17.72 9.95024 17.67 9.55024 17.38C9.15024 17.09 8.94024 16.59 8.97024 16.02L9.03024 14.97L8.36024 14.16C8.00024 13.71 7.88024 13.19 8.04024 12.71C8.19024 12.24 8.60024 11.88 9.15024 11.74L10.1702 11.48L10.7402 10.59C11.3502 9.63 12.6602 9.63 13.2702 10.59L13.8402 11.48L14.8602 11.74C15.4102 11.88 15.8202 12.24 15.9702 12.71C16.1202 13.18 16.0002 13.71 15.6402 14.15L14.9702 14.96L15.0302 16.01C15.0602 16.58 14.8502 17.07 14.4502 17.37C14.2102 17.54 13.9302 17.63 13.6302 17.63ZM9.52024 13.2L10.1902 14.01C10.4202 14.28 10.5502 14.71 10.5302 15.06L10.4702 16.11L11.4502 15.72C11.7802 15.59 12.2202 15.59 12.5502 15.72L13.5302 16.11L13.4702 15.06C13.4502 14.71 13.5802 14.29 13.8102 14.01L14.4802 13.2L13.4602 12.94C13.1202 12.85 12.7602 12.59 12.5702 12.3L12.0102 11.42L11.4402 12.3C11.2502 12.6 10.8902 12.86 10.5502 12.95L9.52024 13.2Z" fill="#292D32"/>
</svg>
