<svg width="24" height="24" viewBox="0 0 24 24" fill="none" xmlns="http://www.w3.org/2000/svg">
<path d="M12.3806 16.92H10.0906C9.68061 16.92 9.34061 16.58 9.34061 16.17C9.34061 15.76 9.68061 15.42 10.0906 15.42H12.3806C12.8106 15.42 13.1606 15.0701 13.1606 14.6401C13.1606 14.2101 12.8106 13.86 12.3806 13.86H10.0906C9.85061 13.86 9.62062 13.74 9.48062 13.55C9.34062 13.36 9.30062 13.1001 9.38062 12.8701L10.1406 10.5801C10.2406 10.2701 10.5306 10.0701 10.8506 10.0701H13.9106C14.3206 10.0701 14.6606 10.4101 14.6606 10.8201C14.6606 11.2301 14.3206 11.5701 13.9106 11.5701H11.3906L11.1306 12.36H12.3806C13.6406 12.36 14.6606 13.3801 14.6606 14.6401C14.6606 15.9001 13.6406 16.92 12.3806 16.92Z" fill="#292D32"/>
<path d="M10.02 5.21993C9.84997 5.21993 9.68997 5.16995 9.54997 5.04995C9.22997 4.78995 9.17998 4.31996 9.42998 3.99996L11.41 1.52999C11.67 1.20999 12.14 1.15993 12.46 1.40993C12.78 1.66993 12.83 2.13998 12.58 2.45998L10.6 4.92995C10.46 5.11995 10.24 5.21993 10.02 5.21993Z" fill="#292D32"/>
<path d="M11.9994 22.75C6.68939 22.75 2.35938 18.43 2.35938 13.11C2.35938 11.04 3.02939 9.04998 4.30939 7.34998C4.55939 7.01998 5.02937 6.95001 5.35938 7.20001C5.68938 7.45001 5.7594 7.92 5.5094 8.25C4.4294 9.69 3.85938 11.37 3.85938 13.11C3.85938 17.6 7.50939 21.25 11.9994 21.25C16.4894 21.25 20.1394 17.6 20.1394 13.11C20.1394 8.61999 16.4894 4.96997 11.9994 4.96997C11.4194 4.96997 10.8294 5.04 10.1894 5.19C9.78939 5.28 9.3794 5.03 9.2894 4.63C9.1994 4.23 9.4494 3.81998 9.8494 3.72998C10.5994 3.55998 11.3094 3.46997 11.9994 3.46997C17.3094 3.46997 21.6394 7.78999 21.6394 13.11C21.6394 18.43 17.3094 22.75 11.9994 22.75Z" fill="#292D32"/>
</svg>
