<svg width="24" height="24" viewBox="0 0 24 24" fill="none" xmlns="http://www.w3.org/2000/svg">
<path d="M15 22.75H9C3.57 22.75 1.25 20.43 1.25 15V9C1.25 3.57 3.57 1.25 9 1.25H15C20.43 1.25 22.75 3.57 22.75 9V15C22.75 20.43 20.43 22.75 15 22.75ZM9 2.75C4.39 2.75 2.75 4.39 2.75 9V15C2.75 19.61 4.39 21.25 9 21.25H15C19.61 21.25 21.25 19.61 21.25 15V9C21.25 4.39 19.61 2.75 15 2.75H9Z" fill="#292D32"/>
<path d="M13.9204 16.13H9.00039C8.59039 16.13 8.25039 15.79 8.25039 15.38C8.25039 14.97 8.59039 14.63 9.00039 14.63H13.9204C15.2004 14.63 16.2504 13.59 16.2504 12.3C16.2504 11.01 15.2104 9.96997 13.9204 9.96997H7.15039C6.74039 9.96997 6.40039 9.62997 6.40039 9.21997C6.40039 8.80997 6.74039 8.46997 7.15039 8.46997H13.9204C16.0304 8.46997 17.7504 10.19 17.7504 12.3C17.7504 14.41 16.0304 16.13 13.9204 16.13Z" fill="#292D32"/>
<path d="M8.56945 11.5201C8.37945 11.5201 8.18945 11.4501 8.03945 11.3001L6.46945 9.73007C6.17945 9.44007 6.17945 8.96007 6.46945 8.67007L8.03945 7.10007C8.32945 6.81007 8.80945 6.81007 9.09945 7.10007C9.38945 7.39007 9.38945 7.87007 9.09945 8.16007L8.05945 9.20007L9.09945 10.2401C9.38945 10.5301 9.38945 11.0101 9.09945 11.3001C8.95945 11.4401 8.76945 11.5201 8.56945 11.5201Z" fill="#292D32"/>
</svg>
