<svg width="24" height="24" viewBox="0 0 24 24" fill="none" xmlns="http://www.w3.org/2000/svg">
<path d="M14.4294 16.92H12.1395C11.7295 16.92 11.3895 16.58 11.3895 16.17C11.3895 15.76 11.7295 15.42 12.1395 15.42H14.4294C14.8594 15.42 15.2095 15.0701 15.2095 14.6401C15.2095 14.2101 14.8594 13.86 14.4294 13.86H12.1395C11.8995 13.86 11.6695 13.74 11.5295 13.55C11.3895 13.36 11.3494 13.1001 11.4294 12.8701L12.1894 10.5801C12.2894 10.2701 12.5795 10.0701 12.8995 10.0701H15.9595C16.3695 10.0701 16.7095 10.4101 16.7095 10.8201C16.7095 11.2301 16.3695 11.5701 15.9595 11.5701H13.4394L13.1794 12.36H14.4294C15.6894 12.36 16.7095 13.3801 16.7095 14.6401C16.7095 15.9001 15.6794 16.92 14.4294 16.92Z" fill="#292D32"/>
<path d="M9.53955 16.9201C9.12955 16.9201 8.78955 16.5801 8.78955 16.1701V12.7801L8.59955 13.0001C8.31955 13.3101 7.84955 13.3301 7.53955 13.0601C7.22955 12.7801 7.20955 12.3101 7.47955 12.0001L8.97955 10.3301C9.18955 10.1001 9.51957 10.0201 9.80957 10.1301C10.0996 10.2401 10.2895 10.5201 10.2895 10.8301V16.1801C10.2895 16.5901 9.95955 16.9201 9.53955 16.9201Z" fill="#292D32"/>
<path d="M10.02 5.21993C9.85 5.21993 9.68997 5.16995 9.54997 5.04995C9.22997 4.78995 9.17998 4.31996 9.42998 3.99996L11.41 1.52999C11.67 1.20999 12.14 1.15993 12.46 1.40993C12.78 1.65993 12.83 2.13998 12.58 2.45998L10.6 4.92995C10.46 5.11995 10.24 5.21993 10.02 5.21993Z" fill="#292D32"/>
<path d="M11.9994 22.75C6.68939 22.75 2.35938 18.43 2.35938 13.11C2.35938 11.04 3.02939 9.04998 4.30939 7.34998C4.55939 7.01998 5.02937 6.95001 5.35938 7.20001C5.68938 7.45001 5.7594 7.92 5.5094 8.25C4.4294 9.69 3.85938 11.37 3.85938 13.11C3.85938 17.6 7.50939 21.25 11.9994 21.25C16.4894 21.25 20.1394 17.6 20.1394 13.11C20.1394 8.61999 16.4894 4.96997 11.9994 4.96997C11.4194 4.96997 10.8294 5.04 10.1894 5.19C9.77939 5.28 9.37937 5.03 9.28937 4.63C9.19937 4.23 9.44937 3.81998 9.84937 3.72998C10.5994 3.55998 11.3094 3.46997 11.9994 3.46997C17.3094 3.46997 21.6394 7.78999 21.6394 13.11C21.6394 18.43 17.3094 22.75 11.9994 22.75Z" fill="#292D32"/>
</svg>
