<svg width="24" height="24" viewBox="0 0 24 24" fill="none" xmlns="http://www.w3.org/2000/svg">
<path d="M9.53955 16.6701C9.12955 16.6701 8.78955 16.3301 8.78955 15.9201V12.5301L8.59955 12.7401C8.31955 13.0501 7.84955 13.0701 7.53955 12.8001C7.22955 12.5201 7.20955 12.0501 7.47955 11.7401L8.97955 10.0701C9.18955 9.84008 9.51954 9.76007 9.80954 9.87007C10.0995 9.98007 10.2895 10.2601 10.2895 10.5701V15.9201C10.2895 16.3401 9.95955 16.6701 9.53955 16.6701Z" fill="#292D32"/>
<path d="M10.02 5.21993C9.84997 5.21993 9.68997 5.16995 9.54997 5.04995C9.22997 4.78995 9.17998 4.31996 9.42998 3.99996L11.41 1.52999C11.67 1.20999 12.14 1.15993 12.46 1.40993C12.78 1.65993 12.83 2.13998 12.58 2.45998L10.6 4.92995C10.46 5.11995 10.24 5.21993 10.02 5.21993Z" fill="#292D32"/>
<path d="M11.9994 22.75C6.68939 22.75 2.35938 18.43 2.35938 13.11C2.35938 11.04 3.02939 9.04998 4.30939 7.34998C4.55939 7.01998 5.02937 6.95001 5.35938 7.20001C5.68938 7.45001 5.7594 7.92 5.5094 8.25C4.4294 9.69 3.85938 11.37 3.85938 13.11C3.85938 17.6 7.50939 21.25 11.9994 21.25C16.4894 21.25 20.1394 17.6 20.1394 13.11C20.1394 8.61999 16.4894 4.96997 11.9994 4.96997C11.4194 4.96997 10.8294 5.04 10.1894 5.19C9.78939 5.28 9.3794 5.03 9.2894 4.63C9.1994 4.23 9.4494 3.81998 9.8494 3.72998C10.5994 3.55998 11.3094 3.46997 11.9994 3.46997C17.3094 3.46997 21.6394 7.78999 21.6394 13.11C21.6394 18.43 17.3094 22.75 11.9994 22.75Z" fill="#292D32"/>
<path d="M14 16.67C12.48 16.67 11.25 15.44 11.25 13.92V12.5701C11.25 11.0501 12.48 9.82007 14 9.82007C15.52 9.82007 16.75 11.0501 16.75 12.5701V13.92C16.75 15.44 15.52 16.67 14 16.67ZM14 11.3301C13.31 11.3301 12.75 11.8901 12.75 12.5801V13.9301C12.75 14.6201 13.31 15.1801 14 15.1801C14.69 15.1801 15.25 14.6201 15.25 13.9301V12.5801C15.25 11.8901 14.69 11.3301 14 11.3301Z" fill="#292D32"/>
</svg>
