<svg width="24" height="24" viewBox="0 0 24 24" fill="none" xmlns="http://www.w3.org/2000/svg">
<path d="M13.3903 18.11C13.2003 18.11 13.0103 18.04 12.8603 17.89L10.1003 15.13C9.81031 14.84 9.81031 14.36 10.1003 14.07C10.3903 13.78 10.8703 13.78 11.1603 14.07L13.9203 16.83C14.2103 17.12 14.2103 17.6 13.9203 17.89C13.7803 18.04 13.5903 18.11 13.3903 18.11Z" fill="#292D32"/>
<path d="M10.6108 18.14C10.4208 18.14 10.2308 18.07 10.0808 17.92C9.79078 17.63 9.79078 17.15 10.0808 16.86L12.8408 14.1C13.1308 13.81 13.6108 13.81 13.9008 14.1C14.1908 14.39 14.1908 14.87 13.9008 15.16L11.1408 17.92C10.9908 18.07 10.8008 18.14 10.6108 18.14Z" fill="#292D32"/>
<path d="M5.19086 6.38C5.00086 6.38 4.80086 6.3 4.66086 6.16C4.37086 5.87 4.37086 5.39 4.66086 5.1L8.29086 1.47C8.58086 1.18 9.06086 1.18 9.35086 1.47C9.64086 1.76 9.64086 2.24 9.35086 2.53L5.72086 6.16C5.57086 6.3 5.38086 6.38 5.19086 6.38Z" fill="#292D32"/>
<path d="M18.8091 6.38C18.6191 6.38 18.4291 6.31 18.2791 6.16L14.6491 2.53C14.3591 2.24 14.3591 1.76 14.6491 1.47C14.9391 1.18 15.4191 1.18 15.7091 1.47L19.3391 5.1C19.6291 5.39 19.6291 5.87 19.3391 6.16C19.1991 6.3 18.9991 6.38 18.8091 6.38Z" fill="#292D32"/>
<path d="M20.21 10.6C20.14 10.6 20.07 10.6 20 10.6H19.77H4C3.3 10.61 2.5 10.61 1.92 10.03C1.46 9.57998 1.25 8.87998 1.25 7.84998C1.25 5.09998 3.26 5.09998 4.22 5.09998H19.78C20.74 5.09998 22.75 5.09998 22.75 7.84998C22.75 8.88998 22.54 9.57998 22.08 10.03C21.56 10.55 20.86 10.6 20.21 10.6ZM4.22 9.09998H20.01C20.46 9.10998 20.88 9.10998 21.02 8.96998C21.09 8.89998 21.24 8.65998 21.24 7.84998C21.24 6.71998 20.96 6.59998 19.77 6.59998H4.22C3.03 6.59998 2.75 6.71998 2.75 7.84998C2.75 8.65998 2.91 8.89998 2.97 8.96998C3.11 9.09998 3.54 9.09998 3.98 9.09998H4.22Z" fill="#292D32"/>
<path d="M14.8907 22.75H8.86073C5.28073 22.75 4.48073 20.62 4.17073 18.77L2.76073 10.12C2.69073 9.71 2.97073 9.33 3.38073 9.26C3.79073 9.19 4.17073 9.47 4.24073 9.88L5.65073 18.52C5.94073 20.29 6.54073 21.25 8.86073 21.25H14.8907C17.4607 21.25 17.7507 20.35 18.0807 18.61L19.7607 9.86C19.8407 9.45 20.2307 9.18 20.6407 9.27C21.0507 9.35 21.3107 9.74 21.2307 10.15L19.5507 18.9C19.1607 20.93 18.5107 22.75 14.8907 22.75Z" fill="#292D32"/>
</svg>
