<svg width="24" height="24" viewBox="0 0 24 24" fill="none" xmlns="http://www.w3.org/2000/svg">
<path d="M21 11.75H3C2.04 11.75 1.25 10.96 1.25 10V6.68001C1.25 6.00001 1.71998 5.31001 2.34998 5.06001L11.35 1.46003C11.73 1.31003 12.27 1.31003 12.65 1.46003L21.65 5.06001C22.28 5.31001 22.75 6.01001 22.75 6.68001V10C22.75 10.96 21.96 11.75 21 11.75ZM12 2.84004C11.96 2.84004 11.92 2.83999 11.9 2.84999L2.90997 6.45002C2.84997 6.48002 2.75 6.61001 2.75 6.68001V10C2.75 10.14 2.86 10.25 3 10.25H21C21.14 10.25 21.25 10.14 21.25 10V6.68001C21.25 6.61001 21.16 6.48002 21.09 6.45002L12.09 2.84999C12.07 2.83999 12.04 2.84004 12 2.84004Z" fill="#292D32"/>
<path d="M22 22.75H2C1.59 22.75 1.25 22.41 1.25 22V19C1.25 18.04 2.04 17.25 3 17.25H21C21.96 17.25 22.75 18.04 22.75 19V22C22.75 22.41 22.41 22.75 22 22.75ZM2.75 21.25H21.25V19C21.25 18.86 21.14 18.75 21 18.75H3C2.86 18.75 2.75 18.86 2.75 19V21.25Z" fill="#292D32"/>
<path d="M4 18.75C3.59 18.75 3.25 18.41 3.25 18V11C3.25 10.59 3.59 10.25 4 10.25C4.41 10.25 4.75 10.59 4.75 11V18C4.75 18.41 4.41 18.75 4 18.75Z" fill="#292D32"/>
<path d="M8 18.75C7.59 18.75 7.25 18.41 7.25 18V11C7.25 10.59 7.59 10.25 8 10.25C8.41 10.25 8.75 10.59 8.75 11V18C8.75 18.41 8.41 18.75 8 18.75Z" fill="#292D32"/>
<path d="M12 18.75C11.59 18.75 11.25 18.41 11.25 18V11C11.25 10.59 11.59 10.25 12 10.25C12.41 10.25 12.75 10.59 12.75 11V18C12.75 18.41 12.41 18.75 12 18.75Z" fill="#292D32"/>
<path d="M16 18.75C15.59 18.75 15.25 18.41 15.25 18V11C15.25 10.59 15.59 10.25 16 10.25C16.41 10.25 16.75 10.59 16.75 11V18C16.75 18.41 16.41 18.75 16 18.75Z" fill="#292D32"/>
<path d="M20 18.75C19.59 18.75 19.25 18.41 19.25 18V11C19.25 10.59 19.59 10.25 20 10.25C20.41 10.25 20.75 10.59 20.75 11V18C20.75 18.41 20.41 18.75 20 18.75Z" fill="#292D32"/>
<path d="M23 22.75H1C0.59 22.75 0.25 22.41 0.25 22C0.25 21.59 0.59 21.25 1 21.25H23C23.41 21.25 23.75 21.59 23.75 22C23.75 22.41 23.41 22.75 23 22.75Z" fill="#292D32"/>
<path d="M12 9.25C10.76 9.25 9.75 8.24 9.75 7C9.75 5.76 10.76 4.75 12 4.75C13.24 4.75 14.25 5.76 14.25 7C14.25 8.24 13.24 9.25 12 9.25ZM12 6.25C11.59 6.25 11.25 6.59 11.25 7C11.25 7.41 11.59 7.75 12 7.75C12.41 7.75 12.75 7.41 12.75 7C12.75 6.59 12.41 6.25 12 6.25Z" fill="#292D32"/>
</svg>
