<svg width="24" height="24" viewBox="0 0 24 24" fill="none" xmlns="http://www.w3.org/2000/svg">
<path d="M8.9707 16.75C8.5807 16.75 8.2407 16.72 7.9207 16.67C4.1207 16.17 1.2207 12.87 1.2207 9C1.2207 4.73 4.7007 1.25 8.9707 1.25C12.8407 1.25 16.1407 4.14 16.6407 7.97C16.6907 8.27 16.7207 8.61 16.7207 9C16.7207 13.27 13.2507 16.75 8.9707 16.75ZM8.9707 2.75C5.5207 2.75 2.7207 5.55 2.7207 9C2.7207 12.12 5.0507 14.78 8.1407 15.19C8.4007 15.23 8.6707 15.25 8.9707 15.25C12.4207 15.25 15.2207 12.45 15.2207 9C15.2207 8.7 15.2007 8.43 15.1607 8.19C14.7507 5.08 12.1007 2.75 8.9707 2.75Z" fill="#292D32"/>
<path d="M14.9692 22.75C11.0992 22.75 7.79916 19.86 7.29916 16.03C7.26916 15.79 7.34916 15.56 7.51916 15.39C7.68916 15.22 7.93916 15.15 8.16916 15.19C8.40916 15.23 8.66916 15.25 8.96916 15.25C12.4192 15.25 15.2192 12.45 15.2192 8.99998C15.2192 8.69998 15.1992 8.42998 15.1592 8.18998C15.1192 7.95998 15.1992 7.71998 15.3592 7.54998C15.5192 7.37998 15.7492 7.28998 15.9992 7.32998C19.8292 7.82998 22.7192 11.13 22.7192 15C22.7192 19.27 19.2492 22.75 14.9692 22.75ZM8.97916 16.75C9.73916 19.37 12.1692 21.25 14.9692 21.25C18.4192 21.25 21.2192 18.45 21.2192 15C21.2192 12.2 19.3392 9.75998 16.7192 9.00998C16.7192 13.27 13.2492 16.75 8.97916 16.75Z" fill="#292D32"/>
<path d="M15.4295 16.16C15.2395 16.16 15.0495 16.09 14.8995 15.95L13.5995 14.67C13.3095 14.38 13.2995 13.9 13.5895 13.61C13.8795 13.32 14.3495 13.31 14.6495 13.6L15.9495 14.88C16.2395 15.17 16.2495 15.65 15.9595 15.94C15.8195 16.08 15.6195 16.16 15.4295 16.16Z" fill="#292D32"/>
<path d="M16.9702 12.7499C16.7802 12.7499 16.5902 12.6799 16.4402 12.5299L15.4402 11.5299C15.1502 11.2399 15.1502 10.7599 15.4402 10.4699C15.7302 10.1799 16.2102 10.1799 16.5002 10.4699L17.5002 11.4699C17.7902 11.7599 17.7902 12.2399 17.5002 12.5299C17.3602 12.6799 17.1702 12.7499 16.9702 12.7499Z" fill="#292D32"/>
<path d="M11.9702 17.7499C11.7802 17.7499 11.5902 17.6799 11.4402 17.5299L10.4402 16.5299C10.1502 16.2399 10.1502 15.7599 10.4402 15.4699C10.7302 15.1799 11.2102 15.1799 11.5002 15.4699L12.5002 16.4699C12.7902 16.7599 12.7902 17.2399 12.5002 17.5299C12.3602 17.6799 12.1702 17.7499 11.9702 17.7499Z" fill="#292D32"/>
</svg>
