<svg width="24" height="24" viewBox="0 0 24 24" fill="none" xmlns="http://www.w3.org/2000/svg">
<path d="M13.1299 22.75C12.8599 22.75 12.6498 22.6799 12.4998 22.6099C12.1398 22.4399 11.5298 21.97 11.5298 20.71V14.26L6.13986 19.2C5.83986 19.48 5.35983 19.46 5.07983 19.15C4.79983 18.84 4.81985 18.37 5.12985 18.09L11.5298 12.22V11.7699L5.12985 5.89995C4.81985 5.61995 4.79983 5.14996 5.07983 4.83996C5.35983 4.53996 5.83986 4.50997 6.13986 4.78997L11.5298 9.72997V3.27996C11.5298 2.01996 12.1398 1.53997 12.4998 1.37997C12.8598 1.20997 13.6098 1.04995 14.5798 1.85995L18.4298 5.06997C18.8498 5.41997 19.0998 5.91997 19.1098 6.44997C19.1198 6.97997 18.8998 7.48995 18.4898 7.85995L13.9898 11.99L18.4898 16.12C18.8898 16.49 19.1198 17.01 19.1098 17.53C19.0998 18.06 18.8498 18.56 18.4298 18.91L14.5798 22.12C14.0098 22.61 13.5099 22.75 13.1299 22.75ZM13.0298 13.15V20.71C13.0298 21.08 13.1098 21.24 13.1498 21.26C13.1598 21.25 13.3398 21.21 13.6198 20.98L17.4698 17.7699C17.5598 17.6899 17.6098 17.6 17.6098 17.5C17.6098 17.4 17.5699 17.31 17.4799 17.23L13.0298 13.15ZM13.1198 2.74996C13.1098 2.75996 13.0298 2.92997 13.0298 3.28997V10.85L17.4799 6.76995C17.5699 6.68995 17.6098 6.59996 17.6098 6.49996C17.6098 6.39996 17.5598 6.30997 17.4698 6.22997L13.6098 3.01995C13.3498 2.79995 13.1798 2.74996 13.1198 2.74996Z" fill="#292D32"/>
</svg>
