<svg width="24" height="24" viewBox="0 0 24 24" fill="none" xmlns="http://www.w3.org/2000/svg">
<path d="M12.1299 22.75C11.8599 22.75 11.6498 22.6799 11.4998 22.6099C11.1398 22.4399 10.5298 21.97 10.5298 20.71V14.26L5.13986 19.2C4.83986 19.48 4.35983 19.46 4.07983 19.15C3.79983 18.84 3.81985 18.37 4.12985 18.09L10.5298 12.22V11.7699L4.12985 5.89995C3.81985 5.61995 3.79983 5.14996 4.07983 4.83996C4.35983 4.53996 4.83986 4.50997 5.13986 4.78997L10.5298 9.72997V3.27996C10.5298 2.01996 11.1398 1.53997 11.4998 1.37997C11.8598 1.20997 12.6098 1.04995 13.5798 1.85995L17.4298 5.06997C17.8498 5.41997 18.0998 5.91997 18.1098 6.44997C18.1198 6.97997 17.8998 7.48995 17.4898 7.85995L12.9898 11.99L17.4898 16.12C17.8898 16.49 18.1198 17.01 18.1098 17.53C18.0998 18.06 17.8498 18.56 17.4298 18.91L13.5798 22.12C13.0098 22.61 12.5099 22.75 12.1299 22.75ZM12.0298 13.15V20.71C12.0298 21.08 12.1098 21.24 12.1498 21.26C12.1598 21.25 12.3398 21.21 12.6198 20.98L16.4698 17.7699C16.5598 17.6899 16.6098 17.6 16.6098 17.5C16.6098 17.4 16.5699 17.31 16.4799 17.23L12.0298 13.15ZM12.1198 2.74996C12.1098 2.75996 12.0298 2.92997 12.0298 3.28997V10.85L16.4799 6.76995C16.5699 6.68995 16.6098 6.59996 16.6098 6.49996C16.6098 6.39996 16.5598 6.30997 16.4698 6.22997L12.6098 3.01995C12.3498 2.79995 12.1798 2.74996 12.1198 2.74996Z" fill="#292D32"/>
<path d="M5 13.75C4.04 13.75 3.25 12.96 3.25 12C3.25 11.04 4.04 10.25 5 10.25C5.96 10.25 6.75 11.04 6.75 12C6.75 12.96 5.96 13.75 5 13.75ZM5 11.75C4.86 11.75 4.75 11.86 4.75 12C4.75 12.28 5.25 12.28 5.25 12C5.25 11.86 5.14 11.75 5 11.75Z" fill="#292D32"/>
<path d="M19 13.75C18.04 13.75 17.25 12.96 17.25 12C17.25 11.04 18.04 10.25 19 10.25C19.96 10.25 20.75 11.04 20.75 12C20.75 12.96 19.96 13.75 19 13.75ZM19 11.75C18.86 11.75 18.75 11.86 18.75 12C18.75 12.28 19.25 12.28 19.25 12C19.25 11.86 19.14 11.75 19 11.75Z" fill="#292D32"/>
</svg>
