<svg width="24" height="24" viewBox="0 0 24 24" fill="none" xmlns="http://www.w3.org/2000/svg">
<path d="M12.6 18.11C12.38 18.11 12.21 18.05 12.11 18.01C11.89 17.91 11.3901 17.58 11.3901 16.67V14L9.09004 16.11C8.79004 16.39 8.31004 16.37 8.03004 16.06C7.75004 15.75 7.77003 15.28 8.08003 15L11.36 11.99L8.08003 8.98C7.77003 8.7 7.75004 8.23001 8.03004 7.92001C8.31004 7.62001 8.79004 7.58999 9.09004 7.86999L11.3901 9.98V7.32C11.3901 6.42 11.89 6.09 12.11 5.98C12.32 5.88 12.9 5.70999 13.6 6.27999L15.66 7.99999C15.96 8.24999 16.14 8.61999 16.15 8.99999C16.16 9.37999 16 9.75998 15.71 10.02L13.58 11.97L15.71 13.92C16 14.19 16.16 14.56 16.15 14.94C16.14 15.32 15.96 15.69 15.66 15.94L13.6 17.66C13.22 18.02 12.87 18.11 12.6 18.11ZM12.9 13.41V16.33L14.5701 14.94L12.9 13.41ZM12.9 7.67001V10.59L14.5701 9.05999L12.9 7.67001Z" fill="#292D32"/>
<path d="M15 22.75H9C5.56 22.75 3.25 20.44 3.25 17V7C3.25 3.56 5.56 1.25 9 1.25H15C18.44 1.25 20.75 3.56 20.75 7V17C20.75 20.44 18.44 22.75 15 22.75ZM9 2.75C6.42 2.75 4.75 4.42 4.75 7V17C4.75 19.58 6.42 21.25 9 21.25H15C17.58 21.25 19.25 19.58 19.25 17V7C19.25 4.42 17.58 2.75 15 2.75H9Z" fill="#292D32"/>
</svg>
