<svg width="24" height="24" viewBox="0 0 24 24" fill="none" xmlns="http://www.w3.org/2000/svg">
<path d="M12.0005 22.75C7.12049 22.75 3.15051 18.78 3.15051 13.9C3.12051 8.17 8.58048 3.4 10.9305 1.61C11.5605 1.13 12.4405 1.13 13.0705 1.61C15.4205 3.43 20.8805 8.26 20.8505 13.91C20.8505 18.78 16.8805 22.75 12.0005 22.75ZM12.0005 2.75C11.9505 2.75 11.8905 2.77 11.8405 2.81C10.1505 4.1 4.63046 8.71 4.66046 13.9C4.66046 17.96 7.9605 21.25 12.0105 21.25C16.0605 21.25 19.3605 17.96 19.3605 13.91C19.3905 8.79 13.8605 4.12 12.1605 2.81C12.1005 2.77 12.0505 2.75 12.0005 2.75Z" fill="#292D32"/>
<path d="M12 22.75C11.59 22.75 11.25 22.41 11.25 22V2C11.25 1.59 11.59 1.25 12 1.25C12.41 1.25 12.75 1.59 12.75 2V22C12.75 22.41 12.41 22.75 12 22.75Z" fill="#292D32"/>
<path d="M11.9999 19.71C11.7199 19.71 11.4499 19.55 11.3199 19.29C11.1399 18.92 11.2899 18.47 11.6699 18.29L19.3699 14.55C19.7399 14.37 20.1899 14.53 20.3699 14.9C20.5499 15.27 20.4 15.72 20.02 15.9L12.3199 19.64C12.2199 19.68 12.1099 19.71 11.9999 19.71Z" fill="#292D32"/>
<path d="M11.9999 14.71C11.7199 14.71 11.4499 14.55 11.3199 14.29C11.1399 13.92 11.2899 13.47 11.6699 13.29L19.0399 9.70996C19.4099 9.52996 19.8599 9.67996 20.0399 10.06C20.2199 10.44 20.0699 10.88 19.6899 11.06L12.3199 14.64C12.2199 14.68 12.1099 14.71 11.9999 14.71Z" fill="#292D32"/>
<path d="M11.9999 9.70997C11.7199 9.70997 11.4499 9.54997 11.3199 9.28997C11.1399 8.91997 11.2899 8.46997 11.6699 8.28997L16.7 5.84997C17.07 5.66997 17.52 5.82996 17.7 6.19996C17.88 6.56996 17.7299 7.01996 17.3499 7.19996L12.3199 9.63997C12.2199 9.67997 12.1099 9.70997 11.9999 9.70997Z" fill="#292D32"/>
</svg>
