<svg width="24" height="24" viewBox="0 0 24 24" fill="none" xmlns="http://www.w3.org/2000/svg">
<path d="M15 22.75H9C3.57 22.75 1.25 20.43 1.25 15V9C1.25 3.57 3.57 1.25 9 1.25H15C20.43 1.25 22.75 3.57 22.75 9V15C22.75 20.43 20.43 22.75 15 22.75ZM9 2.75C4.39 2.75 2.75 4.39 2.75 9V15C2.75 19.61 4.39 21.25 9 21.25H15C19.61 21.25 21.25 19.61 21.25 15V9C21.25 4.39 19.61 2.75 15 2.75H9Z" fill="#292D32"/>
<path d="M12.0001 18.95C11.7601 18.95 11.5201 18.89 11.3201 18.78C10.1601 18.15 8.11013 17.47 6.82013 17.3L6.63013 17.27C5.65013 17.15 4.87012 16.27 4.87012 15.26V7.55996C4.87012 6.98996 5.11014 6.43996 5.52014 6.05996C5.94014 5.67996 6.48012 5.48997 7.06012 5.53997C8.52012 5.65997 10.6401 6.35998 11.8901 7.13998L11.9901 7.19998L12.0302 7.16998C13.2902 6.37998 15.4101 5.66997 16.8801 5.53997C16.9001 5.53997 16.9601 5.53997 16.9801 5.53997C17.5001 5.48997 18.0601 5.68996 18.4701 6.05996C18.8901 6.43996 19.1201 6.96995 19.1201 7.54995V15.24C19.1201 16.24 18.3401 17.12 17.3501 17.25L17.1401 17.28C15.8601 17.45 13.8001 18.13 12.6601 18.76C12.4701 18.9 12.2401 18.95 12.0001 18.95ZM6.89014 7.04995C6.75014 7.04995 6.6301 7.09996 6.5401 7.17996C6.4301 7.27996 6.38013 7.41997 6.38013 7.56997V15.27C6.38013 15.51 6.60014 15.76 6.83014 15.79L7.02014 15.82C8.48014 16.02 10.7201 16.75 12.0201 17.46C13.2301 16.76 15.4801 16.01 16.9501 15.82L17.1701 15.79C17.4001 15.76 17.6201 15.51 17.6201 15.27V7.57995C17.6201 7.41995 17.5601 7.28997 17.4601 7.18997C17.3501 7.08997 17.2101 7.04996 17.0501 7.05996C17.0301 7.05996 16.9701 7.05996 16.9501 7.05996C15.7901 7.15996 13.8801 7.79996 12.8401 8.45996L12.7401 8.51996C12.3001 8.78996 11.6801 8.78996 11.2601 8.52996L11.1101 8.43997C10.0601 7.77997 8.15012 7.14995 6.94012 7.04995C6.92012 7.04995 6.91014 7.04995 6.89014 7.04995Z" fill="#292D32"/>
<path d="M12 18.41C11.59 18.41 11.25 18.07 11.25 17.66V8.09998C11.25 7.68998 11.59 7.34998 12 7.34998C12.41 7.34998 12.75 7.68998 12.75 8.09998V17.66C12.75 18.08 12.41 18.41 12 18.41Z" fill="#292D32"/>
</svg>
