<svg width="24" height="24" viewBox="0 0 24 24" fill="none" xmlns="http://www.w3.org/2000/svg">
<path d="M11.9994 22.75C11.9394 22.75 11.8794 22.74 11.8294 22.73C11.7694 22.72 11.7094 22.69 11.6494 22.66L9.43938 21.56C9.06938 21.37 8.91937 20.92 9.09937 20.55C9.28937 20.18 9.73937 20.03 10.1094 20.21L11.2494 20.78V19.22C11.2494 18.81 11.5894 18.47 11.9994 18.47C12.4094 18.47 12.7494 18.81 12.7494 19.22V20.78L13.8894 20.21C14.2594 20.03 14.7094 20.18 14.8994 20.55C15.0894 20.92 14.9394 21.37 14.5594 21.56L12.3494 22.66C12.2894 22.69 12.2294 22.71 12.1694 22.73C12.1094 22.74 12.0594 22.75 11.9994 22.75ZM18.6694 19.42C18.3994 19.42 18.1294 19.27 17.9994 19.01C17.8094 18.64 17.9594 18.19 18.3394 18L20.1494 17.1V14.79C20.1494 14.38 20.4894 14.04 20.8994 14.04C21.3094 14.04 21.6494 14.38 21.6494 14.79V17.57C21.6494 17.85 21.4894 18.11 21.2394 18.24L19.0194 19.35C18.8894 19.39 18.7794 19.42 18.6694 19.42ZM5.32938 19.42C5.21938 19.42 5.09937 19.39 4.99937 19.34L2.77937 18.23C2.52937 18.1 2.36938 17.84 2.36938 17.56V14.78C2.36938 14.37 2.70938 14.03 3.11938 14.03C3.52938 14.03 3.86938 14.37 3.86938 14.78V17.09L5.67937 17.99C6.04937 18.18 6.19937 18.63 6.01937 19C5.86937 19.26 5.60938 19.42 5.32938 19.42ZM11.9994 14.42C11.5894 14.42 11.2494 14.08 11.2494 13.67V11.36L9.43938 10.46C9.06938 10.27 8.91937 9.81998 9.09937 9.44998C9.28937 9.07998 9.73937 8.92998 10.1094 9.10998L11.9994 10.05L13.8894 9.10998C14.2594 8.92998 14.7094 9.06998 14.8994 9.44998C15.0894 9.82998 14.9394 10.27 14.5594 10.46L12.7494 11.36V13.67C12.7494 14.08 12.4094 14.42 11.9994 14.42ZM20.8894 9.96998C20.4794 9.96998 20.1394 9.62998 20.1394 9.21998V7.65998L18.9994 8.22998C18.6294 8.41998 18.1794 8.26998 17.9894 7.88998C17.7994 7.51998 17.9494 7.06999 18.3294 6.87999L19.2094 6.43998L18.3294 5.99998C17.9594 5.80998 17.8094 5.35999 17.9894 4.98999C18.1794 4.61999 18.6294 4.46997 18.9994 4.64997L21.2094 5.74998C21.2294 5.75998 21.2594 5.76997 21.2794 5.78997C21.3394 5.81997 21.3894 5.86998 21.4394 5.91998C21.4694 5.95998 21.4994 5.99997 21.5294 6.03997C21.5694 6.10997 21.5994 6.17997 21.6194 6.25997C21.6294 6.31997 21.6394 6.37997 21.6394 6.42997V6.43998V9.19998C21.6394 9.63998 21.2994 9.96998 20.8894 9.96998ZM3.10938 9.96998C2.69938 9.96998 2.35938 9.62998 2.35938 9.21998V6.45999V6.44998C2.35938 6.38998 2.36937 6.32998 2.37937 6.27998C2.39937 6.19998 2.42938 6.12998 2.46938 6.05998C2.49938 6.00998 2.52937 5.96997 2.56937 5.92997C2.60937 5.88997 2.65937 5.84999 2.70937 5.81999C2.72937 5.80999 2.75937 5.78998 2.77937 5.77998L4.98937 4.67997C5.35937 4.49997 5.80937 4.63998 5.99937 5.01998C6.18937 5.39998 6.03938 5.83998 5.65938 6.02998L4.77937 6.46998L5.65938 6.90998C6.02938 7.09998 6.17937 7.54998 5.99937 7.91998C5.80937 8.28998 5.36937 8.43997 4.98937 8.25997L3.84937 7.68998V9.24998C3.85937 9.63998 3.52937 9.96998 3.10938 9.96998ZM14.2194 3.85998C14.1094 3.85998 13.9894 3.82998 13.8894 3.77998L11.9994 2.83998L10.1094 3.77998C9.73937 3.96998 9.28937 3.81998 9.09937 3.43998C8.90937 3.06998 9.05938 2.61997 9.43938 2.42997L11.6594 1.31999C11.8694 1.20999 12.1194 1.20999 12.3294 1.31999L14.5494 2.42997C14.9194 2.61997 15.0694 3.06998 14.8894 3.43998C14.7594 3.70998 14.4994 3.85998 14.2194 3.85998Z" fill="#292D32"/>
</svg>
