<svg width="24" height="24" viewBox="0 0 24 24" fill="none" xmlns="http://www.w3.org/2000/svg">
<path d="M12 18.95C9.38 18.95 7.25 16.82 7.25 14.2C7.25 11.58 9.38 9.45001 12 9.45001C14.62 9.45001 16.75 11.58 16.75 14.2C16.75 16.82 14.62 18.95 12 18.95ZM12 10.95C10.21 10.95 8.75 12.41 8.75 14.2C8.75 15.99 10.21 17.45 12 17.45C13.79 17.45 15.25 15.99 15.25 14.2C15.25 12.41 13.79 10.95 12 10.95Z" fill="#292D32"/>
<path d="M11.4409 15.83C11.1209 15.83 10.8009 15.71 10.5609 15.47L9.91086 14.82C9.62086 14.53 9.62086 14.05 9.91086 13.76C10.2009 13.47 10.6809 13.47 10.9709 13.76L11.4509 14.24L13.0609 12.76C13.3609 12.48 13.8409 12.5 14.1209 12.8C14.4009 13.1 14.3809 13.58 14.0809 13.86L12.3009 15.5C12.0509 15.72 11.7509 15.83 11.4409 15.83Z" fill="#292D32"/>
<path d="M16.0002 22.75H8.00023C3.38023 22.75 2.52023 20.6 2.30023 18.51L1.55023 10.5C1.44023 9.45001 1.41023 7.90001 2.45023 6.74001C3.35023 5.74001 4.84023 5.26001 7.00023 5.26001H17.0002C19.1702 5.26001 20.6602 5.75001 21.5502 6.74001C22.5902 7.90001 22.5602 9.45001 22.4502 10.51L21.7002 18.5C21.4802 20.6 20.6202 22.75 16.0002 22.75ZM7.00023 6.75001C5.31023 6.75001 4.15023 7.08001 3.56023 7.74001C3.07023 8.28001 2.91023 9.11001 3.04023 10.35L3.79023 18.36C3.96023 19.94 4.39023 21.25 8.00023 21.25H16.0002C19.6002 21.25 20.0402 19.94 20.2102 18.35L20.9602 10.36C21.0902 9.11001 20.9302 8.28001 20.4402 7.74001C19.8502 7.08001 18.6902 6.75001 17.0002 6.75001H7.00023Z" fill="#292D32"/>
<path d="M16 6.75C15.59 6.75 15.25 6.41 15.25 6V5.2C15.25 3.42 15.25 2.75 12.8 2.75H11.2C8.75 2.75 8.75 3.42 8.75 5.2V6C8.75 6.41 8.41 6.75 8 6.75C7.59 6.75 7.25 6.41 7.25 6V5.2C7.25 3.44 7.25 1.25 11.2 1.25H12.8C16.75 1.25 16.75 3.44 16.75 5.2V6C16.75 6.41 16.41 6.75 16 6.75Z" fill="#292D32"/>
<path d="M16.0105 14.39C15.6705 14.39 15.3705 14.16 15.2805 13.82C15.1805 13.42 15.4205 13.01 15.8205 12.91C17.7705 12.42 19.5805 11.57 21.2005 10.39C21.5305 10.15 22.0005 10.22 22.2505 10.56C22.4905 10.89 22.4205 11.36 22.0805 11.61C20.3005 12.9 18.3205 13.83 16.1805 14.37C16.1305 14.38 16.0705 14.39 16.0105 14.39Z" fill="#292D32"/>
<path d="M8.00072 14.42C7.94072 14.42 7.88072 14.41 7.82072 14.4C5.81072 13.91 3.92072 13.06 2.19072 11.88C1.85072 11.65 1.76072 11.18 1.99072 10.84C2.22072 10.5 2.69072 10.41 3.03072 10.64C4.61072 11.72 6.33072 12.49 8.17072 12.94C8.57072 13.04 8.82072 13.44 8.72072 13.85C8.65072 14.19 8.34072 14.42 8.00072 14.42Z" fill="#292D32"/>
</svg>
