<svg width="24" height="24" viewBox="0 0 24 24" fill="none" xmlns="http://www.w3.org/2000/svg">
<path d="M14.9707 22.75H8.9707C3.5407 22.75 1.2207 20.43 1.2207 15V9C1.2207 3.57 3.5407 1.25 8.9707 1.25H10.9707C11.3807 1.25 11.7207 1.59 11.7207 2C11.7207 2.41 11.3807 2.75 10.9707 2.75H8.9707C4.3607 2.75 2.7207 4.39 2.7207 9V15C2.7207 19.61 4.3607 21.25 8.9707 21.25H14.9707C19.5807 21.25 21.2207 19.61 21.2207 15V13C21.2207 12.59 21.5607 12.25 21.9707 12.25C22.3807 12.25 22.7207 12.59 22.7207 13V15C22.7207 20.43 20.4107 22.75 14.9707 22.75Z" fill="#292D32"/>
<path d="M12.7796 15.2399C12.6296 15.2399 12.4896 15.1999 12.3596 15.1099C12.1496 14.9699 12.0296 14.7399 12.0296 14.4899C12.0296 14.3799 12.0196 14.2599 11.9996 14.1399C11.9296 13.6099 11.6896 13.1399 11.2896 12.7299C10.8796 12.3199 10.3796 12.0599 9.8296 11.9899C9.7496 11.9799 9.6196 11.9699 9.4996 11.9799C9.2496 11.9999 8.9996 11.8899 8.8496 11.6899C8.6996 11.4899 8.6596 11.2199 8.7396 10.9799C8.8596 10.6399 9.0496 10.3199 9.2696 10.0699L10.4996 8.52989C12.6396 5.85989 16.9496 2.65989 20.1296 1.38989C20.8596 1.10989 21.6296 1.26989 22.1596 1.79989C22.7096 2.34989 22.8696 3.12989 22.5796 3.83989C21.3096 7.00989 18.1096 11.3299 15.4496 13.4599L13.8796 14.7199C13.5696 14.9399 13.3196 15.0899 13.0596 15.1899C12.9696 15.2199 12.8696 15.2399 12.7796 15.2399ZM10.7196 10.6699C11.3296 10.8699 11.8796 11.2099 12.3496 11.6699C12.8096 12.1299 13.1396 12.6599 13.3296 13.2299L14.5096 12.2799C16.9996 10.2799 19.9996 6.23989 21.1896 3.26989C21.2696 3.07989 21.1796 2.93989 21.0996 2.84989C21.0496 2.79989 20.9096 2.68989 20.6796 2.77989C17.7196 3.96989 13.6796 6.96989 11.6796 9.45989L10.7196 10.6699Z" fill="#292D32"/>
<path d="M7.70097 18.75C7.06097 18.75 6.45097 18.5 5.99097 18.04C5.46097 17.51 5.20097 16.78 5.29097 16.03L5.50097 14.07C5.72097 12.04 7.37097 10.54 9.44097 10.5C9.60097 10.49 9.80097 10.5 9.99097 10.51C10.901 10.63 11.711 11.03 12.351 11.68C12.991 12.32 13.381 13.08 13.491 13.94C13.521 14.13 13.531 14.32 13.531 14.5C13.531 15.59 13.111 16.62 12.341 17.39C11.711 18.02 10.891 18.41 9.96097 18.53L7.98097 18.74C7.88097 18.75 7.79097 18.75 7.70097 18.75ZM9.60097 11.99C9.57097 11.99 9.53097 11.99 9.50097 11.99C8.35097 12.02 7.14097 12.79 6.99097 14.23L6.78097 16.2C6.75097 16.49 6.85097 16.78 7.05097 16.98C7.25097 17.18 7.53097 17.28 7.81097 17.25L9.78097 17.04C10.361 16.97 10.881 16.72 11.271 16.33C11.751 15.84 12.021 15.2 12.021 14.5C12.021 14.39 12.011 14.27 11.991 14.15C11.921 13.62 11.681 13.15 11.281 12.74C10.871 12.33 10.371 12.07 9.82097 12C9.77097 11.99 9.69097 11.99 9.60097 11.99Z" fill="#292D32"/>
<path d="M15.8193 12.7299C15.4093 12.7299 15.0693 12.3899 15.0693 11.9799C15.0693 10.3099 13.7093 8.93994 12.0293 8.93994C11.6193 8.93994 11.2793 8.59994 11.2793 8.18994C11.2793 7.77994 11.6193 7.43994 12.0293 7.43994C14.5293 7.43994 16.5693 9.46994 16.5693 11.9799C16.5693 12.3899 16.2393 12.7299 15.8193 12.7299Z" fill="#292D32"/>
</svg>
