<svg width="24" height="24" viewBox="0 0 24 24" fill="none" xmlns="http://www.w3.org/2000/svg">
<path d="M10.3506 18.39C9.67062 18.39 9.02061 18.0799 8.40061 17.4599L5.57063 14.63C4.33062 13.39 4.33062 11.97 5.57063 10.74L10.2906 6.01999C10.5806 5.72999 11.0606 5.72999 11.3506 6.01999L16.5406 11.21C16.8106 11.48 16.9506 11.8299 16.9506 12.2099C16.9506 12.5899 16.8006 12.9499 16.5406 13.2099L12.2906 17.4599C11.6906 18.0799 11.0306 18.39 10.3506 18.39ZM10.8306 7.59995L6.64063 11.7899C6.32063 12.1099 6.15061 12.41 6.15061 12.68C6.15061 12.94 6.31063 13.2399 6.64063 13.5699L9.47062 16.4C10.1206 17.05 10.5906 17.05 11.2406 16.4L15.4306 12.2099L10.8306 7.59995Z" fill="#292D32"/>
<path d="M10.8301 7.29001C10.6401 7.29001 10.4501 7.22004 10.3001 7.07004L9.36008 6.13004C9.07008 5.84004 9.07008 5.36004 9.36008 5.07004C9.65008 4.78004 10.1301 4.78004 10.4201 5.07004L11.3601 6.01004C11.6501 6.30004 11.6501 6.78004 11.3601 7.07004C11.2101 7.22004 11.0201 7.29001 10.8301 7.29001Z" fill="#292D32"/>
<path d="M5.44034 13.3901C5.04034 13.3901 4.71034 13.0801 4.69034 12.6701C4.67034 12.2601 4.99034 11.9101 5.41034 11.8901L16.0903 11.4201C16.5003 11.3801 16.8503 11.7201 16.8703 12.1401C16.8903 12.5501 16.5703 12.9001 16.1503 12.9201L5.47034 13.3901C5.46034 13.3901 5.45034 13.3901 5.44034 13.3901Z" fill="#292D32"/>
<path d="M17.3002 19.1501C16.1702 19.1501 15.2402 18.23 15.2402 17.09C15.2402 16.01 16.3902 14.6801 16.7402 14.3001C17.0202 13.9901 17.5602 13.9901 17.8402 14.3001C18.1902 14.6801 19.3402 16.02 19.3402 17.09C19.3502 18.23 18.4302 19.1501 17.3002 19.1501ZM17.3002 16.0001C16.9902 16.4401 16.7402 16.88 16.7402 17.09C16.7402 17.39 16.9902 17.6501 17.3002 17.6501C17.6102 17.6501 17.8602 17.4 17.8602 17.09C17.8502 16.88 17.6102 16.4401 17.3002 16.0001Z" fill="#292D32"/>
<path d="M15 22.75H9C3.57 22.75 1.25 20.43 1.25 15V9C1.25 3.57 3.57 1.25 9 1.25H15C20.43 1.25 22.75 3.57 22.75 9V15C22.75 20.43 20.43 22.75 15 22.75ZM9 2.75C4.39 2.75 2.75 4.39 2.75 9V15C2.75 19.61 4.39 21.25 9 21.25H15C19.61 21.25 21.25 19.61 21.25 15V9C21.25 4.39 19.61 2.75 15 2.75H9Z" fill="#292D32"/>
</svg>
