<svg width="24" height="24" viewBox="0 0 24 24" fill="none" xmlns="http://www.w3.org/2000/svg">
<path d="M9.02 19.75C8.16 19.75 7.3 19.34 6.48 18.52L2.47 14.51C1.66 13.7 1.25 12.85 1.25 11.97C1.25 11.1 1.66 10.24 2.47 9.42999L9.15 2.75C9.29 2.61 9.48 2.53003 9.68 2.53003C9.88 2.53003 10.07 2.61 10.21 2.75L17.56 10.1C17.88 10.42 18.06 10.84 18.06 11.3C18.06 11.75 17.88 12.18 17.56 12.5L11.54 18.52C10.74 19.34 9.88 19.75 9.02 19.75ZM9.69 4.34998L3.54 10.5C3.02 11.02 2.76 11.52 2.76 11.98C2.76 12.44 3.02 12.94 3.54 13.45L7.55 17.46C8.6 18.51 9.45 18.51 10.5 17.46L16.52 11.44C16.58 11.38 16.59 11.23 16.52 11.16L9.69 4.34998Z" fill="#292D32"/>
<path d="M9.68906 4.03989C9.49906 4.03989 9.30906 3.96992 9.15906 3.81992L7.81906 2.47989C7.52906 2.18989 7.52906 1.70989 7.81906 1.41989C8.10906 1.12989 8.58906 1.12989 8.87906 1.41989L10.2191 2.75992C10.5091 3.04992 10.5091 3.52992 10.2191 3.81992C10.0691 3.96992 9.87906 4.03989 9.68906 4.03989Z" fill="#292D32"/>
<path d="M2.0712 12.67C1.6712 12.67 1.3412 12.3599 1.3212 11.9499C1.3012 11.5399 1.6212 11.1899 2.0412 11.1699L17.1712 10.5099C17.5812 10.4899 17.9312 10.8099 17.9512 11.2299C17.9712 11.6399 17.6512 11.9899 17.2312 12.0099L2.1012 12.67C2.0912 12.67 2.0812 12.67 2.0712 12.67Z" fill="#292D32"/>
<path d="M16 22.75H3C2.59 22.75 2.25 22.41 2.25 22C2.25 21.59 2.59 21.25 3 21.25H16C16.41 21.25 16.75 21.59 16.75 22C16.75 22.41 16.41 22.75 16 22.75Z" fill="#292D32"/>
<path d="M18.85 20.83C17.42 20.83 16.25 19.6601 16.25 18.2301C16.25 16.7801 17.96 14.8601 18.3 14.4801C18.58 14.1701 19.12 14.1701 19.4 14.4801C19.74 14.8501 21.45 16.77 21.45 18.22C21.45 19.67 20.28 20.83 18.85 20.83ZM18.85 16.1701C18.3 16.8901 17.75 17.7701 17.75 18.2401C17.75 18.8501 18.24 19.34 18.85 19.34C19.46 19.34 19.95 18.8501 19.95 18.2401C19.95 17.7601 19.4 16.8801 18.85 16.1701Z" fill="#292D32"/>
</svg>
