<svg width="24" height="24" viewBox="0 0 24 24" fill="none" xmlns="http://www.w3.org/2000/svg">
<path d="M10.6091 17.31C10.0191 17.31 9.42908 17.0399 8.87908 16.4899L6.48906 14.0999C5.38906 12.9999 5.38906 11.74 6.48906 10.65L10.4791 6.65991C10.6191 6.51991 10.8091 6.43994 11.0091 6.43994C11.2091 6.43994 11.3991 6.51991 11.5391 6.65991L15.9291 11.0499C16.1791 11.2999 16.3091 11.6299 16.3091 11.9799C16.3091 12.3299 16.1691 12.66 15.9191 12.91L12.3291 16.4999C11.7891 17.0299 11.1991 17.31 10.6091 17.31ZM11.0091 8.23993L7.54906 11.7C7.37906 11.87 7.16909 12.1299 7.16909 12.3699C7.16909 12.6099 7.37906 12.86 7.54906 13.04L9.93907 15.43C10.1091 15.6 10.3691 15.81 10.6091 15.81C10.8491 15.81 11.0991 15.6 11.2791 15.43L14.7391 11.9699L11.0091 8.23993Z" fill="#292D32"/>
<path d="M11.0104 7.92984C10.8204 7.92984 10.6304 7.85987 10.4804 7.70987L9.68039 6.90982C9.39039 6.61982 9.39039 6.13982 9.68039 5.84982C9.97039 5.55982 10.4504 5.55982 10.7404 5.84982L11.5404 6.64987C11.8304 6.93987 11.8304 7.41987 11.5404 7.70987C11.3904 7.85987 11.2004 7.92984 11.0104 7.92984Z" fill="#292D32"/>
<path d="M6.45987 13.08C6.05987 13.08 5.72987 12.77 5.70987 12.36C5.68987 11.95 6.00987 11.6 6.42987 11.58L15.4599 11.19C15.8699 11.16 16.2199 11.49 16.2399 11.91C16.2599 12.33 15.9399 12.6699 15.5199 12.6899L6.48987 13.08C6.47987 13.08 6.46987 13.08 6.45987 13.08Z" fill="#292D32"/>
<path d="M16.4711 17.9499C15.4511 17.9499 14.6211 17.1199 14.6211 16.0999C14.6211 15.1499 15.6211 13.99 15.9211 13.66C16.2011 13.35 16.7411 13.35 17.0211 13.66C17.3211 13.99 18.3211 15.1499 18.3211 16.0999C18.3311 17.1199 17.5011 17.9499 16.4711 17.9499ZM16.4711 15.38C16.2611 15.69 16.1211 15.9699 16.1211 16.0999C16.1211 16.2899 16.2811 16.4499 16.4711 16.4499C16.6611 16.4499 16.8211 16.2899 16.8211 16.0999C16.8311 15.9699 16.6811 15.69 16.4711 15.38Z" fill="#292D32"/>
<path d="M12 22.75C6.07 22.75 1.25 17.93 1.25 12C1.25 6.07 6.07 1.25 12 1.25C17.93 1.25 22.75 6.07 22.75 12C22.75 17.93 17.93 22.75 12 22.75ZM12 2.75C6.9 2.75 2.75 6.9 2.75 12C2.75 17.1 6.9 21.25 12 21.25C17.1 21.25 21.25 17.1 21.25 12C21.25 6.9 17.1 2.75 12 2.75Z" fill="#292D32"/>
</svg>
