<svg width="24" height="24" viewBox="0 0 24 24" fill="none" xmlns="http://www.w3.org/2000/svg">
<path d="M16.9 22.75H7.10001C4.98001 22.75 3.25 21.02 3.25 18.9V5.10001C3.25 2.98001 4.98001 1.25 7.10001 1.25H16.9C19.02 1.25 20.75 2.98001 20.75 5.10001V18.9C20.75 21.02 19.02 22.75 16.9 22.75ZM7.10001 2.75C5.81001 2.75 4.75 3.80001 4.75 5.10001V18.9C4.75 20.19 5.80001 21.25 7.10001 21.25H16.9C18.19 21.25 19.25 20.2 19.25 18.9V5.10001C19.25 3.81001 18.2 2.75 16.9 2.75H7.10001Z" fill="#292D32"/>
<path d="M18.5 13.75H5.5C4.26 13.75 3.25 12.74 3.25 11.5V9.5C3.25 8.26 4.26 7.25 5.5 7.25H18.5C19.74 7.25 20.75 8.26 20.75 9.5V11.5C20.75 12.74 19.74 13.75 18.5 13.75ZM5.5 8.75C5.09 8.75 4.75 9.09 4.75 9.5V11.5C4.75 11.91 5.09 12.25 5.5 12.25H18.5C18.91 12.25 19.25 11.91 19.25 11.5V9.5C19.25 9.09 18.91 8.75 18.5 8.75H5.5Z" fill="#292D32"/>
<path d="M8 18.75C7.67 18.75 7.35 18.62 7.12 18.38C7.06 18.33 7.01001 18.26 6.96001 18.19C6.92001 18.13 6.88001 18.05 6.85001 17.98C6.81001 17.9 6.79 17.82 6.77 17.74C6.76 17.66 6.75 17.58 6.75 17.5C6.75 17.42 6.76 17.34 6.77 17.26C6.79 17.18 6.81001 17.0999 6.85001 17.0199C6.88001 16.9499 6.92001 16.87 6.96001 16.81C7.01001 16.74 7.06 16.67 7.12 16.62C7.58 16.15 8.41 16.15 8.88 16.62C8.94 16.67 8.98999 16.74 9.03999 16.81C9.07999 16.87 9.11999 16.9499 9.14999 17.0199C9.18999 17.0999 9.21 17.18 9.23 17.26C9.24 17.34 9.25 17.42 9.25 17.5C9.25 17.58 9.24 17.66 9.23 17.74C9.21 17.82 9.18999 17.9 9.14999 17.98C9.11999 18.05 9.07999 18.13 9.03999 18.19C8.98999 18.26 8.94 18.33 8.88 18.38C8.65 18.62 8.33 18.75 8 18.75Z" fill="#292D32"/>
<path d="M16 18.75C15.67 18.75 15.35 18.62 15.12 18.38C14.88 18.15 14.75 17.83 14.75 17.5C14.75 17.17 14.88 16.85 15.12 16.62C15.58 16.15 16.42 16.15 16.88 16.62C17.12 16.85 17.25 17.17 17.25 17.5C17.25 17.83 17.12 18.15 16.88 18.38C16.65 18.62 16.33 18.75 16 18.75Z" fill="#292D32"/>
<path d="M14.5 5.75H9.5C9.09 5.75 8.75 5.41 8.75 5C8.75 4.59 9.09 4.25 9.5 4.25H14.5C14.91 4.25 15.25 4.59 15.25 5C15.25 5.41 14.91 5.75 14.5 5.75Z" fill="#292D32"/>
</svg>
