<svg width="24" height="24" viewBox="0 0 24 24" fill="none" xmlns="http://www.w3.org/2000/svg">
<path d="M14 22.75H10C4.57 22.75 2.25 20.43 2.25 15V9C2.25 3.57 4.57 1.25 10 1.25H14C19.43 1.25 21.75 3.57 21.75 9V15C21.75 20.43 19.43 22.75 14 22.75ZM10 2.75C5.39 2.75 3.75 4.39 3.75 9V15C3.75 19.61 5.39 21.25 10 21.25H14C18.61 21.25 20.25 19.61 20.25 15V9C20.25 4.39 18.61 2.75 14 2.75H10Z" fill="#292D32"/>
<path d="M15 10.83H9C7.76 10.83 6.75 9.82002 6.75 8.58002V7.58002C6.75 6.34002 7.76 5.33002 9 5.33002H15C16.24 5.33002 17.25 6.34002 17.25 7.58002V8.58002C17.25 9.82002 16.24 10.83 15 10.83ZM9 6.83002C8.59 6.83002 8.25 7.17002 8.25 7.58002V8.58002C8.25 8.99002 8.59 9.33002 9 9.33002H15C15.41 9.33002 15.75 8.99002 15.75 8.58002V7.58002C15.75 7.17002 15.41 6.83002 15 6.83002H9Z" fill="#292D32"/>
<path d="M8.15016 14.92C8.02016 14.92 7.89016 14.89 7.77016 14.84C7.65016 14.79 7.54016 14.72 7.45016 14.63C7.26016 14.44 7.16016 14.19 7.16016 13.92C7.16016 13.79 7.18016 13.66 7.23016 13.54C7.28016 13.41 7.35016 13.31 7.45016 13.21C7.49016 13.17 7.54016 13.12 7.60016 13.09C7.65016 13.05 7.71016 13.02 7.77016 13C7.83016 12.97 7.90016 12.95 7.96016 12.94C8.28016 12.87 8.63016 12.98 8.86016 13.21C8.95016 13.3 9.03016 13.41 9.08016 13.54C9.13016 13.66 9.16016 13.79 9.16016 13.92C9.16016 14.19 9.05016 14.44 8.86016 14.63C8.67016 14.82 8.42016 14.92 8.15016 14.92Z" fill="#292D32"/>
<path d="M12.1602 14.92C11.8902 14.92 11.6402 14.82 11.4502 14.63C11.2602 14.44 11.1602 14.19 11.1602 13.92C11.1602 13.79 11.1802 13.66 11.2302 13.54C11.2802 13.41 11.3502 13.31 11.4502 13.21C11.4902 13.17 11.5402 13.12 11.6002 13.09C11.6502 13.05 11.7102 13.02 11.7702 13C11.8302 12.97 11.9002 12.95 11.9602 12.94C12.1502 12.9 12.3502 12.92 12.5402 13C12.6602 13.05 12.7702 13.12 12.8602 13.21C12.9502 13.31 13.0302 13.41 13.0802 13.54C13.1302 13.66 13.1602 13.79 13.1602 13.92C13.1602 14.19 13.0502 14.44 12.8602 14.63C12.6702 14.82 12.4202 14.92 12.1602 14.92Z" fill="#292D32"/>
<path d="M16.1502 14.92C16.0202 14.92 15.8902 14.89 15.7702 14.84C15.6502 14.79 15.5402 14.72 15.4502 14.63C15.3502 14.53 15.2802 14.42 15.2302 14.3C15.1802 14.18 15.1602 14.05 15.1602 13.92C15.1602 13.79 15.1802 13.66 15.2302 13.54C15.2802 13.41 15.3502 13.31 15.4502 13.21C15.8202 12.84 16.4902 12.84 16.8602 13.21C17.0502 13.4 17.1602 13.66 17.1602 13.92C17.1602 14.19 17.0502 14.44 16.8602 14.63C16.6802 14.81 16.4302 14.92 16.1502 14.92Z" fill="#292D32"/>
<path d="M8.16039 18.92C7.89039 18.92 7.64039 18.82 7.45039 18.63C7.26039 18.44 7.15039 18.19 7.15039 17.92C7.15039 17.66 7.26039 17.4 7.45039 17.21C7.49039 17.17 7.55039 17.12 7.60039 17.09C7.65039 17.05 7.71039 17.02 7.77039 17C7.83039 16.97 7.90039 16.95 7.96039 16.94C8.29039 16.88 8.63039 16.98 8.86039 17.21C8.91039 17.26 8.95039 17.31 8.99039 17.36C9.02039 17.42 9.05039 17.48 9.08039 17.54C9.10039 17.6 9.12039 17.66 9.14039 17.72C9.15039 17.79 9.16039 17.85 9.16039 17.92C9.16039 18.19 9.05039 18.44 8.86039 18.63C8.67039 18.82 8.42039 18.92 8.16039 18.92Z" fill="#292D32"/>
<path d="M12.1604 18.92C11.8904 18.92 11.6404 18.82 11.4504 18.63C11.2604 18.44 11.1504 18.19 11.1504 17.92C11.1504 17.66 11.2604 17.4 11.4504 17.21C11.6804 16.98 12.0304 16.88 12.3504 16.94C12.4104 16.95 12.4804 16.97 12.5404 17C12.6004 17.02 12.6604 17.05 12.7104 17.09C12.7604 17.12 12.8104 17.17 12.8604 17.21C13.0504 17.4 13.1504 17.66 13.1504 17.92C13.1504 18.19 13.0504 18.44 12.8604 18.63C12.6704 18.82 12.4204 18.92 12.1604 18.92Z" fill="#292D32"/>
<path d="M16.1502 18.92C15.8902 18.92 15.6402 18.82 15.4502 18.63C15.2602 18.44 15.1602 18.19 15.1602 17.92C15.1602 17.66 15.2602 17.4 15.4502 17.21C15.5402 17.12 15.6502 17.05 15.7702 17C16.1402 16.85 16.5902 16.93 16.8602 17.21C17.0502 17.4 17.1502 17.66 17.1502 17.92C17.1502 18.19 17.0502 18.44 16.8602 18.63C16.7702 18.72 16.6602 18.79 16.5402 18.84C16.4202 18.89 16.2902 18.92 16.1502 18.92Z" fill="#292D32"/>
</svg>
