<svg width="24" height="24" viewBox="0 0 24 24" fill="none" xmlns="http://www.w3.org/2000/svg">
<path d="M8 5.75C7.59 5.75 7.25 5.41 7.25 5V2C7.25 1.59 7.59 1.25 8 1.25C8.41 1.25 8.75 1.59 8.75 2V5C8.75 5.41 8.41 5.75 8 5.75Z" fill="#292D32"/>
<path d="M16 5.75C15.59 5.75 15.25 5.41 15.25 5V2C15.25 1.59 15.59 1.25 16 1.25C16.41 1.25 16.75 1.59 16.75 2V5C16.75 5.41 16.41 5.75 16 5.75Z" fill="#292D32"/>
<path d="M18.2 22.15C16.02 22.15 14.25 20.38 14.25 18.2C14.25 16.02 16.02 14.25 18.2 14.25C20.38 14.25 22.15 16.02 22.15 18.2C22.15 20.38 20.38 22.15 18.2 22.15ZM18.2 15.75C16.85 15.75 15.75 16.85 15.75 18.2C15.75 19.55 16.85 20.65 18.2 20.65C19.55 20.65 20.65 19.55 20.65 18.2C20.65 16.85 19.55 15.75 18.2 15.75Z" fill="#292D32"/>
<path d="M21.9995 22.75C21.8095 22.75 21.6195 22.68 21.4695 22.53L20.4695 21.53C20.1795 21.24 20.1795 20.76 20.4695 20.47C20.7595 20.18 21.2395 20.18 21.5295 20.47L22.5295 21.47C22.8195 21.76 22.8195 22.24 22.5295 22.53C22.3795 22.68 22.1895 22.75 21.9995 22.75Z" fill="#292D32"/>
<path d="M8.5 14.5C8.37 14.5 8.24 14.47 8.12 14.42C7.99 14.37 7.87999 14.3 7.78999 14.21C7.74999 14.16 7.7 14.11 7.67 14.06C7.63 14 7.6 13.94 7.58 13.88C7.55 13.82 7.53 13.76 7.52 13.7C7.51 13.63 7.5 13.56 7.5 13.5C7.5 13.24 7.60999 12.98 7.78999 12.79C7.87999 12.7 7.99 12.63 8.12 12.58C8.48 12.42 8.93001 12.51 9.21001 12.79C9.39001 12.98 9.5 13.24 9.5 13.5C9.5 13.56 9.49 13.63 9.48 13.7C9.47 13.76 9.45 13.82 9.42 13.88C9.4 13.94 9.37 14 9.33 14.06C9.29 14.11 9.25001 14.16 9.21001 14.21C9.02001 14.39 8.76 14.5 8.5 14.5Z" fill="#292D32"/>
<path d="M12 14.5C11.74 14.5 11.48 14.39 11.29 14.21C11.11 14.02 11 13.77 11 13.5C11 13.37 11.03 13.24 11.08 13.12C11.13 13 11.2 12.89 11.29 12.79C11.66 12.42 12.33 12.42 12.71 12.79C12.89 12.98 13 13.24 13 13.5C13 13.56 12.99 13.63 12.98 13.7C12.97 13.76 12.95 13.82 12.92 13.88C12.9 13.94 12.87 14 12.83 14.06C12.79 14.11 12.75 14.16 12.71 14.21C12.52 14.39 12.26 14.5 12 14.5Z" fill="#292D32"/>
<path d="M8.5 18C8.24 18 7.97999 17.89 7.78999 17.71C7.60999 17.52 7.5 17.26 7.5 17C7.5 16.87 7.53 16.74 7.58 16.62C7.63 16.49 7.69999 16.38 7.78999 16.29C8.15999 15.92 8.84001 15.92 9.21001 16.29C9.39001 16.48 9.5 16.74 9.5 17C9.5 17.26 9.39001 17.52 9.21001 17.71C9.02001 17.89 8.76 18 8.5 18Z" fill="#292D32"/>
<path d="M20.5 9.83997H3.5C3.09 9.83997 2.75 9.49997 2.75 9.08997C2.75 8.67997 3.09 8.33997 3.5 8.33997H20.5C20.91 8.33997 21.25 8.67997 21.25 9.08997C21.25 9.49997 20.91 9.83997 20.5 9.83997Z" fill="#292D32"/>
<path d="M13.37 22.75H8C4.35 22.75 2.25 20.65 2.25 17V8.5C2.25 4.85 4.35 2.75 8 2.75H16C19.65 2.75 21.75 4.85 21.75 8.5V13C21.75 13.41 21.41 13.75 21 13.75C20.59 13.75 20.25 13.41 20.25 13V8.5C20.25 5.64 18.86 4.25 16 4.25H8C5.14 4.25 3.75 5.64 3.75 8.5V17C3.75 19.86 5.14 21.25 8 21.25H13.37C13.78 21.25 14.12 21.59 14.12 22C14.12 22.41 13.78 22.75 13.37 22.75Z" fill="#292D32"/>
</svg>
