<svg width="24" height="24" viewBox="0 0 24 24" fill="none" xmlns="http://www.w3.org/2000/svg">
<path d="M12 22.75C6.07 22.75 1.25 17.93 1.25 12C1.25 6.07 6.07 1.25 12 1.25C17.93 1.25 22.75 6.07 22.75 12C22.75 17.93 17.93 22.75 12 22.75ZM12 2.75C6.9 2.75 2.75 6.9 2.75 12C2.75 17.1 6.9 21.25 12 21.25C17.1 21.25 21.25 17.1 21.25 12C21.25 6.9 17.1 2.75 12 2.75Z" fill="#292D32"/>
<path d="M9.89062 8.57996C9.48063 8.57996 9.14062 8.23996 9.14062 7.82996V5.82996C9.14062 5.41996 9.48063 5.07996 9.89062 5.07996C10.3006 5.07996 10.6406 5.41996 10.6406 5.82996V7.82996C10.6406 8.23996 10.3106 8.57996 9.89062 8.57996Z" fill="#292D32"/>
<path d="M14.1094 8.57996C13.6994 8.57996 13.3594 8.23996 13.3594 7.82996V5.82996C13.3594 5.41996 13.6994 5.07996 14.1094 5.07996C14.5194 5.07996 14.8594 5.41996 14.8594 5.82996V7.82996C14.8594 8.23996 14.5194 8.57996 14.1094 8.57996Z" fill="#292D32"/>
<path d="M16.4695 10.89H7.51953C7.10953 10.89 6.76953 10.55 6.76953 10.14C6.76953 9.73001 7.10953 9.39001 7.51953 9.39001H16.4695C16.8795 9.39001 17.2195 9.73001 17.2195 10.14C17.2195 10.55 16.8895 10.89 16.4695 10.89Z" fill="#292D32"/>
<path d="M13.5 18.42H10.5C7.75 18.42 5.75 16.42 5.75 13.67V10.67C5.75 7.91998 7.75 5.91998 10.5 5.91998H13.5C16.25 5.91998 18.25 7.91998 18.25 10.67V13.67C18.25 16.42 16.25 18.42 13.5 18.42ZM10.5 7.41998C8.25 7.41998 7.25 9.04998 7.25 10.67V13.67C7.25 15.29 8.25 16.92 10.5 16.92H13.5C15.75 16.92 16.75 15.29 16.75 13.67V10.67C16.75 9.04998 15.75 7.41998 13.5 7.41998H10.5Z" fill="#292D32"/>
</svg>
