<svg width="24" height="24" viewBox="0 0 24 24" fill="none" xmlns="http://www.w3.org/2000/svg">
<path d="M17.4501 22.75C16.3201 22.75 15.1301 22.48 13.9001 21.96C12.7001 21.45 11.4901 20.75 10.3101 19.9L9.87011 19.57C9.54011 19.32 9.48011 18.85 9.73011 18.52C9.98011 18.19 10.4501 18.13 10.7801 18.38L11.2001 18.69C12.2801 19.48 13.3901 20.12 14.4901 20.58C16.2001 21.31 17.8001 21.48 19.1201 20.93C19.6301 20.72 20.0801 20.4 20.4901 19.94C20.7201 19.69 20.9001 19.42 21.0501 19.1C21.1701 18.85 21.2301 18.59 21.2301 18.33C21.2301 18.17 21.2001 18.01 21.1201 17.83C21.1001 17.78 21.0301 17.66 20.8401 17.53L17.5201 15.17C17.3201 15.03 17.1401 14.93 16.9701 14.86C16.7101 14.76 16.5401 14.75 16.3201 14.89C16.1201 14.99 15.9401 15.14 15.7401 15.34L14.9801 16.09C14.5901 16.47 13.9901 16.56 13.5301 16.39C13.5101 16.38 13.4101 16.34 13.3901 16.33C13.3801 16.32 13.2701 16.28 13.2601 16.27C13.0401 16.16 12.8001 16 12.5201 15.8C12.1901 15.56 12.1101 15.09 12.3501 14.75C12.5901 14.41 13.0601 14.34 13.4001 14.58C13.6101 14.73 13.8001 14.85 13.9601 14.94L13.9501 15L14.6801 14.27C14.9901 13.96 15.2901 13.73 15.5801 13.58C16.1301 13.24 16.8301 13.18 17.5301 13.47C17.7901 13.58 18.0701 13.73 18.3701 13.94L21.6901 16.3C22.0501 16.55 22.3301 16.87 22.4901 17.25C22.6401 17.63 22.7101 17.98 22.7101 18.33C22.7101 18.81 22.6001 19.29 22.3901 19.74C22.1801 20.19 21.9201 20.58 21.5901 20.94C21.0201 21.57 20.4001 22.02 19.6801 22.31C18.9901 22.6 18.2401 22.75 17.4501 22.75ZM13.9501 15.01L13.7901 15.69L14.0601 14.99C14.0201 14.98 13.9701 14.99 13.9501 15.01Z" fill="#292D32"/>
<path d="M7.47 17.24C7.28 17.24 7.08 17.17 6.94 17.02C5.89 15.96 4.92 14.83 4.08 13.66C3.22 12.46 2.53 11.27 2.04 10.1C1.51 8.87 1.25 7.67 1.25 6.54C1.25 5.76 1.39 5.02 1.66 4.33C1.95 3.61 2.39 2.96 3 2.39C3.77 1.64 4.65 1.25 5.59 1.25C5.98 1.25 6.38 1.34 6.72 1.5C7.11 1.68 7.44 1.95 7.68 2.31L10 5.58C10.21 5.87 10.37 6.15 10.48 6.43C10.61 6.73 10.68 7.03 10.68 7.32C10.68 7.7 10.57 8.07 10.36 8.42C10.21 8.69 9.98 8.98 9.69 9.27L9.01 9.98C9.02 10.01 9.03 10.03 9.04 10.05C9.16 10.26 9.4 10.62 9.86 11.16C10.34 11.72 10.81 12.22 11.27 12.7C11.56 13 11.56 13.47 11.26 13.76C10.96 14.05 10.49 14.05 10.2 13.75C9.71 13.25 9.23 12.72 8.72 12.13C8.25 11.58 7.91 11.11 7.7 10.72C7.68 10.68 7.66 10.64 7.65 10.6L7.58 10.43C7.52 10.21 7.5 10.08 7.5 9.94C7.5 9.58 7.63 9.26 7.88 9.01L8.63 8.23C8.83 8.03 8.98 7.84 9.08 7.67C9.16 7.54 9.19 7.43 9.19 7.33C9.19 7.25 9.16 7.13 9.11 7.01C9.03 6.82 8.92 6.65 8.78 6.45L6.46 3.17C6.36 3.03 6.24 2.93 6.09 2.86C5.94 2.79 5.77 2.75 5.59 2.75C5.04 2.75 4.53 2.99 4.04 3.47C3.59 3.9 3.26 4.37 3.06 4.88C2.85 5.4 2.75 5.95 2.75 6.54C2.75 7.47 2.97 8.48 3.41 9.52C3.86 10.58 4.49 11.68 5.29 12.78C6.09 13.88 7 14.95 8 15.96C8.29 16.25 8.29 16.73 8 17.02C7.85 17.17 7.66 17.24 7.47 17.24Z" fill="#292D32"/>
<path d="M2.00043 22.7499C1.81043 22.7499 1.62043 22.6799 1.47043 22.5299C1.18043 22.2399 1.18043 21.7599 1.47043 21.4699L21.4704 1.46994C21.7604 1.17994 22.2404 1.17994 22.5304 1.46994C22.8204 1.75994 22.8204 2.23994 22.5304 2.52994L2.53043 22.5299C2.38043 22.6799 2.19043 22.7499 2.00043 22.7499Z" fill="#292D32"/>
</svg>
