<svg width="24" height="24" viewBox="0 0 24 24" fill="none" xmlns="http://www.w3.org/2000/svg">
<path d="M22 10.75H2C1.59 10.75 1.25 10.41 1.25 10C1.25 9.59 1.59 9.25 2 9.25H22C22.41 9.25 22.75 9.59 22.75 10C22.75 10.41 22.41 10.75 22 10.75Z" fill="#292D32"/>
<path d="M11.5502 21.25H6.44025C2.46025 21.25 1.24023 20.05 1.24023 16.11V7.89001C1.24023 4.74001 1.91022 2.99001 5.48022 2.78001C5.78022 2.77001 6.10025 2.76001 6.44025 2.76001H17.5502C21.5302 2.76001 22.7502 3.96001 22.7502 7.90001V12.31C22.7502 12.72 22.4102 13.06 22.0002 13.06C21.5902 13.06 21.2502 12.72 21.2502 12.31V7.90001C21.2502 4.81001 20.7002 4.26001 17.5502 4.26001H6.44025C6.12025 4.26001 5.83023 4.27001 5.55023 4.28001C3.38023 4.41001 2.74023 4.90001 2.74023 7.90001V16.12C2.74023 19.21 3.29025 19.76 6.44025 19.76H11.5502C11.9602 19.76 12.3002 20.1 12.3002 20.51C12.3002 20.92 11.9702 21.25 11.5502 21.25Z" fill="#292D32"/>
<path d="M10 16.75H6C5.59 16.75 5.25 16.41 5.25 16C5.25 15.59 5.59 15.25 6 15.25H10C10.41 15.25 10.75 15.59 10.75 16C10.75 16.41 10.41 16.75 10 16.75Z" fill="#292D32"/>
<path d="M18 22.75C16.34 22.75 14.78 21.87 13.94 20.44C13.49 19.72 13.25 18.87 13.25 18C13.25 15.38 15.38 13.25 18 13.25C20.62 13.25 22.75 15.38 22.75 18C22.75 18.87 22.51 19.72 22.06 20.45C21.22 21.87 19.66 22.75 18 22.75ZM18 14.75C16.21 14.75 14.75 16.21 14.75 18C14.75 18.59 14.91 19.17 15.22 19.67C15.8 20.65 16.87 21.25 18 21.25C19.13 21.25 20.2 20.65 20.78 19.68C21.09 19.17 21.25 18.6 21.25 18C21.25 16.21 19.79 14.75 18 14.75Z" fill="#292D32"/>
<path d="M17.4289 19.7401C17.2389 19.7401 17.049 19.6701 16.899 19.5201L15.9089 18.5301C15.6189 18.2401 15.6189 17.7601 15.9089 17.4701C16.1989 17.1801 16.6789 17.1801 16.9689 17.4701L17.4489 17.9501L19.0489 16.4701C19.3489 16.1901 19.8289 16.2101 20.1089 16.5101C20.3889 16.8101 20.3689 17.2901 20.0689 17.5701L17.9389 19.54C17.7889 19.67 17.6089 19.7401 17.4289 19.7401Z" fill="#292D32"/>
</svg>
