<svg width="24" height="24" viewBox="0 0 24 24" fill="none" xmlns="http://www.w3.org/2000/svg">
<path d="M13.75 10.5C12.92 10.5 12.25 9.83 12.25 9C12.25 8.17 12.92 7.5 13.75 7.5C14.58 7.5 15.25 8.17 15.25 9C15.25 9.83 14.58 10.5 13.75 10.5ZM13.75 8.5C13.47 8.5 13.25 8.72 13.25 9C13.25 9.28 13.47 9.5 13.75 9.5C14.03 9.5 14.25 9.28 14.25 9C14.25 8.72 14.03 8.5 13.75 8.5Z" fill="black"/>
<path d="M10.25 10.5C9.42 10.5 8.75 9.83 8.75 9C8.75 8.17 9.42 7.5 10.25 7.5C11.08 7.5 11.75 8.17 11.75 9C11.75 9.83 11.08 10.5 10.25 10.5ZM10.25 8.5C9.97 8.5 9.75 8.72 9.75 9C9.75 9.28 9.97 9.5 10.25 9.5C10.53 9.5 10.75 9.28 10.75 9C10.75 8.72 10.53 8.5 10.25 8.5Z" fill="black"/>
<path d="M15.5 13.5C14.67 13.5 14 12.83 14 12C14 11.17 14.67 10.5 15.5 10.5C16.33 10.5 17 11.17 17 12C17 12.83 16.33 13.5 15.5 13.5ZM15.5 11.5C15.22 11.5 15 11.72 15 12C15 12.28 15.22 12.5 15.5 12.5C15.78 12.5 16 12.28 16 12C16 11.72 15.78 11.5 15.5 11.5Z" fill="black"/>
<path d="M17.1504 10.25C16.4604 10.25 15.9004 9.69 15.9004 9C15.9004 8.31 16.4604 7.75 17.1504 7.75C17.8404 7.75 18.4004 8.31 18.4004 9C18.4004 9.69 17.8404 10.25 17.1504 10.25ZM17.1504 8.75C17.0104 8.75 16.9004 8.86 16.9004 9C16.9004 9.28 17.4004 9.28 17.4004 9C17.4004 8.86 17.2904 8.75 17.1504 8.75Z" fill="black"/>
<path d="M17.1504 16.25C16.4604 16.25 15.9004 15.69 15.9004 15C15.9004 14.31 16.4604 13.75 17.1504 13.75C17.8404 13.75 18.4004 14.31 18.4004 15C18.4004 15.69 17.8404 16.25 17.1504 16.25ZM17.1504 14.75C17.0104 14.75 16.9004 14.86 16.9004 15C16.9004 15.28 17.4004 15.28 17.4004 15C17.4004 14.86 17.2904 14.75 17.1504 14.75Z" fill="black"/>
<path d="M19.75 13.25C19.06 13.25 18.5 12.69 18.5 12C18.5 11.31 19.06 10.75 19.75 10.75C20.44 10.75 21 11.31 21 12C21 12.69 20.44 13.25 19.75 13.25ZM19.75 11.75C19.61 11.75 19.5 11.86 19.5 12C19.5 12.28 20 12.28 20 12C20 11.86 19.89 11.75 19.75 11.75Z" fill="black"/>
<path d="M6.7998 10.25C6.1098 10.25 5.5498 9.69 5.5498 9C5.5498 8.31 6.1098 7.75 6.7998 7.75C7.4898 7.75 8.0498 8.31 8.0498 9C8.0498 9.69 7.4898 10.25 6.7998 10.25ZM6.7998 8.75C6.6598 8.75 6.5498 8.86 6.5498 9C6.5498 9.28 7.0498 9.28 7.0498 9C7.0498 8.86 6.9398 8.75 6.7998 8.75Z" fill="black"/>
<path d="M6.7998 16.25C6.1098 16.25 5.5498 15.69 5.5498 15C5.5498 14.31 6.1098 13.75 6.7998 13.75C7.4898 13.75 8.0498 14.31 8.0498 15C8.0498 15.69 7.4898 16.25 6.7998 16.25ZM6.7998 14.75C6.6598 14.75 6.5498 14.86 6.5498 15C6.5498 15.28 7.0498 15.28 7.0498 15C7.0498 14.86 6.9398 14.75 6.7998 14.75Z" fill="black"/>
<path d="M4.2002 13.25C3.5102 13.25 2.9502 12.69 2.9502 12C2.9502 11.31 3.5102 10.75 4.2002 10.75C4.8902 10.75 5.4502 11.31 5.4502 12C5.4502 12.69 4.8902 13.25 4.2002 13.25ZM4.2002 11.75C4.0602 11.75 3.9502 11.86 3.9502 12C3.9502 12.28 4.4502 12.28 4.4502 12C4.4502 11.86 4.3402 11.75 4.2002 11.75Z" fill="black"/>
<path d="M15.9004 6.44995C15.2104 6.44995 14.6504 5.88995 14.6504 5.19995C14.6504 4.50995 15.2104 3.94995 15.9004 3.94995C16.5904 3.94995 17.1504 4.50995 17.1504 5.19995C17.1504 5.88995 16.5904 6.44995 15.9004 6.44995ZM15.9004 4.94995C15.7604 4.94995 15.6504 5.05995 15.6504 5.19995C15.6504 5.47995 16.1504 5.47995 16.1504 5.19995C16.1504 5.05995 16.0404 4.94995 15.9004 4.94995Z" fill="black"/>
<path d="M8.09961 6.44995C7.40961 6.44995 6.84961 5.88995 6.84961 5.19995C6.84961 4.50995 7.40961 3.94995 8.09961 3.94995C8.78961 3.94995 9.34961 4.50995 9.34961 5.19995C9.34961 5.88995 8.78961 6.44995 8.09961 6.44995ZM8.09961 4.94995C7.95961 4.94995 7.84961 5.05995 7.84961 5.19995C7.84961 5.47995 8.34961 5.47995 8.34961 5.19995C8.34961 5.05995 8.23961 4.94995 8.09961 4.94995Z" fill="black"/>
<path d="M12.0498 7.25C11.3598 7.25 10.7998 6.69 10.7998 6C10.7998 5.31 11.3598 4.75 12.0498 4.75C12.7398 4.75 13.2998 5.31 13.2998 6C13.2998 6.69 12.7398 7.25 12.0498 7.25ZM12.0498 5.75C11.9098 5.75 11.7998 5.86 11.7998 6C11.7998 6.28 12.2998 6.28 12.2998 6C12.2998 5.86 12.1898 5.75 12.0498 5.75Z" fill="black"/>
<path d="M15.9004 20.25C15.2104 20.25 14.6504 19.69 14.6504 19C14.6504 18.31 15.2104 17.75 15.9004 17.75C16.5904 17.75 17.1504 18.31 17.1504 19C17.1504 19.69 16.5904 20.25 15.9004 20.25ZM15.9004 18.75C15.7604 18.75 15.6504 18.86 15.6504 19C15.6504 19.28 16.1504 19.28 16.1504 19C16.1504 18.86 16.0404 18.75 15.9004 18.75Z" fill="black"/>
<path d="M8.09961 20.25C7.40961 20.25 6.84961 19.69 6.84961 19C6.84961 18.31 7.40961 17.75 8.09961 17.75C8.78961 17.75 9.34961 18.31 9.34961 19C9.34961 19.69 8.78961 20.25 8.09961 20.25ZM8.09961 18.75C7.95961 18.75 7.84961 18.86 7.84961 19C7.84961 19.28 8.34961 19.28 8.34961 19C8.34961 18.86 8.23961 18.75 8.09961 18.75Z" fill="black"/>
<path d="M12.0498 19.45C11.3598 19.45 10.7998 18.89 10.7998 18.2C10.7998 17.51 11.3598 16.95 12.0498 16.95C12.7398 16.95 13.2998 17.51 13.2998 18.2C13.2998 18.89 12.7398 19.45 12.0498 19.45ZM12.0498 17.95C11.9098 17.95 11.7998 18.06 11.7998 18.2C11.7998 18.48 12.2998 18.48 12.2998 18.2C12.2998 18.06 12.1898 17.95 12.0498 17.95Z" fill="black"/>
<path d="M8.5 13.5C7.67 13.5 7 12.83 7 12C7 11.17 7.67 10.5 8.5 10.5C9.33 10.5 10 11.17 10 12C10 12.83 9.33 13.5 8.5 13.5ZM8.5 11.5C8.22 11.5 8 11.72 8 12C8 12.28 8.22 12.5 8.5 12.5C8.78 12.5 9 12.28 9 12C9 11.72 8.78 11.5 8.5 11.5Z" fill="black"/>
<path d="M10.25 16.5C9.42 16.5 8.75 15.83 8.75 15C8.75 14.17 9.42 13.5 10.25 13.5C11.08 13.5 11.75 14.17 11.75 15C11.75 15.83 11.08 16.5 10.25 16.5ZM10.25 14.5C9.97 14.5 9.75 14.72 9.75 15C9.75 15.28 9.97 15.5 10.25 15.5C10.53 15.5 10.75 15.28 10.75 15C10.75 14.72 10.53 14.5 10.25 14.5Z" fill="black"/>
<path d="M13.75 16.5C12.92 16.5 12.25 15.83 12.25 15C12.25 14.17 12.92 13.5 13.75 13.5C14.58 13.5 15.25 14.17 15.25 15C15.25 15.83 14.58 16.5 13.75 16.5ZM13.75 14.5C13.47 14.5 13.25 14.72 13.25 15C13.25 15.28 13.47 15.5 13.75 15.5C14.03 15.5 14.25 15.28 14.25 15C14.25 14.72 14.03 14.5 13.75 14.5Z" fill="black"/>
<path d="M12.0002 3.44995C11.4402 3.44995 10.9902 2.99995 10.9902 2.44995C10.9902 1.89995 11.4402 1.44995 11.9902 1.44995C12.5402 1.44995 12.9902 1.89995 12.9902 2.44995C12.9902 2.99995 12.5602 3.44995 12.0002 3.44995Z" fill="black"/>
<path d="M17.2502 3.6001C16.8302 3.6001 16.4902 3.2601 16.4902 2.8501C16.4902 2.4401 16.8302 2.1001 17.2402 2.1001C17.6502 2.1001 18.0002 2.4401 18.0002 2.8501C18.0002 3.2601 17.6702 3.6001 17.2502 3.6001Z" fill="black"/>
<path d="M6.75 3.6001C6.34 3.6001 6 3.2601 6 2.8501C6 2.4401 6.33 2.1001 6.75 2.1001H6.76001C7.17001 2.1001 7.51001 2.4401 7.51001 2.8501C7.51001 3.2601 7.17 3.6001 6.75 3.6001Z" fill="black"/>
<path d="M12.0002 22.5C11.4402 22.5 10.9902 22.05 10.9902 21.5C10.9902 20.95 11.4402 20.5 11.9902 20.5C12.5402 20.5 12.9902 20.95 12.9902 21.5C12.9902 22.05 12.5602 22.5 12.0002 22.5Z" fill="black"/>
<path d="M17.2502 21.8501C16.8302 21.8501 16.4902 21.5101 16.4902 21.1001C16.4902 20.6901 16.8302 20.3501 17.2402 20.3501C17.6502 20.3501 18.0002 20.6901 18.0002 21.1001C18.0002 21.5101 17.6702 21.8501 17.2502 21.8501Z" fill="black"/>
<path d="M6.75 21.8501C6.34 21.8501 6 21.5101 6 21.1001C6 20.6901 6.33 20.3501 6.75 20.3501H6.76001C7.17001 20.3501 7.51001 20.6901 7.51001 21.1001C7.51001 21.5101 7.17 21.8501 6.75 21.8501Z" fill="black"/>
<path d="M1.5498 13C0.999805 13 0.549805 12.56 0.549805 12C0.549805 11.45 0.999805 11 1.5498 11C2.0998 11 2.5498 11.45 2.5498 12C2.5498 12.55 2.0998 13 1.5498 13Z" fill="black"/>
<path d="M3.75 17.75C3.34 17.75 3 17.42 3 17V16.99C3 16.58 3.34 16.24 3.75 16.24C4.16 16.24 4.5 16.58 4.5 16.99C4.5 17.4 4.16 17.75 3.75 17.75Z" fill="black"/>
<path d="M3.75 7.76001C3.34 7.76001 3 7.42001 3 7.01001C3 6.60001 3.34 6.26001 3.75 6.26001C4.16 6.26001 4.5 6.59001 4.5 7.00001V7.01001C4.5 7.42001 4.16 7.76001 3.75 7.76001Z" fill="black"/>
<path d="M22.5 13C21.95 13 21.5 12.56 21.5 12C21.5 11.45 21.95 11 22.5 11C23.05 11 23.5 11.45 23.5 12C23.5 12.55 23.05 13 22.5 13Z" fill="black"/>
<path d="M20.2998 17.75C19.8898 17.75 19.5498 17.42 19.5498 17V16.99C19.5498 16.58 19.8898 16.24 20.2998 16.24C20.7098 16.24 21.0498 16.58 21.0498 16.99C21.0498 17.4 20.7098 17.75 20.2998 17.75Z" fill="black"/>
<path d="M20.2998 7.76001C19.8898 7.76001 19.5498 7.42001 19.5498 7.01001C19.5498 6.60001 19.8898 6.26001 20.2998 6.26001C20.7098 6.26001 21.0498 6.59001 21.0498 7.01001V7.02001C21.0498 7.42001 20.7098 7.76001 20.2998 7.76001Z" fill="black"/>
</svg>
