<svg width="24" height="24" viewBox="0 0 24 24" fill="none" xmlns="http://www.w3.org/2000/svg">
<path d="M12 22.43C11.52 22.43 11.05 22.32 10.66 22.11L3.66 18.2199C2.85 17.7699 2.25 16.74 2.25 15.82V8.17995C2.25 7.25995 2.86001 6.21995 3.67001 5.77995L10.67 1.88995C11.43 1.46995 12.58 1.46995 13.34 1.88995L20.34 5.77995C21.15 6.22995 21.75 7.25995 21.75 8.17995V15.83C21.75 16.75 21.14 17.7899 20.33 18.2299L13.33 22.12C12.96 22.33 12.48 22.43 12 22.43ZM12 3.06995C11.77 3.06995 11.55 3.10995 11.39 3.19995L4.39001 7.08995C4.06001 7.26995 3.75 7.79995 3.75 8.17995V15.83C3.75 16.21 4.06001 16.74 4.39001 16.92L11.39 20.8099C11.7 20.9799 12.3 20.9799 12.6 20.8099L19.6 16.92C19.93 16.74 20.24 16.21 20.24 15.83V8.17995C20.24 7.79995 19.93 7.26995 19.6 7.08995L12.6 3.19995C12.45 3.10995 12.23 3.06995 12 3.06995Z" fill="black"/>
</svg>
