<svg width="24" height="24" viewBox="0 0 24 24" fill="none" xmlns="http://www.w3.org/2000/svg">
<path d="M17.2299 21.52C17.0399 21.52 16.8499 21.45 16.6999 21.3C16.4099 21.01 16.4099 20.53 16.6999 20.24L20.2399 16.7C20.5299 16.41 21.0099 16.41 21.2999 16.7C21.5899 16.99 21.5899 17.47 21.2999 17.76L17.7599 21.3C17.6199 21.44 17.4199 21.52 17.2299 21.52Z" fill="#292D32"/>
<path d="M20.7699 21.52C20.5799 21.52 20.3899 21.45 20.2399 21.3L16.6999 17.76C16.4099 17.47 16.4099 16.99 16.6999 16.7C16.9899 16.41 17.4699 16.41 17.7599 16.7L21.2999 20.24C21.5899 20.53 21.5899 21.01 21.2999 21.3C21.1499 21.44 20.9599 21.52 20.7699 21.52Z" fill="#292D32"/>
<path d="M7 14.25C6.59 14.25 6.25 13.91 6.25 13.5V10.5C6.25 10.09 6.59 9.75 7 9.75C7.41 9.75 7.75 10.09 7.75 10.5V13.5C7.75 13.91 7.41 14.25 7 14.25Z" fill="#292D32"/>
<path d="M12 14.25C11.59 14.25 11.25 13.91 11.25 13.5V10.5C11.25 10.09 11.59 9.75 12 9.75C12.41 9.75 12.75 10.09 12.75 10.5V13.5C12.75 13.91 12.41 14.25 12 14.25Z" fill="#292D32"/>
<path d="M17 14.25C16.59 14.25 16.25 13.91 16.25 13.5V10.5C16.25 10.09 16.59 9.75 17 9.75C17.41 9.75 17.75 10.09 17.75 10.5V13.5C17.75 13.91 17.41 14.25 17 14.25Z" fill="#292D32"/>
<path d="M13 22.75H9C3.57 22.75 1.25 20.43 1.25 15V9C1.25 3.57 3.57 1.25 9 1.25H15C20.43 1.25 22.75 3.57 22.75 9V13C22.75 13.41 22.41 13.75 22 13.75C21.59 13.75 21.25 13.41 21.25 13V9C21.25 4.39 19.61 2.75 15 2.75H9C4.39 2.75 2.75 4.39 2.75 9V15C2.75 19.61 4.39 21.25 9 21.25H13C13.41 21.25 13.75 21.59 13.75 22C13.75 22.41 13.41 22.75 13 22.75Z" fill="#292D32"/>
</svg>
