<svg width="24" height="24" viewBox="0 0 24 24" fill="none" xmlns="http://www.w3.org/2000/svg">
<path d="M21 22.75H3C2.59 22.75 2.25 22.41 2.25 22C2.25 21.59 2.59 21.25 3 21.25H21C21.41 21.25 21.75 21.59 21.75 22C21.75 22.41 21.41 22.75 21 22.75Z" fill="#292D32"/>
<path d="M5.59998 19.75H4C3.04 19.75 2.25 18.96 2.25 18V9.38C2.25 8.42 3.04 7.63 4 7.63H5.59998C6.55998 7.63 7.34998 8.42 7.34998 9.38V18C7.34998 18.96 6.55998 19.75 5.59998 19.75ZM4 9.12C3.86 9.12 3.75 9.23 3.75 9.37V18C3.75 18.14 3.86 18.25 4 18.25H5.59998C5.73998 18.25 5.84998 18.14 5.84998 18V9.38C5.84998 9.24 5.73998 9.13 5.59998 9.13H4V9.12Z" fill="#292D32"/>
<path d="M12.8002 19.7499H11.2002C10.2402 19.7499 9.4502 18.9599 9.4502 17.9999V6.18994C9.4502 5.22994 10.2402 4.43994 11.2002 4.43994H12.8002C13.7602 4.43994 14.5502 5.22994 14.5502 6.18994V17.9999C14.5502 18.9599 13.7602 19.7499 12.8002 19.7499ZM11.2002 5.93994C11.0602 5.93994 10.9502 6.04994 10.9502 6.18994V17.9999C10.9502 18.1399 11.0602 18.2499 11.2002 18.2499H12.8002C12.9402 18.2499 13.0502 18.1399 13.0502 17.9999V6.18994C13.0502 6.04994 12.9402 5.93994 12.8002 5.93994H11.2002Z" fill="#292D32"/>
<path d="M20.0004 19.75H18.4004C17.4404 19.75 16.6504 18.96 16.6504 18V3C16.6504 2.04 17.4404 1.25 18.4004 1.25H20.0004C20.9604 1.25 21.7504 2.04 21.7504 3V18C21.7504 18.96 20.9604 19.75 20.0004 19.75ZM18.4004 2.75C18.2604 2.75 18.1504 2.86 18.1504 3V18C18.1504 18.14 18.2604 18.25 18.4004 18.25H20.0004C20.1404 18.25 20.2504 18.14 20.2504 18V3C20.2504 2.86 20.1404 2.75 20.0004 2.75H18.4004Z" fill="#292D32"/>
</svg>
