<svg width="24" height="24" viewBox="0 0 24 24" fill="none" xmlns="http://www.w3.org/2000/svg">
<path d="M13.0495 19.42C12.5095 19.42 11.9395 19.37 11.3195 19.27L6.6295 18.53C5.1495 18.3 4.0095 17.89 3.1595 17.29C0.969499 15.77 1.0995 13.16 1.3795 11.33L2.1195 6.63999C2.7995 2.33999 5.0195 0.72999 9.3195 1.39999L14.0095 2.13999C16.2195 2.48999 19.1895 3.37999 19.3795 7.10999C19.4195 7.74999 19.3795 8.47999 19.2395 9.33999L18.5095 14.03C17.9295 17.7 16.2195 19.42 13.0495 19.42ZM7.5295 2.74999C5.1495 2.74999 4.0695 3.95999 3.5995 6.87999L2.8595 11.57C2.3995 14.52 3.2395 15.52 4.0195 16.07C4.6795 16.54 5.6095 16.86 6.8595 17.05L11.5495 17.79C15.0395 18.34 16.4795 17.29 17.0295 13.79L17.7595 9.09999C17.8795 8.34999 17.9195 7.71999 17.8795 7.18999V7.17999C17.7695 5.07999 16.5795 4.04999 13.7695 3.60999L9.0895 2.87999C8.5095 2.78999 7.9995 2.74999 7.5295 2.74999Z" fill="#292D32"/>
<path d="M14.6793 22.75C13.8293 22.75 12.8693 22.57 11.7593 22.2L7.24928 20.7C4.67928 19.85 3.28928 18.63 2.86928 16.85C2.79928 16.55 2.91928 16.23 3.17928 16.06C3.43928 15.89 3.77928 15.89 4.02928 16.07C4.68928 16.54 5.60928 16.86 6.85928 17.05L11.5493 17.79C15.0393 18.34 16.4793 17.29 17.0293 13.79L17.7593 9.10001C17.8793 8.35001 17.9193 7.72001 17.8793 7.19001C17.8693 6.93001 17.9993 6.67001 18.2293 6.52001C18.4593 6.37001 18.7493 6.36001 18.9893 6.49001C21.6693 7.92001 22.3793 10.21 21.2193 13.71L19.7193 18.22C19.0093 20.34 18.0793 21.64 16.7793 22.29C16.1493 22.6 15.4593 22.75 14.6793 22.75ZM5.72928 18.36C6.20928 18.68 6.84928 18.99 7.71928 19.28L12.2293 20.78C13.9493 21.35 15.1793 21.4 16.0993 20.95C17.0193 20.49 17.7193 19.47 18.2893 17.75L19.7893 13.24C20.6093 10.76 20.2893 9.44001 19.3393 8.55001C19.3193 8.80001 19.2793 9.06001 19.2393 9.34001L18.5093 14.03C17.8293 18.33 15.6093 19.94 11.3093 19.28L6.61928 18.54C6.30928 18.48 6.00928 18.42 5.72928 18.36Z" fill="#292D32"/>
<path d="M8.24 9.71999C6.87 9.71999 5.75 8.59999 5.75 7.22999C5.75 5.85999 6.87 4.73999 8.24 4.73999C9.61 4.73999 10.73 5.85999 10.73 7.22999C10.73 8.59999 9.61 9.71999 8.24 9.71999ZM8.24 6.24999C7.7 6.24999 7.25 6.68999 7.25 7.23999C7.25 7.78999 7.69 8.22999 8.24 8.22999C8.78 8.22999 9.23 7.78999 9.23 7.23999C9.23 6.68999 8.78 6.24999 8.24 6.24999Z" fill="#292D32"/>
</svg>
