<svg width="24" height="24" viewBox="0 0 24 24" fill="none" xmlns="http://www.w3.org/2000/svg">
<path d="M16.6495 20.75C16.6395 20.75 16.6195 20.75 16.6095 20.75C16.1995 20.75 15.8595 20.41 15.8695 19.99C15.8695 19.58 16.2195 19.21 16.6295 19.25C17.7895 19.25 18.8895 18.83 19.7395 18.05C21.2895 16.69 21.3995 14.75 20.9795 13.38C20.5595 12.01 19.3895 10.46 17.3695 10.2C17.0395 10.16 16.7795 9.91001 16.7195 9.58001C16.3295 7.19001 15.0295 5.54001 13.0895 4.94001C11.0695 4.32001 8.73949 4.93001 7.27949 6.46001C5.85949 7.95001 5.52949 10.02 6.34949 12.31C6.48949 12.7 6.28949 13.13 5.89949 13.27C5.50949 13.41 5.07949 13.21 4.93949 12.82C3.92949 10.01 4.38949 7.32001 6.19949 5.43001C8.04949 3.50001 10.9895 2.73001 13.5395 3.52001C15.8695 4.24001 17.5195 6.16001 18.1095 8.82001C20.1495 9.28001 21.7795 10.82 22.4295 12.95C23.1395 15.27 22.4995 17.65 20.7595 19.17C19.6095 20.19 18.1595 20.75 16.6495 20.75Z" fill="#292D32"/>
<path d="M5.57008 20.75C5.55008 20.75 5.53008 20.75 5.52008 20.75C2.64008 20.55 1.33008 18.29 1.33008 16.28C1.33008 14.27 2.64008 12.02 5.52008 11.81C6.28008 11.82 6.99008 11.97 7.63008 12.29C8.00008 12.48 8.14008 12.93 7.96008 13.3C7.77008 13.67 7.32008 13.81 6.95008 13.63C6.53008 13.41 6.05008 13.31 5.59008 13.31C3.70008 13.45 2.84008 14.9 2.84008 16.28C2.84008 17.66 3.70008 19.11 5.63008 19.25C6.04008 19.28 6.35008 19.64 6.33008 20.05C6.29008 20.45 5.96008 20.75 5.57008 20.75Z" fill="#292D32"/>
<path d="M15.8206 10.64C15.5406 10.64 15.2806 10.49 15.1506 10.22C14.9606 9.84997 15.1106 9.39997 15.4906 9.20997C16.1006 8.89997 16.7906 8.72997 17.4706 8.71997H17.4806C17.8906 8.71997 18.2206 9.04997 18.2306 9.45997C18.2406 9.86997 17.9106 10.22 17.4906 10.22C17.0306 10.23 16.5706 10.34 16.1506 10.55C16.0406 10.62 15.9306 10.64 15.8206 10.64Z" fill="#292D32"/>
<path d="M10.6107 22.62C10.4807 22.62 10.3407 22.6 10.2107 22.55C9.77074 22.38 9.48073 21.97 9.48073 21.5V19.92H9.23073C8.48073 19.92 8.21074 19.48 8.12074 19.3C8.04074 19.1 7.90074 18.6 8.39074 18.05L10.8407 15.26C11.1507 14.91 11.6407 14.78 12.0807 14.95C12.5207 15.12 12.8107 15.53 12.8107 16V17.58H13.0607C13.8007 17.58 14.0807 18.02 14.1707 18.2C14.2607 18.38 14.4007 18.88 13.9107 19.44L11.4607 22.23C11.2307 22.48 10.9207 22.62 10.6107 22.62ZM10.0607 18.41H10.2307C10.6407 18.41 10.9807 18.75 10.9807 19.16V20.49L12.2207 19.08H12.0507C11.6407 19.08 11.3007 18.74 11.3007 18.33V17L10.0607 18.41Z" fill="#292D32"/>
</svg>
