<svg width="24" height="24" viewBox="0 0 24 24" fill="none" xmlns="http://www.w3.org/2000/svg">
<path d="M7.46027 19.34H5.54022C2.60022 19.13 1.28027 16.87 1.28027 14.86C1.28027 12.85 2.60023 10.58 5.49023 10.38C5.90023 10.34 6.26022 10.66 6.29022 11.08C6.32022 11.49 6.01027 11.85 5.59027 11.88C3.65027 12.02 2.78027 13.48 2.78027 14.87C2.78027 16.26 3.65027 17.72 5.59027 17.86H7.46027C7.87027 17.86 8.21027 18.2 8.21027 18.61C8.21027 19.02 7.87027 19.34 7.46027 19.34Z" fill="#292D32"/>
<path d="M16.6699 19.34C16.6499 19.34 16.6399 19.34 16.6199 19.34C16.2099 19.34 15.8299 19 15.8299 18.59C15.8299 18.16 16.1499 17.84 16.5699 17.84C17.7999 17.84 18.8999 17.41 19.7599 16.64C21.3199 15.28 21.4199 13.32 20.9999 11.94C20.5799 10.57 19.4099 9 17.3699 8.75C17.0399 8.71 16.7799 8.46001 16.7199 8.13001C16.3199 5.73001 15.0299 4.07 13.0699 3.47C11.0499 2.84 8.68988 3.46 7.21988 5C5.78988 6.49 5.45989 8.58001 6.28989 10.88C6.42989 11.27 6.22994 11.7 5.83994 11.84C5.44994 11.98 5.01992 11.78 4.87992 11.39C3.86992 8.57 4.32993 5.87 6.13993 3.97C7.98993 2.03 10.9599 1.26 13.5099 2.04C15.8499 2.76 17.4999 4.69 18.0999 7.37C20.1399 7.83 21.7799 9.38001 22.4299 11.52C23.1399 13.85 22.4999 16.25 20.7499 17.77C19.6399 18.77 18.1899 19.34 16.6699 19.34Z" fill="#292D32"/>
<path d="M12 22.28C9.99 22.28 8.11002 21.21 7.08002 19.48C6.97002 19.31 6.86002 19.11 6.77002 18.89C6.43002 18.18 6.25 17.37 6.25 16.53C6.25 13.36 8.83 10.78 12 10.78C15.17 10.78 17.75 13.36 17.75 16.53C17.75 17.38 17.57 18.18 17.21 18.92C17.13 19.11 17.02 19.31 16.9 19.5C15.89 21.21 14.01 22.28 12 22.28ZM12 12.28C9.66 12.28 7.75 14.19 7.75 16.53C7.75 17.15 7.88 17.73 8.13 18.26C8.21 18.43 8.27999 18.57 8.35999 18.7C9.11999 19.99 10.51 20.78 11.99 20.78C13.47 20.78 14.86 19.99 15.61 18.72C15.7 18.57 15.78 18.43 15.84 18.29C16.11 17.74 16.24 17.16 16.24 16.54C16.25 14.19 14.34 12.28 12 12.28Z" fill="#292D32"/>
<path d="M11.4299 18.27C11.2399 18.27 11.0499 18.2 10.8999 18.05L9.90988 17.06C9.61988 16.77 9.61988 16.29 9.90988 16C10.1999 15.71 10.6799 15.71 10.9699 16L11.4499 16.48L13.0499 15C13.3599 14.72 13.8299 14.74 14.1099 15.04C14.3899 15.34 14.3699 15.82 14.0699 16.1L11.9399 18.07C11.7899 18.2 11.6099 18.27 11.4299 18.27Z" fill="#292D32"/>
</svg>
