<svg width="24" height="24" viewBox="0 0 24 24" fill="none" xmlns="http://www.w3.org/2000/svg">
<path d="M4.29008 12.37C3.98008 12.37 3.69011 12.18 3.58011 11.87C2.57011 9.04996 3.03012 6.33998 4.84012 4.44998C6.69012 2.50998 9.65012 1.73996 12.2101 2.52996C14.5501 3.24996 16.2001 5.17995 16.8001 7.85995C18.6001 8.26995 20.1101 9.52995 20.8801 11.33C21.0401 11.71 20.8701 12.15 20.4901 12.32C20.1101 12.48 19.6701 12.31 19.5001 11.93C18.8501 10.43 17.6001 9.45998 16.0601 9.25998C15.7301 9.21998 15.4701 8.96998 15.4101 8.63998C15.0101 6.23998 13.7101 4.57998 11.7601 3.97998C9.74011 3.35998 7.39008 3.96997 5.92008 5.49997C4.49008 6.98997 4.16008 9.07997 4.98008 11.38C5.12008 11.77 4.92013 12.2 4.53013 12.34C4.46013 12.35 4.37008 12.37 4.29008 12.37Z" fill="#292D32"/>
<path d="M14.5395 9.67999C14.2595 9.67999 13.9995 9.53001 13.8695 9.26001C13.6795 8.89001 13.8395 8.44 14.2095 8.25C14.8395 7.94 15.5095 7.77001 16.1995 7.76001C16.6295 7.78001 16.9595 8.08 16.9595 8.5C16.9695 8.91 16.6394 9.26001 16.2194 9.26001C15.7494 9.27001 15.2995 9.38 14.8695 9.59C14.7595 9.66 14.6495 9.67999 14.5395 9.67999Z" fill="#292D32"/>
<path d="M20 15.78H4C3.59 15.78 3.25 15.44 3.25 15.03C3.25 14.62 3.59 14.28 4 14.28H20C20.41 14.28 20.75 14.62 20.75 15.03C20.75 15.44 20.41 15.78 20 15.78Z" fill="#292D32"/>
<path d="M18 18.78H6C5.59 18.78 5.25 18.44 5.25 18.03C5.25 17.62 5.59 17.28 6 17.28H18C18.41 17.28 18.75 17.62 18.75 18.03C18.75 18.44 18.41 18.78 18 18.78Z" fill="#292D32"/>
<path d="M15 21.78H9C8.59 21.78 8.25 21.44 8.25 21.03C8.25 20.62 8.59 20.28 9 20.28H15C15.41 20.28 15.75 20.62 15.75 21.03C15.75 21.44 15.41 21.78 15 21.78Z" fill="#292D32"/>
</svg>
