<svg width="24" height="24" viewBox="0 0 24 24" fill="none" xmlns="http://www.w3.org/2000/svg">
<path d="M16.0598 16.75C16.0498 16.75 16.0398 16.75 16.0198 16.75H6.3598C3.7298 16.57 2.5498 14.55 2.5498 12.75C2.5498 11.17 3.45982 9.42001 5.43982 8.90001C4.91982 6.73001 5.39981 4.69995 6.80981 3.21995C8.44981 1.49995 11.0698 0.820001 13.3398 1.52C15.3998 2.15 16.8498 3.82995 17.3898 6.15995C19.1798 6.58995 20.6098 7.95 21.1798 9.83C21.8098 11.89 21.2298 14 19.6798 15.35C18.7098 16.25 17.4198 16.75 16.0598 16.75ZM6.39981 10.26C4.78981 10.39 4.06982 11.6 4.06982 12.75C4.06982 13.91 4.79981 15.13 6.42981 15.25H16.0398C16.0498 15.25 16.0598 15.25 16.0698 15.25C17.0498 15.25 17.9898 14.89 18.6998 14.23C20.0198 13.08 20.1098 11.43 19.7598 10.26C19.3998 9.08999 18.4098 7.76997 16.6698 7.54997C16.3398 7.50997 16.0798 7.25997 16.0198 6.92997C15.6798 4.87997 14.5698 3.47 12.9098 2.96C11.1998 2.44 9.14982 2.97 7.90982 4.27C6.69982 5.54 6.41981 7.31 7.11981 9.27C7.25981 9.66 7.05983 10.09 6.66983 10.23C6.57983 10.25 6.49981 10.27 6.39981 10.26Z" fill="#292D32"/>
<path d="M12 19.75C11.59 19.75 11.25 19.41 11.25 19V16C11.25 15.59 11.59 15.25 12 15.25C12.41 15.25 12.75 15.59 12.75 16V19C12.75 19.41 12.41 19.75 12 19.75Z" fill="#292D32"/>
<path d="M12 23.75C10.48 23.75 9.25 22.52 9.25 21C9.25 19.48 10.48 18.25 12 18.25C13.52 18.25 14.75 19.48 14.75 21C14.75 22.52 13.52 23.75 12 23.75ZM12 19.75C11.31 19.75 10.75 20.31 10.75 21C10.75 21.69 11.31 22.25 12 22.25C12.69 22.25 13.25 21.69 13.25 21C13.25 20.31 12.69 19.75 12 19.75Z" fill="#292D32"/>
<path d="M18 21.75H14C13.59 21.75 13.25 21.41 13.25 21C13.25 20.59 13.59 20.25 14 20.25H18C18.41 20.25 18.75 20.59 18.75 21C18.75 21.41 18.41 21.75 18 21.75Z" fill="#292D32"/>
<path d="M10 21.75H6C5.59 21.75 5.25 21.41 5.25 21C5.25 20.59 5.59 20.25 6 20.25H10C10.41 20.25 10.75 20.59 10.75 21C10.75 21.41 10.41 21.75 10 21.75Z" fill="#292D32"/>
</svg>
