<svg width="24" height="24" viewBox="0 0 24 24" fill="none" xmlns="http://www.w3.org/2000/svg">
<path d="M12.9698 18.36C12.7798 18.36 12.5898 18.29 12.4398 18.14L10.3298 16.03C10.0398 15.74 10.0398 15.26 10.3298 14.97C10.6198 14.68 11.0998 14.68 11.3898 14.97L13.4998 17.08C13.7898 17.37 13.7898 17.85 13.4998 18.14C13.3598 18.29 13.1598 18.36 12.9698 18.36Z" fill="#292D32"/>
<path d="M10.8295 18.39C10.6395 18.39 10.4495 18.32 10.2995 18.17C10.0095 17.88 10.0095 17.4 10.2995 17.11L12.4095 15C12.6995 14.71 13.1795 14.71 13.4695 15C13.7595 15.29 13.7595 15.77 13.4695 16.06L11.3595 18.17C11.2195 18.31 11.0295 18.39 10.8295 18.39Z" fill="#292D32"/>
<path d="M7.4593 19.34H5.5393C2.5993 19.13 1.2793 16.87 1.2793 14.85C1.2793 12.83 2.5993 10.57 5.4893 10.37C5.8893 10.33 6.2593 10.65 6.2893 11.07C6.3193 11.49 6.0093 11.84 5.5893 11.87C3.6493 12.01 2.7793 13.47 2.7793 14.86C2.7793 16.25 3.6493 17.71 5.5893 17.85H7.4593C7.8693 17.85 8.2093 18.19 8.2093 18.6C8.2093 19.01 7.8693 19.34 7.4593 19.34Z" fill="#292D32"/>
<path d="M16.6699 19.34C16.6499 19.34 16.6399 19.34 16.6199 19.34C16.2099 19.34 15.8299 19 15.8299 18.59C15.8299 18.16 16.1599 17.84 16.5699 17.84C17.8099 17.84 18.8999 17.41 19.7599 16.64C21.3199 15.28 21.4199 13.32 20.9999 11.94C20.5799 10.57 19.4099 9 17.3699 8.75C17.0399 8.71 16.7799 8.46001 16.7199 8.13001C16.3199 5.73001 15.0299 4.07 13.0699 3.47C11.0399 2.84 8.68992 3.46 7.21992 5C5.78992 6.49 5.45992 8.58001 6.28992 10.88C6.42992 11.27 6.22992 11.7 5.83992 11.84C5.44992 11.98 5.01992 11.78 4.87992 11.39C3.86992 8.57 4.32992 5.87 6.13992 3.97C7.98992 2.03 10.9599 1.26 13.5099 2.04C15.8499 2.76 17.4999 4.69 18.0999 7.37C20.1499 7.83 21.7799 9.38001 22.4299 11.52C23.1399 13.85 22.4999 16.25 20.7599 17.77C19.6399 18.77 18.1899 19.34 16.6699 19.34Z" fill="#292D32"/>
<path d="M12 22.28C9.99 22.28 8.11 21.21 7.08 19.48C6.97 19.31 6.86 19.1 6.77 18.89C6.43 18.18 6.25 17.38 6.25 16.53C6.25 13.36 8.83 10.78 12 10.78C15.17 10.78 17.75 13.36 17.75 16.53C17.75 17.38 17.57 18.18 17.22 18.92C17.14 19.11 17.03 19.31 16.91 19.5C15.89 21.21 14.01 22.28 12 22.28ZM12 12.28C9.66 12.28 7.75 14.19 7.75 16.53C7.75 17.15 7.88 17.74 8.13 18.26C8.21 18.43 8.28 18.57 8.36 18.7C9.12 19.99 10.51 20.78 11.99 20.78C13.47 20.78 14.86 19.99 15.61 18.72C15.7 18.57 15.77 18.44 15.84 18.29C16.11 17.74 16.24 17.16 16.24 16.53C16.25 14.19 14.34 12.28 12 12.28Z" fill="#292D32"/>
</svg>
