<svg width="24" height="24" viewBox="0 0 24 24" fill="none" xmlns="http://www.w3.org/2000/svg">
<path d="M16.6791 20.83C16.6691 20.83 16.6491 20.83 16.6391 20.83H5.54906C2.60906 20.62 1.28906 18.36 1.28906 16.34C1.28906 14.54 2.33906 12.54 4.62906 11.99C3.98906 9.49002 4.52906 7.14002 6.15906 5.44002C8.00906 3.50002 10.9791 2.73002 13.5291 3.52002C15.8691 4.24002 17.5191 6.17002 18.1191 8.85002C20.1691 9.31002 21.7991 10.86 22.4591 13C23.1691 15.33 22.5291 17.72 20.7791 19.25C19.6591 20.26 18.1991 20.83 16.6791 20.83ZM5.56906 13.35C5.55906 13.35 5.55906 13.35 5.54906 13.35C3.64906 13.49 2.77906 14.95 2.77906 16.34C2.77906 17.73 3.64906 19.19 5.58906 19.33H16.6291C17.7891 19.31 18.8991 18.91 19.7591 18.13C21.3191 16.76 21.4291 14.81 21.0091 13.44C20.5891 12.06 19.4191 10.5 17.3791 10.24C17.0491 10.2 16.7891 9.95002 16.7291 9.62002C16.3291 7.22002 15.0291 5.56002 13.0791 4.96002C11.0491 4.34002 8.70906 4.95002 7.23906 6.48002C5.90906 7.87002 5.52906 9.79002 6.14906 11.9C6.65906 11.97 7.14906 12.12 7.59906 12.35C7.96906 12.54 8.11906 12.99 7.92906 13.36C7.73906 13.73 7.28906 13.88 6.91906 13.69C6.50906 13.48 6.05906 13.37 5.60906 13.37C5.59906 13.35 5.58906 13.35 5.56906 13.35Z" fill="#292D32"/>
<path d="M15.85 10.67C15.57 10.67 15.31 10.52 15.18 10.25C14.99 9.87998 15.15 9.42998 15.52 9.23998C16.14 8.92998 16.83 8.75998 17.51 8.74998C17.91 8.73998 18.27 9.06998 18.27 9.48998C18.28 9.89998 17.95 10.25 17.53 10.25C17.07 10.26 16.6 10.37 16.18 10.58C16.07 10.64 15.96 10.67 15.85 10.67Z" fill="#292D32"/>
</svg>
