<svg width="24" height="24" viewBox="0 0 24 24" fill="none" xmlns="http://www.w3.org/2000/svg">
<path d="M9.00094 17.75C8.89094 17.75 8.77094 17.72 8.67094 17.67C7.90094 17.28 7.24094 16.7 6.76094 15.98C6.36094 15.38 6.36094 14.61 6.76094 14.01C7.24094 13.29 7.90094 12.71 8.67094 12.33C9.04094 12.14 9.49094 12.3 9.68094 12.67C9.87094 13.04 9.72094 13.49 9.34094 13.68C8.80094 13.95 8.34094 14.36 8.01094 14.86C7.95094 14.95 7.95094 15.07 8.01094 15.17C8.34094 15.67 8.80094 16.08 9.34094 16.35C9.71094 16.54 9.86094 16.99 9.68094 17.36C9.54094 17.6 9.27094 17.75 9.00094 17.75Z" fill="#292D32"/>
<path d="M15.2092 17.75C14.9292 17.75 14.6692 17.6 14.5392 17.34C14.3492 16.97 14.4992 16.52 14.8792 16.33C15.4192 16.06 15.8792 15.65 16.2092 15.15C16.2692 15.06 16.2692 14.94 16.2092 14.84C15.8792 14.34 15.4192 13.93 14.8792 13.66C14.5092 13.47 14.3592 13.02 14.5392 12.65C14.7292 12.28 15.1792 12.13 15.5492 12.31C16.3192 12.7 16.9792 13.28 17.4592 14C17.8592 14.6 17.8592 15.37 17.4592 15.97C16.9792 16.69 16.3192 17.27 15.5492 17.65C15.4292 17.72 15.3192 17.75 15.2092 17.75Z" fill="#292D32"/>
<path d="M15 22.75H9C3.57 22.75 1.25 20.43 1.25 15V9C1.25 3.57 3.57 1.25 9 1.25H15C20.43 1.25 22.75 3.57 22.75 9V15C22.75 20.43 20.43 22.75 15 22.75ZM9 2.75C4.39 2.75 2.75 4.39 2.75 9V15C2.75 19.61 4.39 21.25 9 21.25H15C19.61 21.25 21.25 19.61 21.25 15V9C21.25 4.39 19.61 2.75 15 2.75H9Z" fill="#292D32"/>
<path d="M2.23047 8.76C1.82047 8.76 1.48047 8.42 1.48047 8.01C1.48047 7.6 1.81047 7.26 2.23047 7.26L21.4505 7.25C21.8605 7.25 22.2005 7.59 22.2005 8C22.2005 8.41 21.8705 8.75 21.4505 8.75L2.23047 8.76Z" fill="#292D32"/>
</svg>
