<svg width="24" height="24" viewBox="0 0 24 24" fill="none" xmlns="http://www.w3.org/2000/svg">
<path d="M10.84 13.54H9.34C8.19 13.54 7.26 12.58 7.26 11.39C7.26 10.98 7.6 10.64 8.01 10.64C8.42 10.64 8.76 10.98 8.76 11.39C8.76 11.75 9.02 12.04 9.34 12.04H10.84C11.07 12.04 11.25 11.83 11.25 11.57C11.25 11.22 11.19 11.2 10.96 11.12L8.55 10.28C7.68 9.97995 7.25 9.36995 7.25 8.41995C7.25 7.33995 8.11 6.44995 9.16 6.44995H10.66C11.81 6.44995 12.74 7.40995 12.74 8.59995C12.74 9.00995 12.4 9.34995 11.99 9.34995C11.58 9.34995 11.24 9.00995 11.24 8.59995C11.24 8.23995 10.98 7.94995 10.66 7.94995H9.16C8.93 7.94995 8.75 8.15995 8.75 8.41995C8.75 8.76995 8.81 8.78995 9.04 8.86995L11.45 9.70995C12.32 10.02 12.74 10.63 12.74 11.57C12.75 12.66 11.89 13.54 10.84 13.54Z" fill="#292D32"/>
<path d="M10 14.34C9.59 14.34 9.25 14 9.25 13.59V12.85C9.25 12.44 9.59 12.1 10 12.1C10.41 12.1 10.75 12.44 10.75 12.85V13.59C10.75 14.01 10.41 14.34 10 14.34Z" fill="#292D32"/>
<path d="M10 7.94003C9.59 7.94003 9.25 7.60003 9.25 7.19003V6.41003C9.25 6.00003 9.59 5.66003 10 5.66003C10.41 5.66003 10.75 6.00003 10.75 6.41003V7.19003C10.75 7.60003 10.41 7.94003 10 7.94003Z" fill="#292D32"/>
<path d="M9.99 18.72C5.17 18.72 1.25 14.8 1.25 9.97999C1.25 5.15999 5.17 1.23999 9.99 1.23999C14.81 1.23999 18.73 5.15999 18.73 9.97999C18.73 14.8 14.8 18.72 9.99 18.72ZM9.99 2.74999C6 2.74999 2.75 5.99999 2.75 9.98999C2.75 13.98 6 17.22 9.99 17.22C13.98 17.22 17.23 13.97 17.23 9.97999C17.23 5.98999 13.98 2.74999 9.99 2.74999Z" fill="#292D32"/>
<path d="M17.019 22.72C15.169 22.72 13.429 21.82 12.359 20.3C12.119 19.96 12.199 19.49 12.539 19.25C12.879 19.01 13.349 19.09 13.589 19.43C14.379 20.55 15.659 21.21 17.019 21.21C19.339 21.21 21.219 19.33 21.219 17.01C21.219 15.66 20.559 14.38 19.459 13.59C19.119 13.35 19.049 12.88 19.289 12.54C19.529 12.2 19.999 12.13 20.339 12.37C21.829 13.44 22.719 15.17 22.719 17.01C22.719 20.17 20.169 22.72 17.019 22.72Z" fill="#292D32"/>
</svg>
