<svg width="24" height="24" viewBox="0 0 24 24" fill="none" xmlns="http://www.w3.org/2000/svg">
<path d="M9.59998 18.75C7.19998 18.75 5.25 16.8 5.25 14.4C5.25 12.44 6.57002 10.71 8.46002 10.2C8.83002 10.1 9.20998 10.29 9.34998 10.65C9.67998 11.48 10.39 12.12 11.25 12.35C11.72 12.48 12.28 12.48 12.75 12.35C13.12 12.25 13.51 12.44 13.65 12.79C13.85 13.3 13.95 13.84 13.95 14.39C13.95 15.63 13.42 16.81 12.5 17.63C11.71 18.35 10.68 18.75 9.59998 18.75ZM8.28998 11.87C7.35998 12.35 6.75 13.32 6.75 14.4C6.75 15.97 8.02998 17.25 9.59998 17.25C10.3 17.25 10.98 16.99 11.5 16.52C12.11 15.98 12.45 15.21 12.45 14.4C12.45 14.24 12.44 14.09 12.41 13.93C11.88 13.98 11.34 13.93 10.85 13.79C9.77998 13.5 8.85998 12.8 8.28998 11.87Z" fill="#292D32"/>
<path d="M12.0002 13.95C11.6002 13.95 11.2102 13.9 10.8502 13.8C9.54016 13.44 8.46021 12.47 7.96021 11.21C7.76021 10.7 7.66016 10.16 7.66016 9.61001C7.66016 7.21001 9.61019 5.26001 12.0102 5.26001C14.4102 5.26001 16.3602 7.21001 16.3602 9.61001C16.3602 10.16 16.2602 10.7 16.0602 11.21C15.5602 12.48 14.4702 13.45 13.1602 13.8C12.7902 13.9 12.4002 13.95 12.0002 13.95ZM12.0002 6.75001C10.4302 6.75001 9.15021 8.03001 9.15021 9.60001C9.15021 9.96001 9.22016 10.32 9.35016 10.65C9.68016 11.48 10.3902 12.12 11.2502 12.35C11.7202 12.48 12.2802 12.48 12.7502 12.35C13.6202 12.11 14.3302 11.48 14.6502 10.65C14.7802 10.32 14.8502 9.96001 14.8502 9.60001C14.8502 8.03001 13.5702 6.75001 12.0002 6.75001Z" fill="#292D32"/>
<path d="M14.4 18.7501C13.32 18.7501 12.29 18.3501 11.5 17.6301C11.34 17.4901 11.25 17.2801 11.25 17.0701C11.25 16.8601 11.34 16.6501 11.5 16.5101C12.1 15.9801 12.45 15.2101 12.45 14.4001C12.45 14.0401 12.38 13.6801 12.25 13.3501C12.17 13.1501 12.18 12.9301 12.28 12.7401C12.37 12.5501 12.55 12.4101 12.75 12.3501C13.61 12.1101 14.32 11.4801 14.65 10.6501C14.79 10.3001 15.17 10.1001 15.54 10.2001C17.43 10.7101 18.75 12.4401 18.75 14.4001C18.75 16.8001 16.8 18.7501 14.4 18.7501ZM13.12 16.9501C13.51 17.1501 13.95 17.2501 14.4 17.2501C15.97 17.2501 17.25 15.9701 17.25 14.4001C17.25 13.3201 16.64 12.3501 15.71 11.8701C15.27 12.5901 14.62 13.1701 13.86 13.5301C13.92 13.8101 13.95 14.1001 13.95 14.4001C13.95 15.3201 13.66 16.2101 13.12 16.9501Z" fill="#292D32"/>
<path d="M15 22.75H9C3.57 22.75 1.25 20.43 1.25 15V9C1.25 3.57 3.57 1.25 9 1.25H15C20.43 1.25 22.75 3.57 22.75 9V15C22.75 20.43 20.43 22.75 15 22.75ZM9 2.75C4.39 2.75 2.75 4.39 2.75 9V15C2.75 19.61 4.39 21.25 9 21.25H15C19.61 21.25 21.25 19.61 21.25 15V9C21.25 4.39 19.61 2.75 15 2.75H9Z" fill="#292D32"/>
</svg>
