<svg width="24" height="24" viewBox="0 0 24 24" fill="none" xmlns="http://www.w3.org/2000/svg">
<path d="M12.005 22.7326C6.08732 22.7326 1.27734 17.9227 1.27734 12.005C1.27734 6.08732 6.08732 1.27734 12.005 1.27734C17.9227 1.27734 22.7326 6.08732 22.7326 12.005C22.7326 17.9227 17.9127 22.7326 12.005 22.7326ZM12.005 2.77423C6.9156 2.77423 2.77423 6.9156 2.77423 12.005C2.77423 17.0944 6.9156 21.2358 12.005 21.2358C17.0944 21.2358 21.2358 17.0944 21.2358 12.005C21.2358 6.9156 17.0944 2.77423 12.005 2.77423Z" fill="#292D32"/>
<path d="M14.2996 12.953C14.1 12.953 13.9104 12.8731 13.7707 12.7334L5.60767 4.55048C5.31828 4.26108 5.31828 3.78208 5.60767 3.49268C5.89707 3.20329 6.37607 3.20329 6.66547 3.49268L13.5611 10.3983L13.5711 7.66399C13.5711 7.25485 13.9104 6.91555 14.3195 6.91555C14.7287 6.88561 15.068 7.25485 15.068 7.66399L15.058 12.2045C15.058 12.5039 14.8784 12.7833 14.5989 12.8931C14.4991 12.933 14.3994 12.953 14.2996 12.953Z" fill="#292D32"/>
<path d="M17.863 20.7268C17.6734 20.7268 17.4838 20.657 17.3341 20.5073L10.4385 13.6017L10.4285 16.336C10.4285 16.7451 10.0892 17.0844 9.68008 17.0844C9.27093 17.0844 8.93164 16.7451 8.93164 16.336L8.94162 11.7954C8.94162 11.4961 9.12125 11.2166 9.40066 11.1069C9.68008 10.9871 9.99942 11.057 10.219 11.2665L18.382 19.4495C18.6714 19.7389 18.6714 20.2179 18.382 20.5073C18.2522 20.657 18.0526 20.7268 17.863 20.7268Z" fill="#292D32"/>
</svg>
