<svg width="24" height="24" viewBox="0 0 24 24" fill="none" xmlns="http://www.w3.org/2000/svg">
<path d="M9.6 20.75C5.21 20.75 3.25 18.79 3.25 14.4V9.6C3.25 5.21 5.21 3.25 9.6 3.25H14.4C18.79 3.25 20.75 5.21 20.75 9.6C20.75 10.01 20.41 10.35 20 10.35C19.59 10.35 19.25 10.01 19.25 9.6C19.25 6.02 17.98 4.75 14.4 4.75H9.6C6.02 4.75 4.75 6.02 4.75 9.6V14.4C4.75 17.98 6.02 19.25 9.6 19.25C10.01 19.25 10.35 19.59 10.35 20C10.35 20.41 10.01 20.75 9.6 20.75Z" fill="#292D32"/>
<path d="M7.99023 17.1C7.83023 17.1 7.66023 17.05 7.52023 16.94C6.65023 16.25 6.24023 15.15 6.24023 13.5V10.5C6.24023 7.6 7.59023 6.25 10.4902 6.25H13.4902C15.1402 6.25 16.2302 6.66 16.9302 7.53C17.1902 7.85 17.1302 8.33 16.8102 8.58C16.4902 8.84 16.0102 8.79 15.7602 8.46C15.5202 8.15 15.0202 7.75 13.5002 7.75H10.5002C8.42023 7.75 7.75023 8.42 7.75023 10.5V13.5C7.75023 15.02 8.16023 15.52 8.46023 15.76C8.78023 16.02 8.84023 16.49 8.58023 16.81C8.43023 17 8.21023 17.1 7.99023 17.1Z" fill="#292D32"/>
<path d="M8.00977 4.75C7.58977 4.75 7.25977 4.41 7.25977 4V2C7.25977 1.59 7.59977 1.25 8.00977 1.25C8.41977 1.25 8.75977 1.59 8.75977 2V4C8.75977 4.41 8.41977 4.75 8.00977 4.75Z" fill="#292D32"/>
<path d="M12 4.75C11.59 4.75 11.25 4.41 11.25 4V2C11.25 1.59 11.59 1.25 12 1.25C12.41 1.25 12.75 1.59 12.75 2V4C12.75 4.41 12.41 4.75 12 4.75Z" fill="#292D32"/>
<path d="M16 4.75C15.59 4.75 15.25 4.41 15.25 4V2C15.25 1.59 15.59 1.25 16 1.25C16.41 1.25 16.75 1.59 16.75 2V4C16.75 4.41 16.41 4.75 16 4.75Z" fill="#292D32"/>
<path d="M22 8.75H20C19.59 8.75 19.25 8.41 19.25 8C19.25 7.59 19.59 7.25 20 7.25H22C22.41 7.25 22.75 7.59 22.75 8C22.75 8.41 22.42 8.75 22 8.75Z" fill="#292D32"/>
<path d="M8.00977 22.75C7.59977 22.75 7.25977 22.41 7.25977 22V20C7.25977 19.59 7.59977 19.25 8.00977 19.25C8.41977 19.25 8.75977 19.59 8.75977 20V22C8.75977 22.41 8.41977 22.75 8.00977 22.75Z" fill="#292D32"/>
<path d="M4 8.75H2C1.59 8.75 1.25 8.42 1.25 8C1.25 7.58 1.59 7.25 2 7.25H4C4.41 7.25 4.75 7.59 4.75 8C4.75 8.41 4.42 8.75 4 8.75Z" fill="#292D32"/>
<path d="M4 12.75H2C1.59 12.75 1.25 12.41 1.25 12C1.25 11.59 1.59 11.25 2 11.25H4C4.41 11.25 4.75 11.59 4.75 12C4.75 12.41 4.42 12.75 4 12.75Z" fill="#292D32"/>
<path d="M4 16.75H2C1.59 16.75 1.25 16.41 1.25 16C1.25 15.59 1.59 15.25 2 15.25H4C4.41 15.25 4.75 15.59 4.75 16C4.75 16.41 4.42 16.75 4 16.75Z" fill="#292D32"/>
<path d="M16.7101 19.34C15.4201 19.34 14.3701 18.29 14.3701 17C14.3701 15.71 15.4201 14.66 16.7101 14.66C18.0001 14.66 19.0501 15.71 19.0501 17C19.0401 18.29 18.0001 19.34 16.7101 19.34ZM16.7101 16.16C16.2501 16.16 15.8701 16.54 15.8701 17C15.8701 17.46 16.2501 17.84 16.7101 17.84C17.1701 17.84 17.5501 17.46 17.5501 17C17.5401 16.54 17.1701 16.16 16.7101 16.16Z" fill="#292D32"/>
<path d="M18.4004 22.75C17.8404 22.75 17.2904 22.46 16.9904 21.94L16.9204 21.83C16.8104 21.64 16.7204 21.59 16.7004 21.58C16.6904 21.58 16.5904 21.64 16.4804 21.83L16.4204 21.93C15.9604 22.72 14.9504 22.98 14.1804 22.52L13.2804 22C12.8704 21.77 12.5804 21.39 12.4604 20.93C12.3404 20.48 12.4004 20 12.6304 19.6C12.7404 19.41 12.7404 19.3 12.7304 19.28C12.7204 19.27 12.6304 19.22 12.4104 19.22C11.4404 19.22 10.6504 18.43 10.6504 17.47V16.54C10.6504 15.57 11.4404 14.79 12.4004 14.79C12.6204 14.79 12.7104 14.73 12.7304 14.72C12.7304 14.71 12.7304 14.6 12.6204 14.41C12.3904 14 12.3204 13.53 12.4504 13.08C12.5704 12.63 12.8604 12.25 13.2704 12.01L14.1804 11.48C14.9404 11.03 15.9504 11.29 16.4004 12.07L16.4604 12.18C16.5704 12.37 16.6604 12.42 16.6804 12.43C16.6904 12.43 16.7904 12.37 16.9004 12.18L16.9604 12.08C17.4304 11.29 18.4304 11.03 19.2004 11.49L20.1304 12C20.5404 12.23 20.8304 12.61 20.9504 13.07C21.0704 13.52 21.0104 14 20.7804 14.4C20.6704 14.59 20.6704 14.7 20.6804 14.72C20.6904 14.73 20.7804 14.78 21.0004 14.78C21.9704 14.78 22.7604 15.57 22.7604 16.53V17.46C22.7604 18.43 21.9704 19.21 21.0104 19.21C20.7904 19.21 20.7004 19.27 20.6804 19.28C20.6804 19.29 20.6804 19.4 20.7904 19.59C21.0204 20 21.0904 20.47 20.9604 20.92C20.8404 21.37 20.5504 21.75 20.1404 21.99L19.2304 22.52C18.9604 22.67 18.6804 22.75 18.4004 22.75ZM16.7104 20.08C17.3104 20.08 17.8604 20.44 18.2304 21.08L18.2904 21.19C18.3204 21.24 18.4004 21.27 18.4604 21.23L19.3804 20.7C19.4604 20.66 19.4904 20.58 19.5004 20.54C19.5104 20.5 19.5204 20.43 19.4804 20.35C19.1104 19.72 19.0804 19.06 19.3804 18.54C19.6804 18.02 20.2704 17.72 21.0004 17.72C21.1404 17.72 21.2604 17.6 21.2604 17.47V16.54C21.2604 16.4 21.1404 16.29 21.0104 16.29C20.2804 16.29 19.6804 15.99 19.3904 15.47C19.0904 14.95 19.1304 14.29 19.4904 13.66C19.5404 13.58 19.5304 13.5 19.5104 13.47C19.5004 13.43 19.4704 13.36 19.3904 13.31L18.4804 12.78C18.4104 12.74 18.3304 12.77 18.2904 12.83L18.2404 12.92C17.8704 13.56 17.3204 13.92 16.7204 13.92C16.1204 13.92 15.5704 13.56 15.2004 12.92L15.1404 12.82C15.1104 12.76 15.0204 12.74 14.9704 12.77L14.0504 13.3C13.9704 13.34 13.9404 13.42 13.9304 13.46C13.9204 13.5 13.9104 13.57 13.9504 13.65C14.3204 14.28 14.3504 14.94 14.0504 15.46C13.7504 15.98 13.1604 16.28 12.4304 16.28C12.2904 16.28 12.1704 16.4 12.1704 16.53V17.46C12.1704 17.6 12.2904 17.71 12.4204 17.71C13.1504 17.71 13.7504 18.01 14.0404 18.53C14.3404 19.05 14.3004 19.71 13.9404 20.34C13.9004 20.42 13.9104 20.49 13.9204 20.53C13.9304 20.57 13.9604 20.64 14.0404 20.69L14.9504 21.22C15.0204 21.26 15.1004 21.23 15.1404 21.17L15.1904 21.07C15.5504 20.44 16.1104 20.08 16.7104 20.08Z" fill="#292D32"/>
</svg>
