<svg width="24" height="24" viewBox="0 0 24 24" fill="none" xmlns="http://www.w3.org/2000/svg">
<path d="M12 22.75C6.07 22.75 1.25 17.93 1.25 12C1.25 6.07 6.07 1.25 12 1.25C17.93 1.25 22.75 6.07 22.75 12C22.75 17.93 17.93 22.75 12 22.75ZM12 2.75C6.9 2.75 2.75 6.9 2.75 12C2.75 17.1 6.9 21.25 12 21.25C17.1 21.25 21.25 17.1 21.25 12C21.25 6.9 17.1 2.75 12 2.75Z" fill="#292D32"/>
<path d="M8.99109 15.62C6.99109 15.62 5.37109 14 5.37109 12C5.37109 10 6.99109 8.38 8.99109 8.38C9.87109 8.38 10.7111 8.70003 11.3811 9.28003C11.6911 9.55003 11.7211 10.03 11.4511 10.34C11.1811 10.65 10.7011 10.68 10.3911 10.41C10.0011 10.07 9.51109 9.88 8.99109 9.88C7.82109 9.88 6.87109 10.83 6.87109 12C6.87109 13.17 7.82109 14.12 8.99109 14.12C9.50109 14.12 10.0011 13.93 10.3911 13.59C10.7011 13.32 11.1711 13.35 11.4511 13.66C11.7211 13.97 11.6911 14.45 11.3811 14.72C10.7111 15.3 9.86109 15.62 8.99109 15.62Z" fill="#292D32"/>
<path d="M15.9911 15.62C13.9911 15.62 12.3711 14 12.3711 12C12.3711 10 13.9911 8.38 15.9911 8.38C16.8711 8.38 17.7111 8.70003 18.3811 9.28003C18.6911 9.55003 18.7211 10.03 18.4511 10.34C18.1811 10.65 17.7011 10.68 17.3911 10.41C17.0011 10.07 16.5111 9.88 15.9911 9.88C14.8211 9.88 13.8711 10.83 13.8711 12C13.8711 13.17 14.8211 14.12 15.9911 14.12C16.5011 14.12 17.0011 13.93 17.3911 13.59C17.7011 13.32 18.1711 13.35 18.4511 13.66C18.7211 13.97 18.6911 14.45 18.3811 14.72C17.7111 15.3 16.8611 15.62 15.9911 15.62Z" fill="#292D32"/>
</svg>
