<svg width="24" height="24" viewBox="0 0 24 24" fill="none" xmlns="http://www.w3.org/2000/svg">
<path d="M17 21.04H7C3.83 21.04 1.25 18.46 1.25 15.29V5.70998C1.25 4.40998 1.85 3.95998 2.21 3.80998C2.57 3.65998 3.31 3.54998 4.23 4.46998L6.82 7.05998C6.92 7.15998 7.08 7.15998 7.17 7.05998L10.76 3.46998C11.42 2.80998 12.58 2.80998 13.23 3.46998L16.82 7.05998C16.92 7.15998 17.08 7.15998 17.17 7.05998L19.76 4.46998C20.68 3.54998 21.42 3.66998 21.78 3.80998C22.14 3.95998 22.74 4.39998 22.74 5.70998V15.3C22.75 18.73 20.44 21.04 17 21.04ZM2.81 5.23998C2.78 5.31998 2.75 5.46998 2.75 5.70998V15.3C2.75 17.64 4.66 19.55 7 19.55H17C19.58 19.55 21.25 17.88 21.25 15.3V5.70998C21.25 5.46998 21.22 5.32998 21.19 5.24998C21.11 5.28998 20.99 5.36998 20.82 5.53998L18.23 8.12998C17.57 8.78998 16.41 8.78998 15.76 8.12998L12.17 4.53998C12.07 4.43998 11.91 4.43998 11.82 4.53998L8.24 8.11998C7.58 8.77998 6.42 8.77998 5.77 8.11998L3.18 5.52998C3.01 5.35998 2.88 5.27998 2.81 5.23998Z" fill="#292D32"/>
</svg>
