<svg width="24" height="24" viewBox="0 0 24 24" fill="none" xmlns="http://www.w3.org/2000/svg">
<path d="M12.1504 19.35C11.7404 19.35 11.4004 19.01 11.4004 18.6V16.5C11.4004 16.09 11.7404 15.75 12.1504 15.75C12.5604 15.75 12.9004 16.09 12.9004 16.5V18.6C12.9004 19.01 12.5604 19.35 12.1504 19.35Z" fill="#292D32"/>
<path d="M17.9004 22.75H6.40039V21C6.40039 19.48 7.63039 18.25 9.15039 18.25H15.1504C16.6704 18.25 17.9004 19.48 17.9004 21V22.75ZM7.90039 21.25H16.4004V21C16.4004 20.31 15.8404 19.75 15.1504 19.75H9.15039C8.46039 19.75 7.90039 20.31 7.90039 21V21.25V21.25Z" fill="#292D32"/>
<path d="M18.1504 22.75H6.15039C5.74039 22.75 5.40039 22.41 5.40039 22C5.40039 21.59 5.74039 21.25 6.15039 21.25H18.1504C18.5604 21.25 18.9004 21.59 18.9004 22C18.9004 22.41 18.5604 22.75 18.1504 22.75Z" fill="#292D32"/>
<path d="M18.4307 12.44C18.2207 12.44 18.0107 12.35 17.8607 12.18C17.6707 11.96 17.6207 11.65 17.7407 11.39C18.0807 10.61 18.2507 9.78 18.2507 8.91V5.91C18.2507 5.56 18.1907 5.22 18.0707 4.86C18.0607 4.83 18.0507 4.79 18.0407 4.75C18.0107 4.6 18.0007 4.45 18.0007 4.31C18.0007 3.9 18.3407 3.56 18.7507 3.56H19.3507C21.1407 3.56 22.6007 5.06 22.6007 6.91C22.6007 8.44 21.9707 9.95 20.8807 11.04C20.8607 11.06 20.8007 11.11 20.7907 11.12C20.2007 11.61 19.5307 12.16 18.6307 12.41C18.5607 12.43 18.5007 12.44 18.4307 12.44ZM19.6807 5.09C19.7307 5.36 19.7507 5.64 19.7507 5.91V8.91C19.7507 9.32 19.7207 9.71 19.6607 10.11C19.7207 10.06 19.7707 10.02 19.8307 9.97C20.6307 9.17 21.1007 8.05 21.1007 6.91C21.1007 6.01 20.4907 5.25 19.6807 5.09Z" fill="#292D32"/>
<path d="M5.58039 12.4C5.50039 12.4 5.43039 12.39 5.35039 12.36C4.53039 12.1 3.76039 11.62 3.12039 10.98C1.97039 9.70998 1.40039 8.31998 1.40039 6.84998C1.40039 5.02998 2.83039 3.59998 4.65039 3.59998H5.30039C5.55039 3.59998 5.79039 3.72998 5.93039 3.93998C6.07039 4.14998 6.09039 4.41998 5.99039 4.64998C5.83039 5.00998 5.75039 5.41998 5.75039 5.84998V8.84998C5.75039 9.70998 5.92039 10.55 6.27039 11.35C6.39039 11.62 6.33039 11.93 6.14039 12.15C5.99039 12.31 5.79039 12.4 5.58039 12.4ZM4.30039 5.12998C3.49039 5.28998 2.90039 5.98998 2.90039 6.84998C2.90039 7.93998 3.34039 8.98998 4.21039 9.94998C4.25039 9.99998 4.30039 10.04 4.35039 10.08C4.28039 9.66998 4.25039 9.25998 4.25039 8.84998V5.84998C4.25039 5.60998 4.27039 5.36998 4.30039 5.12998Z" fill="#292D32"/>
<path d="M12 16.75C7.73 16.75 4.25 13.27 4.25 9V6C4.25 3.38 6.38 1.25 9 1.25H15C17.62 1.25 19.75 3.38 19.75 6V9C19.75 13.27 16.27 16.75 12 16.75ZM9 2.75C7.21 2.75 5.75 4.21 5.75 6V9C5.75 12.45 8.55 15.25 12 15.25C15.45 15.25 18.25 12.45 18.25 9V6C18.25 4.21 16.79 2.75 15 2.75H9Z" fill="#292D32"/>
</svg>
