<svg width="24" height="24" viewBox="0 0 24 24" fill="none" xmlns="http://www.w3.org/2000/svg">
<path d="M12 14.75C11.59 14.75 11.25 14.41 11.25 14V9C11.25 8.59 11.59 8.25 12 8.25C12.41 8.25 12.75 8.59 12.75 9V14C12.75 14.41 12.41 14.75 12 14.75Z" fill="#292D32"/>
<path d="M12 18C11.94 18 11.87 17.99 11.8 17.98C11.74 17.97 11.68 17.95 11.62 17.92C11.56 17.9 11.5 17.87 11.44 17.83C11.39 17.79 11.34 17.75 11.29 17.71C11.11 17.52 11 17.26 11 17C11 16.74 11.11 16.48 11.29 16.29C11.34 16.25 11.39 16.21 11.44 16.17C11.5 16.13 11.56 16.1 11.62 16.08C11.68 16.05 11.74 16.03 11.8 16.02C11.93 15.99 12.07 15.99 12.19 16.02C12.26 16.03 12.32 16.05 12.38 16.08C12.44 16.1 12.5 16.13 12.56 16.17C12.61 16.21 12.66 16.25 12.71 16.29C12.89 16.48 13 16.74 13 17C13 17.26 12.89 17.52 12.71 17.71C12.66 17.75 12.61 17.79 12.56 17.83C12.5 17.87 12.44 17.9 12.38 17.92C12.32 17.95 12.26 17.97 12.19 17.98C12.13 17.99 12.06 18 12 18Z" fill="#292D32"/>
<path d="M18.0605 22.16H5.94046C3.99046 22.16 2.50046 21.45 1.74046 20.17C0.990464 18.89 1.09046 17.24 2.04046 15.53L8.10046 4.63003C9.10046 2.83003 10.4805 1.84003 12.0005 1.84003C13.5205 1.84003 14.9005 2.83003 15.9005 4.63003L21.9605 15.54C22.9105 17.25 23.0205 18.89 22.2605 20.18C21.5005 21.45 20.0105 22.16 18.0605 22.16ZM12.0005 3.34003C11.0605 3.34003 10.1405 4.06003 9.41046 5.36003L3.36046 16.27C2.68046 17.49 2.57046 18.61 3.04046 19.42C3.51046 20.23 4.55046 20.67 5.95046 20.67H18.0705C19.4705 20.67 20.5005 20.23 20.9805 19.42C21.4605 18.61 21.3405 17.5 20.6605 16.27L14.5905 5.36003C13.8605 4.06003 12.9405 3.34003 12.0005 3.34003Z" fill="#292D32"/>
</svg>
