<svg width="24" height="24" viewBox="0 0 24 24" fill="none" xmlns="http://www.w3.org/2000/svg">
<path d="M13.5003 21.25H3.94032C3.71032 21.25 3.49032 21.14 3.35032 20.96C3.21032 20.78 3.16032 20.54 3.21032 20.32L4.27032 16.07C4.35032 15.74 4.65032 15.5 5.00032 15.5H12.4403C15.3403 15.5 17.0003 13.84 17.0003 10.94V10.75C17.0003 9.15 16.3503 8.5 14.7503 8.5H6.06032C5.83032 8.5 5.61032 8.39001 5.47032 8.21001C5.33032 8.03001 5.28032 7.79001 5.33032 7.57001L6.39032 3.32001C6.47032 2.99001 6.77032 2.75 7.12032 2.75H16.0003C20.1603 2.75 22.7503 5.34 22.7503 9.5V12C22.7503 17.71 19.2103 21.25 13.5003 21.25ZM4.90032 19.75H13.5003C18.3503 19.75 21.2503 16.85 21.2503 12V9.5C21.2503 6.16 19.3403 4.25 16.0003 4.25H7.71032L7.02032 7H14.7503C17.1703 7 18.5003 8.33 18.5003 10.75V10.94C18.5003 14.68 16.1803 17 12.4403 17H5.59032L4.90032 19.75Z" fill="black"/>
<path d="M9.18989 14.25H1.99989C1.76989 14.25 1.54989 14.14 1.40989 13.96C1.26989 13.78 1.21989 13.54 1.26989 13.32L1.63989 11.84C1.94989 10.61 3.03989 9.76001 4.30989 9.76001H11.4999C11.7299 9.76001 11.9499 9.87002 12.0899 10.05C12.2299 10.23 12.2799 10.47 12.2299 10.69L11.8599 12.17C11.5499 13.39 10.4499 14.25 9.18989 14.25ZM2.95989 12.75H9.18989C9.75989 12.75 10.2599 12.36 10.3999 11.8L10.5399 11.25H4.30989C3.73989 11.25 3.23989 11.64 3.09989 12.2L2.95989 12.75Z" fill="black"/>
</svg>
