<svg width="24" height="24" viewBox="0 0 24 24" fill="none" xmlns="http://www.w3.org/2000/svg">
<path d="M11.9997 18.9C10.8597 18.9 9.92969 17.97 9.92969 16.83V7.16997C9.92969 6.02997 10.8597 5.09998 11.9997 5.09998C13.1397 5.09998 14.0697 6.02997 14.0697 7.16997V16.83C14.0697 17.97 13.1397 18.9 11.9997 18.9ZM11.9997 6.59998C11.6897 6.59998 11.4297 6.84997 11.4297 7.16997V16.83C11.4297 17.14 11.6797 17.4 11.9997 17.4C12.3197 17.4 12.5697 17.15 12.5697 16.83V7.16997C12.5697 6.85997 12.3097 6.59998 11.9997 6.59998Z" fill="black"/>
<path d="M16.18 16.48C15.83 16.48 15.47 16.39 15.15 16.2L6.78 11.37C6.3 11.09 5.96 10.65 5.82 10.11C5.68 9.58002 5.75 9.02001 6.03 8.54001C6.6 7.55001 7.87 7.21001 8.85 7.78001L17.22 12.61C18.21 13.18 18.55 14.45 17.98 15.43C17.59 16.11 16.89 16.48 16.18 16.48ZM7.82 9.02002C7.77 9.02002 7.72 9.03001 7.67 9.04001C7.52 9.08001 7.4 9.17002 7.32 9.30002C7.25 9.43002 7.23 9.58001 7.26 9.73001C7.3 9.88001 7.39 10 7.52 10.08L15.89 14.91C16.16 15.06 16.51 14.97 16.67 14.7C16.83 14.43 16.73 14.08 16.46 13.92L8.09 9.09001C8.01 9.04001 7.92 9.02002 7.82 9.02002Z" fill="black"/>
<path d="M7.82026 16.48C7.10026 16.48 6.41026 16.11 6.03026 15.45C5.46026 14.46 5.80026 13.2 6.79026 12.63L15.1603 7.80003C16.1503 7.23003 17.4103 7.57003 17.9803 8.56003C18.2603 9.04003 18.3303 9.59004 18.1903 10.13C18.0503 10.66 17.7103 11.11 17.2303 11.39L8.86026 16.22C8.53026 16.39 8.17026 16.48 7.82026 16.48ZM7.32026 14.7C7.47026 14.97 7.83026 15.06 8.10026 14.91L16.4703 10.08C16.6003 10 16.6903 9.88003 16.7303 9.73003C16.7703 9.58003 16.7503 9.43003 16.6703 9.30003C16.5903 9.17003 16.4703 9.08002 16.3203 9.04002C16.1703 9.00002 16.0203 9.02004 15.8903 9.10004L7.52025 13.93C7.26025 14.08 7.17026 14.43 7.32026 14.7Z" fill="black"/>
<path d="M12 22.75C6.07 22.75 1.25 17.93 1.25 12C1.25 6.07 6.07 1.25 12 1.25C17.93 1.25 22.75 6.07 22.75 12C22.75 17.93 17.93 22.75 12 22.75ZM12 2.75C6.9 2.75 2.75 6.9 2.75 12C2.75 17.1 6.9 21.25 12 21.25C17.1 21.25 21.25 17.1 21.25 12C21.25 6.9 17.1 2.75 12 2.75Z" fill="black"/>
</svg>
