<svg width="24" height="24" viewBox="0 0 24 24" fill="none" xmlns="http://www.w3.org/2000/svg">
<path d="M12.0008 19.42C10.4608 19.42 8.92078 18.83 7.75078 17.66C5.40078 15.31 5.40078 11.5 7.75078 9.15002C8.89078 8.01002 10.4008 7.39001 12.0008 7.39001C13.6008 7.39001 15.1208 8.02002 16.2508 9.15002C18.6008 11.5 18.6008 15.31 16.2508 17.66C15.0808 18.83 13.5408 19.42 12.0008 19.42ZM12.0008 8.90002C10.8008 8.90002 9.66078 9.36997 8.81078 10.22C7.05078 11.98 7.05078 14.84 8.81078 16.6C10.5708 18.36 13.4308 18.35 15.1908 16.6C16.9508 14.84 16.9508 11.98 15.1908 10.22C14.3408 9.36997 13.2008 8.90002 12.0008 8.90002Z" fill="#292D32"/>
<path d="M10.4096 15.75C10.2196 15.75 10.0196 15.68 9.87961 15.53C9.58961 15.24 9.58961 14.76 9.87961 14.46L11.4696 12.87C11.7596 12.58 12.2396 12.58 12.5396 12.87C12.8296 13.16 12.8296 13.64 12.5396 13.94L10.9496 15.53C10.7896 15.68 10.5996 15.75 10.4096 15.75Z" fill="#292D32"/>
<path d="M18.7909 7.51001C18.5509 7.51001 18.3309 7.42 18.1609 7.25C17.8109 6.9 17.8109 6.32999 18.1609 5.98999C18.3309 5.81999 18.5509 5.72998 18.7909 5.72998C19.0309 5.72998 19.2509 5.81999 19.4209 5.98999C19.5909 6.15999 19.6809 6.38 19.6809 6.62C19.6809 6.86 19.5909 7.08 19.4209 7.25C19.2609 7.42 19.0309 7.51001 18.7909 7.51001ZM18.7209 6.53998V6.69C18.7409 6.71 18.7709 6.71997 18.8009 6.71997C18.9209 6.64997 18.9209 6.57998 18.8709 6.53998H18.7209Z" fill="#292D32"/>
<path d="M18.7904 7.76001C18.4804 7.76001 18.2004 7.63998 17.9804 7.41998C17.5404 6.97998 17.5404 6.24999 17.9804 5.79999C18.2004 5.57999 18.4804 5.46997 18.7904 5.46997C19.1004 5.46997 19.3804 5.59 19.6004 5.81C19.8204 6.03 19.9304 6.31 19.9304 6.62C19.9304 6.93 19.8104 7.20999 19.5904 7.42999C19.3904 7.63999 19.1004 7.76001 18.7904 7.76001ZM18.5404 6.87C18.6104 6.94 18.7004 6.96997 18.7904 6.96997C18.8804 6.96997 18.9704 6.93 19.0404 6.87C19.1804 6.73 19.1804 6.51 19.0404 6.37C18.9104 6.24 18.6704 6.24 18.5404 6.37C18.4804 6.43 18.4404 6.52 18.4404 6.62C18.4404 6.71 18.4704 6.8 18.5404 6.87Z" fill="#292D32"/>
<path d="M5.2103 21.0901C4.9803 21.0901 4.75029 21.0001 4.58029 20.8301C4.41029 20.6601 4.32031 20.4301 4.32031 20.2001C4.32031 19.9601 4.41029 19.7401 4.58029 19.5701C4.75029 19.4001 4.9703 19.3101 5.2103 19.3101C5.4503 19.3101 5.6703 19.4001 5.8403 19.5701C6.1903 19.9201 6.1903 20.4901 5.8403 20.8301C5.6703 21.0001 5.4403 21.0901 5.2103 21.0901ZM5.19031 20.1C5.17031 20.1 5.15031 20.1101 5.13031 20.1301C5.09031 20.1701 5.09031 20.2401 5.13031 20.2801C5.15031 20.3001 5.18032 20.3101 5.20032 20.3101L5.30029 20.2101C5.27029 20.1201 5.23031 20.1 5.19031 20.1Z" fill="#292D32"/>
<path d="M5.21054 21.3401C4.92054 21.3401 4.62054 21.2301 4.40054 21.0101C4.18054 20.7901 4.06055 20.5001 4.06055 20.2001C4.06055 19.8901 4.18054 19.6101 4.40054 19.3901C4.61054 19.1801 4.90054 19.0601 5.21054 19.0601C5.52054 19.0601 5.80054 19.1801 6.02054 19.4001C6.47054 19.8501 6.47054 20.5701 6.02054 21.0201C5.80054 21.2301 5.50054 21.3401 5.21054 21.3401ZM5.21054 19.8401C5.12054 19.8401 5.03054 19.8701 4.96054 19.9401C4.82054 20.0801 4.82054 20.3001 4.96054 20.4401C5.03054 20.5101 5.12054 20.54 5.21054 20.54C5.30054 20.54 5.40054 20.5001 5.46054 20.4301C5.52054 20.3701 5.56055 20.2801 5.56055 20.1801C5.56055 20.0901 5.52054 19.9901 5.46054 19.9301C5.39054 19.8801 5.30054 19.8401 5.21054 19.8401Z" fill="#292D32"/>
<path d="M21.5995 14.3C21.3695 14.3 21.1395 14.21 20.9695 14.04C20.6195 13.69 20.6195 13.12 20.9695 12.77C21.1395 12.6 21.3695 12.56 21.5995 12.51C21.8395 12.51 22.0595 12.6 22.2295 12.77C22.5795 13.12 22.5795 13.69 22.2295 14.04C22.0595 14.21 21.8295 14.3 21.5995 14.3ZM21.5295 13.48C21.5495 13.5 21.5795 13.51 21.6095 13.51C21.7195 13.44 21.7195 13.37 21.6795 13.33C21.6395 13.29 21.5695 13.29 21.5295 13.33C21.4895 13.37 21.4895 13.44 21.5295 13.48Z" fill="#292D32"/>
<path d="M21.6006 14.55C21.3106 14.55 21.0106 14.44 20.7906 14.22C20.3406 13.77 20.3406 13.05 20.7906 12.6C21.0106 12.38 21.2906 12.26 21.6006 12.26C21.9106 12.26 22.1906 12.38 22.4106 12.6C22.8606 13.05 22.8606 13.77 22.4106 14.22C22.1906 14.44 21.9006 14.55 21.6006 14.55ZM21.3506 13.66C21.4206 13.73 21.5106 13.76 21.6006 13.76C21.6906 13.76 21.7806 13.72 21.8506 13.66C21.9906 13.52 21.9906 13.3 21.8506 13.16C21.7106 13.02 21.4906 13.02 21.3506 13.16C21.2206 13.29 21.2106 13.52 21.3506 13.66Z" fill="#292D32"/>
<path d="M2.40032 14.3C2.17032 14.3 1.94031 14.21 1.77031 14.04C1.42031 13.69 1.42031 13.1201 1.77031 12.7701C2.12031 12.4201 2.69033 12.4201 3.04033 12.7701C3.39033 13.1201 3.39033 13.69 3.04033 14.04C2.85033 14.21 2.62032 14.3 2.40032 14.3ZM2.32033 13.48C2.36033 13.52 2.43032 13.52 2.47032 13.48C2.51032 13.44 2.51032 13.3701 2.47032 13.3301C2.43032 13.2901 2.36033 13.2901 2.32033 13.3301C2.28033 13.3701 2.28033 13.44 2.32033 13.48Z" fill="#292D32"/>
<path d="M2.39945 14.55C2.10945 14.55 1.80945 14.44 1.58945 14.22C1.13945 13.77 1.13945 13.05 1.58945 12.6C2.03945 12.15 2.76945 12.16 3.20945 12.6C3.65945 13.05 3.65945 13.77 3.20945 14.22C2.97945 14.44 2.68945 14.55 2.39945 14.55ZM2.13947 13.66C2.27947 13.8 2.49947 13.8 2.63947 13.66C2.77947 13.52 2.77947 13.29 2.63947 13.16C2.49947 13.02 2.27947 13.02 2.13947 13.16C2.00947 13.29 2.00947 13.52 2.13947 13.66Z" fill="#292D32"/>
<path d="M18.7909 21.09C18.5609 21.09 18.3309 21 18.1609 20.83C17.8109 20.48 17.8109 19.91 18.1609 19.56C18.5109 19.21 19.0809 19.21 19.4309 19.56C19.6009 19.73 19.6909 19.95 19.6909 20.19C19.6909 20.43 19.6009 20.65 19.4309 20.82C19.2509 21 19.0209 21.09 18.7909 21.09ZM18.7909 20.09C18.7609 20.09 18.7409 20.1 18.7209 20.12V20.27C18.7609 20.31 18.8309 20.31 18.8709 20.27C18.9109 20.23 18.9109 20.16 18.8709 20.12C18.8409 20.1 18.8209 20.09 18.7909 20.09Z" fill="#292D32"/>
<path d="M18.7901 21.34C18.5001 21.34 18.2001 21.23 17.9801 21.01C17.5301 20.56 17.5301 19.84 17.9801 19.39C18.4301 18.94 19.1501 18.94 19.6001 19.39C19.8201 19.61 19.9401 19.89 19.9401 20.2C19.9401 20.51 19.8201 20.79 19.6001 21.01C19.3801 21.23 19.0801 21.34 18.7901 21.34ZM18.5401 20.45C18.6801 20.59 18.9001 20.59 19.0401 20.45C19.1801 20.31 19.1801 20.09 19.0401 19.95C18.9001 19.81 18.6801 19.81 18.5401 19.95C18.4701 20.02 18.4401 20.11 18.4401 20.2C18.4401 20.29 18.4701 20.38 18.5401 20.45Z" fill="#292D32"/>
<path d="M5.2103 7.51001C4.9703 7.51001 4.75029 7.42 4.58029 7.25C4.41029 7.08 4.32031 6.86 4.32031 6.62C4.32031 6.38 4.41029 6.15999 4.58029 5.98999C4.75029 5.81999 4.9703 5.72998 5.2103 5.72998C5.4503 5.72998 5.6703 5.81999 5.8403 5.98999C6.1903 6.33999 6.1903 6.91001 5.8403 7.26001C5.6703 7.42001 5.4503 7.51001 5.2103 7.51001ZM5.13031 6.69C5.15031 6.71 5.18032 6.71997 5.20032 6.71997L5.30029 6.62L5.20032 6.52002C5.09032 6.58002 5.09031 6.65 5.13031 6.69Z" fill="#292D32"/>
<path d="M5.2103 7.76001C4.9003 7.76001 4.6203 7.63998 4.4003 7.41998C4.1903 7.20998 4.07031 6.91999 4.07031 6.60999C4.07031 6.29999 4.19031 6.01999 4.41031 5.79999C4.62031 5.58999 4.91031 5.46997 5.22031 5.46997C5.53031 5.46997 5.8103 5.59 6.0303 5.81C6.4703 6.26 6.4703 6.97999 6.0303 7.42999C5.8003 7.63999 5.5203 7.76001 5.2103 7.76001ZM4.9603 6.87C5.0303 6.94 5.1203 6.97998 5.2103 6.97998C5.3003 6.97998 5.3903 6.94 5.4603 6.88C5.5303 6.82 5.5603 6.72 5.5603 6.63C5.5603 6.54 5.52032 6.44 5.45032 6.38C5.33032 6.25 5.08032 6.25 4.95032 6.38C4.82032 6.5 4.8203 6.73 4.9603 6.87Z" fill="#292D32"/>
<path d="M11.9994 4.7C11.7594 4.7 11.5394 4.60999 11.3694 4.43999C11.1994 4.26999 11.1094 4.04999 11.1094 3.80999C11.1094 3.56999 11.1994 3.34998 11.3694 3.17998C11.7194 2.82998 12.2894 2.82998 12.6394 3.17998C12.9894 3.52998 12.9894 4.09999 12.6394 4.43999C12.4694 4.59999 12.2394 4.7 11.9994 4.7ZM12.0694 3.72997L11.9194 3.87999C11.9594 3.91999 12.0294 3.91999 12.0694 3.87999V3.72997ZM11.9294 3.72997C11.8894 3.76997 11.8894 3.83999 11.9294 3.87999L12.0794 3.72997H11.9294Z" fill="#292D32"/>
<path d="M11.9994 4.94999C11.6894 4.94999 11.4094 4.82996 11.1894 4.60996C10.9794 4.39996 10.8594 4.10996 10.8594 3.79996C10.8594 3.48996 10.9794 3.20997 11.1994 2.98997C11.6494 2.53997 12.3694 2.53997 12.8194 2.98997C13.2594 3.43997 13.2594 4.15996 12.8194 4.60996C12.5994 4.82996 12.3094 4.94999 11.9994 4.94999ZM12.2494 3.54996L11.7494 4.04996C11.8894 4.18996 12.1094 4.18996 12.2494 4.04996C12.3194 3.97996 12.3494 3.88996 12.3494 3.79996C12.3494 3.70996 12.3194 3.61996 12.2494 3.54996ZM11.9994 3.44999C11.9094 3.44999 11.8094 3.48997 11.7494 3.55997C11.6094 3.69997 11.6094 3.91997 11.7494 4.05997L12.2494 3.55997C12.1894 3.48997 12.0994 3.44999 11.9994 3.44999Z" fill="#292D32"/>
</svg>
