<svg width="24" height="24" viewBox="0 0 24 24" fill="none" xmlns="http://www.w3.org/2000/svg">
<path d="M12.0008 22.6C10.8908 22.6 9.8608 22.13 9.0908 21.29L2.2308 13.75C1.2608 12.69 0.960795 10.82 1.54079 9.51003L4.10081 3.75003C4.80081 2.18003 5.9708 1.41003 7.6908 1.41003H16.2808V2.16003V1.41003C18.0008 1.41003 19.1708 2.17004 19.8708 3.74004L22.4308 9.50003C23.0108 10.81 22.7208 12.68 21.7508 13.74L14.9008 21.29C14.1508 22.13 13.1108 22.6 12.0008 22.6ZM16.2908 2.90004H7.7008C6.3908 2.90004 5.8608 3.48003 5.4808 4.35003L2.9208 10.11C2.5808 10.88 2.7808 12.11 3.3408 12.73L10.2008 20.27C10.6808 20.8 11.3208 21.09 12.0008 21.09C12.6808 21.09 13.3208 20.8 13.8008 20.27L20.6508 12.72C21.2208 12.09 21.4208 10.87 21.0708 10.1L18.5108 4.34003C18.1308 3.48003 17.6008 2.90004 16.2908 2.90004Z" fill="#292D32"/>
<path d="M3.5 8.74999C3.09 8.74999 2.75 8.40999 2.75 7.99999C2.75 7.58999 3.09 7.24999 3.5 7.24999L20.5 7.23999C20.91 7.23999 21.25 7.57999 21.25 7.98999C21.25 8.39999 20.91 8.73999 20.5 8.73999L3.5 8.74999Z" fill="#292D32"/>
</svg>
