<svg width="24" height="24" viewBox="0 0 24 24" fill="none" xmlns="http://www.w3.org/2000/svg">
<path d="M6.19078 22.06C5.19078 22.06 4.22078 21.67 3.45078 20.92C2.20078 19.7 1.90078 17.9 2.68078 16.34L4.30078 13.1C4.64078 12.42 4.64078 11.6 4.30078 10.91L2.68078 7.65997C1.90078 6.09997 2.20078 4.29997 3.45078 3.07997C4.70078 1.85997 6.50078 1.58997 8.05078 2.40997L19.6408 8.50997C20.9408 9.18997 21.7508 10.53 21.7508 12C21.7508 13.47 20.9408 14.81 19.6408 15.49L8.05078 21.59C7.45078 21.91 6.82078 22.06 6.19078 22.06ZM6.20078 3.43997C5.51078 3.43997 4.91078 3.75997 4.50078 4.15997C3.88078 4.75997 3.44078 5.82997 4.02078 6.99997L5.64078 10.24C6.19078 11.35 6.19078 12.66 5.64078 13.77L4.02078 17.01C3.43078 18.18 3.88078 19.25 4.50078 19.85C5.12078 20.45 6.19078 20.88 7.35078 20.27L18.9408 14.17C19.7608 13.74 20.2508 12.93 20.2508 12.01C20.2508 11.09 19.7608 10.28 18.9408 9.84997L7.35078 3.72997C6.95078 3.51997 6.56078 3.43997 6.20078 3.43997Z" fill="#292D32"/>
</svg>
