<svg width="24" height="24" viewBox="0 0 24 24" fill="none" xmlns="http://www.w3.org/2000/svg">
<path d="M11.9998 21.7501C10.5298 21.7501 9.18985 20.9401 8.50985 19.6401L2.40985 8.05005C1.58985 6.50005 1.85985 4.70005 3.07985 3.45005C4.29985 2.20005 6.09985 1.90005 7.65985 2.68005L10.8998 4.30005C11.5798 4.64005 12.3998 4.64005 13.0898 4.30005L16.3298 2.68005C17.8998 1.90005 19.6998 2.20005 20.9198 3.45005C22.1398 4.70005 22.4098 6.50005 21.5898 8.05005L15.4898 19.6401C14.8098 20.9401 13.4698 21.7501 11.9998 21.7501ZM5.87985 3.75005C5.16985 3.75005 4.54985 4.09005 4.14985 4.50005C3.54985 5.12005 3.11985 6.19005 3.72985 7.35005L9.82985 18.9401C10.2598 19.7601 11.0698 20.2501 11.9898 20.2501C12.9098 20.2501 13.7198 19.7601 14.1498 18.9401L20.2498 7.35005C20.8598 6.19005 20.4398 5.11005 19.8298 4.50005C19.2298 3.89005 18.1698 3.44005 16.9898 4.02005L13.7498 5.64005C12.6398 6.19005 11.3298 6.19005 10.2198 5.64005L6.98985 4.02005C6.60985 3.83005 6.22985 3.75005 5.87985 3.75005Z" fill="#292D32"/>
</svg>
