<svg width="24" height="24" viewBox="0 0 24 24" fill="none" xmlns="http://www.w3.org/2000/svg">
<path d="M7.08002 16.1C6.72002 16.1 6.36003 16.01 6.03003 15.82C5.36003 15.44 4.96002 14.76 4.96002 14V10.43C4.96002 10.17 4.79002 9.73001 4.58002 9.48001L2.06 6.82999C1.59 6.36999 1.25 5.56999 1.25 4.95999V3.41C1.25 2.2 2.16998 1.23999 3.34998 1.23999H12.25C13.41 1.23999 14.35 2.18 14.35 3.34V4.82001C14.35 5.60001 13.9 6.45999 13.46 6.89999L10.53 9.48999C10.3 9.67999 10.11 10.14 10.11 10.48V13.38C10.11 14.07 9.69001 14.84 9.14001 15.17L8.21997 15.77C7.85997 15.99 7.47002 16.1 7.08002 16.1ZM3.34998 2.75C3.00998 2.75 2.75 3.04001 2.75 3.42001V4.97C2.75 5.14 2.92001 5.57001 3.14001 5.79001L5.71997 8.5C6.09997 8.97 6.46997 9.73999 6.46997 10.43V14C6.46997 14.3 6.66003 14.45 6.78003 14.51C6.94003 14.6 7.19998 14.65 7.41998 14.51L8.34998 13.91C8.46998 13.84 8.60999 13.56 8.60999 13.39V10.49C8.60999 9.69999 8.99999 8.82999 9.54999 8.35999L12.43 5.81C12.61 5.63 12.85 5.14001 12.85 4.82001V3.34C12.85 3.01 12.58 2.73999 12.25 2.73999H3.34998V2.75Z" fill="#292D32"/>
<path d="M15 22.75H9C3.57 22.75 1.25 20.43 1.25 15V12C1.25 11.59 1.59 11.25 2 11.25C2.41 11.25 2.75 11.59 2.75 12V15C2.75 19.61 4.39 21.25 9 21.25H15C19.61 21.25 21.25 19.61 21.25 15V8.99999C21.25 6.09999 20.57 4.41998 19.04 3.54998C18.88 3.45998 18.35 3.22 16.83 2.98C16.42 2.92 16.14 2.52998 16.21 2.11998C16.28 1.70998 16.67 1.42999 17.07 1.49999C18.38 1.70999 19.27 1.94998 19.78 2.23998C21.8 3.38998 22.75 5.53999 22.75 8.99999V15C22.75 20.43 20.43 22.75 15 22.75Z" fill="#292D32"/>
<path d="M18 13.75H13C12.59 13.75 12.25 13.41 12.25 13C12.25 12.59 12.59 12.25 13 12.25H18C18.41 12.25 18.75 12.59 18.75 13C18.75 13.41 18.41 13.75 18 13.75Z" fill="#292D32"/>
<path d="M18 17.75H11C10.59 17.75 10.25 17.41 10.25 17C10.25 16.59 10.59 16.25 11 16.25H18C18.41 16.25 18.75 16.59 18.75 17C18.75 17.41 18.41 17.75 18 17.75Z" fill="#292D32"/>
</svg>
