<svg width="24" height="24" viewBox="0 0 24 24" fill="none" xmlns="http://www.w3.org/2000/svg">
<path d="M6.86957 12.28C6.44957 12.28 6.01955 12.26 5.59955 12.22L2.42956 11.93C2.01956 11.89 1.70957 11.53 1.74957 11.11C1.78957 10.7 2.13958 10.39 2.56958 10.43L5.73956 10.72C10.6396 11.17 15.3995 8.69004 17.8495 4.41004C18.0595 4.05004 18.5096 3.93004 18.8696 4.13004C19.2296 4.34004 19.3496 4.79003 19.1496 5.15003C16.6296 9.58003 11.8996 12.28 6.86957 12.28Z" fill="black"/>
<path d="M5.50027 20.12C5.37027 20.12 5.25028 20.09 5.13028 20.02C4.77027 19.81 4.65025 19.36 4.85025 19C7.59025 14.21 12.9103 11.43 18.4003 11.94L21.5703 12.23C21.9803 12.27 22.2903 12.63 22.2503 13.05C22.2103 13.46 21.8603 13.76 21.4303 13.73L18.2603 13.44C13.3603 12.99 8.60029 15.47 6.15029 19.75C6.01029 19.99 5.76027 20.12 5.50027 20.12Z" fill="black"/>
<path d="M12 22.75C6.07 22.75 1.25 17.93 1.25 12C1.25 6.07 6.07 1.25 12 1.25C17.93 1.25 22.75 6.07 22.75 12C22.75 17.93 17.93 22.75 12 22.75ZM12 2.75C6.9 2.75 2.75 6.9 2.75 12C2.75 17.1 6.9 21.25 12 21.25C17.1 21.25 21.25 17.1 21.25 12C21.25 6.9 17.1 2.75 12 2.75Z" fill="black"/>
<path d="M16.4704 21.7001C16.1304 21.7001 15.8304 21.4701 15.7404 21.1301L14.5305 16.1401C13.7605 12.9801 12.2804 9.97005 10.2304 7.43005L7.05042 3.48006C6.79042 3.16006 6.84041 2.69005 7.16041 2.43005C7.48041 2.17005 7.95045 2.22006 8.21045 2.54006L11.3904 6.49004C13.5704 9.20004 15.1604 12.4101 15.9804 15.7801L17.1904 20.77C17.2904 21.17 17.0404 21.58 16.6404 21.68C16.5904 21.69 16.5304 21.7001 16.4704 21.7001Z" fill="black"/>
</svg>
