<svg width="24" height="24" viewBox="0 0 24 24" fill="none" xmlns="http://www.w3.org/2000/svg">
<path d="M6.44 9.74997C6.29 9.74997 6.14999 9.70997 6.01999 9.61997L1.57999 6.61997C1.37999 6.47997 1.25 6.24998 1.25 6.00998C1.25 5.75998 1.36 5.52999 1.56 5.38999L7.12 1.38999C7.38 1.20999 7.72001 1.19998 7.98001 1.37998L12.42 4.37998C12.62 4.51998 12.75 4.74996 12.75 4.98996C12.75 5.23996 12.64 5.46996 12.44 5.60996L6.88 9.60996C6.75 9.69996 6.6 9.74997 6.44 9.74997ZM3.31 5.97998L6.42999 8.08997L10.69 5.01996L7.57001 2.90998L3.31 5.97998Z" fill="black"/>
<path d="M17.5596 9.74993C17.4096 9.74993 17.2496 9.69991 17.1196 9.60991L11.5596 5.60991C11.3596 5.46991 11.2396 5.22992 11.2496 4.98992C11.2496 4.73992 11.3796 4.51993 11.5796 4.37993L16.0196 1.37993C16.2796 1.20993 16.6196 1.20994 16.8796 1.38994L22.4396 5.38994C22.6396 5.52994 22.7596 5.76994 22.7496 6.00994C22.7496 6.25994 22.6196 6.47992 22.4196 6.61992L17.9796 9.61992C17.8496 9.70992 17.6996 9.74993 17.5596 9.74993ZM13.3096 5.01992L17.5696 8.08993L20.6896 5.97994L16.4296 2.90993L13.3096 5.01992Z" fill="black"/>
<path d="M7.5596 17.7499C7.4096 17.7499 7.2496 17.6999 7.1196 17.6099L1.5596 13.6099C1.3596 13.4699 1.2396 13.2299 1.2496 12.9899C1.2496 12.7399 1.37959 12.5199 1.57959 12.3799L6.01959 9.37993C6.27959 9.20993 6.61961 9.20994 6.87961 9.38994L12.4396 13.3899C12.6396 13.5299 12.7596 13.7699 12.7496 14.0099C12.7496 14.2599 12.6196 14.4799 12.4196 14.6199L7.97961 17.6199C7.84961 17.7099 7.6996 17.7499 7.5596 17.7499ZM3.3096 13.0199L7.56961 16.0899L10.6896 13.9799L6.4296 10.9099L3.3096 13.0199Z" fill="black"/>
<path d="M16.44 17.75C16.29 17.75 16.15 17.71 16.02 17.62L11.58 14.62C11.38 14.48 11.25 14.25 11.25 14.01C11.25 13.76 11.36 13.53 11.56 13.39L17.12 9.38999C17.37 9.20999 17.72 9.19998 17.98 9.37998L22.42 12.38C22.62 12.52 22.75 12.75 22.75 12.99C22.75 13.24 22.64 13.47 22.44 13.61L16.88 17.61C16.75 17.7 16.6 17.75 16.44 17.75ZM13.31 13.98L16.43 16.09L20.69 13.02L17.57 10.91L13.31 13.98Z" fill="black"/>
<path d="M12 22.65C11.75 22.65 11.5 22.6 11.27 22.49L4.69 19.45C4.42 19.33 4.25 19.06 4.25 18.77V15.5C4.25 15.09 4.59 14.75 5 14.75C5.41 14.75 5.75 15.09 5.75 15.5V18.29L11.9 21.13C11.97 21.16 12.04 21.16 12.11 21.13L18.26 18.29V15.5C18.26 15.09 18.6 14.75 19.01 14.75C19.42 14.75 19.76 15.09 19.76 15.5V18.77C19.76 19.06 19.59 19.33 19.32 19.45L12.74 22.49C12.5 22.6 12.25 22.65 12 22.65Z" fill="black"/>
</svg>
