<svg width="24" height="24" viewBox="0 0 24 24" fill="none" xmlns="http://www.w3.org/2000/svg">
<path d="M17.74 22.75H7.63C7.31 22.75 7.03 22.55 6.92 22.26C6.81 21.96 6.9 21.63 7.14 21.43C7.38 21.23 7.6 20.97 7.76 20.69C8.08 20.18 8.24 19.6 8.24 19.01C8.24 17.22 6.78 15.76 4.99 15.76C4.25 15.76 3.55 16.01 2.96 16.48C2.73 16.66 2.43 16.69 2.17 16.57C1.91 16.45 1.75 16.18 1.75 15.89V11.52C1.75 9.03002 3.77 7.01001 6.26 7.01001H17.74C20.23 7.01001 22.25 9.03002 22.25 11.52V12.96C22.25 13.37 21.91 13.71 21.5 13.71H19.48C19.13 13.71 18.81 13.84 18.58 14.08L18.57 14.09C18.29 14.36 18.16 14.73 18.19 15.11C18.25 15.77 18.88 16.3 19.6 16.3H21.5C21.91 16.3 22.25 16.64 22.25 17.05V18.24C22.25 20.73 20.23 22.75 17.74 22.75ZM9.18 21.25H17.74C19.4 21.25 20.75 19.9 20.75 18.24V17.8H19.6C18.09 17.8 16.81 16.68 16.69 15.24C16.61 14.42 16.91 13.61 17.51 13.02C18.03 12.49 18.73 12.2 19.48 12.2H20.75V11.51C20.75 9.85001 19.4 8.5 17.74 8.5H6.26C4.6 8.5 3.25 9.85001 3.25 11.51V14.59C3.81 14.37 4.4 14.25 5 14.25C7.62 14.25 9.75 16.38 9.75 19C9.75 19.79 9.55 20.57 9.18 21.25Z" fill="#292D32"/>
<path d="M2.5 13.16C2.09 13.16 1.75 12.82 1.75 12.41V7.84006C1.75 6.35006 2.69 5.00001 4.08 4.47001L12.02 1.47001C12.83 1.16001 13.75 1.27005 14.46 1.77005C15.18 2.27005 15.6 3.08005 15.6 3.95005V7.75003C15.6 8.16003 15.26 8.50003 14.85 8.50003C14.44 8.50003 14.1 8.16003 14.1 7.75003V3.95005C14.1 3.57005 13.92 3.22003 13.6 3.00003C13.28 2.78003 12.9 2.73003 12.54 2.87003L4.6 5.87003C3.79 6.18003 3.24 6.97006 3.24 7.84006V12.41C3.25 12.83 2.91 13.16 2.5 13.16Z" fill="#292D32"/>
<path d="M19.6005 17.7999C18.0905 17.7999 16.8105 16.6799 16.6905 15.2399C16.6105 14.4099 16.9105 13.5999 17.5105 13.0099C18.0205 12.4899 18.7205 12.2 19.4705 12.2H21.5505C22.5405 12.23 23.3005 13.0099 23.3005 13.9699V16.03C23.3005 16.99 22.5405 17.7699 21.5805 17.7999H19.6005ZM21.5305 13.7H19.4805C19.1305 13.7 18.8105 13.8299 18.5805 14.0699C18.2905 14.3499 18.1505 14.7299 18.1905 15.1099C18.2505 15.7699 18.8805 16.2999 19.6005 16.2999H21.5605C21.6905 16.2999 21.8105 16.18 21.8105 16.03V13.9699C21.8105 13.8199 21.6905 13.71 21.5305 13.7Z" fill="#292D32"/>
<path d="M14 12.75H7C6.59 12.75 6.25 12.41 6.25 12C6.25 11.59 6.59 11.25 7 11.25H14C14.41 11.25 14.75 11.59 14.75 12C14.75 12.41 14.41 12.75 14 12.75Z" fill="#292D32"/>
<path d="M5 23.75C3.34 23.75 1.78 22.87 0.940002 21.44C0.490002 20.72 0.25 19.87 0.25 19C0.25 17.54 0.899999 16.19 2.03 15.29C2.87 14.62 3.93 14.25 5 14.25C7.62 14.25 9.75 16.38 9.75 19C9.75 19.87 9.51 20.72 9.06 21.45C8.82 21.87 8.49 22.25 8.11 22.57C7.28 23.33 6.17 23.75 5 23.75ZM5 15.75C4.26 15.75 3.56 16 2.97 16.47C2.2 17.08 1.75 18.01 1.75 19C1.75 19.59 1.91 20.17 2.22 20.67C2.81 21.67 3.85 22.25 5 22.25C5.79 22.25 6.55 21.96 7.13 21.44C7.39 21.22 7.61 20.96 7.77 20.68C8.09 20.17 8.25 19.59 8.25 19C8.25 17.21 6.79 15.75 5 15.75Z" fill="#292D32"/>
<path d="M6.49 19.73H3.5C3.09 19.73 2.75 19.39 2.75 18.98C2.75 18.57 3.09 18.23 3.5 18.23H6.49C6.9 18.23 7.24 18.57 7.24 18.98C7.24 19.39 6.91 19.73 6.49 19.73Z" fill="#292D32"/>
<path d="M5 21.26C4.59 21.26 4.25 20.92 4.25 20.51V17.52C4.25 17.11 4.59 16.77 5 16.77C5.41 16.77 5.75 17.11 5.75 17.52V20.51C5.75 20.93 5.41 21.26 5 21.26Z" fill="#292D32"/>
</svg>
