<svg width="24" height="24" viewBox="0 0 24 24" fill="none" xmlns="http://www.w3.org/2000/svg">
<path d="M17.7395 22.75H7.63953C7.32953 22.75 7.04953 22.56 6.93953 22.26C6.82953 21.96 6.90952 21.64 7.14952 21.43C7.84952 20.81 8.25952 19.92 8.25952 18.99C8.25952 17.2 6.79952 15.74 5.00952 15.74C4.26952 15.74 3.56952 15.99 2.97952 16.46C2.74952 16.64 2.44953 16.67 2.18953 16.55C1.92953 16.43 1.76953 16.16 1.76953 15.87V11.5C1.76953 9.01 3.78953 6.98999 6.27953 6.98999H17.7595C20.2495 6.98999 22.2695 9.01 22.2695 11.5V12.94C22.2695 13.35 21.9295 13.69 21.5195 13.69H19.4995C19.1495 13.69 18.8295 13.82 18.5995 14.06L18.5895 14.07C18.3095 14.34 18.1795 14.71 18.2095 15.09C18.2695 15.75 18.8995 16.28 19.6195 16.28H21.5195C21.9295 16.28 22.2695 16.62 22.2695 17.03V18.22C22.2495 20.73 20.2295 22.75 17.7395 22.75ZM9.17952 21.25H17.7395C19.3995 21.25 20.7495 19.9 20.7495 18.24V17.8H19.5995C18.0895 17.8 16.8095 16.68 16.6895 15.24C16.6095 14.42 16.9095 13.61 17.5095 13.02C18.0295 12.49 18.7295 12.2 19.4795 12.2H20.7495V11.51C20.7495 9.85001 19.3995 8.5 17.7395 8.5H6.25952C4.59952 8.5 3.24953 9.85001 3.24953 11.51V14.59C3.80953 14.37 4.39953 14.25 4.99953 14.25C7.61953 14.25 9.74953 16.38 9.74953 19C9.74953 19.79 9.54952 20.57 9.17952 21.25Z" fill="#292D32"/>
<path d="M2.5 12.2601C2.09 12.2601 1.75 11.9201 1.75 11.5101V7.84011C1.75 6.35011 2.68001 4.99005 4.07001 4.47005L12.01 1.47005C12.83 1.17005 13.75 1.28011 14.46 1.78011C15.17 2.28011 15.6 3.09009 15.6 3.95009V7.75008C15.6 8.16008 15.26 8.50008 14.85 8.50008C14.44 8.50008 14.1 8.16008 14.1 7.75008V3.95009C14.1 3.57009 13.92 3.23009 13.61 3.01009C13.29 2.79009 12.9 2.74008 12.54 2.87008L4.60001 5.87008C3.78001 6.18008 3.25 6.95011 3.25 7.84011V11.5101C3.25 11.9201 2.91 12.2601 2.5 12.2601Z" fill="#292D32"/>
<path d="M19.6005 17.7999C18.0905 17.7999 16.8105 16.6799 16.6905 15.2399C16.6105 14.4099 16.9105 13.5999 17.5105 13.0099C18.0205 12.4899 18.7205 12.2 19.4705 12.2H21.5505C22.5405 12.23 23.3005 13.0099 23.3005 13.9699V16.03C23.3005 16.99 22.5405 17.7699 21.5805 17.7999H19.6005ZM21.5305 13.7H19.4805C19.1305 13.7 18.8105 13.8299 18.5805 14.0699C18.2905 14.3499 18.1505 14.7299 18.1905 15.1099C18.2505 15.7699 18.8805 16.2999 19.6005 16.2999H21.5605C21.6905 16.2999 21.8105 16.18 21.8105 16.03V13.9699C21.8105 13.8199 21.6905 13.71 21.5305 13.7Z" fill="#292D32"/>
<path d="M14 12.75H7C6.59 12.75 6.25 12.41 6.25 12C6.25 11.59 6.59 11.25 7 11.25H14C14.41 11.25 14.75 11.59 14.75 12C14.75 12.41 14.41 12.75 14 12.75Z" fill="#292D32"/>
<path d="M5 23.75C2.38 23.75 0.25 21.62 0.25 19C0.25 17.54 0.899999 16.19 2.03 15.29C2.87 14.62 3.93 14.25 5 14.25C7.62 14.25 9.75 16.38 9.75 19C9.75 20.36 9.16 21.66 8.14 22.56C7.26 23.33 6.15 23.75 5 23.75ZM5 15.75C4.26 15.75 3.56 16 2.97 16.47C2.2 17.08 1.75 18.01 1.75 19C1.75 20.79 3.21 22.25 5 22.25C5.78 22.25 6.53999 21.96 7.14999 21.44C7.84999 20.82 8.25 19.94 8.25 19C8.25 17.21 6.79 15.75 5 15.75Z" fill="#292D32"/>
<path d="M3.99988 20.75C3.74988 20.75 3.49988 20.62 3.35988 20.39C3.14988 20.03 3.25988 19.57 3.61988 19.36L4.50988 18.83V17.75C4.50988 17.34 4.84988 17 5.25988 17C5.66988 17 6.00988 17.34 6.00988 17.75V19.25C6.00988 19.51 5.86988 19.76 5.64988 19.89L4.39988 20.64C4.26988 20.72 4.12988 20.75 3.99988 20.75Z" fill="#292D32"/>
</svg>
