<svg width="24" height="24" viewBox="0 0 24 24" fill="none" xmlns="http://www.w3.org/2000/svg">
<path d="M11.9999 22.4999C11.5999 22.4999 11.1999 22.4099 10.8799 22.2299L5.55992 19.1899C4.75992 18.7299 4.28992 17.6999 4.46992 16.7899L6.17991 8.21991C6.24991 7.88991 6.43992 7.47991 6.65992 7.21991L10.2599 2.89991C11.1499 1.82991 12.8299 1.82991 13.7199 2.89991L17.3199 7.21991C17.5399 7.47991 17.7299 7.88991 17.7999 8.21991L19.5099 16.7899C19.6899 17.6999 19.2199 18.7299 18.4199 19.1799L13.0999 22.2199C12.7999 22.4099 12.3999 22.4999 11.9999 22.4999ZM11.9999 3.55991C11.7899 3.55991 11.5899 3.66991 11.4199 3.85991L7.81993 8.17991C7.76993 8.23991 7.67992 8.42991 7.65992 8.50991L5.94993 17.0799C5.89993 17.3499 6.07992 17.7399 6.30992 17.8799L11.6299 20.9199C11.8099 21.0199 12.1999 21.0199 12.3699 20.9199L17.6899 17.8799C17.9299 17.7399 18.1099 17.3499 18.0499 17.0799L16.3399 8.50991C16.3199 8.42991 16.2299 8.23991 16.1799 8.17991L12.5799 3.85991C12.4099 3.66991 12.2099 3.55991 11.9999 3.55991Z" fill="black"/>
<path d="M12.0004 21.76C11.4604 21.76 11.0004 21.43 10.8204 20.93L6.47042 8.75C6.33042 8.36 6.53043 7.93 6.92043 7.79C7.31043 7.65 7.74043 7.85 7.88043 8.24L12.0004 19.77L16.1104 8.27C16.2504 7.88 16.6804 7.68 17.0704 7.82C17.4604 7.96 17.6604 8.39 17.5204 8.78L13.1804 20.94C13.0004 21.44 12.5404 21.76 12.0004 21.76Z" fill="black"/>
</svg>
