<svg width="24" height="24" viewBox="0 0 24 24" fill="none" xmlns="http://www.w3.org/2000/svg">
<path d="M15 22.75H9C3.57 22.75 1.25 20.43 1.25 15V9C1.25 3.57 3.57 1.25 9 1.25H15C20.43 1.25 22.75 3.57 22.75 9V15C22.75 20.43 20.43 22.75 15 22.75ZM9 2.75C4.39 2.75 2.75 4.39 2.75 9V15C2.75 19.61 4.39 21.25 9 21.25H15C19.61 21.25 21.25 19.61 21.25 15V9C21.25 4.39 19.61 2.75 15 2.75H9Z" fill="#292D32"/>
<path d="M10.0911 18.25C9.47109 18.25 8.8611 18.02 8.3911 17.55L6.45109 15.61C5.51109 14.67 5.51109 13.15 6.45109 12.21L12.2011 6.46C13.1411 5.52 14.6611 5.52 15.6011 6.46L17.5411 8.39999C18.4811 9.33999 18.4811 10.86 17.5411 11.8L11.7911 17.55C11.3211 18.01 10.7111 18.25 10.0911 18.25ZM7.5211 14.55L9.4611 16.49C9.8111 16.84 10.3911 16.84 10.7411 16.49L16.4911 10.74C16.8411 10.39 16.8411 9.81 16.4911 9.46L14.5511 7.52C14.2011 7.17 13.6211 7.17 13.2711 7.52L7.5211 13.27C7.1711 13.62 7.1711 14.19 7.5211 14.55Z" fill="#292D32"/>
<path d="M13.5802 15.44C13.3902 15.44 13.2002 15.37 13.0502 15.22L8.77023 10.94C8.48023 10.65 8.48023 10.17 8.77023 9.87998C9.06023 9.58998 9.54023 9.58998 9.83023 9.87998L14.1102 14.16C14.4002 14.45 14.4002 14.93 14.1102 15.22C13.9702 15.37 13.7702 15.44 13.5802 15.44Z" fill="#292D32"/>
</svg>
