<svg width="24" height="24" viewBox="0 0 24 24" fill="none" xmlns="http://www.w3.org/2000/svg">
<path d="M9.46992 15.28C9.27992 15.28 9.08992 15.21 8.93992 15.06C8.11992 14.24 7.66992 13.15 7.66992 12C7.66992 9.61 9.60992 7.67 11.9999 7.67C13.1499 7.67 14.2399 8.12 15.0599 8.94C15.1999 9.08 15.2799 9.27 15.2799 9.47C15.2799 9.67 15.1999 9.86 15.0599 10L9.99992 15.06C9.84992 15.21 9.65992 15.28 9.46992 15.28ZM11.9999 9.17C10.4399 9.17 9.16992 10.44 9.16992 12C9.16992 12.5 9.29992 12.98 9.53992 13.4L13.3999 9.54C12.9799 9.3 12.4999 9.17 11.9999 9.17Z" fill="#292D32"/>
<path d="M5.59984 18.51C5.42984 18.51 5.24984 18.45 5.10984 18.33C4.03984 17.42 3.07984 16.3 2.25984 15C1.19984 13.35 1.19984 10.66 2.25984 9C4.69984 5.18 8.24984 2.98 11.9998 2.98C14.1998 2.98 16.3698 3.74 18.2698 5.17C18.5998 5.42 18.6698 5.89 18.4198 6.22C18.1698 6.55 17.6998 6.62 17.3698 6.37C15.7298 5.13 13.8698 4.48 11.9998 4.48C8.76984 4.48 5.67984 6.42 3.51984 9.81C2.76984 10.98 2.76984 13.02 3.51984 14.19C4.26984 15.36 5.12984 16.37 6.07984 17.19C6.38984 17.46 6.42984 17.93 6.15984 18.25C6.01984 18.42 5.80984 18.51 5.59984 18.51Z" fill="#292D32"/>
<path d="M12.0006 21.02C10.6706 21.02 9.37055 20.75 8.12055 20.22C7.74055 20.06 7.56055 19.62 7.72055 19.24C7.88055 18.86 8.32055 18.68 8.70055 18.84C9.76055 19.29 10.8706 19.52 11.9906 19.52C15.2206 19.52 18.3106 17.58 20.4706 14.19C21.2206 13.02 21.2206 10.98 20.4706 9.81C20.1606 9.32 19.8206 8.85 19.4606 8.41C19.2006 8.09 19.2506 7.62 19.5706 7.35C19.8906 7.09 20.3606 7.13 20.6306 7.46C21.0206 7.94 21.4006 8.46 21.7406 9C22.8006 10.65 22.8006 13.34 21.7406 15C19.3006 18.82 15.7506 21.02 12.0006 21.02Z" fill="#292D32"/>
<path d="M12.6896 16.27C12.3396 16.27 12.0196 16.02 11.9496 15.66C11.8696 15.25 12.1396 14.86 12.5496 14.79C13.6496 14.59 14.5696 13.67 14.7696 12.57C14.8496 12.16 15.2396 11.9 15.6496 11.97C16.0596 12.05 16.3296 12.44 16.2496 12.85C15.9296 14.58 14.5496 15.95 12.8296 16.27C12.7796 16.26 12.7396 16.27 12.6896 16.27Z" fill="#292D32"/>
<path d="M1.99945 22.75C1.80945 22.75 1.61945 22.68 1.46945 22.53C1.17945 22.24 1.17945 21.76 1.46945 21.47L8.93945 14C9.22945 13.71 9.70945 13.71 9.99945 14C10.2895 14.29 10.2895 14.77 9.99945 15.06L2.52945 22.53C2.37945 22.68 2.18945 22.75 1.99945 22.75Z" fill="#292D32"/>
<path d="M14.5307 10.22C14.3407 10.22 14.1507 10.15 14.0007 10C13.7107 9.71 13.7107 9.23 14.0007 8.94L21.4707 1.47C21.7607 1.18 22.2407 1.18 22.5307 1.47C22.8207 1.76 22.8207 2.24 22.5307 2.53L15.0607 10C14.9107 10.15 14.7207 10.22 14.5307 10.22Z" fill="#292D32"/>
</svg>
