<svg width="24" height="24" viewBox="0 0 24 24" fill="none" xmlns="http://www.w3.org/2000/svg">
<path d="M13 22.75H9C3.57 22.75 1.25 20.43 1.25 15V9C1.25 3.57 3.57 1.25 9 1.25H15C20.43 1.25 22.75 3.57 22.75 9V13C22.75 13.41 22.41 13.75 22 13.75C21.59 13.75 21.25 13.41 21.25 13V9C21.25 4.39 19.61 2.75 15 2.75H9C4.39 2.75 2.75 4.39 2.75 9V15C2.75 19.61 4.39 21.25 9 21.25H13C13.41 21.25 13.75 21.59 13.75 22C13.75 22.41 13.41 22.75 13 22.75Z" fill="#292D32"/>
<path d="M7.33009 15.24C7.17009 15.24 7.0101 15.19 6.8701 15.08C6.5401 14.83 6.48012 14.36 6.73012 14.03L9.11009 10.94C9.40009 10.57 9.81011 10.33 10.2801 10.27C10.7501 10.21 11.2101 10.34 11.5801 10.63L13.4101 12.07C13.4801 12.13 13.5501 12.12 13.6001 12.12C13.6401 12.12 13.7101 12.1 13.7701 12.02L16.0801 9.04C16.3301 8.71 16.8001 8.65001 17.1301 8.91001C17.4601 9.16001 17.5201 9.63001 17.2601 9.96001L14.9501 12.94C14.6601 13.31 14.2501 13.55 13.7801 13.6C13.3201 13.66 12.8501 13.53 12.4901 13.24L10.6601 11.8C10.5901 11.74 10.5101 11.74 10.4701 11.75C10.4301 11.75 10.3601 11.77 10.3001 11.85L7.92012 14.94C7.78012 15.14 7.56009 15.24 7.33009 15.24Z" fill="#292D32"/>
<path d="M20.2605 22.75C19.9105 22.75 19.4604 22.64 18.9304 22.32L18.6804 22.17C18.6104 22.13 18.4004 22.13 18.3304 22.17L18.0804 22.32C16.9304 23.01 16.2005 22.72 15.8805 22.48C15.5505 22.24 15.0404 21.64 15.3404 20.32L15.3905 20.11C15.4105 20.03 15.3504 19.84 15.3004 19.78L14.9505 19.43C14.3605 18.83 14.1304 18.13 14.3304 17.5C14.5304 16.88 15.1205 16.44 15.9505 16.3L16.3304 16.24C16.4004 16.22 16.5404 16.12 16.5804 16.05L16.8604 15.48C17.2504 14.69 17.8505 14.24 18.5105 14.24C19.1705 14.24 19.7705 14.69 20.1605 15.48L20.4405 16.04C20.4805 16.11 20.6205 16.21 20.6905 16.23L21.0705 16.29C21.9005 16.43 22.4905 16.87 22.6905 17.49C22.8905 18.11 22.6705 18.81 22.0705 19.42L21.7205 19.77C21.6705 19.83 21.6105 20.02 21.6305 20.1L21.6804 20.31C21.9804 21.63 21.4705 22.23 21.1405 22.47C20.9605 22.61 20.6705 22.75 20.2605 22.75ZM18.4904 15.75C18.4804 15.76 18.3405 15.86 18.2005 16.15L17.9205 16.72C17.6805 17.21 17.1104 17.63 16.5804 17.72L16.2005 17.78C15.8805 17.83 15.7705 17.94 15.7605 17.96C15.7605 17.98 15.7904 18.14 16.0204 18.37L16.3704 18.72C16.7804 19.14 16.9904 19.86 16.8604 20.43L16.8104 20.64C16.7204 21.03 16.7604 21.2 16.7804 21.26C16.8104 21.24 16.9804 21.22 17.3104 21.02L17.5604 20.87C18.1104 20.54 18.9005 20.54 19.4505 20.87L19.7005 21.02C20.1105 21.27 20.2805 21.24 20.2905 21.24C20.2505 21.24 20.3004 21.04 20.2104 20.64L20.1605 20.43C20.0305 19.85 20.2404 19.14 20.6504 18.72L21.0004 18.37C21.2304 18.14 21.2605 17.98 21.2605 17.95C21.2505 17.93 21.1405 17.83 20.8205 17.77L20.4405 17.71C19.9005 17.62 19.3405 17.2 19.1005 16.71L18.8205 16.15C18.6605 15.85 18.5204 15.76 18.4904 15.75Z" fill="#292D32"/>
</svg>
