<svg width="24" height="24" viewBox="0 0 24 24" fill="none" xmlns="http://www.w3.org/2000/svg">
<path d="M12.7498 9.42001H8.6698C6.4198 9.42001 4.58984 7.59 4.58984 5.34C4.58984 3.09 6.4198 1.26001 8.6698 1.26001H12.7498V9.42001ZM8.6698 2.75C7.2498 2.75 6.08984 3.90999 6.08984 5.32999C6.08984 6.74999 7.2498 7.91 8.6698 7.91H11.2498V2.73999H8.6698V2.75Z" fill="black"/>
<path d="M12.7498 16.08H8.6698C6.4198 16.08 4.58984 14.25 4.58984 12C4.58984 9.75003 6.4198 7.92004 8.6698 7.92004H12.7498V16.08ZM8.6698 9.42004C7.2498 9.42004 6.08984 10.58 6.08984 12C6.08984 13.42 7.2498 14.58 8.6698 14.58H11.2498V9.41003H8.6698V9.42004Z" fill="black"/>
<path d="M8.6698 22.75C6.4198 22.75 4.58984 20.92 4.58984 18.67C4.58984 16.42 6.4198 14.59 8.6698 14.59H12.7498V18.67C12.7498 20.92 10.9198 22.75 8.6698 22.75ZM8.6698 16.08C7.2498 16.08 6.08984 17.24 6.08984 18.66C6.08984 20.08 7.2498 21.24 8.6698 21.24C10.0898 21.24 11.2498 20.08 11.2498 18.66V16.08H8.6698Z" fill="black"/>
<path d="M15.33 9.42001H11.25V1.25H15.33C17.58 1.25 19.41 3.07999 19.41 5.32999C19.42 7.57999 17.58 9.42001 15.33 9.42001ZM12.75 7.92001H15.33C16.75 7.92001 17.91 6.76 17.91 5.34C17.91 3.92 16.75 2.76001 15.33 2.76001H12.75V7.92001Z" fill="black"/>
<path d="M15.33 16.08C13.08 16.08 11.25 14.25 11.25 12C11.25 9.75003 13.08 7.92004 15.33 7.92004C17.58 7.92004 19.41 9.75003 19.41 12C19.41 14.25 17.58 16.08 15.33 16.08ZM15.33 9.42004C13.91 9.42004 12.75 10.58 12.75 12C12.75 13.42 13.91 14.58 15.33 14.58C16.75 14.58 17.91 13.42 17.91 12C17.91 10.58 16.76 9.42004 15.33 9.42004Z" fill="black"/>
</svg>
