<svg width="24" height="24" viewBox="0 0 24 24" fill="none" xmlns="http://www.w3.org/2000/svg">
<path d="M10.9308 22.75C10.4508 22.75 9.97082 22.63 9.53082 22.39C8.64082 21.89 8.11078 21 8.11078 19.99V14.64C8.11078 14.13 7.78076 13.38 7.47076 12.99L3.67078 9.00003C3.04078 8.37003 2.55078 7.27002 2.55078 6.46002V4.14005C2.55078 2.53005 3.7708 1.27002 5.3208 1.27002H18.6608C20.1908 1.27002 21.4308 2.51004 21.4308 4.04004V6.26004C21.4308 7.31004 20.8008 8.52002 20.2008 9.11002C19.9108 9.40002 19.4308 9.40002 19.1408 9.11002C18.8508 8.82002 18.8508 8.34002 19.1408 8.05002C19.5108 7.68002 19.9308 6.85004 19.9308 6.26004V4.04004C19.9308 3.34004 19.3608 2.77002 18.6608 2.77002H5.3208C4.6108 2.77002 4.05078 3.37005 4.05078 4.14005V6.46002C4.05078 6.83002 4.35078 7.56004 4.74078 7.95004L8.59082 12C9.10082 12.63 9.60077 13.69 9.60077 14.64V19.99C9.60077 20.65 10.0508 20.97 10.2508 21.08C10.6808 21.32 11.1908 21.31 11.5908 21.07L12.9908 20.17C13.2808 20 13.5608 19.45 13.5608 19.08C13.5608 18.67 13.9008 18.33 14.3108 18.33C14.7208 18.33 15.0608 18.67 15.0608 19.08C15.0608 19.98 14.5008 21.01 13.7908 21.44L12.4008 22.34C11.9508 22.61 11.4408 22.75 10.9308 22.75Z" fill="#292D32"/>
<path d="M16.0711 17.27C13.8911 17.27 12.1211 15.5 12.1211 13.32C12.1211 11.14 13.8911 9.37 16.0711 9.37C18.2511 9.37 20.0211 11.14 20.0211 13.32C20.0211 15.5 18.2511 17.27 16.0711 17.27ZM16.0711 10.87C14.7211 10.87 13.6211 11.97 13.6211 13.32C13.6211 14.67 14.7211 15.77 16.0711 15.77C17.4211 15.77 18.5211 14.67 18.5211 13.32C18.5211 11.97 17.4211 10.87 16.0711 10.87Z" fill="#292D32"/>
<path d="M19.8705 17.87C19.6805 17.87 19.4905 17.8 19.3405 17.65L18.3405 16.65C18.0505 16.36 18.0505 15.88 18.3405 15.59C18.6305 15.3 19.1105 15.3 19.4005 15.59L20.4005 16.59C20.6905 16.88 20.6905 17.36 20.4005 17.65C20.2605 17.79 20.0605 17.87 19.8705 17.87Z" fill="#292D32"/>
</svg>
