<svg width="24" height="24" viewBox="0 0 24 24" fill="none" xmlns="http://www.w3.org/2000/svg">
<path d="M12 22.75C6.07 22.75 1.25 17.93 1.25 12C1.25 6.07 6.07 1.25 12 1.25C17.93 1.25 22.75 6.07 22.75 12C22.75 17.93 17.93 22.75 12 22.75ZM12 2.75C6.9 2.75 2.75 6.9 2.75 12C2.75 17.1 6.9 21.25 12 21.25C17.1 21.25 21.25 17.1 21.25 12C21.25 6.9 17.1 2.75 12 2.75Z" fill="#292D32"/>
<path d="M11.9996 15.63C10.6796 15.63 9.59961 14.55 9.59961 13.23V10.76C9.59961 9.44001 10.6796 8.35999 11.9996 8.35999C13.3196 8.35999 14.3996 9.44001 14.3996 10.76V13.23C14.3996 14.56 13.3196 15.63 11.9996 15.63ZM11.9996 9.87C11.5096 9.87 11.0996 10.27 11.0996 10.77V13.24C11.0996 13.74 11.4996 14.14 11.9996 14.14C12.4996 14.14 12.8996 13.74 12.8996 13.24V10.77C12.8996 10.27 12.4896 9.87 11.9996 9.87Z" fill="#292D32"/>
<path d="M12 18.82C8.83 18.82 6.25 16.24 6.25 13.07V10.93C6.25 7.75999 8.83 5.17999 12 5.17999C14.96 5.17999 17.42 7.40003 17.72 10.34C17.76 10.75 17.46 11.12 17.05 11.16C16.64 11.21 16.27 10.9 16.23 10.49C16.01 8.31999 14.19 6.67999 12 6.67999C9.66 6.67999 7.75 8.58999 7.75 10.93V13.07C7.75 15.41 9.66 17.32 12 17.32C14.2 17.32 16.06 15.6 16.24 13.41C16.27 13 16.63 12.69 17.05 12.72C17.46 12.75 17.77 13.11 17.74 13.53C17.5 16.5 14.98 18.82 12 18.82Z" fill="#292D32"/>
</svg>
