<svg width="24" height="24" viewBox="0 0 24 24" fill="none" xmlns="http://www.w3.org/2000/svg">
<path d="M6.44922 22.75C6.03922 22.75 5.69922 22.41 5.69922 22V2C5.69922 1.59 6.03922 1.25 6.44922 1.25C6.85922 1.25 7.19922 1.59 7.19922 2V22C7.19922 22.41 6.85922 22.75 6.44922 22.75Z" fill="#292D32"/>
<path d="M6.94907 17.75C6.66907 17.75 6.40907 17.6 6.27907 17.33C6.09907 16.96 6.24907 16.51 6.61907 16.33L14.9191 12.23C16.1391 11.6 16.8291 10.84 16.7991 10.13C16.7691 9.43999 16.0291 8.72999 14.7591 8.18999L6.65907 4.68999C6.26907 4.51999 6.09907 4.07999 6.25907 3.69999C6.41907 3.31999 6.86907 3.13999 7.24907 3.30999L15.3491 6.80999C17.8491 7.86999 18.2691 9.30999 18.2991 10.07C18.3491 11.4 17.3891 12.64 15.5991 13.56L7.28907 17.67C7.17907 17.73 7.05907 17.75 6.94907 17.75Z" fill="#292D32"/>
</svg>
