<svg width="24" height="24" viewBox="0 0 24 24" fill="none" xmlns="http://www.w3.org/2000/svg">
<path d="M9.99057 22.75C9.79057 22.75 9.63057 22.71 9.51057 22.66C9.11057 22.51 8.43057 22.02 8.43057 20.47V14.02H6.09057C4.75057 14.02 4.27057 13.39 4.10057 13.02C3.93057 12.64 3.78057 11.87 4.66057 10.86L12.2306 2.26001C13.2506 1.10001 14.0806 1.18001 14.4806 1.33001C14.8806 1.48001 15.5606 1.97001 15.5606 3.52001V9.97001H17.9006C19.2406 9.97001 19.7206 10.6 19.8906 10.97C20.0606 11.35 20.2106 12.12 19.3306 13.13L11.7606 21.73C11.0506 22.54 10.4306 22.75 9.99057 22.75ZM13.9306 2.74001C13.9006 2.78001 13.6906 2.88001 13.3606 3.26001L5.79057 11.86C5.51057 12.18 5.47057 12.38 5.47057 12.42C5.49057 12.43 5.67057 12.53 6.09057 12.53H9.18057C9.59057 12.53 9.93057 12.87 9.93057 13.28V20.48C9.93057 20.98 10.0206 21.2 10.0606 21.26C10.0906 21.22 10.3006 21.12 10.6306 20.74L18.2006 12.14C18.4806 11.82 18.5206 11.62 18.5206 11.58C18.5006 11.57 18.3206 11.47 17.9006 11.47H14.8106C14.4006 11.47 14.0606 11.13 14.0606 10.72V3.52001C14.0706 3.02001 13.9706 2.81001 13.9306 2.74001Z" fill="#292D32"/>
</svg>
