<svg width="24" height="24" viewBox="0 0 24 24" fill="none" xmlns="http://www.w3.org/2000/svg">
<path d="M9.98969 22.75C9.78969 22.75 9.62969 22.71 9.50969 22.66C9.10969 22.51 8.42969 22.02 8.42969 20.47V18.03C8.42969 17.62 8.76969 17.28 9.17969 17.28C9.58969 17.28 9.92969 17.62 9.92969 18.03V20.47C9.92969 20.97 10.0197 21.19 10.0597 21.25C10.0897 21.21 10.2997 21.11 10.6297 20.73L18.1997 12.13C18.4797 11.81 18.5197 11.61 18.5197 11.57C18.4997 11.56 18.3197 11.46 17.8997 11.46H16.9697C16.5597 11.46 16.2197 11.12 16.2197 10.71C16.2197 10.3 16.5597 9.96002 16.9697 9.96002H17.8997C19.2397 9.96002 19.7197 10.59 19.8897 10.96C20.0597 11.34 20.2097 12.11 19.3297 13.12L11.7597 21.72C11.0497 22.54 10.4297 22.75 9.98969 22.75Z" fill="#292D32"/>
<path d="M9.18057 15.22C8.77057 15.22 8.43057 14.88 8.43057 14.47V14.04H6.09057C4.75057 14.04 4.27057 13.41 4.10057 13.04C3.93057 12.66 3.78057 11.89 4.66057 10.88L12.2306 2.28003C13.2506 1.12003 14.0806 1.20003 14.4806 1.35003C14.8806 1.50003 15.5606 1.99003 15.5606 3.54003V8.85003C15.5606 9.26003 15.2206 9.60003 14.8106 9.60003C14.4006 9.60003 14.0606 9.26003 14.0606 8.85003V3.52003C14.0606 3.02003 13.9706 2.80003 13.9306 2.74003C13.9006 2.78003 13.6906 2.88003 13.3606 3.26003L5.79057 11.86C5.51057 12.18 5.47057 12.38 5.47057 12.42C5.49057 12.43 5.67057 12.53 6.09057 12.53H9.18057C9.59057 12.53 9.93057 12.87 9.93057 13.28V14.46C9.93057 14.88 9.59057 15.22 9.18057 15.22Z" fill="#292D32"/>
<path d="M1.99945 22.75C1.80945 22.75 1.61945 22.68 1.46945 22.53C1.17945 22.24 1.17945 21.76 1.46945 21.47L21.4695 1.47C21.7595 1.18 22.2395 1.18 22.5295 1.47C22.8195 1.76 22.8195 2.24 22.5295 2.53L2.52945 22.53C2.37945 22.68 2.18945 22.75 1.99945 22.75Z" fill="#292D32"/>
</svg>
