<svg width="24" height="24" viewBox="0 0 24 24" fill="none" xmlns="http://www.w3.org/2000/svg">
<path d="M11.0693 18.17C10.8993 18.17 10.7393 18.14 10.5693 18.08C10.0193 17.87 9.65934 17.36 9.65934 16.77V13.47H8.67934C8.11934 13.47 7.62934 13.15 7.39934 12.65C7.16934 12.14 7.25934 11.57 7.62934 11.15L11.8893 6.30999C12.2793 5.86999 12.8793 5.71999 13.4293 5.92999C13.9793 6.13999 14.3393 6.64999 14.3393 7.23999V10.54H15.3293C15.8893 10.54 16.3793 10.86 16.6093 11.36C16.8393 11.87 16.7493 12.44 16.3793 12.86L12.1193 17.7C11.8393 18 11.4593 18.17 11.0693 18.17ZM8.89934 11.97H10.4093C10.8193 11.97 11.1593 12.31 11.1593 12.72V16.5L15.0993 12.03H13.5893C13.1793 12.03 12.8393 11.69 12.8393 11.28V7.49999L8.89934 11.97Z" fill="#292D32"/>
<path d="M11.9707 22.75C6.0507 22.75 1.2207 17.93 1.2207 12C1.2207 6.07 6.0507 1.25 11.9707 1.25C17.8907 1.25 22.7207 6.07 22.7207 12C22.7207 17.93 17.9007 22.75 11.9707 22.75ZM11.9707 2.75C6.8707 2.75 2.7207 6.9 2.7207 12C2.7207 17.1 6.8707 21.25 11.9707 21.25C17.0707 21.25 21.2207 17.1 21.2207 12C21.2207 6.9 17.0707 2.75 11.9707 2.75Z" fill="#292D32"/>
</svg>
