<svg width="24" height="24" viewBox="0 0 24 24" fill="none" xmlns="http://www.w3.org/2000/svg">
<path d="M15 22.75H9C3.57 22.75 1.25 20.43 1.25 15V9C1.25 3.57 3.57 1.25 9 1.25H15C20.43 1.25 22.75 3.57 22.75 9V15C22.75 20.43 20.43 22.75 15 22.75ZM9 2.75C4.39 2.75 2.75 4.39 2.75 9V15C2.75 19.61 4.39 21.25 9 21.25H15C19.61 21.25 21.25 19.61 21.25 15V9C21.25 4.39 19.61 2.75 15 2.75H9Z" fill="#292D32"/>
<path d="M15 16.13H10.08C7.97 16.13 6.25 14.41 6.25 12.3C6.25 10.19 7.97 8.46997 10.08 8.46997H16.85C17.26 8.46997 17.6 8.80997 17.6 9.21997C17.6 9.62997 17.26 9.96997 16.85 9.96997H10.08C8.8 9.96997 7.75 11.01 7.75 12.3C7.75 13.59 8.79 14.63 10.08 14.63H15C15.41 14.63 15.75 14.97 15.75 15.38C15.75 15.79 15.41 16.13 15 16.13Z" fill="#292D32"/>
<path d="M15.4311 11.5201C15.2411 11.5201 15.0511 11.4501 14.9011 11.3001C14.6111 11.0101 14.6111 10.5301 14.9011 10.2401L15.9411 9.20007L14.9011 8.16007C14.6111 7.87007 14.6111 7.39007 14.9011 7.10007C15.1911 6.81007 15.6711 6.81007 15.9611 7.10007L17.5311 8.67007C17.8211 8.96007 17.8211 9.44007 17.5311 9.73007L15.9611 11.3001C15.8111 11.4401 15.6211 11.5201 15.4311 11.5201Z" fill="#292D32"/>
</svg>
