<svg width="24" height="24" viewBox="0 0 24 24" fill="none" xmlns="http://www.w3.org/2000/svg">
<path d="M13.9797 5.21997C13.7597 5.21997 13.5397 5.12 13.3997 4.94L11.4197 2.46997C11.1597 2.14997 11.2097 1.66998 11.5397 1.41998C11.8597 1.15998 12.3297 1.20998 12.5897 1.53998L14.5697 4.01001C14.8297 4.33001 14.7797 4.81 14.4497 5.06C14.3097 5.16 14.1397 5.21997 13.9797 5.21997Z" fill="#292D32"/>
<path d="M11.9994 22.75C6.68939 22.75 2.35938 18.43 2.35938 13.11C2.35938 7.78999 6.67939 3.46997 11.9994 3.46997C12.6894 3.46997 13.3894 3.54998 14.1494 3.72998C14.5494 3.81998 14.8094 4.23 14.7094 4.63C14.6194 5.03 14.2194 5.29 13.8094 5.19C13.1694 5.04 12.5694 4.96997 11.9994 4.96997C7.50939 4.96997 3.85938 8.61999 3.85938 13.11C3.85938 17.6 7.50939 21.25 11.9994 21.25C16.4894 21.25 20.1394 17.6 20.1394 13.11C20.1394 11.37 19.5694 9.69 18.4894 8.25C18.2394 7.92 18.3094 7.45001 18.6394 7.20001C18.9694 6.95001 19.4394 7.01998 19.6894 7.34998C20.9694 9.04998 21.6394 11.04 21.6394 13.11C21.6394 18.43 17.3094 22.75 11.9994 22.75Z" fill="#292D32"/>
<path d="M9.53955 16.6701C9.12955 16.6701 8.78955 16.3301 8.78955 15.9201V12.5301L8.59955 12.7401C8.31955 13.0501 7.84955 13.0701 7.53955 12.8001C7.22955 12.5201 7.20955 12.0501 7.47955 11.7401L8.97955 10.0701C9.18955 9.84008 9.51954 9.76007 9.80954 9.87007C10.0995 9.98007 10.2895 10.2601 10.2895 10.5701V15.9201C10.2895 16.3401 9.95955 16.6701 9.53955 16.6701Z" fill="#292D32"/>
<path d="M14 16.67C12.48 16.67 11.25 15.44 11.25 13.92V12.5701C11.25 11.0501 12.48 9.82007 14 9.82007C15.52 9.82007 16.75 11.0501 16.75 12.5701V13.92C16.75 15.44 15.52 16.67 14 16.67ZM14 11.3301C13.31 11.3301 12.75 11.8901 12.75 12.5801V13.9301C12.75 14.6201 13.31 15.1801 14 15.1801C14.69 15.1801 15.25 14.6201 15.25 13.9301V12.5801C15.25 11.8901 14.69 11.3301 14 11.3301Z" fill="#292D32"/>
</svg>
