<svg width="24" height="24" viewBox="0 0 24 24" fill="none" xmlns="http://www.w3.org/2000/svg">
<path d="M14.4294 16.92H12.1395C11.7295 16.92 11.3895 16.58 11.3895 16.17C11.3895 15.76 11.7295 15.42 12.1395 15.42H14.4294C14.8594 15.42 15.2095 15.0701 15.2095 14.6401C15.2095 14.2101 14.8594 13.86 14.4294 13.86H12.1395C11.8995 13.86 11.6695 13.74 11.5295 13.55C11.3895 13.36 11.3494 13.1001 11.4294 12.8701L12.1894 10.5801C12.2894 10.2701 12.5795 10.0701 12.8995 10.0701H15.9595C16.3695 10.0701 16.7095 10.4101 16.7095 10.8201C16.7095 11.2301 16.3695 11.5701 15.9595 11.5701H13.4394L13.1794 12.36H14.4294C15.6894 12.36 16.7095 13.3801 16.7095 14.6401C16.7095 15.9001 15.6794 16.92 14.4294 16.92Z" fill="#292D32"/>
<path d="M9.53955 16.9201C9.12955 16.9201 8.78955 16.5801 8.78955 16.1701V12.7801L8.59955 13.0001C8.31955 13.3101 7.84955 13.3301 7.53955 13.0601C7.22955 12.7801 7.20955 12.3101 7.47955 12.0001L8.97955 10.3301C9.18955 10.1001 9.51957 10.0201 9.80957 10.1301C10.0996 10.2401 10.2895 10.5201 10.2895 10.8301V16.1801C10.2895 16.5901 9.95955 16.9201 9.53955 16.9201Z" fill="#292D32"/>
<path d="M13.9797 5.21997C13.7597 5.21997 13.5398 5.12 13.3998 4.94L11.4197 2.46997C11.1597 2.14997 11.2097 1.66998 11.5397 1.41998C11.8597 1.15998 12.3298 1.20998 12.5898 1.53998L14.5698 4.01001C14.8298 4.33001 14.7798 4.81 14.4498 5.06C14.3098 5.16 14.1397 5.21997 13.9797 5.21997Z" fill="#292D32"/>
<path d="M11.9994 22.75C6.68939 22.75 2.35938 18.43 2.35938 13.11C2.35938 7.78999 6.67939 3.46997 11.9994 3.46997C12.6894 3.46997 13.3894 3.54998 14.1494 3.72998C14.5494 3.81998 14.8094 4.23 14.7094 4.63C14.6194 5.03 14.2094 5.29 13.8094 5.19C13.1694 5.04 12.5694 4.96997 11.9994 4.96997C7.50939 4.96997 3.85938 8.61999 3.85938 13.11C3.85938 17.6 7.50939 21.25 11.9994 21.25C16.4894 21.25 20.1394 17.6 20.1394 13.11C20.1394 11.37 19.5694 9.69 18.4894 8.25C18.2394 7.92 18.3094 7.45001 18.6394 7.20001C18.9694 6.95001 19.4394 7.01998 19.6894 7.34998C20.9694 9.04998 21.6394 11.04 21.6394 13.11C21.6394 18.43 17.3094 22.75 11.9994 22.75Z" fill="#292D32"/>
</svg>
