<svg width="24" height="24" viewBox="0 0 24 24" fill="none" xmlns="http://www.w3.org/2000/svg">
<path d="M13.9797 5.21993C13.7597 5.21993 13.5398 5.11996 13.3998 4.93996L11.4197 2.46993C11.1597 2.14993 11.2097 1.66994 11.5397 1.41994C11.8697 1.16994 12.3298 1.20994 12.5898 1.53994L14.5698 4.00997C14.8298 4.32997 14.7798 4.80996 14.4498 5.05996C14.3098 5.15996 14.1397 5.21993 13.9797 5.21993Z" fill="#292D32"/>
<path d="M11.9994 22.75C6.68939 22.75 2.35938 18.43 2.35938 13.11C2.35938 7.78999 6.67939 3.46997 11.9994 3.46997C12.6894 3.46997 13.3894 3.54998 14.1494 3.72998C14.5494 3.81998 14.8094 4.23 14.7094 4.63C14.6194 5.03 14.2194 5.29 13.8094 5.19C13.1694 5.04 12.5694 4.96997 11.9994 4.96997C7.50939 4.96997 3.85938 8.61999 3.85938 13.11C3.85938 17.6 7.50939 21.25 11.9994 21.25C16.4894 21.25 20.1394 17.6 20.1394 13.11C20.1394 11.37 19.5694 9.69 18.4894 8.25C18.2394 7.92 18.3094 7.45001 18.6394 7.20001C18.9694 6.95001 19.4394 7.01998 19.6894 7.34998C20.9694 9.04998 21.6394 11.04 21.6394 13.11C21.6394 18.43 17.3094 22.75 11.9994 22.75Z" fill="#292D32"/>
<path d="M12.3806 16.92H10.0906C9.68065 16.92 9.34065 16.58 9.34065 16.17C9.34065 15.76 9.68065 15.42 10.0906 15.42H12.3806C12.8106 15.42 13.1606 15.0701 13.1606 14.6401C13.1606 14.2101 12.8106 13.86 12.3806 13.86H10.0906C9.85065 13.86 9.6206 13.74 9.4806 13.55C9.3406 13.36 9.30062 13.1001 9.38062 12.8701L10.1406 10.5801C10.2406 10.2701 10.5306 10.0701 10.8506 10.0701H13.9106C14.3206 10.0701 14.6606 10.4101 14.6606 10.8201C14.6606 11.2301 14.3206 11.5701 13.9106 11.5701H11.3906L11.1306 12.36H12.3806C13.6406 12.36 14.6606 13.3801 14.6606 14.6401C14.6606 15.9001 13.6406 16.92 12.3806 16.92Z" fill="#292D32"/>
</svg>
