<svg width="24" height="24" viewBox="0 0 24 24" fill="none" xmlns="http://www.w3.org/2000/svg">
<path d="M12 22.75C6.07 22.75 1.25 17.93 1.25 12C1.25 6.07 6.07 1.25 12 1.25C12.41 1.25 12.75 1.59 12.75 2C12.75 2.41 12.41 2.75 12 2.75C6.9 2.75 2.75 6.9 2.75 12C2.75 17.1 6.9 21.25 12 21.25C17.1 21.25 21.25 17.1 21.25 12C21.25 11.59 21.59 11.25 22 11.25C22.41 11.25 22.75 11.59 22.75 12C22.75 17.93 17.93 22.75 12 22.75Z" fill="#292D32"/>
<path d="M13.8002 10.95C13.6102 10.95 13.4202 10.88 13.2702 10.73C12.9802 10.44 12.9802 9.96 13.2702 9.67L21.4702 1.47C21.7602 1.18 22.2402 1.18 22.5302 1.47C22.8202 1.76 22.8202 2.24 22.5302 2.53L14.3302 10.73C14.1902 10.87 14.0002 10.95 13.8002 10.95Z" fill="#292D32"/>
<path d="M17.83 11.75H13C12.59 11.75 12.25 11.41 12.25 11V6.16998C12.25 5.75998 12.59 5.41998 13 5.41998C13.41 5.41998 13.75 5.75998 13.75 6.16998V10.25H17.83C18.24 10.25 18.58 10.59 18.58 11C18.58 11.41 18.24 11.75 17.83 11.75Z" fill="#292D32"/>
</svg>
