<svg width="24" height="24" viewBox="0 0 24 24" fill="none" xmlns="http://www.w3.org/2000/svg">
<path d="M12.0004 22.76C10.9104 22.76 9.83039 22.44 8.98039 21.81L4.68039 18.6C3.54039 17.75 2.65039 15.98 2.65039 14.56V7.12C2.65039 5.58 3.78039 3.94 5.23039 3.4L10.2204 1.53C11.2104 1.16 12.7704 1.16 13.7604 1.53L18.7604 3.4C20.2104 3.94 21.3404 5.58 21.3404 7.12V14.55C21.3404 15.97 20.4504 17.74 19.3104 18.59L15.0104 21.8C14.1704 22.44 13.0904 22.76 12.0004 22.76ZM10.7504 2.94L5.76039 4.81C4.90039 5.13 4.15039 6.21 4.15039 7.13V14.56C4.15039 15.51 4.82039 16.84 5.57039 17.4L9.87039 20.61C11.0204 21.47 12.9704 21.47 14.1204 20.61L18.4204 17.4C19.1804 16.83 19.8404 15.5 19.8404 14.56V7.12C19.8404 6.21 19.0904 5.13 18.2304 4.8L13.2404 2.93C12.5804 2.69 11.4204 2.69 10.7504 2.94Z" fill="#292D32"/>
<path d="M12 13.25C10.48 13.25 9.25 12.02 9.25 10.5C9.25 8.98 10.48 7.75 12 7.75C13.52 7.75 14.75 8.98 14.75 10.5C14.75 12.02 13.52 13.25 12 13.25ZM12 9.25C11.31 9.25 10.75 9.81 10.75 10.5C10.75 11.19 11.31 11.75 12 11.75C12.69 11.75 13.25 11.19 13.25 10.5C13.25 9.81 12.69 9.25 12 9.25Z" fill="#292D32"/>
<path d="M12 16.25C11.59 16.25 11.25 15.91 11.25 15.5V12.5C11.25 12.09 11.59 11.75 12 11.75C12.41 11.75 12.75 12.09 12.75 12.5V15.5C12.75 15.91 12.41 16.25 12 16.25Z" fill="#292D32"/>
</svg>
