<svg width="24" height="24" viewBox="0 0 24 24" fill="none" xmlns="http://www.w3.org/2000/svg">
<path d="M9 10.75C7.48 10.75 6.25 9.52 6.25 8C6.25 6.48 7.48 5.25 9 5.25C10.52 5.25 11.75 6.48 11.75 8C11.75 9.52 10.52 10.75 9 10.75ZM9 6.75C8.31 6.75 7.75 7.31 7.75 8C7.75 8.69 8.31 9.25 9 9.25C9.69 9.25 10.25 8.69 10.25 8C10.25 7.31 9.69 6.75 9 6.75Z" fill="#292D32"/>
<path d="M15 22.75H9C3.57 22.75 1.25 20.43 1.25 15V9C1.25 3.57 3.57 1.25 9 1.25H13C13.41 1.25 13.75 1.59 13.75 2C13.75 2.41 13.41 2.75 13 2.75H9C4.39 2.75 2.75 4.39 2.75 9V15C2.75 19.61 4.39 21.25 9 21.25H15C19.61 21.25 21.25 19.61 21.25 15V10C21.25 9.59 21.59 9.25 22 9.25C22.41 9.25 22.75 9.59 22.75 10V15C22.75 20.43 20.43 22.75 15 22.75Z" fill="#292D32"/>
<path d="M15.6709 9.75006C15.2809 9.75006 14.9209 9.61006 14.6609 9.34006C14.3509 9.03006 14.2009 8.57006 14.2709 8.10006L14.4709 6.71006C14.5209 6.36006 14.7309 5.93006 14.9909 5.68006L18.6209 2.05006C20.0709 0.600061 21.3309 1.43006 21.9509 2.05006C22.5409 2.64006 22.8109 3.26006 22.7509 3.90006C22.7009 4.41006 22.4409 4.90006 21.9509 5.38006L18.3209 9.01006C18.0709 9.26006 17.6409 9.47006 17.2909 9.53006L15.9009 9.73006C15.8209 9.75006 15.7409 9.75006 15.6709 9.75006ZM19.6709 3.12006L16.0409 6.75006C16.0109 6.78006 15.9609 6.89006 15.9509 6.94006L15.7609 8.24006L17.0709 8.06006C17.1109 8.05006 17.2209 8.00006 17.2609 7.96006L20.8909 4.33006C21.1109 4.11006 21.2409 3.91006 21.2509 3.76006C21.2709 3.55006 21.0609 3.29006 20.8909 3.12006C20.3709 2.60006 20.1309 2.66006 19.6709 3.12006Z" fill="#292D32"/>
<path d="M20.9003 6.13001C20.8303 6.13001 20.7603 6.12001 20.7003 6.10001C19.3603 5.72001 18.2903 4.65001 17.9103 3.31001C17.8003 2.91001 18.0303 2.50001 18.4303 2.39001C18.8303 2.28001 19.2403 2.51001 19.3503 2.91001C19.5903 3.75001 20.2603 4.43001 21.1103 4.67001C21.5103 4.78001 21.7403 5.20001 21.6303 5.59001C21.5203 5.91001 21.2203 6.13001 20.9003 6.13001Z" fill="#292D32"/>
<path d="M2.66932 19.7001C2.42932 19.7001 2.18932 19.5801 2.04932 19.3701C1.81932 19.0301 1.90932 18.5601 2.24932 18.3301L7.17932 15.0201C8.25932 14.3001 9.74932 14.3801 10.7293 15.2101L11.0593 15.5001C11.5593 15.9301 12.4093 15.9301 12.8993 15.5001L17.0593 11.9301C18.1193 11.0201 19.7893 11.0201 20.8593 11.9301L22.4893 13.3301C22.7993 13.6001 22.8393 14.0701 22.5693 14.3901C22.2993 14.7001 21.8293 14.7401 21.5093 14.4701L19.8793 13.0701C19.3793 12.6401 18.5293 12.6401 18.0393 13.0701L13.8793 16.6401C12.8193 17.5501 11.1493 17.5501 10.0793 16.6401L9.74932 16.3501C9.28932 15.9601 8.52932 15.9201 8.01932 16.2701L3.09932 19.5801C2.95932 19.6601 2.80932 19.7001 2.66932 19.7001Z" fill="#292D32"/>
</svg>
