<svg width="24" height="24" viewBox="0 0 24 24" fill="none" xmlns="http://www.w3.org/2000/svg">
<path d="M3.38 20.85C3.17 20.85 2.95 20.76 2.81 20.58C1.74 19.33 1.25 17.55 1.25 15V9C1.25 3.57 3.57 1.25 9 1.25H15C17.39 1.25 19.14 1.7 20.38 2.63C20.71 2.88 20.78 3.35 20.53 3.68C20.28 4.01 19.81 4.08 19.48 3.83C18.51 3.1 17.05 2.75 15 2.75H9C4.39 2.75 2.75 4.39 2.75 9V15C2.75 17.15 3.14 18.66 3.95 19.62C4.22 19.94 4.18 20.41 3.86 20.68C3.72 20.79 3.55 20.85 3.38 20.85Z" fill="#292D32"/>
<path d="M14.999 22.7499H8.99903C8.20903 22.7499 7.49903 22.6999 6.84903 22.6099C6.43903 22.5499 6.15903 22.1699 6.21903 21.7599C6.27903 21.3499 6.66903 21.0699 7.06903 21.1299C7.63903 21.2099 8.28903 21.2599 8.99903 21.2599H14.999C19.609 21.2599 21.249 19.6199 21.249 15.0099V8.99993C21.249 8.66993 21.239 8.33993 21.219 8.03993C21.189 7.62993 21.509 7.26993 21.919 7.23993C22.349 7.21993 22.689 7.52993 22.719 7.93993C22.739 8.27993 22.749 8.62993 22.749 8.99993V14.9999C22.749 20.4299 20.429 22.7499 14.999 22.7499Z" fill="#292D32"/>
<path d="M8 10.75C6.48 10.75 5.25 9.52 5.25 8C5.25 6.48 6.48 5.25 8 5.25C9.52 5.25 10.75 6.48 10.75 8C10.75 9.52 9.52 10.75 8 10.75ZM8 6.75C7.31 6.75 6.75 7.31 6.75 8C6.75 8.69 7.31 9.25 8 9.25C8.69 9.25 9.25 8.69 9.25 8C9.25 7.31 8.69 6.75 8 6.75Z" fill="#292D32"/>
<path d="M1.99945 22.7499C1.80945 22.7499 1.61945 22.6799 1.46945 22.5299C1.17945 22.2399 1.17945 21.7599 1.46945 21.4699L21.4695 1.46994C21.7595 1.17994 22.2395 1.17994 22.5295 1.46994C22.8195 1.75994 22.8195 2.23994 22.5295 2.52994L2.52945 22.5299C2.37945 22.6799 2.18945 22.7499 1.99945 22.7499Z" fill="#292D32"/>
<path d="M11.9809 17.4301C11.5909 17.4301 11.2009 17.2801 10.9109 16.9901C10.6209 16.7001 10.6209 16.2201 10.9109 15.9301C11.2009 15.6401 11.6809 15.6401 11.9709 15.9301C11.9809 15.9401 11.9909 15.9401 12.0009 15.9301L17.0309 10.8901C18.0709 9.85011 19.8809 9.85011 20.9109 10.8901L22.5409 12.5201C22.8309 12.8101 22.8309 13.2901 22.5409 13.5801C22.2509 13.8701 21.7709 13.8701 21.4809 13.5801L19.8509 11.9501C19.3809 11.4801 18.5609 11.4801 18.0909 11.9501L13.0609 16.9901C12.7609 17.2801 12.3709 17.4301 11.9809 17.4301Z" fill="#292D32"/>
</svg>
