<svg width="24" height="24" viewBox="0 0 24 24" fill="none" xmlns="http://www.w3.org/2000/svg">
<path d="M12 22.75C6.07 22.75 1.25 17.93 1.25 12C1.25 6.07 6.07 1.25 12 1.25C17.93 1.25 22.75 6.07 22.75 12C22.75 12.41 22.41 12.75 22 12.75C21.59 12.75 21.25 12.41 21.25 12C21.25 6.9 17.1 2.75 12 2.75C6.9 2.75 2.75 6.9 2.75 12C2.75 17.1 6.9 21.25 12 21.25C12.41 21.25 12.75 21.59 12.75 22C12.75 22.41 12.41 22.75 12 22.75Z" fill="#292D32"/>
<path d="M9.00024 21.75H8.00024C7.59024 21.75 7.25024 21.41 7.25024 21C7.25024 20.59 7.57023 20.26 7.98023 20.25C6.41023 14.89 6.41023 9.11 7.98023 3.75C7.58023 3.74 7.25024 3.41 7.25024 3C7.25024 2.59 7.59024 2.25 8.00024 2.25H9.00024C9.24024 2.25 9.47024 2.37 9.61024 2.56C9.75024 2.76 9.79025 3.00999 9.71025 3.23999C7.83025 8.88999 7.83025 15.12 9.71025 20.77C9.79025 21 9.75024 21.25 9.61024 21.45C9.47024 21.65 9.24024 21.75 9.00024 21.75Z" fill="#292D32"/>
<path d="M16.4604 12.75C16.0504 12.75 15.7104 12.41 15.7104 12C15.7104 9.01996 15.2304 6.06995 14.2904 3.23995C14.1604 2.84995 14.3704 2.41994 14.7604 2.28994C15.1504 2.15994 15.5804 2.36997 15.7104 2.75997C16.7004 5.73997 17.2104 8.84996 17.2104 12C17.2104 12.41 16.8704 12.75 16.4604 12.75Z" fill="#292D32"/>
<path d="M12 17.2101C9.2 17.2101 6.43 16.8101 3.75 16.0201C3.74 16.4201 3.41 16.7501 3 16.7501C2.59 16.7501 2.25 16.4101 2.25 16.0001V15.0001C2.25 14.7601 2.37 14.5301 2.56 14.3901C2.75 14.2501 3.01001 14.21 3.24001 14.29C6.07001 15.23 9.02 15.7101 12 15.7101C12.41 15.7101 12.75 16.0501 12.75 16.4601C12.75 16.8701 12.41 17.2101 12 17.2101Z" fill="#292D32"/>
<path d="M21.0007 9.75001C20.9207 9.75001 20.8407 9.74003 20.7607 9.71003C15.1107 7.83003 8.88066 7.83003 3.23066 9.71003C2.84066 9.84003 2.41067 9.63 2.28067 9.24C2.15067 8.85 2.36067 8.41999 2.75067 8.28999C8.71067 6.29999 15.2707 6.29999 21.2207 8.28999C21.6107 8.41999 21.8207 8.85 21.6907 9.24C21.6107 9.55 21.3107 9.75001 21.0007 9.75001Z" fill="#292D32"/>
<path d="M15.8196 22.7501C15.4396 22.7501 15.0796 22.6101 14.8196 22.3501C14.5096 22.0401 14.3696 21.5901 14.4396 21.1201L14.6296 19.7701C14.6796 19.4201 14.8896 19.0001 15.1396 18.7501L18.6796 15.2101C19.1596 14.7301 19.6296 14.4801 20.1396 14.4301C20.7696 14.3701 21.3796 14.6301 21.9596 15.2101C22.5396 15.7901 22.7996 16.4001 22.7396 17.0301C22.6896 17.5301 22.4296 18.0101 21.9596 18.4901L18.4196 22.0301C18.1696 22.2801 17.7596 22.4901 17.4096 22.5401L16.0596 22.7301C15.9696 22.7401 15.8996 22.7501 15.8196 22.7501ZM20.3096 15.9201C20.2996 15.9201 20.2896 15.9201 20.2796 15.9201C20.1396 15.9301 19.9496 16.0501 19.7396 16.2701L16.1996 19.8101C16.1696 19.8401 16.1196 19.9401 16.1196 19.9801L15.9396 21.2301L17.1896 21.0501C17.2296 21.0401 17.3296 20.9901 17.3596 20.9601L20.8996 17.4201C21.1096 17.2101 21.2396 17.0201 21.2496 16.8801C21.2696 16.6801 21.0696 16.4401 20.8996 16.2701C20.7396 16.1101 20.5096 15.9201 20.3096 15.9201Z" fill="#292D32"/>
<path d="M20.9206 19.22C20.8506 19.22 20.7806 19.21 20.7206 19.19C19.4006 18.82 18.3506 17.77 17.9806 16.45C17.8706 16.05 18.1006 15.64 18.5006 15.53C18.9006 15.42 19.3106 15.65 19.4306 16.05C19.6606 16.87 20.3106 17.52 21.1306 17.75C21.5306 17.86 21.7606 18.28 21.6506 18.67C21.5506 19 21.2506 19.22 20.9206 19.22Z" fill="#292D32"/>
</svg>
