<svg width="24" height="24" viewBox="0 0 24 24" fill="none" xmlns="http://www.w3.org/2000/svg">
<path d="M12 22.75C6.07 22.75 1.25 17.93 1.25 12C1.25 6.07 6.07 1.25 12 1.25C17.93 1.25 22.75 6.07 22.75 12C22.75 12.41 22.41 12.75 22 12.75C21.59 12.75 21.25 12.41 21.25 12C21.25 6.9 17.1 2.75 12 2.75C6.9 2.75 2.75 6.9 2.75 12C2.75 17.1 6.9 21.25 12 21.25C12.41 21.25 12.75 21.59 12.75 22C12.75 22.41 12.41 22.75 12 22.75Z" fill="#292D32"/>
<path d="M9.00022 21.75H8.00022C7.59022 21.75 7.25022 21.41 7.25022 21C7.25022 20.59 7.57023 20.26 7.98023 20.25C6.41023 14.89 6.41023 9.11 7.98023 3.75C7.58023 3.74 7.25022 3.41 7.25022 3C7.25022 2.59 7.59022 2.25 8.00022 2.25H9.00022C9.24022 2.25 9.47021 2.37 9.61021 2.56C9.75021 2.76 9.79021 3.00999 9.71021 3.23999C7.83021 8.88999 7.83021 15.12 9.71021 20.77C9.79021 21 9.75021 21.25 9.61021 21.45C9.47021 21.65 9.24022 21.75 9.00022 21.75Z" fill="#292D32"/>
<path d="M16.4604 12.75C16.0504 12.75 15.7104 12.41 15.7104 12C15.7104 9.01996 15.2304 6.06995 14.2904 3.23995C14.1604 2.84995 14.3704 2.41994 14.7604 2.28994C15.1504 2.15994 15.5804 2.36997 15.7104 2.75997C16.7004 5.73997 17.2104 8.84996 17.2104 12C17.2104 12.41 16.8704 12.75 16.4604 12.75Z" fill="#292D32"/>
<path d="M12 17.2101C9.2 17.2101 6.43 16.8101 3.75 16.0201C3.74 16.4201 3.41 16.7501 3 16.7501C2.59 16.7501 2.25 16.4101 2.25 16.0001V15.0001C2.25 14.7601 2.37 14.5301 2.56 14.3901C2.75 14.2501 3.00999 14.21 3.23999 14.29C6.06999 15.23 9.02 15.7101 12 15.7101C12.41 15.7101 12.75 16.0501 12.75 16.4601C12.75 16.8701 12.41 17.2101 12 17.2101Z" fill="#292D32"/>
<path d="M21.0007 9.75001C20.9207 9.75001 20.8407 9.74003 20.7607 9.71003C15.1107 7.83003 8.88068 7.83003 3.23068 9.71003C2.84068 9.84003 2.41067 9.63 2.28067 9.24C2.15067 8.85 2.36067 8.41999 2.75067 8.28999C8.71067 6.29999 15.2707 6.29999 21.2207 8.28999C21.6107 8.41999 21.8207 8.85 21.6907 9.24C21.6107 9.55 21.3107 9.75001 21.0007 9.75001Z" fill="#292D32"/>
<path d="M18.2596 22.75C15.7796 22.75 13.7695 20.73 13.7695 18.26C13.7695 15.79 15.7896 13.76 18.2596 13.76C18.7596 13.76 19.2596 13.83 19.7296 13.98C20.1296 14.1 20.3496 14.52 20.2296 14.92C20.1096 15.32 19.6896 15.54 19.2896 15.42C18.9596 15.32 18.6096 15.27 18.2596 15.27C16.6096 15.27 15.2695 16.61 15.2695 18.27C15.2695 19.93 16.6096 21.26 18.2596 21.26C19.9096 21.26 21.2495 19.92 21.2495 18.27C21.2495 17.67 21.0795 17.1 20.7495 16.61C20.5195 16.27 20.6095 15.8 20.9595 15.57C21.2995 15.34 21.7695 15.43 21.9995 15.78C22.4995 16.52 22.7596 17.39 22.7596 18.28C22.7496 20.73 20.7296 22.75 18.2596 22.75Z" fill="#292D32"/>
<path d="M20.0393 15.5501C19.8293 15.5501 19.6193 15.4601 19.4693 15.2901L18.2193 13.8601C17.9493 13.5501 17.9793 13.0701 18.2893 12.8001C18.5993 12.5301 19.0693 12.5601 19.3493 12.8701L20.5993 14.3001C20.8693 14.6101 20.8393 15.0901 20.5293 15.3601C20.3893 15.4901 20.2193 15.5501 20.0393 15.5501Z" fill="#292D32"/>
<path d="M18.5805 16.6099C18.3505 16.6099 18.1205 16.4999 17.9705 16.2999C17.7305 15.9699 17.8005 15.4999 18.1305 15.2499L19.5905 14.1899C19.9205 13.9399 20.3905 14.0199 20.6405 14.3499C20.8805 14.6799 20.8105 15.15 20.4805 15.4L19.0205 16.46C18.8905 16.56 18.7405 16.6099 18.5805 16.6099Z" fill="#292D32"/>
</svg>
