<svg width="24" height="24" viewBox="0 0 24 24" fill="none" xmlns="http://www.w3.org/2000/svg">
<path d="M19.41 21.75H4.59005C4.33005 21.75 4.08003 21.61 3.95003 21.39L0.770039 16.1C0.630039 15.87 0.630039 15.57 0.770039 15.34L8.18001 2.63C8.31001 2.4 8.56004 2.26001 8.83004 2.26001H15.18C15.45 2.26001 15.69 2.4 15.83 2.63C18.62 7.41001 22.83 14.62 23.19 15.18C23.29 15.31 23.34 15.46 23.34 15.63C23.34 15.81 23.28 15.97 23.17 16.1C22.91 16.49 21.15 19.52 20.06 21.38C19.93 21.61 19.68 21.75 19.41 21.75ZM5.01003 20.25H18.98C20.47 17.69 21.27 16.33 21.76 15.61C21.19 14.77 20.19 13.07 18.22 9.70001L14.75 3.75H9.26003L2.29 15.7L5.01003 20.25ZM22.37 16.33V16.35V16.33Z" fill="black"/>
<path d="M19.4097 21.75C19.1497 21.75 18.8998 21.62 18.7598 21.38L8.16973 3.38004C7.95973 3.02004 8.07975 2.56004 8.43975 2.35004C8.79975 2.14004 9.25972 2.26003 9.46972 2.62003L20.0597 20.62C20.2697 20.98 20.1497 21.44 19.7897 21.65C19.6697 21.72 19.5397 21.75 19.4097 21.75Z" fill="black"/>
<path d="M4.59027 21.75C4.46027 21.75 4.33026 21.72 4.21026 21.65C3.85026 21.44 3.73024 20.98 3.94024 20.62L14.5303 2.62003C14.7403 2.26003 15.2002 2.14004 15.5602 2.35004C15.9202 2.56004 16.0403 3.02004 15.8303 3.38004L5.24023 21.38C5.09023 21.62 4.84027 21.75 4.59027 21.75Z" fill="black"/>
<path d="M22 16.46H1.5C1.09 16.46 0.75 16.12 0.75 15.71C0.75 15.3 1.09 14.96 1.5 14.96H22C22.41 14.96 22.75 15.3 22.75 15.71C22.75 16.12 22.41 16.46 22 16.46Z" fill="black"/>
</svg>
