<svg width="24" height="24" viewBox="0 0 24 24" fill="none" xmlns="http://www.w3.org/2000/svg">
<path d="M12.001 22.72C9.33104 22.72 6.65103 21.76 4.62103 19.83C2.49103 17.81 1.29104 15.09 1.25104 12.17C1.21104 9.23997 2.33103 6.48997 4.40103 4.41997C8.59103 0.229966 15.411 0.229966 19.601 4.41997C21.671 6.48997 22.791 9.23997 22.751 12.17C22.711 15.1 21.511 17.82 19.381 19.83C17.351 21.76 14.671 22.72 12.001 22.72ZM12.001 2.78001C9.63104 2.78001 7.26103 3.67996 5.46103 5.47996C3.68103 7.25996 2.72104 9.63001 2.75104 12.15C2.78104 14.67 3.81103 17.01 5.65103 18.74C9.15103 22.06 14.851 22.05 18.351 18.74C20.181 17.01 21.211 14.66 21.251 12.15C21.291 9.64001 20.321 7.25996 18.541 5.47996C16.741 3.67996 14.371 2.78001 12.001 2.78001Z" fill="#292D32"/>
<path d="M12.0007 18.32C10.4207 18.32 8.85073 17.75 7.65073 16.62C7.35073 16.33 7.34073 15.86 7.62073 15.56C7.91073 15.26 8.38073 15.25 8.68073 15.53C10.5107 17.26 13.4907 17.26 15.3207 15.53C15.6207 15.25 16.1007 15.26 16.3807 15.56C16.6607 15.86 16.6507 16.34 16.3507 16.62C15.1507 17.75 13.5807 18.32 12.0007 18.32Z" fill="#292D32"/>
</svg>
