<svg width="24" height="24" viewBox="0 0 24 24" fill="none" xmlns="http://www.w3.org/2000/svg">
<path d="M15 22.75H9C3.57 22.75 1.25 20.43 1.25 15V9C1.25 3.57 3.57 1.25 9 1.25H15C20.43 1.25 22.75 3.57 22.75 9V15C22.75 20.43 20.43 22.75 15 22.75ZM9 2.75C4.39 2.75 2.75 4.39 2.75 9V15C2.75 19.61 4.39 21.25 9 21.25H15C19.61 21.25 21.25 19.61 21.25 15V9C21.25 4.39 19.61 2.75 15 2.75H9Z" fill="#292D32"/>
<path d="M21.9993 9.25H2.0293C1.6193 9.25 1.2793 8.91 1.2793 8.5C1.2793 8.09 1.6193 7.75 2.0293 7.75H21.9993C22.4093 7.75 22.7493 8.09 22.7493 8.5C22.7493 8.91 22.4093 9.25 21.9993 9.25Z" fill="#292D32"/>
<path d="M21.9993 16.25H2.0293C1.6193 16.25 1.2793 15.91 1.2793 15.5C1.2793 15.09 1.6193 14.75 2.0293 14.75H21.9993C22.4093 14.75 22.7493 15.09 22.7493 15.5C22.7493 15.91 22.4093 16.25 21.9993 16.25Z" fill="#292D32"/>
<path d="M8.50977 22.74C8.09977 22.74 7.75977 22.4 7.75977 21.99V2.01001C7.75977 1.60001 8.09977 1.26001 8.50977 1.26001C8.91977 1.26001 9.25977 1.60001 9.25977 2.01001V21.98C9.25977 22.4 8.92977 22.74 8.50977 22.74Z" fill="#292D32"/>
<path d="M15.5098 22.74C15.0998 22.74 14.7598 22.4 14.7598 21.99V2.01001C14.7598 1.60001 15.0998 1.26001 15.5098 1.26001C15.9198 1.26001 16.2598 1.60001 16.2598 2.01001V21.98C16.2598 22.4 15.9298 22.74 15.5098 22.74Z" fill="#292D32"/>
</svg>
