<svg width="24" height="24" viewBox="0 0 24 24" fill="none" xmlns="http://www.w3.org/2000/svg">
<path d="M13.25 12.72V5.74001C13.25 3.26001 15.26 1.25 17.74 1.25H18.26C20.74 1.25 22.75 3.26001 22.75 5.74001C22.75 7.73001 21.77 9.54001 20.12 10.57C18.37 11.67 16.34 12.36 14.09 12.62L13.25 12.72ZM17.74 2.75C16.09 2.75 14.75 4.09001 14.75 5.74001V11.01C16.45 10.72 17.98 10.14 19.32 9.3C20.51 8.55 21.25 7.19001 21.25 5.74001C21.25 4.09001 19.91 2.75 18.26 2.75H17.74Z" fill="black"/>
<path d="M18.26 22.75H17.74C15.26 22.75 13.25 20.74 13.25 18.26V11.21L13.91 11.13C19.07 10.53 21.38 7.57001 21.4 7.54001L22.75 5.77002V18.25C22.75 20.74 20.74 22.75 18.26 22.75ZM14.75 12.53V18.26C14.75 19.91 16.09 21.25 17.74 21.25H18.26C19.91 21.25 21.25 19.91 21.25 18.26V9.78001C20.01 10.77 17.89 12.04 14.75 12.53Z" fill="black"/>
<path d="M6.26001 22.75H5.73999C3.25999 22.75 1.25 20.74 1.25 18.26C1.25 16.27 2.23 14.46 3.88 13.43C5.63 12.33 7.65997 11.64 9.90997 11.38L10.75 11.28V18.26C10.75 20.74 8.74001 22.75 6.26001 22.75ZM9.25 12.99C7.55 13.28 6.01999 13.86 4.67999 14.7C3.48999 15.45 2.75 16.81 2.75 18.26C2.75 19.91 4.08999 21.25 5.73999 21.25H6.26001C7.91001 21.25 9.25 19.91 9.25 18.26V12.99Z" fill="black"/>
<path d="M1.25 18.22V5.74001C1.25 3.26001 3.25999 1.25 5.73999 1.25H6.26001C8.74001 1.25 10.75 3.26001 10.75 5.74001V12.79L10.09 12.87C4.93003 13.47 2.61998 16.43 2.59998 16.46L1.25 18.22ZM5.73999 2.75C4.08999 2.75 2.75 4.09001 2.75 5.74001V14.22C3.99 13.23 6.11 11.95 9.25 11.46V5.73C9.25 4.08 7.91001 2.74001 6.26001 2.74001H5.73999V2.75Z" fill="black"/>
<path d="M10.0697 12.85L9.92969 11.36C11.4097 11.22 12.7097 11.3 13.9097 11.14L14.0997 12.63C12.8697 12.78 11.5797 12.7 10.0697 12.85Z" fill="black"/>
</svg>
