<svg width="24" height="24" viewBox="0 0 24 24" fill="none" xmlns="http://www.w3.org/2000/svg">
<path d="M14.9697 22.75H8.96973C3.53973 22.75 1.21973 20.43 1.21973 15V9C1.21973 3.57 3.53973 1.25 8.96973 1.25H14.9697C20.3997 1.25 22.7197 3.57 22.7197 9V15C22.7197 20.43 20.4097 22.75 14.9697 22.75ZM8.96973 2.75C4.35973 2.75 2.71973 4.39 2.71973 9V15C2.71973 19.61 4.35973 21.25 8.96973 21.25H14.9697C19.5797 21.25 21.2197 19.61 21.2197 15V9C21.2197 4.39 19.5797 2.75 14.9697 2.75H8.96973Z" fill="#292D32"/>
<path d="M11.4502 18.06C11.2102 18.06 10.6302 17.97 10.2902 17.1L9.15023 14.22C8.99023 13.81 8.42023 13.43 7.99023 13.43L1.99023 13.45C1.58023 13.45 1.24023 13.12 1.24023 12.7C1.24023 12.29 1.57023 11.95 1.99023 11.95L7.99023 11.93H8.00023C9.05023 11.93 10.1702 12.69 10.5602 13.67L11.4702 15.97L13.5302 10.75C13.8402 9.97001 14.3902 9.86001 14.6202 9.84001C14.8502 9.83001 15.4102 9.88001 15.8002 10.62L16.8402 12.59C17.0202 12.93 17.5602 13.26 17.9502 13.26H22.0102C22.4202 13.26 22.7602 13.6 22.7602 14.01C22.7602 14.42 22.4202 14.76 22.0102 14.76H17.9502C17.0002 14.76 15.9602 14.13 15.5202 13.29L14.7402 11.81L12.6402 17.1C12.2702 17.96 11.6802 18.06 11.4502 18.06Z" fill="#292D32"/>
</svg>
