<svg width="24" height="24" viewBox="0 0 24 24" fill="none" xmlns="http://www.w3.org/2000/svg">
<path d="M12 22.75C6.07 22.75 1.25 17.93 1.25 12C1.25 6.07 6.07 1.25 12 1.25C17.93 1.25 22.75 6.07 22.75 12C22.75 17.93 17.93 22.75 12 22.75ZM12 2.75C6.9 2.75 2.75 6.9 2.75 12C2.75 17.1 6.9 21.25 12 21.25C17.1 21.25 21.25 17.1 21.25 12C21.25 6.9 17.1 2.75 12 2.75Z" fill="#292D32"/>
<path d="M11.9994 18.25C11.7894 18.25 11.5894 18.22 11.4194 18.16C9.26937 17.43 5.85938 14.81 5.85938 10.91C5.85938 8.83 7.53938 7.14001 9.60938 7.14001C10.5094 7.14001 11.3394 7.45001 12.0094 8.01001C12.6794 7.45001 13.5194 7.14001 14.3994 7.14001C16.4694 7.14001 18.1494 8.83 18.1494 10.91C18.1494 14.8 14.7394 17.42 12.5794 18.16C12.4094 18.22 12.1994 18.25 11.9994 18.25ZM9.59938 8.64999C8.35938 8.64999 7.34938 9.67001 7.34938 10.92C7.34938 14.41 10.7194 16.35 11.8994 16.75C11.9394 16.76 12.0394 16.76 12.0794 16.75C13.2594 16.35 16.6294 14.41 16.6294 10.92C16.6294 9.67001 15.6194 8.64999 14.3794 8.64999C13.6794 8.64999 13.0094 8.99 12.5894 9.56C12.3094 9.94 11.6694 9.94 11.3894 9.56C10.9694 8.98 10.3194 8.64999 9.59938 8.64999Z" fill="#292D32"/>
</svg>
