<svg width="24" height="24" viewBox="0 0 24 24" fill="none" xmlns="http://www.w3.org/2000/svg">
<path d="M17.2004 22.75C15.2604 22.75 13.4404 21.72 12.4504 20.05C11.9304 19.21 11.6504 18.21 11.6504 17.2C11.6504 14.14 14.1404 11.65 17.2004 11.65C20.2604 11.65 22.7504 14.14 22.7504 17.2C22.7504 18.22 22.4704 19.21 21.9404 20.07C20.9604 21.72 19.1404 22.75 17.2004 22.75ZM17.2004 13.15C14.9704 13.15 13.1504 14.97 13.1504 17.2C13.1504 17.94 13.3504 18.66 13.7304 19.28C14.4704 20.52 15.7604 21.25 17.2004 21.25C18.6404 21.25 19.9304 20.52 20.6604 19.29C21.0504 18.66 21.2504 17.94 21.2504 17.2C21.2504 14.97 19.4304 13.15 17.2004 13.15Z" fill="#292D32"/>
<path d="M16.5095 19.13C16.3195 19.13 16.1295 19.06 15.9795 18.91L14.7995 17.73C14.5095 17.44 14.5095 16.96 14.7995 16.67C15.0895 16.38 15.5695 16.38 15.8595 16.67L16.5295 17.3401L18.5595 15.4601C18.8695 15.1801 19.3395 15.2 19.6195 15.5C19.8995 15.8 19.8795 16.28 19.5795 16.56L17.0195 18.92C16.8795 19.07 16.6895 19.13 16.5095 19.13Z" fill="#292D32"/>
<path d="M12 21.65C11.69 21.65 11.38 21.61 11.13 21.52C8.57 20.65 1.25 16.41 1.25 8.69C1.25 5.19 4.08 2.34998 7.56 2.34998C9.22 2.34998 10.83 3.02 12 4.19C13.17 3.02 14.78 2.34998 16.44 2.34998C19.92 2.34998 22.75 5.19 22.75 8.69C22.75 10.64 22.28 12.51 21.35 14.26C21.24 14.47 21.03 14.62 20.79 14.65C20.55 14.68 20.31 14.6 20.14 14.42C19.36 13.6 18.32 13.14 17.2 13.14C14.97 13.14 13.15 14.96 13.15 17.19C13.15 18.18 13.52 19.14 14.19 19.89C14.35 20.07 14.41 20.31 14.36 20.54C14.31 20.77 14.15 20.97 13.94 21.07C13.54 21.25 13.18 21.4 12.85 21.51C12.61 21.61 12.31 21.65 12 21.65ZM7.56 3.84998C4.91 3.84998 2.75 6.02 2.75 8.69C2.75 15.53 9.32 19.31 11.62 20.1C11.81 20.17 12.19 20.16 12.37 20.1C12.4 20.09 12.43 20.08 12.46 20.07C11.93 19.21 11.65 18.22 11.65 17.2C11.65 14.14 14.14 11.65 17.2 11.65C18.36 11.65 19.5 12.02 20.44 12.7C20.98 11.42 21.25 10.08 21.25 8.69C21.25 6.02 19.09 3.84998 16.44 3.84998C14.94 3.84998 13.5 4.57003 12.6 5.78003C12.32 6.16003 11.68 6.16003 11.4 5.78003C10.5 4.57003 9.06 3.84998 7.56 3.84998Z" fill="#292D32"/>
</svg>
