<svg width="24" height="24" viewBox="0 0 24 24" fill="none" xmlns="http://www.w3.org/2000/svg">
<path d="M6.10999 18.25C5.92999 18.25 5.73998 18.18 5.59998 18.05C3.61998 16.19 1.25 13.06 1.25 8.69C1.25 5.19 4.08 2.34998 7.56 2.34998C9.25 2.34998 10.83 3.01 12 4.19C13.17 3.01 14.75 2.34998 16.44 2.34998C17.7 2.34998 18.92 2.72999 19.97 3.42999C20.31 3.65999 20.4 4.12997 20.17 4.46997C19.94 4.80997 19.47 4.89998 19.13 4.66998C18.34 4.12998 17.41 3.84003 16.45 3.84003C14.93 3.84003 13.52 4.55003 12.61 5.78003C12.33 6.16003 11.69 6.16003 11.41 5.78003C10.49 4.55003 9.09001 3.84003 7.57001 3.84003C4.92001 3.84003 2.76001 6.00999 2.76001 8.67999C2.76001 12.52 4.87001 15.29 6.64001 16.95C6.94001 17.23 6.95999 17.71 6.67999 18.01C6.50999 18.17 6.30999 18.25 6.10999 18.25Z" fill="#292D32"/>
<path d="M11.9994 21.65C11.6894 21.65 11.3894 21.61 11.1394 21.52C10.3894 21.26 9.49942 20.84 8.63942 20.33C8.27942 20.12 8.16941 19.66 8.37941 19.3C8.58941 18.95 9.04938 18.83 9.40938 19.04C10.1894 19.5 10.9794 19.88 11.6294 20.1C11.8094 20.16 12.1994 20.16 12.3794 20.1C14.6794 19.31 21.2594 15.52 21.2594 8.67998C21.2594 8.17998 21.1794 7.68996 21.0394 7.21996C20.9194 6.81996 21.1294 6.40002 21.5294 6.28002C21.9294 6.16002 22.3494 6.38001 22.4694 6.77001C22.6594 7.39001 22.7594 8.02998 22.7594 8.67998C22.7594 15.56 16.6894 20.2 12.8694 21.51C12.6094 21.61 12.3094 21.65 11.9994 21.65Z" fill="#292D32"/>
<path d="M1.99948 22.75C1.80948 22.75 1.61945 22.68 1.46945 22.53C1.17945 22.24 1.17945 21.7599 1.46945 21.4699L21.4695 1.46994C21.7595 1.17994 22.2395 1.17994 22.5295 1.46994C22.8195 1.75994 22.8195 2.24 22.5295 2.53L2.52951 22.53C2.37951 22.68 2.18948 22.75 1.99948 22.75Z" fill="#292D32"/>
</svg>
