<svg width="24" height="24" viewBox="0 0 24 24" fill="none" xmlns="http://www.w3.org/2000/svg">
<path d="M5 15.75C4.59 15.75 4.25 15.41 4.25 15V8C4.25 7.59 4.59 7.25 5 7.25C5.41 7.25 5.75 7.59 5.75 8V15C5.75 15.41 5.41 15.75 5 15.75Z" fill="#292D32"/>
<path d="M5.25 22.75C3.04 22.75 1.25 20.96 1.25 18.75C1.25 16.54 3.04 14.75 5.25 14.75C7.46 14.75 9.25 16.54 9.25 18.75C9.25 20.96 7.46 22.75 5.25 22.75ZM5.25 16.25C3.87 16.25 2.75 17.37 2.75 18.75C2.75 20.13 3.87 21.25 5.25 21.25C6.63 21.25 7.75 20.13 7.75 18.75C7.75 17.37 6.63 16.25 5.25 16.25Z" fill="#292D32"/>
<path d="M5 8.75C2.93 8.75 1.25 7.07 1.25 5C1.25 2.93 2.93 1.25 5 1.25C7.07 1.25 8.75 2.93 8.75 5C8.75 7.07 7.07 8.75 5 8.75ZM5 2.75C3.76 2.75 2.75 3.76 2.75 5C2.75 6.24 3.76 7.25 5 7.25C6.24 7.25 7.25 6.24 7.25 5C7.25 3.76 6.24 2.75 5 2.75Z" fill="#292D32"/>
<path d="M19 8.75C16.93 8.75 15.25 7.07 15.25 5C15.25 2.93 16.93 1.25 19 1.25C21.07 1.25 22.75 2.93 22.75 5C22.75 7.07 21.07 8.75 19 8.75ZM19 2.75C17.76 2.75 16.75 3.76 16.75 5C16.75 6.24 17.76 7.25 19 7.25C20.24 7.25 21.25 6.24 21.25 5C21.25 3.76 20.24 2.75 19 2.75Z" fill="#292D32"/>
<path d="M5.12962 15.75C5.06962 15.75 5.00962 15.74 4.93962 15.73C4.53962 15.63 4.29962 15.22 4.39962 14.82C4.94962 12.7 6.85962 11.22 9.04962 11.22C9.05962 11.22 9.05962 11.22 9.06962 11.22L12.4996 11.23C12.5096 11.23 12.5096 11.23 12.5196 11.23C14.7396 11.23 16.7296 9.82002 17.4596 7.72002C17.5996 7.33002 18.0196 7.12002 18.4096 7.26002C18.7996 7.40002 19.0096 7.82001 18.8696 8.21001C17.9296 10.92 15.3396 12.7 12.4896 12.73L9.05962 12.72H9.04962C7.53962 12.72 6.22962 13.74 5.84962 15.2C5.76962 15.53 5.45962 15.75 5.12962 15.75Z" fill="#292D32"/>
</svg>
