<svg width="24" height="24" viewBox="0 0 24 24" fill="none" xmlns="http://www.w3.org/2000/svg">
<path d="M16.4508 15.15C16.0408 15.15 15.7008 14.81 15.7008 14.4V8.5C15.7008 8.36 15.5908 8.25 15.4508 8.25H12.5508C12.1408 8.25 11.8008 7.91 11.8008 7.5C11.8008 7.09 12.1408 6.75 12.5508 6.75H15.4508C16.4108 6.75 17.2008 7.54 17.2008 8.5V14.4C17.2008 14.81 16.8608 15.15 16.4508 15.15Z" fill="#292D32"/>
<path d="M14.05 9.74993C13.88 9.74993 13.71 9.68991 13.57 9.57991L11.77 8.07991C11.6 7.93991 11.5 7.72993 11.5 7.49993C11.5 7.26993 11.6 7.06994 11.77 6.91994L13.57 5.41994C13.89 5.15994 14.36 5.19992 14.63 5.51992C14.9 5.83992 14.85 6.30991 14.53 6.57991L13.42 7.49993L14.53 8.41994C14.85 8.68994 14.89 9.15994 14.63 9.47994C14.48 9.65994 14.26 9.74993 14.05 9.74993Z" fill="#292D32"/>
<path d="M7.55078 15.1499C7.14078 15.1499 6.80078 14.8099 6.80078 14.3999V10.2C6.80078 9.78995 7.14078 9.44995 7.55078 9.44995C7.96078 9.44995 8.30078 9.78995 8.30078 10.2V14.3999C8.30078 14.8099 7.96078 15.1499 7.55078 15.1499Z" fill="#292D32"/>
<path d="M7.70001 10.65C6.21001 10.65 5 9.44001 5 7.95001C5 6.46001 6.21001 5.25 7.70001 5.25C9.19001 5.25 10.4 6.46001 10.4 7.95001C10.4 9.44001 9.19001 10.65 7.70001 10.65ZM7.70001 6.75C7.04001 6.75 6.5 7.29001 6.5 7.95001C6.5 8.61001 7.04001 9.14999 7.70001 9.14999C8.36001 9.14999 8.90002 8.61001 8.90002 7.95001C8.90002 7.29001 8.36001 6.75 7.70001 6.75Z" fill="#292D32"/>
<path d="M7.54999 18.75C6.13999 18.75 5 17.61 5 16.2C5 14.79 6.13999 13.65 7.54999 13.65C8.95999 13.65 10.1 14.79 10.1 16.2C10.1 17.61 8.95999 18.75 7.54999 18.75ZM7.54999 15.15C6.96999 15.15 6.5 15.62 6.5 16.2C6.5 16.78 6.96999 17.25 7.54999 17.25C8.12999 17.25 8.59998 16.78 8.59998 16.2C8.59998 15.62 8.12999 15.15 7.54999 15.15Z" fill="#292D32"/>
<path d="M16.4504 18.75C15.0404 18.75 13.9004 17.61 13.9004 16.2C13.9004 14.79 15.0404 13.65 16.4504 13.65C17.8604 13.65 19.0004 14.79 19.0004 16.2C19.0004 17.61 17.8604 18.75 16.4504 18.75ZM16.4504 15.15C15.8704 15.15 15.4004 15.62 15.4004 16.2C15.4004 16.78 15.8704 17.25 16.4504 17.25C17.0304 17.25 17.5004 16.78 17.5004 16.2C17.5004 15.62 17.0304 15.15 16.4504 15.15Z" fill="#292D32"/>
<path d="M15 22.75H9C3.57 22.75 1.25 20.43 1.25 15V9C1.25 3.57 3.57 1.25 9 1.25H15C20.43 1.25 22.75 3.57 22.75 9V15C22.75 20.43 20.43 22.75 15 22.75ZM9 2.75C4.39 2.75 2.75 4.39 2.75 9V15C2.75 19.61 4.39 21.25 9 21.25H15C19.61 21.25 21.25 19.61 21.25 15V9C21.25 4.39 19.61 2.75 15 2.75H9Z" fill="#292D32"/>
</svg>
