<svg width="24" height="24" viewBox="0 0 24 24" fill="none" xmlns="http://www.w3.org/2000/svg">
<path d="M7.80078 14.55C7.39078 14.55 7.05078 14.21 7.05078 13.8V9.59998C7.05078 9.18998 7.39078 8.84998 7.80078 8.84998C8.21078 8.84998 8.55078 9.18998 8.55078 9.59998V13.8C8.55078 14.21 8.21078 14.55 7.80078 14.55Z" fill="#292D32"/>
<path d="M7.95001 18.75C6.46001 18.75 5.25 17.54 5.25 16.05C5.25 14.56 6.46001 13.35 7.95001 13.35C9.44001 13.35 10.65 14.56 10.65 16.05C10.65 17.54 9.44001 18.75 7.95001 18.75ZM7.95001 14.85C7.29001 14.85 6.75 15.39 6.75 16.05C6.75 16.71 7.29001 17.25 7.95001 17.25C8.61001 17.25 9.15002 16.71 9.15002 16.05C9.15002 15.39 8.61001 14.85 7.95001 14.85Z" fill="#292D32"/>
<path d="M7.79999 10.35C6.38999 10.35 5.25 9.20999 5.25 7.79999C5.25 6.38999 6.38999 5.25 7.79999 5.25C9.20999 5.25 10.35 6.38999 10.35 7.79999C10.35 9.20999 9.20999 10.35 7.79999 10.35ZM7.79999 6.75C7.21999 6.75 6.75 7.21999 6.75 7.79999C6.75 8.37999 7.21999 8.85001 7.79999 8.85001C8.37999 8.85001 8.84998 8.37999 8.84998 7.79999C8.84998 7.21999 8.37999 6.75 7.79999 6.75Z" fill="#292D32"/>
<path d="M16.2004 10.35C14.7904 10.35 13.6504 9.20999 13.6504 7.79999C13.6504 6.38999 14.7904 5.25 16.2004 5.25C17.6104 5.25 18.7504 6.38999 18.7504 7.79999C18.7504 9.20999 17.6104 10.35 16.2004 10.35ZM16.2004 6.75C15.6204 6.75 15.1504 7.21999 15.1504 7.79999C15.1504 8.37999 15.6204 8.85001 16.2004 8.85001C16.7804 8.85001 17.2504 8.37999 17.2504 7.79999C17.2504 7.21999 16.7804 6.75 16.2004 6.75Z" fill="#292D32"/>
<path d="M7.8796 14.55C7.8196 14.55 7.7496 14.54 7.6896 14.53C7.2896 14.43 7.04962 14.02 7.14962 13.62C7.50962 12.21 8.77958 11.24 10.2296 11.24H10.2396L12.2996 11.25H12.3096C13.5196 11.25 14.5896 10.49 14.9896 9.35002C15.1296 8.96002 15.5596 8.75003 15.9396 8.89003C16.3296 9.03003 16.5396 9.45002 16.3996 9.85002C15.7896 11.6 14.1496 12.77 12.2896 12.76L10.2296 12.75C10.2296 12.75 10.2296 12.75 10.2196 12.75C9.44957 12.75 8.77962 13.27 8.58962 14.01C8.51962 14.33 8.2096 14.55 7.8796 14.55Z" fill="#292D32"/>
<path d="M15 22.75H9C3.57 22.75 1.25 20.43 1.25 15V9C1.25 3.57 3.57 1.25 9 1.25H15C20.43 1.25 22.75 3.57 22.75 9V15C22.75 20.43 20.43 22.75 15 22.75ZM9 2.75C4.39 2.75 2.75 4.39 2.75 9V15C2.75 19.61 4.39 21.25 9 21.25H15C19.61 21.25 21.25 19.61 21.25 15V9C21.25 4.39 19.61 2.75 15 2.75H9Z" fill="#292D32"/>
</svg>
