<svg width="24" height="24" viewBox="0 0 24 24" fill="none" xmlns="http://www.w3.org/2000/svg">
<path d="M17.79 22.74H6.21C3.47 22.74 1.25 20.51 1.25 17.77V10.36C1.25 8.99996 2.09 7.28996 3.17 6.44996L8.56 2.24996C10.18 0.989964 12.77 0.929964 14.45 2.10996L20.63 6.43996C21.82 7.26996 22.75 9.04996 22.75 10.5V17.78C22.75 20.51 20.53 22.74 17.79 22.74ZM9.48 3.42996L4.09 7.62996C3.38 8.18996 2.75 9.45996 2.75 10.36V17.77C2.75 19.68 4.3 21.24 6.21 21.24H17.79C19.7 21.24 21.25 19.69 21.25 17.78V10.5C21.25 9.53996 20.56 8.20996 19.77 7.66996L13.59 3.33996C12.45 2.53996 10.57 2.57996 9.48 3.42996Z" fill="#292D32"/>
<path d="M16.5002 17.2499C16.3102 17.2499 16.1202 17.1799 15.9702 17.0299L12.4202 13.4799L11.3302 15.1199C11.2102 15.3099 11.0002 15.4299 10.7802 15.4499C10.5502 15.4699 10.3302 15.3899 10.1802 15.2299L6.9802 12.0299C6.6902 11.7399 6.6902 11.2599 6.9802 10.9699C7.2702 10.6799 7.7502 10.6799 8.0402 10.9699L10.5902 13.5199L11.6802 11.8799C11.8002 11.6899 12.0102 11.5699 12.2302 11.5499C12.4602 11.5299 12.6802 11.6099 12.8302 11.7699L17.0302 15.9699C17.3202 16.2599 17.3202 16.7399 17.0302 17.0299C16.8802 17.1799 16.6902 17.2499 16.5002 17.2499Z" fill="#292D32"/>
<path d="M16.5 17.25H14.5C14.09 17.25 13.75 16.91 13.75 16.5C13.75 16.09 14.09 15.75 14.5 15.75H15.75V14.5C15.75 14.09 16.09 13.75 16.5 13.75C16.91 13.75 17.25 14.09 17.25 14.5V16.5C17.25 16.91 16.91 17.25 16.5 17.25Z" fill="#292D32"/>
</svg>
