<svg width="24" height="24" viewBox="0 0 24 24" fill="none" xmlns="http://www.w3.org/2000/svg">
<path d="M17.79 22.74H6.21C3.47 22.74 1.25 20.51 1.25 17.77V10.36C1.25 8.99996 2.09 7.28996 3.17 6.44996L8.56 2.24996C10.18 0.989964 12.77 0.929964 14.45 2.10996L20.63 6.43996C21.82 7.26996 22.75 9.04996 22.75 10.5V17.78C22.75 20.51 20.53 22.74 17.79 22.74ZM9.48 3.42996L4.09 7.62996C3.38 8.18996 2.75 9.45996 2.75 10.36V17.77C2.75 19.68 4.3 21.24 6.21 21.24H17.79C19.7 21.24 21.25 19.69 21.25 17.78V10.5C21.25 9.53996 20.56 8.20996 19.77 7.66996L13.59 3.33996C12.45 2.53996 10.57 2.57996 9.48 3.42996Z" fill="#292D32"/>
<path d="M7.50043 17.2499C7.31043 17.2499 7.12043 17.1799 6.97043 17.0299C6.68043 16.7399 6.68043 16.2599 6.97043 15.9699L10.1704 12.7699C10.3304 12.6099 10.5404 12.5299 10.7704 12.5499C10.9904 12.5699 11.1904 12.6899 11.3204 12.8799L12.4104 14.5199L15.9604 10.9699C16.2504 10.6799 16.7304 10.6799 17.0204 10.9699C17.3104 11.2599 17.3104 11.7399 17.0204 12.0299L12.8204 16.2299C12.6604 16.3899 12.4504 16.4699 12.2204 16.4499C12.0004 16.4299 11.8004 16.3099 11.6704 16.1199L10.5804 14.4799L8.03043 17.0299C7.88043 17.1799 7.69043 17.2499 7.50043 17.2499Z" fill="#292D32"/>
<path d="M16.5 14.25C16.09 14.25 15.75 13.91 15.75 13.5V12.25H14.5C14.09 12.25 13.75 11.91 13.75 11.5C13.75 11.09 14.09 10.75 14.5 10.75H16.5C16.91 10.75 17.25 11.09 17.25 11.5V13.5C17.25 13.91 16.91 14.25 16.5 14.25Z" fill="#292D32"/>
</svg>
