<svg width="24" height="24" viewBox="0 0 24 24" fill="none" xmlns="http://www.w3.org/2000/svg">
<path d="M18.3608 22.75H5.59084C4.07084 22.75 2.68084 21.98 1.88084 20.68C1.08084 19.38 1.01084 17.8 1.69084 16.43L3.41084 12.98C3.97084 11.86 4.87084 11.16 5.88084 11.05C6.89084 10.94 7.92084 11.44 8.70084 12.41L8.92084 12.69C9.36084 13.23 9.87084 13.52 10.3708 13.47C10.8708 13.43 11.3308 13.07 11.6708 12.46L13.5608 9.05005C14.3408 7.64005 15.3808 6.91005 16.5108 6.96005C17.6308 7.02005 18.5908 7.86005 19.2308 9.34005L22.3608 16.65C22.9408 18 22.8008 19.54 21.9908 20.77C21.1908 22.02 19.8308 22.75 18.3608 22.75ZM6.16084 12.55C6.12084 12.55 6.08084 12.55 6.04084 12.56C5.54084 12.61 5.08084 13.01 4.75084 13.66L3.03084 17.11C2.58084 18 2.63084 19.05 3.15084 19.9C3.67084 20.75 4.59084 21.26 5.59084 21.26H18.3508C19.3308 21.26 20.2008 20.79 20.7408 19.97C21.2808 19.15 21.3708 18.17 20.9808 17.27L17.8508 9.96005C17.4708 9.06005 16.9408 8.51005 16.4308 8.49005C15.9608 8.46005 15.3508 8.96005 14.8708 9.81005L12.9808 13.22C12.4008 14.26 11.4908 14.91 10.5008 15C9.51084 15.08 8.50084 14.6 7.75084 13.66L7.53084 13.38C7.11084 12.83 6.63084 12.55 6.16084 12.55Z" fill="#292D32"/>
<path d="M6.9707 8.75C4.9107 8.75 3.2207 7.07 3.2207 5C3.2207 2.93 4.9007 1.25 6.9707 1.25C9.0407 1.25 10.7207 2.93 10.7207 5C10.7207 7.07 9.0407 8.75 6.9707 8.75ZM6.9707 2.75C5.7307 2.75 4.7207 3.76 4.7207 5C4.7207 6.24 5.7307 7.25 6.9707 7.25C8.2107 7.25 9.2207 6.24 9.2207 5C9.2207 3.76 8.2107 2.75 6.9707 2.75Z" fill="#292D32"/>
</svg>
