<svg width="24" height="24" viewBox="0 0 24 24" fill="none" xmlns="http://www.w3.org/2000/svg">
<path d="M12.0091 22.74C11.3791 22.74 10.7591 22.53 10.2691 22.11L8.68914 20.76C8.52914 20.62 8.12914 20.48 7.91914 20.48H6.16914C4.68914 20.48 3.48914 19.28 3.48914 17.8V16.09C3.48914 15.88 3.34914 15.48 3.21914 15.33L1.85914 13.73C1.03914 12.76 1.03914 11.24 1.85914 10.26L3.21914 8.66001C3.34914 8.51001 3.48914 8.11001 3.48914 7.90001V6.20001C3.48914 4.72001 4.68914 3.52001 6.16914 3.52001H7.89914C8.10914 3.52001 8.49914 3.37001 8.66914 3.23001L10.2491 1.88001C11.2291 1.05001 12.7591 1.05001 13.7391 1.88001L15.3191 3.23001C15.4791 3.37001 15.8891 3.51001 16.0991 3.51001H17.7991C19.2791 3.51001 20.4791 4.71001 20.4791 6.19001V7.89001C20.4791 8.10001 20.6291 8.49001 20.7691 8.66001L22.1191 10.24C22.9591 11.23 22.9491 12.76 22.1191 13.73L20.7691 15.31C20.6291 15.48 20.4891 15.87 20.4891 16.08V17.78C20.4891 19.26 19.2891 20.46 17.8091 20.46H16.1091C15.8991 20.46 15.5091 20.61 15.3291 20.75L13.7491 22.1C13.2591 22.53 12.6291 22.74 12.0091 22.74ZM6.16914 5.02001C5.51914 5.02001 4.98914 5.55001 4.98914 6.20001V7.90001C4.98914 8.47001 4.72914 9.19001 4.35914 9.63001L2.99914 11.23C2.65914 11.64 2.65914 12.36 2.99914 12.76L4.34914 14.35C4.70914 14.76 4.97914 15.51 4.97914 16.08V17.79C4.97914 18.44 5.50914 18.97 6.15914 18.97H7.89914C8.45914 18.97 9.19914 19.24 9.63914 19.61L11.2291 20.97C11.6391 21.32 12.3591 21.32 12.7691 20.97L14.3491 19.62C14.7991 19.24 15.5291 18.98 16.0891 18.98H17.7891C18.4391 18.98 18.9691 18.45 18.9691 17.8V16.1C18.9691 15.54 19.2391 14.81 19.6091 14.36L20.9691 12.77C21.3191 12.36 21.3191 11.64 20.9691 11.23L19.6191 9.65001C19.2391 9.20001 18.9791 8.47001 18.9791 7.91001V6.20001C18.9791 5.55001 18.4491 5.02001 17.7991 5.02001H16.0991C15.5291 5.02001 14.7891 4.75001 14.3491 4.38001L12.7591 3.02001C12.3491 2.67001 11.6391 2.67001 11.2191 3.02001L9.64914 4.38001C9.19914 4.75001 8.46914 5.02001 7.89914 5.02001H6.16914Z" fill="#292D32"/>
<path d="M12 16.87C11.45 16.87 11 16.42 11 15.87C11 15.32 11.44 14.87 12 14.87C12.55 14.87 13 15.32 13 15.87C13 16.42 12.56 16.87 12 16.87Z" fill="#292D32"/>
<path d="M12 13.72C11.59 13.72 11.25 13.38 11.25 12.97V8.13C11.25 7.72 11.59 7.38 12 7.38C12.41 7.38 12.75 7.72 12.75 8.13V12.96C12.75 13.38 12.42 13.72 12 13.72Z" fill="#292D32"/>
</svg>
