<svg width="24" height="24" viewBox="0 0 24 24" fill="none" xmlns="http://www.w3.org/2000/svg">
<path d="M15 22.75H9C3.57 22.75 1.25 20.43 1.25 15V9C1.25 3.57 3.57 1.25 9 1.25H15C20.43 1.25 22.75 3.57 22.75 9V15C22.75 20.43 20.43 22.75 15 22.75ZM9 2.75C4.39 2.75 2.75 4.39 2.75 9V15C2.75 19.61 4.39 21.25 9 21.25H15C19.61 21.25 21.25 19.61 21.25 15V9C21.25 4.39 19.61 2.75 15 2.75H9Z" fill="#292D32"/>
<path d="M12 16.25C9.66 16.25 7.75 14.34 7.75 12C7.75 9.66 9.66 7.75 12 7.75C14.34 7.75 16.25 9.66 16.25 12C16.25 14.34 14.34 16.25 12 16.25ZM12 9.25C10.48 9.25 9.25 10.48 9.25 12C9.25 13.52 10.48 14.75 12 14.75C13.52 14.75 14.75 13.52 14.75 12C14.75 10.48 13.52 9.25 12 9.25Z" fill="#292D32"/>
<path d="M17 7.50003C16.87 7.50003 16.74 7.47003 16.62 7.42003C16.5 7.37003 16.39 7.30003 16.29 7.21003C16.2 7.11003 16.12 7.00003 16.07 6.88003C16.02 6.76003 16 6.63003 16 6.50003C16 6.37003 16.02 6.24003 16.07 6.12003C16.13 5.99003 16.2 5.89003 16.29 5.79003C16.34 5.75003 16.39 5.70003 16.44 5.67003C16.5 5.63003 16.56 5.60003 16.62 5.58003C16.68 5.55003 16.74 5.53003 16.81 5.52003C17.13 5.45003 17.47 5.56003 17.71 5.79003C17.8 5.89003 17.87 5.99003 17.92 6.12003C17.97 6.24003 18 6.37003 18 6.50003C18 6.63003 17.97 6.76003 17.92 6.88003C17.87 7.00003 17.8 7.11003 17.71 7.21003C17.61 7.30003 17.5 7.37003 17.38 7.42003C17.26 7.47003 17.13 7.50003 17 7.50003Z" fill="#292D32"/>
</svg>
