<svg width="24" height="24" viewBox="0 0 24 24" fill="none" xmlns="http://www.w3.org/2000/svg">
<path d="M12 22.43C11.52 22.43 11.04 22.3 10.61 22.05L4.10999 18.23C3.26999 17.74 2.75 16.83 2.75 15.86V8.15C2.75 7.18 3.26999 6.27001 4.10999 5.78001L10.61 1.96001C11.47 1.45001 12.54 1.45001 13.4 1.96001L19.9 5.78001C20.74 6.27001 21.26 7.18 21.26 8.15V15.86C21.26 16.83 20.74 17.74 19.9 18.23L13.4 22.05C12.96 22.3 12.48 22.43 12 22.43ZM11.37 3.24001L4.87 7.06001C4.49 7.28001 4.25 7.70001 4.25 8.14001V15.85C4.25 16.29 4.49 16.7 4.87 16.93L11.37 20.75C11.76 20.98 12.25 20.98 12.64 20.75L19.14 16.93C19.52 16.71 19.76 16.29 19.76 15.85V8.14001C19.76 7.70001 19.52 7.29001 19.14 7.06001L12.64 3.24001C12.24 3.01001 11.76 3.01001 11.37 3.24001Z" fill="black"/>
<path d="M12.0002 18.75C11.8702 18.75 11.7302 18.71 11.6102 18.64L6.61023 15.64C6.25023 15.43 6.14022 14.97 6.35022 14.61C6.56022 14.25 7.02025 14.14 7.38025 14.35L11.9902 17.12L15.5303 14.99L6.60022 9.62999C6.37022 9.48999 6.24023 9.24999 6.24023 8.98999C6.24023 8.72999 6.38022 8.48 6.60022 8.35L11.6002 5.35C11.8402 5.21 12.1402 5.21 12.3702 5.35L17.3702 8.35C17.7302 8.56 17.8402 9.01999 17.6302 9.37999C17.4202 9.72999 16.9602 9.84999 16.6002 9.63999L11.9902 6.86998L8.45026 8.99999L17.3802 14.36C17.6102 14.5 17.7402 14.74 17.7402 15C17.7402 15.26 17.6002 15.51 17.3802 15.64L12.3802 18.64C12.2702 18.71 12.1302 18.75 12.0002 18.75Z" fill="black"/>
<path d="M9.49948 12.7499C9.30948 12.7499 9.11945 12.6799 8.96945 12.5299C8.67945 12.2399 8.67945 11.7599 8.96945 11.4699L10.9695 9.46994C11.2595 9.17994 11.7395 9.17994 12.0295 9.46994C12.3195 9.75994 12.3195 10.2399 12.0295 10.5299L10.0295 12.5299C9.87951 12.6799 9.68948 12.7499 9.49948 12.7499Z" fill="black"/>
<path d="M12.4995 14.7499C12.3095 14.7499 12.1195 14.6799 11.9695 14.5299C11.6795 14.2399 11.6795 13.7599 11.9695 13.4699L13.9695 11.4699C14.2595 11.1799 14.7395 11.1799 15.0295 11.4699C15.3195 11.7599 15.3195 12.2399 15.0295 12.5299L13.0295 14.5299C12.8795 14.6799 12.6895 14.7499 12.4995 14.7499Z" fill="black"/>
</svg>
