<svg width="24" height="24" viewBox="0 0 24 24" fill="none" xmlns="http://www.w3.org/2000/svg">
<path d="M20.01 19.26C19.82 19.26 19.63 19.19 19.48 19.04L14.53 14.09C14.24 13.8 14.24 13.32 14.53 13.03C14.82 12.74 15.3 12.74 15.59 13.03L20.54 17.98C20.83 18.27 20.83 18.75 20.54 19.04C20.39 19.19 20.2 19.26 20.01 19.26Z" fill="#292D32"/>
<path d="M10.1095 18.43C9.37946 18.43 8.67946 18.14 8.16946 17.62L3.92945 13.38C2.85945 12.31 2.85945 10.56 3.92945 9.49003L10.9995 2.42005C12.0695 1.35005 13.8195 1.35005 14.8895 2.42005L19.1295 6.66004C19.6495 7.18004 19.9395 7.87005 19.9395 8.60005C19.9395 9.33005 19.6495 10.03 19.1295 10.54L12.0595 17.61C11.5395 18.15 10.8495 18.43 10.1095 18.43ZM12.9395 3.12004C12.6195 3.12004 12.2995 3.24003 12.0595 3.49003L4.98947 10.56C4.49947 11.05 4.49947 11.84 4.98947 12.33L9.22946 16.57C9.69946 17.04 10.5195 17.04 10.9995 16.57L18.0695 9.50004C18.3095 9.26004 18.4395 8.95004 18.4395 8.62004C18.4395 8.29004 18.3095 7.97003 18.0695 7.74003L13.8295 3.50004C13.5795 3.24004 13.2595 3.12004 12.9395 3.12004Z" fill="#292D32"/>
<path d="M8 21.75H2C1.59 21.75 1.25 21.41 1.25 21C1.25 20.59 1.59 20.25 2 20.25H8C8.41 20.25 8.75 20.59 8.75 21C8.75 21.41 8.41 21.75 8 21.75Z" fill="#292D32"/>
<path d="M13.63 15.74C13.44 15.74 13.25 15.67 13.1 15.52L6.03 8.44998C5.74 8.15998 5.74 7.67999 6.03 7.38999C6.32 7.09999 6.8 7.09999 7.09 7.38999L14.16 14.46C14.45 14.75 14.45 15.23 14.16 15.52C14.02 15.67 13.82 15.74 13.63 15.74Z" fill="#292D32"/>
</svg>
