<svg width="24" height="24" viewBox="0 0 24 24" fill="none" xmlns="http://www.w3.org/2000/svg">
<path d="M15 22.75H9C3.57 22.75 1.25 20.43 1.25 15V9C1.25 3.57 3.57 1.25 9 1.25H15C20.43 1.25 22.75 3.57 22.75 9V15C22.75 20.43 20.43 22.75 15 22.75ZM9 2.75C4.39 2.75 2.75 4.39 2.75 9V15C2.75 19.61 4.39 21.25 9 21.25H15C19.61 21.25 21.25 19.61 21.25 15V9C21.25 4.39 19.61 2.75 15 2.75H9Z" fill="#292D32"/>
<path d="M8.80974 18.25C8.73974 18.25 8.65974 18.25 8.58974 18.23L7.39974 18.07C6.67974 17.97 6.04974 17.35 5.93974 16.61L5.76974 15.4C5.69974 14.92 5.89974 14.31 6.24974 13.95L8.52974 11.67C8.18974 10.05 8.67974 8.37 9.86974 7.19C11.7797 5.28 14.8997 5.28 16.8097 7.19C17.7397 8.12 18.2497 9.35 18.2497 10.66C18.2497 11.97 17.7397 13.21 16.8097 14.13C15.6197 15.31 13.9397 15.8 12.3297 15.46L10.0397 17.74C9.74974 18.05 9.25974 18.25 8.80974 18.25ZM13.3397 7.25C12.4697 7.25 11.5897 7.58 10.9297 8.25C10.0297 9.15 9.70974 10.46 10.0797 11.68C10.1597 11.95 10.0897 12.23 9.88974 12.43L7.30974 15.01C7.28974 15.04 7.24974 15.15 7.24974 15.19L7.41974 16.39C7.42974 16.45 7.53974 16.56 7.59974 16.57L8.79974 16.74C8.84974 16.73 8.94974 16.71 8.97974 16.68L11.5697 14.09C11.7697 13.89 12.0597 13.83 12.3197 13.91C13.5297 14.29 14.8397 13.97 15.7397 13.07C16.3797 12.43 16.7397 11.57 16.7397 10.66C16.7397 9.75 16.3897 8.89 15.7397 8.25C15.0897 7.59 14.2097 7.25 13.3397 7.25Z" fill="#292D32"/>
<path d="M10.4493 17.03C10.2593 17.03 10.0693 16.96 9.9193 16.81L9.0593 15.95C8.7693 15.66 8.7693 15.18 9.0593 14.89C9.3493 14.6 9.8293 14.6 10.1193 14.89L10.9793 15.75C11.2693 16.04 11.2693 16.52 10.9793 16.81C10.8393 16.96 10.6493 17.03 10.4493 17.03Z" fill="#292D32"/>
<path d="M13.3791 11.8C13.2391 11.8 13.1091 11.78 12.9891 11.73C12.8691 11.68 12.7591 11.6 12.6691 11.51C12.4791 11.32 12.3691 11.07 12.3691 10.8C12.3691 10.54 12.4791 10.28 12.6691 10.1C12.8991 9.86 13.2491 9.75 13.5691 9.82C13.6291 9.84 13.6991 9.85 13.7591 9.88C13.8191 9.91 13.8791 9.94 13.9291 9.97C13.9791 10.01 14.0391 10.05 14.0791 10.1C14.2691 10.28 14.3791 10.54 14.3791 10.8C14.3791 10.94 14.3491 11.06 14.2991 11.19C14.2491 11.31 14.1791 11.42 14.0791 11.51C13.8891 11.7 13.6391 11.8 13.3791 11.8Z" fill="#292D32"/>
</svg>
