<svg width="24" height="24" viewBox="0 0 24 24" fill="none" xmlns="http://www.w3.org/2000/svg">
<path d="M6.17916 22.75C6.07916 22.75 5.96916 22.74 5.87916 22.73L3.70916 22.43C2.66916 22.29 1.72916 21.36 1.56916 20.3L1.26916 18.11C1.16916 17.41 1.46916 16.5 1.96916 15.99L6.35916 11.6C5.64916 8.76 6.46916 5.76 8.55916 3.69C11.7992 0.46 17.0692 0.45 20.3192 3.69C21.8892 5.26 22.7492 7.35 22.7492 9.57C22.7492 11.79 21.8892 13.88 20.3192 15.45C18.2192 17.53 15.2292 18.35 12.4092 17.63L8.00916 22.02C7.58916 22.46 6.83916 22.75 6.17916 22.75ZM14.4292 2.76C12.6792 2.76 10.9392 3.42 9.60916 4.75C7.80916 6.54 7.15916 9.16 7.90916 11.6C7.98916 11.87 7.91916 12.15 7.71916 12.35L3.01916 17.05C2.84916 17.22 2.70916 17.66 2.73916 17.89L3.03916 20.08C3.09916 20.46 3.50916 20.89 3.88916 20.94L6.06916 21.24C6.30916 21.28 6.74916 21.14 6.91916 20.97L11.6392 16.26C11.8392 16.06 12.1292 16 12.3892 16.08C14.7992 16.84 17.4292 16.19 19.2292 14.39C20.5092 13.11 21.2192 11.39 21.2192 9.57C21.2192 7.74 20.5092 6.03 19.2292 4.75C17.9292 3.43 16.1792 2.76 14.4292 2.76Z" fill="#292D32"/>
<path d="M9.19008 20.54C9.00008 20.54 8.81008 20.47 8.66008 20.32L6.36008 18.02C6.07008 17.73 6.07008 17.25 6.36008 16.96C6.65008 16.67 7.13008 16.67 7.42008 16.96L9.72008 19.26C10.0101 19.55 10.0101 20.03 9.72008 20.32C9.57008 20.47 9.38008 20.54 9.19008 20.54Z" fill="#292D32"/>
<path d="M14.5 11.75C13.26 11.75 12.25 10.74 12.25 9.5C12.25 8.26 13.26 7.25 14.5 7.25C15.74 7.25 16.75 8.26 16.75 9.5C16.75 10.74 15.74 11.75 14.5 11.75ZM14.5 8.75C14.09 8.75 13.75 9.09 13.75 9.5C13.75 9.91 14.09 10.25 14.5 10.25C14.91 10.25 15.25 9.91 15.25 9.5C15.25 9.09 14.91 8.75 14.5 8.75Z" fill="#292D32"/>
</svg>
