<svg width="24" height="24" viewBox="0 0 24 24" fill="none" xmlns="http://www.w3.org/2000/svg">
<path d="M12 22.29C11.44 22.29 10.88 22.12 10.4 21.78L5.40002 18.2101C4.68002 17.7001 4.25 16.86 4.25 15.97V7.16005C4.25 6.18005 4.78001 5.26005 5.64001 4.77005L10.64 1.91005C11.48 1.43005 12.53 1.43005 13.37 1.91005L18.37 4.77005C19.22 5.26005 19.76 6.17005 19.76 7.16005V15.97C19.76 16.86 19.33 17.6901 18.61 18.2101L13.61 21.78C13.12 22.12 12.56 22.29 12 22.29ZM11.38 3.22005L6.38 6.08005C5.99 6.30005 5.75 6.72005 5.75 7.16005V15.97C5.75 16.37 5.95002 16.7501 6.27002 16.9901L11.27 20.56C11.71 20.87 12.29 20.87 12.72 20.56L17.72 16.9901C18.05 16.7601 18.24 16.38 18.24 15.97V7.16005C18.24 6.71005 18 6.30005 17.61 6.08005L12.61 3.22005C12.24 3.00005 11.76 3.00005 11.38 3.22005Z" fill="black"/>
<path d="M11.8498 21.98C11.4998 21.98 11.1899 21.73 11.1199 21.38L9.26988 12.15C9.24988 12.05 9.24988 11.94 9.26988 11.84L11.2699 2.84002C11.3599 2.44002 11.7498 2.18003 12.1698 2.27003C12.5698 2.36003 12.8299 2.76003 12.7399 3.16003L10.7699 12.01L12.5899 21.09C12.6699 21.5 12.4099 21.89 11.9999 21.97C11.9399 21.98 11.8898 21.98 11.8498 21.98Z" fill="black"/>
<path d="M18.1605 17.66C18.0305 17.66 17.9005 17.63 17.7705 17.55L9.61049 12.64C9.38049 12.5 9.2405 12.25 9.2505 11.98C9.2505 11.71 9.40052 11.47 9.64052 11.34L18.1805 6.60001C18.5405 6.40001 19.0005 6.53 19.2005 6.89C19.4005 7.25 19.2705 7.71001 18.9105 7.91001L11.5005 12.02L18.5505 16.26C18.9005 16.47 19.0205 16.93 18.8105 17.29C18.6605 17.53 18.4205 17.66 18.1605 17.66Z" fill="black"/>
</svg>
