<svg width="24" height="24" viewBox="0 0 24 24" fill="none" xmlns="http://www.w3.org/2000/svg">
<path d="M20.7787 19.34H3.21875C2.80875 19.34 2.46875 19 2.46875 18.59V13.65C2.46875 8.42999 6.71875 4.17999 11.9388 4.17999H12.0587C17.2787 4.17999 21.5287 8.42999 21.5287 13.65V18.59C21.5287 19 21.1887 19.34 20.7787 19.34ZM3.96875 17.84H20.0287V13.65C20.0287 9.24999 16.4487 5.67999 12.0587 5.67999H11.9388C7.53875 5.67999 3.96875 9.25999 3.96875 13.65V17.84V17.84Z" fill="#292D32"/>
<path d="M12 5.67999C11.59 5.67999 11.25 5.33999 11.25 4.92999V2C11.25 1.59 11.59 1.25 12 1.25C12.41 1.25 12.75 1.59 12.75 2V4.92999C12.75 5.33999 12.41 5.67999 12 5.67999Z" fill="#292D32"/>
<path d="M12.0005 22.75C9.69054 22.75 7.76055 20.94 7.60055 18.64C7.59055 18.43 7.66053 18.23 7.80053 18.08C7.94053 17.93 8.14055 17.84 8.35055 17.84H15.6505C15.8605 17.84 16.0606 17.93 16.2006 18.08C16.3406 18.23 16.4105 18.44 16.4005 18.64C16.2405 20.94 14.3105 22.75 12.0005 22.75ZM9.27053 19.34C9.68053 20.46 10.7605 21.25 12.0005 21.25C13.2405 21.25 14.3206 20.46 14.7306 19.34H9.27053Z" fill="#292D32"/>
</svg>
