<svg width="24" height="24" viewBox="0 0 24 24" fill="none" xmlns="http://www.w3.org/2000/svg">
<path d="M11.9707 22.75C6.0507 22.75 1.2207 17.93 1.2207 12C1.2207 6.07 6.0507 1.25 11.9707 1.25C17.8907 1.25 22.7207 6.07 22.7207 12C22.7207 17.93 17.9007 22.75 11.9707 22.75ZM11.9707 2.75C6.8707 2.75 2.7207 6.9 2.7207 12C2.7207 17.1 6.8707 21.25 11.9707 21.25C17.0707 21.25 21.2207 17.1 21.2207 12C21.2207 6.9 17.0707 2.75 11.9707 2.75Z" fill="#292D32"/>
<path d="M12 17.25C9.1 17.25 6.75 14.89 6.75 12C6.75 9.11 9.1 6.75 12 6.75C14.9 6.75 17.25 9.11 17.25 12C17.25 14.89 14.9 17.25 12 17.25ZM12 8.25C9.93 8.25 8.25 9.93 8.25 12C8.25 14.07 9.93 15.75 12 15.75C14.07 15.75 15.75 14.07 15.75 12C15.75 9.93 14.07 8.25 12 8.25Z" fill="#292D32"/>
<path d="M8.43984 9.21012C8.24984 9.21012 8.04984 9.14012 7.90984 9.00012L4.36984 5.46012C4.07984 5.17012 4.07984 4.69012 4.36984 4.40012C4.65984 4.11012 5.13984 4.11012 5.42984 4.40012L8.96984 7.94012C9.25984 8.23012 9.25984 8.70012 8.96984 9.00012C8.81984 9.14012 8.62984 9.21012 8.43984 9.21012Z" fill="#292D32"/>
<path d="M4.89984 19.82C4.70984 19.82 4.51984 19.75 4.36984 19.6C4.07984 19.31 4.07984 18.83 4.36984 18.54L7.90984 15C8.19984 14.71 8.67984 14.71 8.96984 15C9.25984 15.29 9.25984 15.77 8.96984 16.06L5.42984 19.6C5.28984 19.75 5.08984 19.82 4.89984 19.82Z" fill="#292D32"/>
<path d="M19.0395 19.82C18.8495 19.82 18.6595 19.75 18.5095 19.6L14.9695 16.06C14.6795 15.77 14.6795 15.29 14.9695 15C15.2595 14.71 15.7395 14.71 16.0295 15L19.5695 18.54C19.8595 18.83 19.8595 19.31 19.5695 19.6C19.4295 19.75 19.2395 19.82 19.0395 19.82Z" fill="#292D32"/>
<path d="M15.5092 9.21011C15.3192 9.21011 15.1292 9.14011 14.9792 8.99011C14.6892 8.70011 14.6892 8.22011 14.9792 7.93011L18.5192 4.39011C18.8092 4.10011 19.2892 4.10011 19.5792 4.39011C19.8692 4.68011 19.8692 5.16011 19.5792 5.45011L16.0392 9.00011C15.8892 9.14011 15.6992 9.21011 15.5092 9.21011Z" fill="#292D32"/>
</svg>
