<svg width="24" height="24" viewBox="0 0 24 24" fill="none" xmlns="http://www.w3.org/2000/svg">
<path d="M9.9493 22.75H7.7793C7.3893 22.75 6.6093 22.6299 6.1593 22.1899L4.4593 20.88L5.3793 19.6899L7.1493 21.06C7.2793 21.17 7.5493 21.25 7.7793 21.25H9.9493C10.3193 21.25 10.7393 20.94 10.8193 20.62L12.2093 16.39C12.2493 16.29 12.2793 16.14 12.2093 16.03C12.1493 15.94 12.0093 15.89 11.8393 15.89H9.5493C9.1593 15.89 8.7993 15.72 8.5393 15.43C8.2793 15.13 8.1693 14.7499 8.2293 14.3399L8.51929 12.5C8.55929 12.33 8.4393 12.1199 8.2793 12.0699C8.1493 12.0199 7.9293 12.11 7.8793 12.18L5.5293 15.67L4.2793 14.8299L6.6193 11.3399C7.0593 10.6799 8.0193 10.38 8.7593 10.66C9.6093 10.94 10.1693 11.9 9.9693 12.78L9.7193 14.38H11.8093C12.4793 14.38 13.0593 14.66 13.4093 15.16C13.7493 15.64 13.8193 16.27 13.5993 16.87L12.2293 21.03C12.0293 21.97 11.0093 22.75 9.9493 22.75Z" fill="#292D32"/>
<path d="M3.71976 22.12H3.14977C1.58977 22.12 1.25977 21.12 1.25977 20.28V14.6801C1.25977 13.8401 1.58977 12.84 3.14977 12.84H3.71976C5.27976 12.84 5.60976 13.8401 5.60976 14.6801V20.28C5.60976 21.12 5.27976 22.12 3.71976 22.12ZM2.78976 20.58C2.79976 20.58 2.89976 20.62 3.13976 20.62H3.70976C3.96976 20.62 4.05977 20.5799 4.07977 20.5699C4.07977 20.5599 4.10976 20.49 4.10976 20.28V14.6801C4.10976 14.4701 4.07976 14.39 4.06976 14.38C4.06976 14.4 3.96976 14.34 3.71976 14.34H3.14977C2.88977 14.34 2.79976 14.38 2.77976 14.39C2.77976 14.4 2.74976 14.4701 2.74976 14.6801V20.28C2.74976 20.49 2.77976 20.57 2.78976 20.58Z" fill="#292D32"/>
<path d="M15.8102 13.4399C15.6102 13.4399 15.4102 13.41 15.2202 13.34C14.3702 13.06 13.8102 12.1 14.0102 11.22L14.2602 9.62H12.1702C11.5002 9.62 10.9202 9.33997 10.5702 8.83997C10.2302 8.35997 10.1602 7.73 10.3802 7.13L11.7502 2.96997C11.9802 2.02997 13.0102 1.25 14.0602 1.25H16.2302C16.6202 1.25 17.4002 1.37006 17.8502 1.81006L19.5502 3.12L18.6302 4.31006L16.8602 2.93994C16.7302 2.82994 16.4602 2.75 16.2302 2.75H14.0602C13.6902 2.75 13.2702 3.06 13.1902 3.38L11.8002 7.60999C11.7602 7.70999 11.7302 7.85997 11.8002 7.96997C11.8602 8.05997 12.0002 8.10999 12.1702 8.10999H14.4602C14.8502 8.10999 15.2102 8.27995 15.4702 8.56995C15.7302 8.86995 15.8402 9.25003 15.7802 9.66003L15.4902 11.5C15.4502 11.67 15.5702 11.8801 15.7302 11.9301C15.8702 11.9801 16.0802 11.8999 16.1302 11.8199L18.4802 8.32996L19.7302 9.17004L17.3902 12.66C17.0302 13.14 16.4102 13.4399 15.8102 13.4399Z" fill="#292D32"/>
<path d="M20.8604 11.16H20.2904C18.7304 11.16 18.4004 10.1599 18.4004 9.31995V3.71997C18.4004 2.87997 18.7304 1.88 20.2904 1.88H20.8604C22.4204 1.88 22.7504 2.87997 22.7504 3.71997V9.31995C22.7504 10.1599 22.4204 11.16 20.8604 11.16ZM19.9304 9.62C19.9404 9.62 20.0404 9.66003 20.2804 9.66003H20.8504C21.1104 9.66003 21.2004 9.61999 21.2204 9.60999C21.2204 9.59999 21.2504 9.52995 21.2504 9.31995V3.71997C21.2504 3.50997 21.2204 3.44004 21.2104 3.42004C21.2204 3.46004 21.1104 3.38 20.8604 3.38H20.2904C20.0304 3.38 19.9404 3.42005 19.9204 3.43005C19.9204 3.44005 19.8904 3.50997 19.8904 3.71997V9.31995C19.8904 9.52995 19.9204 9.6 19.9304 9.62Z" fill="#292D32"/>
</svg>
