<svg width="24" height="24" viewBox="0 0 24 24" fill="none" xmlns="http://www.w3.org/2000/svg">
<path d="M12.0089 22.75C11.3789 22.75 10.7489 22.54 10.2589 22.12L8.6789 20.76C8.5189 20.62 8.11891 20.48 7.90891 20.48H6.1789C4.6989 20.48 3.49891 19.28 3.49891 17.8V16.09C3.49891 15.88 3.35891 15.49 3.21891 15.33L1.86891 13.74C1.04891 12.77 1.04891 11.24 1.86891 10.27L3.21891 8.68005C3.35891 8.52005 3.49891 8.13004 3.49891 7.92004V6.20996C3.49891 4.72996 4.6989 3.53002 6.1789 3.53002H7.90891C8.11891 3.53002 8.5189 3.38 8.6789 3.25L10.2589 1.89001C11.2389 1.05001 12.7689 1.05001 13.7489 1.89001L15.3289 3.25C15.4889 3.39 15.8889 3.53002 16.0989 3.53002H17.7989C19.2789 3.53002 20.4789 4.72996 20.4789 6.20996V7.91003C20.4789 8.12003 20.6289 8.52005 20.7689 8.68005L22.1189 10.26C22.9589 11.24 22.9589 12.77 22.1189 13.75L20.7689 15.33C20.6289 15.49 20.4889 15.89 20.4889 16.1V17.8C20.4889 19.28 19.2889 20.48 17.8089 20.48H16.1089C15.8989 20.48 15.4989 20.63 15.3389 20.76L13.7589 22.12C13.2589 22.54 12.6289 22.75 12.0089 22.75ZM6.1789 5.02001C5.5289 5.02001 4.99891 5.54995 4.99891 6.19995V7.91003C4.99891 8.48003 4.72891 9.21001 4.36891 9.64001L3.0189 11.23C2.6689 11.64 2.6689 12.35 3.0189 12.76L4.36891 14.35C4.73891 14.79 5.00892 15.52 5.00892 16.08V17.79C5.00892 18.44 5.53891 18.97 6.18891 18.97H7.91892C8.49892 18.97 9.22892 19.24 9.66892 19.62L11.2489 20.98C11.6589 21.33 12.3789 21.33 12.7889 20.98L14.3689 19.62C14.8089 19.25 15.5389 18.97 16.1189 18.97H17.8189C18.4689 18.97 18.9989 18.44 18.9989 17.79V16.09C18.9989 15.51 19.2689 14.78 19.6489 14.34L20.9989 12.76C21.3489 12.35 21.3489 11.63 20.9989 11.22L19.6489 9.64001C19.2789 9.20001 18.9989 8.47001 18.9989 7.89001V6.18994C18.9989 5.53994 18.4689 5.01 17.8189 5.01H16.1189C15.5489 5.01 14.8089 4.73998 14.3689 4.35998L12.7889 3C12.3789 2.65 11.6589 2.65 11.2489 3L9.66892 4.35998C9.22892 4.72998 8.49892 5.01 7.91892 5.01H6.1789V5.02001Z" fill="#292D32"/>
<path d="M13.9998 16.97H12.2198C11.7998 16.97 11.1697 16.84 10.7997 16.47L9.41977 15.41L10.3398 14.22L11.7898 15.3399C11.8898 15.4099 12.0698 15.4599 12.2198 15.4599H13.9998C14.2398 15.4599 14.5297 15.25 14.5797 15.04L15.7198 11.5699C15.7498 11.4799 15.7497 11.42 15.7397 11.4C15.7197 11.37 15.6497 11.3399 15.5497 11.3399H13.6797C13.3197 11.3399 12.9898 11.19 12.7498 10.92C12.5198 10.65 12.4097 10.29 12.4597 9.92002L12.6998 8.41001C12.7198 8.33001 12.6598 8.22994 12.5998 8.20994C12.5398 8.19994 12.4498 8.21998 12.4198 8.24998L10.5098 11.0899L9.25977 10.25L11.1797 7.4C11.5797 6.8 12.4198 6.54002 13.0998 6.79002C13.8598 7.04002 14.3497 7.90003 14.1797 8.68003L13.9998 9.81993H15.5497C16.1397 9.81993 16.6598 10.07 16.9698 10.51C17.2698 10.94 17.3397 11.5 17.1497 12.03L16.0298 15.43C15.8198 16.29 14.9298 16.97 13.9998 16.97Z" fill="#292D32"/>
<path d="M8.90024 16.46H8.43024C6.96024 16.46 6.74023 15.4299 6.74023 14.8199V10.24C6.74023 9.62999 6.96024 8.59998 8.43024 8.59998H8.90024C10.3702 8.59998 10.5902 9.62999 10.5902 10.24V14.8199C10.5902 15.4299 10.3702 16.46 8.90024 16.46ZM8.26025 14.95C8.30025 14.96 8.36025 14.96 8.44025 14.96H8.91025C8.99025 14.96 9.05024 14.96 9.09024 14.95C9.09024 14.92 9.10025 14.8799 9.10025 14.8199V10.24C9.10025 10.18 9.10024 10.14 9.09024 10.11C9.05024 10.1 8.99025 10.1 8.91025 10.1H8.44025C8.36025 10.1 8.30025 10.1 8.26025 10.11C8.26025 10.14 8.25024 10.18 8.25024 10.24V14.8199C8.25024 14.8799 8.25025 14.92 8.26025 14.95Z" fill="#292D32"/>
</svg>
