<svg width="24" height="24" viewBox="0 0 24 24" fill="none" xmlns="http://www.w3.org/2000/svg">
<path d="M16.2794 22.1H12.4794C11.9194 22.1 10.6994 21.93 10.0494 21.28L7.01937 18.94L7.93937 17.75L11.0394 20.15C11.2894 20.39 11.9194 20.59 12.4794 20.59H16.2794C17.1794 20.59 18.1494 19.87 18.3494 19.06L20.7694 11.71C20.9294 11.27 20.8994 10.87 20.6894 10.58C20.4694 10.27 20.0694 10.09 19.5794 10.09H15.5794C15.0594 10.09 14.5794 9.87 14.2494 9.49C13.9094 9.1 13.7594 8.58 13.8394 8.04L14.3394 4.83C14.4594 4.27 14.0794 3.64 13.5394 3.46C13.0494 3.28 12.4194 3.54 12.1994 3.86L8.09938 9.96L6.85938 9.13L10.9594 3.03C11.5894 2.09 12.9694 1.64 14.0494 2.05C15.2994 2.46 16.0994 3.84 15.8194 5.12L15.3294 8.27C15.3194 8.34 15.3194 8.44 15.3894 8.52C15.4394 8.57 15.5094 8.6 15.5894 8.6H19.5894C20.5694 8.6 21.4194 9.01 21.9194 9.72C22.4094 10.41 22.5094 11.32 22.1894 12.2L19.7994 19.48C19.4294 20.93 17.8894 22.1 16.2794 22.1Z" fill="#292D32"/>
<path d="M5.38086 21H4.38086C2.53086 21 1.63086 20.13 1.63086 18.35V8.55C1.63086 6.77 2.53086 5.9 4.38086 5.9H5.38086C7.23086 5.9 8.13086 6.77 8.13086 8.55V18.35C8.13086 20.13 7.23086 21 5.38086 21ZM4.38086 7.4C3.29086 7.4 3.13086 7.66 3.13086 8.55V18.35C3.13086 19.24 3.29086 19.5 4.38086 19.5H5.38086C6.47086 19.5 6.63086 19.24 6.63086 18.35V8.55C6.63086 7.66 6.47086 7.4 5.38086 7.4H4.38086Z" fill="#292D32"/>
</svg>
