<svg width="24" height="24" viewBox="0 0 24 24" fill="none" xmlns="http://www.w3.org/2000/svg">
<path d="M8.1796 16.77C8.1596 16.77 8.12961 16.77 8.10961 16.77C7.13961 16.68 6.22961 16.23 5.54961 15.51C3.94961 13.83 3.94961 11.1 5.54961 9.41998L7.73961 7.11996C8.51961 6.29996 9.56961 5.83997 10.6896 5.83997C11.8096 5.83997 12.8596 6.28996 13.6396 7.11996C15.2396 8.79996 15.2396 11.53 13.6396 13.21L12.5496 14.36C12.2596 14.66 11.7896 14.67 11.4896 14.39C11.1896 14.1 11.1796 13.63 11.4596 13.33L12.5496 12.18C13.6096 11.07 13.6096 9.25997 12.5496 8.15997C11.5596 7.11997 9.81961 7.11997 8.81961 8.15997L6.62961 10.46C5.56961 11.57 5.56961 13.38 6.62961 14.48C7.05961 14.94 7.63961 15.22 8.24961 15.28C8.65961 15.32 8.9596 15.69 8.9196 16.1C8.8896 16.48 8.5596 16.77 8.1796 16.77Z" fill="#292D32"/>
<path d="M13.3102 18.1599C12.1902 18.1599 11.1402 17.7099 10.3602 16.8799C8.76016 15.1999 8.76016 12.4699 10.3602 10.7899L11.4502 9.63991C11.7402 9.33991 12.2102 9.32988 12.5102 9.60988C12.8102 9.89988 12.8201 10.3699 12.5401 10.6699L11.4502 11.8199C10.3902 12.9299 10.3902 14.7399 11.4502 15.8399C12.4402 16.8799 14.1801 16.8899 15.1801 15.8399L17.3702 13.5399C18.4302 12.4299 18.4302 10.6199 17.3702 9.51989C16.9402 9.05989 16.3602 8.7799 15.7502 8.7199C15.3402 8.6799 15.0402 8.30989 15.0802 7.89989C15.1202 7.48989 15.4801 7.17991 15.9001 7.22991C16.8701 7.32991 17.7802 7.76989 18.4602 8.48989C20.0602 10.1699 20.0602 12.8999 18.4602 14.5799L16.2702 16.8799C15.4802 17.7099 14.4302 18.1599 13.3102 18.1599Z" fill="#292D32"/>
<path d="M15 22.75H9C3.57 22.75 1.25 20.43 1.25 15V9C1.25 3.57 3.57 1.25 9 1.25H15C20.43 1.25 22.75 3.57 22.75 9V15C22.75 20.43 20.43 22.75 15 22.75ZM9 2.75C4.39 2.75 2.75 4.39 2.75 9V15C2.75 19.61 4.39 21.25 9 21.25H15C19.61 21.25 21.25 19.61 21.25 15V9C21.25 4.39 19.61 2.75 15 2.75H9Z" fill="#292D32"/>
</svg>
