<svg width="24" height="24" viewBox="0 0 24 24" fill="none" xmlns="http://www.w3.org/2000/svg">
<path d="M8.98969 21.5C7.32969 21.5 5.65969 20.87 4.38969 19.6C1.85969 17.06 1.85969 12.94 4.38969 10.41C4.67969 10.12 5.15969 10.12 5.44969 10.41C5.73969 10.7 5.73969 11.18 5.44969 11.47C3.49969 13.42 3.49969 16.59 5.44969 18.54C7.39969 20.49 10.5697 20.49 12.5197 18.54C13.4597 17.6 13.9797 16.34 13.9797 15C13.9797 13.67 13.4597 12.41 12.5197 11.46C12.2297 11.17 12.2297 10.69 12.5197 10.4C12.8097 10.11 13.2897 10.11 13.5797 10.4C14.8097 11.63 15.4797 13.26 15.4797 15C15.4797 16.74 14.7997 18.37 13.5797 19.6C12.3197 20.87 10.6597 21.5 8.98969 21.5Z" fill="#292D32"/>
<path d="M19.0701 14.16C18.8801 14.16 18.6901 14.09 18.5401 13.94C18.2501 13.65 18.2501 13.17 18.5401 12.88C20.5901 10.83 20.5901 7.49999 18.5401 5.45999C16.4901 3.40999 13.1601 3.40999 11.1201 5.45999C10.1301 6.44999 9.58008 7.76999 9.58008 9.16999C9.58008 10.57 10.1301 11.89 11.1201 12.88C11.4101 13.17 11.4101 13.65 11.1201 13.94C10.8301 14.23 10.3501 14.23 10.0601 13.94C8.79008 12.67 8.08008 10.97 8.08008 9.16999C8.08008 7.36999 8.78008 5.66999 10.0601 4.39999C12.6901 1.76999 16.9701 1.76999 19.6101 4.39999C22.2401 7.02999 22.2401 11.32 19.6101 13.95C19.4601 14.09 19.2601 14.16 19.0701 14.16Z" fill="#292D32"/>
</svg>
