<svg width="24" height="24" viewBox="0 0 24 24" fill="none" xmlns="http://www.w3.org/2000/svg">
<path d="M15.6702 17.8901H7.97017C7.73017 17.8901 7.51016 17.7801 7.37016 17.5901C7.23016 17.4001 7.18016 17.1601 7.25016 16.9301L10.3302 6.15011C10.4202 5.83011 10.7202 5.61011 11.0502 5.61011H14.0902C14.3202 5.61011 14.5402 5.72011 14.6902 5.90011C14.8302 6.09011 14.8802 6.33011 14.8202 6.55011L12.9502 13.5501H16.2002C16.4202 13.5501 16.6302 13.6501 16.7802 13.8201C16.9202 13.9901 16.9802 14.2201 16.9402 14.4301L16.4302 17.2701C16.3402 17.6301 16.0302 17.8901 15.6702 17.8901ZM8.96016 16.3901H15.0402L15.2802 15.0501H11.9602C11.7302 15.0501 11.5101 14.9401 11.3601 14.7601C11.2201 14.5701 11.1702 14.3301 11.2302 14.1101L13.1002 7.11011H11.6002L8.96016 16.3901Z" fill="black"/>
<path d="M7.31965 13.27C6.96965 13.27 6.65964 13.02 6.58964 12.67C6.50964 12.26 6.76964 11.87 7.17964 11.79L14.8796 10.25C15.2796 10.17 15.6797 10.43 15.7597 10.84C15.8397 11.25 15.5797 11.64 15.1697 11.72L7.46964 13.26C7.41964 13.27 7.36965 13.27 7.31965 13.27Z" fill="black"/>
<path d="M12 22.75C6.07 22.75 1.25 17.93 1.25 12C1.25 6.07 6.07 1.25 12 1.25C17.93 1.25 22.75 6.07 22.75 12C22.75 17.93 17.93 22.75 12 22.75ZM12 2.75C6.9 2.75 2.75 6.9 2.75 12C2.75 17.1 6.9 21.25 12 21.25C17.1 21.25 21.25 17.1 21.25 12C21.25 6.9 17.1 2.75 12 2.75Z" fill="black"/>
</svg>
