<svg width="24" height="24" viewBox="0 0 24 24" fill="none" xmlns="http://www.w3.org/2000/svg">
<path d="M10.4209 13.75C10.2909 13.75 10.1609 13.72 10.0409 13.65C8.86086 12.96 8.13086 11.68 8.13086 10.32C8.13086 8.18995 9.86086 6.44995 12.0009 6.44995C13.3709 6.44995 14.6509 7.17995 15.3409 8.36995C15.5509 8.72995 15.4309 9.18995 15.0709 9.39995C14.7109 9.60995 14.2509 9.48995 14.0409 9.12995C13.6209 8.38995 12.8409 7.93995 12.0009 7.93995C10.7009 7.93995 9.63086 8.99995 9.63086 10.31C9.63086 11.15 10.0809 11.93 10.8009 12.35C11.1609 12.56 11.2809 13.02 11.0709 13.38C10.9309 13.61 10.6809 13.75 10.4209 13.75Z" fill="#292D32"/>
<path d="M5.99072 18.5599C5.76072 18.5599 5.53073 18.4499 5.38073 18.2499C2.98073 14.9599 2.14073 11.6199 2.89073 8.31995C3.67073 4.88995 6.19072 2.34995 9.63072 1.51995C13.2307 0.649949 17.0107 1.81995 19.2407 4.48995C19.5107 4.80995 19.4607 5.27995 19.1507 5.54995C18.8307 5.81995 18.3607 5.76995 18.0907 5.44995C16.2207 3.20995 13.0407 2.23995 9.98072 2.96995C7.06072 3.66995 5.01072 5.73995 4.35072 8.63995C3.70072 11.4999 4.45073 14.4299 6.59073 17.3499C6.83073 17.6799 6.76072 18.1499 6.43072 18.3999C6.30072 18.5099 6.14072 18.5599 5.99072 18.5599Z" fill="#292D32"/>
<path d="M12.0001 22.76C10.5201 22.76 9.03006 22.2 7.87006 21.09C7.57006 20.8 7.56006 20.33 7.85006 20.03C8.14006 19.73 8.61006 19.72 8.91006 20.01C10.6401 21.68 13.3501 21.68 15.0801 20.01C17.7501 17.44 20.7101 13.38 19.6501 8.67002C19.5601 8.27002 19.8101 7.86002 20.2201 7.77002C20.6201 7.68002 21.0301 7.93002 21.1201 8.34002C22.3401 13.73 19.0801 18.25 16.1301 21.09C14.9701 22.2 13.4801 22.76 12.0001 22.76Z" fill="#292D32"/>
<path d="M1.99945 22.7499C1.80945 22.7499 1.61945 22.6799 1.46945 22.5299C1.17945 22.2399 1.17945 21.7599 1.46945 21.4699L21.4695 1.46994C21.7595 1.17994 22.2395 1.17994 22.5295 1.46994C22.8195 1.75994 22.8195 2.23994 22.5295 2.52994L2.52945 22.5299C2.37945 22.6799 2.18945 22.7499 1.99945 22.7499Z" fill="#292D32"/>
</svg>
