<svg width="24" height="24" viewBox="0 0 24 24" fill="none" xmlns="http://www.w3.org/2000/svg">
<path d="M15.2405 22.27H15.1105C10.6705 22.27 8.5305 20.52 8.1605 16.6C8.1205 16.19 8.4205 15.82 8.8405 15.78C9.2505 15.74 9.6205 16.05 9.6605 16.46C9.9505 19.6 11.4305 20.77 15.1205 20.77H15.2505C19.3205 20.77 20.7605 19.33 20.7605 15.26V8.73998C20.7605 4.66998 19.3205 3.22998 15.2505 3.22998H15.1205C11.4105 3.22998 9.9305 4.41998 9.6605 7.61998C9.6105 8.02998 9.2705 8.33998 8.8405 8.29998C8.4205 8.26998 8.1205 7.89998 8.1505 7.48998C8.4905 3.50998 10.6405 1.72998 15.1105 1.72998H15.2405C20.1505 1.72998 22.2505 3.82998 22.2505 8.73998V15.26C22.2505 20.17 20.1505 22.27 15.2405 22.27Z" fill="#292D32"/>
<path d="M14.88 12.75H2C1.59 12.75 1.25 12.41 1.25 12C1.25 11.59 1.59 11.25 2 11.25H14.88C15.29 11.25 15.63 11.59 15.63 12C15.63 12.41 15.3 12.75 14.88 12.75Z" fill="#292D32"/>
<path d="M12.6498 16.1C12.4598 16.1 12.2698 16.03 12.1198 15.88C11.8298 15.59 11.8298 15.11 12.1198 14.82L14.9398 12L12.1198 9.18003C11.8298 8.89003 11.8298 8.41003 12.1198 8.12003C12.4098 7.83003 12.8898 7.83003 13.1798 8.12003L16.5298 11.47C16.8198 11.76 16.8198 12.24 16.5298 12.53L13.1798 15.88C13.0298 16.03 12.8398 16.1 12.6498 16.1Z" fill="#292D32"/>
</svg>
