<svg width="24" height="24" viewBox="0 0 24 24" fill="none" xmlns="http://www.w3.org/2000/svg">
<path d="M11.6791 15.37C11.4891 15.37 11.2991 15.3 11.1491 15.15C10.8591 14.86 10.8591 14.38 11.1491 14.09L13.1791 12.06L11.1491 10.03C10.8591 9.74 10.8591 9.26 11.1491 8.97C11.4391 8.68 11.9191 8.68 12.2091 8.97L14.7691 11.53C15.0591 11.82 15.0591 12.3 14.7691 12.59L12.2091 15.15C12.0691 15.3 11.8691 15.37 11.6791 15.37Z" fill="#292D32"/>
<path d="M14.17 12.81H4C3.59 12.81 3.25 12.47 3.25 12.06C3.25 11.65 3.59 11.31 4 11.31H14.17C14.58 11.31 14.92 11.65 14.92 12.06C14.92 12.47 14.58 12.81 14.17 12.81Z" fill="#292D32"/>
<path d="M12 20.75C11.59 20.75 11.25 20.41 11.25 20C11.25 19.59 11.59 19.25 12 19.25C16.27 19.25 19.25 16.27 19.25 12C19.25 7.73 16.27 4.75 12 4.75C11.59 4.75 11.25 4.41 11.25 4C11.25 3.59 11.59 3.25 12 3.25C17.15 3.25 20.75 6.85 20.75 12C20.75 17.15 17.15 20.75 12 20.75Z" fill="#292D32"/>
</svg>
