<svg width="24" height="24" viewBox="0 0 24 24" fill="none" xmlns="http://www.w3.org/2000/svg">
<path d="M12 22.75C6.07 22.75 1.25 17.93 1.25 12C1.25 6.07 6.07 1.25 12 1.25C17.93 1.25 22.75 6.07 22.75 12C22.75 17.93 17.93 22.75 12 22.75ZM12 2.75C6.9 2.75 2.75 6.9 2.75 12C2.75 17.1 6.9 21.25 12 21.25C17.1 21.25 21.25 17.1 21.25 12C21.25 6.9 17.1 2.75 12 2.75Z" fill="black"/>
<path d="M10.7501 15.2499C10.3401 15.2499 10.0001 14.9099 10.0001 14.4999V12.4199L7.33008 10.8199V14.4999C7.33008 14.9099 6.99008 15.2499 6.58008 15.2499C6.17008 15.2499 5.83008 14.9099 5.83008 14.4999V9.49995C5.83008 9.22995 5.98008 8.97995 6.21008 8.84995C6.44008 8.71995 6.73008 8.71995 6.96008 8.85995L11.1301 11.3599C11.3601 11.4999 11.4901 11.7399 11.4901 11.9999V14.4999C11.5001 14.9099 11.1601 15.2499 10.7501 15.2499Z" fill="black"/>
<path d="M17.42 15.2499C17.01 15.2499 16.67 14.9099 16.67 14.4999V10.8199L14 12.4199V14.4999C14 14.9099 13.66 15.2499 13.25 15.2499C12.84 15.2499 12.5 14.9099 12.5 14.4999V11.9999C12.5 11.7399 12.64 11.4899 12.86 11.3599L17.03 8.85995C17.26 8.71995 17.55 8.71995 17.78 8.84995C18.02 8.97995 18.16 9.22995 18.16 9.49995V14.4999C18.17 14.9099 17.83 15.2499 17.42 15.2499Z" fill="black"/>
</svg>
