<svg width="24" height="24" viewBox="0 0 24 24" fill="none" xmlns="http://www.w3.org/2000/svg">
<path d="M10.25 22.25C5.56 22.25 1.75 18.44 1.75 13.75C1.75 9.06 5.56 5.25 10.25 5.25C14.94 5.25 18.75 9.06 18.75 13.75C18.75 18.44 14.94 22.25 10.25 22.25ZM10.25 6.75C6.39 6.75 3.25 9.89 3.25 13.75C3.25 17.61 6.39 20.75 10.25 20.75C14.11 20.75 17.25 17.61 17.25 13.75C17.25 9.89 14.11 6.75 10.25 6.75Z" fill="#292D32"/>
<path d="M16.0004 8.75C15.8104 8.75 15.6204 8.68 15.4704 8.53C15.1804 8.24 15.1804 7.76 15.4704 7.47L20.9704 1.97C21.2604 1.68 21.7404 1.68 22.0304 1.97C22.3204 2.26 22.3204 2.74 22.0304 3.03L16.5304 8.53C16.3804 8.68 16.1904 8.75 16.0004 8.75Z" fill="#292D32"/>
<path d="M21.5 9.75C21.09 9.75 20.75 9.41 20.75 9V3.25H15C14.59 3.25 14.25 2.91 14.25 2.5C14.25 2.09 14.59 1.75 15 1.75H21.5C21.91 1.75 22.25 2.09 22.25 2.5V9C22.25 9.41 21.91 9.75 21.5 9.75Z" fill="#292D32"/>
</svg>
