<svg width="24" height="24" viewBox="0 0 24 24" fill="none" xmlns="http://www.w3.org/2000/svg">
<path d="M15.6491 21.41C15.2191 21.41 14.7891 21.32 14.4391 21.15L9.18906 18.52C8.88906 18.37 8.29906 18.38 8.00906 18.55L5.64906 19.9C4.62906 20.48 3.57906 20.56 2.78906 20.09C1.98906 19.63 1.53906 18.69 1.53906 17.51V7.79003C1.53906 6.88003 2.13906 5.85003 2.92906 5.40003L7.25906 2.92003C7.98906 2.50003 9.09906 2.47003 9.84906 2.85003L15.0991 5.48003C15.3991 5.63003 15.9791 5.61003 16.2791 5.45003L18.6291 4.11003C19.6491 3.53003 20.6991 3.45003 21.4891 3.92003C22.2891 4.38003 22.7391 5.32003 22.7391 6.50003V16.23C22.7391 17.14 22.1391 18.17 21.3491 18.62L17.0191 21.1C16.6391 21.3 16.1391 21.41 15.6491 21.41ZM8.63906 16.92C9.06906 16.92 9.49906 17.01 9.84906 17.18L15.0991 19.81C15.3991 19.96 15.9791 19.94 16.2791 19.78L20.6091 17.3C20.9291 17.12 21.2391 16.58 21.2391 16.22V6.49003C21.2391 5.86003 21.0591 5.39003 20.7291 5.21003C20.4091 5.03003 19.9091 5.10003 19.3691 5.41003L17.0191 6.75003C16.2891 7.17003 15.1791 7.20003 14.4291 6.82003L9.17906 4.19003C8.87906 4.04003 8.29906 4.06003 7.99906 4.22003L3.66906 6.70003C3.34906 6.88003 3.03906 7.42003 3.03906 7.79003V17.52C3.03906 18.15 3.21906 18.62 3.53906 18.8C3.85906 18.99 4.35906 18.91 4.90906 18.6L7.25906 17.26C7.64906 17.03 8.14906 16.92 8.63906 16.92Z" fill="#292D32"/>
<path d="M8.56055 17.75C8.15055 17.75 7.81055 17.41 7.81055 17V4C7.81055 3.59 8.15055 3.25 8.56055 3.25C8.97055 3.25 9.31055 3.59 9.31055 4V17C9.31055 17.41 8.97055 17.75 8.56055 17.75Z" fill="#292D32"/>
<path d="M15.7305 20.75C15.3205 20.75 14.9805 20.41 14.9805 20V6.62C14.9805 6.21 15.3205 5.87 15.7305 5.87C16.1405 5.87 16.4805 6.21 16.4805 6.62V20C16.4805 20.41 16.1405 20.75 15.7305 20.75Z" fill="#292D32"/>
</svg>
