<svg width="24" height="24" viewBox="0 0 24 24" fill="none" xmlns="http://www.w3.org/2000/svg">
<path d="M4.92999 19.82C4.72999 19.82 4.54002 19.74 4.40002 19.6C2.37002 17.57 1.25 14.87 1.25 12C1.25 6.07 6.07 1.25 12 1.25C14.87 1.25 17.57 2.37 19.6 4.4C19.74 4.54 19.82 4.73 19.82 4.93C19.82 5.13 19.74 5.32 19.6 5.46L5.46002 19.6C5.32002 19.74 5.12999 19.82 4.92999 19.82ZM12 2.75C6.9 2.75 2.75 6.9 2.75 12C2.75 14.22 3.53001 16.32 4.95001 17.99L17.99 4.95C16.32 3.53 14.22 2.75 12 2.75Z" fill="#292D32"/>
<path d="M11.9997 22.75C9.12969 22.75 6.42972 21.63 4.39972 19.6C4.25972 19.46 4.17969 19.27 4.17969 19.07C4.17969 18.87 4.25972 18.68 4.39972 18.54L18.5397 4.4C18.8297 4.11 19.3097 4.11 19.5997 4.4C21.6297 6.43 22.7497 9.12999 22.7497 12C22.7497 17.93 17.9297 22.75 11.9997 22.75ZM6.0097 19.05C7.6797 20.47 9.77969 21.25 11.9997 21.25C17.0997 21.25 21.2497 17.1 21.2497 12C21.2497 9.77999 20.4697 7.68 19.0497 6.01L6.0097 19.05Z" fill="#292D32"/>
<path d="M13.4095 22.6499C13.2195 22.6499 13.0295 22.5799 12.8795 22.4299L7.21945 16.7699C6.92945 16.4799 6.92945 15.9999 7.21945 15.7099C7.50945 15.4199 7.98951 15.4199 8.27951 15.7099L13.9395 21.3699C14.2295 21.6599 14.2295 22.1399 13.9395 22.4299C13.7995 22.5799 13.6095 22.6499 13.4095 22.6499Z" fill="#292D32"/>
<path d="M17.8705 20.03C17.6805 20.03 17.4905 19.96 17.3405 19.81L10.7605 13.23C10.4705 12.94 10.4705 12.46 10.7605 12.17C11.0505 11.88 11.5305 11.88 11.8205 12.17L18.4005 18.75C18.6905 19.04 18.6905 19.52 18.4005 19.81C18.2505 19.96 18.0605 20.03 17.8705 20.03Z" fill="#292D32"/>
<path d="M21.1195 16.22C20.9295 16.22 20.7396 16.15 20.5896 16L14.2995 9.70999C14.0095 9.41999 14.0095 8.94 14.2995 8.65C14.5895 8.36 15.0695 8.36 15.3595 8.65L21.6496 14.94C21.9396 15.23 21.9396 15.71 21.6496 16C21.5096 16.14 21.3195 16.22 21.1195 16.22Z" fill="#292D32"/>
</svg>
