<svg width="24" height="24" viewBox="0 0 24 24" fill="none" xmlns="http://www.w3.org/2000/svg">
<path d="M11.9993 22.72C6.0893 22.72 1.2793 17.91 1.2793 12C1.2793 6.09003 6.0893 1.28003 11.9993 1.28003C14.6493 1.28003 17.1893 2.26003 19.1493 4.03003C21.4193 6.04003 22.7193 8.95003 22.7193 12C22.7193 15.05 21.4193 17.96 19.1393 19.98C17.1893 21.75 14.6493 22.72 11.9993 22.72ZM11.9993 2.78003C6.9093 2.78003 2.7793 6.92003 2.7793 12C2.7793 17.08 6.9193 21.22 11.9993 21.22C14.2793 21.22 16.4593 20.38 18.1493 18.85C20.1093 17.11 21.2293 14.62 21.2293 11.99C21.2293 9.36003 20.1093 6.87003 18.1593 5.14003C16.4593 3.62003 14.2793 2.78003 11.9993 2.78003Z" fill="#292D32"/>
<path d="M10.4393 18.91C10.0693 18.91 9.6793 18.83 9.2993 18.68C6.5593 17.58 4.7793 14.95 4.7793 12C4.7793 9.05001 6.5493 6.42001 9.2993 5.32001C10.1693 4.97001 11.0493 5.02001 11.7093 5.46001C12.3493 5.89001 12.7093 6.65001 12.7293 7.60001V16.39V16.4C12.7193 17.35 12.3593 18.12 11.7093 18.54C11.3393 18.79 10.8993 18.91 10.4393 18.91ZM10.4393 6.59001C10.2593 6.59001 10.0593 6.63001 9.8593 6.71001C7.6793 7.58001 6.2793 9.66001 6.2793 12C6.2793 14.34 7.6793 16.42 9.8593 17.29C10.2593 17.45 10.6393 17.45 10.8793 17.3C11.1593 17.11 11.2193 16.7 11.2293 16.39V7.61001C11.2293 7.31001 11.1593 6.89001 10.8793 6.70001C10.7593 6.63001 10.6093 6.59001 10.4393 6.59001Z" fill="#292D32"/>
</svg>
