<svg width="24" height="24" viewBox="0 0 24 24" fill="none" xmlns="http://www.w3.org/2000/svg">
<path d="M21.6997 6.39001H14.4297C14.0197 6.39001 13.6797 6.05001 13.6797 5.64001C13.6797 5.23001 14.0197 4.89001 14.4297 4.89001H21.6997C22.1097 4.89001 22.4497 5.23001 22.4497 5.64001C22.4497 6.05001 22.1097 6.39001 21.6997 6.39001Z" fill="#292D32"/>
<path d="M9.58078 6.39001H2.30078C1.89078 6.39001 1.55078 6.05001 1.55078 5.64001C1.55078 5.23001 1.89078 4.89001 2.30078 4.89001H9.57078C9.98078 4.89001 10.3208 5.23001 10.3208 5.64001C10.3208 6.05001 9.99078 6.39001 9.58078 6.39001Z" fill="#292D32"/>
<path d="M21.6997 16.08H14.4297C14.0197 16.08 13.6797 15.74 13.6797 15.33C13.6797 14.92 14.0197 14.58 14.4297 14.58H21.6997C22.1097 14.58 22.4497 14.92 22.4497 15.33C22.4497 15.74 22.1097 16.08 21.6997 16.08Z" fill="#292D32"/>
<path d="M21.6997 22.14H14.4297C14.0197 22.14 13.6797 21.8 13.6797 21.39C13.6797 20.98 14.0197 20.64 14.4297 20.64H21.6997C22.1097 20.64 22.4497 20.98 22.4497 21.39C22.4497 21.8 22.1097 22.14 21.6997 22.14Z" fill="#292D32"/>
<path d="M18.0898 10.02C17.6798 10.02 17.3398 9.68 17.3398 9.27V2C17.3398 1.59 17.6798 1.25 18.0898 1.25C18.4998 1.25 18.8398 1.59 18.8398 2V9.27C18.8398 9.69 18.5098 10.02 18.0898 10.02Z" fill="#292D32"/>
<path d="M2.30023 22.75C2.11023 22.75 1.92023 22.68 1.77023 22.53C1.48023 22.24 1.48023 21.76 1.77023 21.47L9.04023 14.2C9.33023 13.91 9.81023 13.91 10.1002 14.2C10.3902 14.49 10.3902 14.97 10.1002 15.26L2.83023 22.53C2.69023 22.68 2.50023 22.75 2.30023 22.75Z" fill="#292D32"/>
<path d="M9.58 22.75C9.39 22.75 9.2 22.68 9.05 22.53L1.78 15.26C1.49 14.97 1.49 14.49 1.78 14.2C2.07 13.91 2.55 13.91 2.84 14.2L10.11 21.47C10.4 21.76 10.4 22.24 10.11 22.53C9.96 22.68 9.77 22.75 9.58 22.75Z" fill="#292D32"/>
</svg>
