<svg width="24" height="24" viewBox="0 0 24 24" fill="none" xmlns="http://www.w3.org/2000/svg">
<path d="M16.3809 22.75H3.2409C2.2909 22.75 1.41091 22.31 0.840908 21.54C0.260908 20.76 0.0909169 19.78 0.380917 18.85L4.59091 5.31995C4.97091 4.05995 6.13092 3.19995 7.45092 3.19995H19.7509C20.9609 3.19995 22.0509 3.92004 22.5109 5.04004C22.7609 5.62004 22.8109 6.28005 22.6609 6.93005L19.2909 20.46C18.9709 21.81 17.7709 22.75 16.3809 22.75ZM7.4609 4.70996C6.8109 4.70996 6.22091 5.14002 6.03091 5.77002L1.82092 19.3C1.68092 19.77 1.76091 20.26 2.06091 20.66C2.34091 21.04 2.78091 21.26 3.25091 21.26H16.3909C17.0809 21.26 17.6809 20.79 17.8409 20.12L21.2109 6.57996C21.2909 6.24996 21.2709 5.92 21.1409 5.63C20.9009 5.06 20.3709 4.69995 19.7609 4.69995H7.4609V4.70996Z" fill="#292D32"/>
<path d="M20.78 22.75H16C15.59 22.75 15.25 22.41 15.25 22C15.25 21.59 15.59 21.25 16 21.25H20.78C21.19 21.25 21.57 21.08 21.85 20.78C22.13 20.48 22.27 20.08 22.24 19.67L21.25 6.05002C21.22 5.64002 21.53 5.27997 21.94 5.24997C22.35 5.22997 22.71 5.52991 22.74 5.93991L23.73 19.56C23.79 20.38 23.5 21.2 22.94 21.8C22.39 22.41 21.6 22.75 20.78 22.75Z" fill="#292D32"/>
<path d="M9.67977 7.12996C9.61977 7.12996 9.55977 7.11994 9.49977 7.10994C9.09977 7.00994 8.84979 6.6099 8.94979 6.1999L9.98976 1.87996C10.0898 1.47996 10.4898 1.22991 10.8998 1.32991C11.2998 1.42991 11.5498 1.82994 11.4498 2.23994L10.4098 6.56001C10.3298 6.90001 10.0198 7.12996 9.67977 7.12996Z" fill="#292D32"/>
<path d="M16.3795 7.13999C16.3295 7.13999 16.2694 7.13997 16.2194 7.11997C15.8194 7.02997 15.5595 6.62995 15.6395 6.22995L16.5794 1.88999C16.6694 1.47999 17.0694 1.23003 17.4694 1.31003C17.8694 1.39003 18.1294 1.79992 18.0494 2.19992L17.1094 6.54001C17.0394 6.90001 16.7295 7.13999 16.3795 7.13999Z" fill="#292D32"/>
<path d="M15.6992 12.75H7.69922C7.28922 12.75 6.94922 12.41 6.94922 12C6.94922 11.59 7.28922 11.25 7.69922 11.25H15.6992C16.1092 11.25 16.4492 11.59 16.4492 12C16.4492 12.41 16.1092 12.75 15.6992 12.75Z" fill="#292D32"/>
<path d="M14.6992 16.75H6.69922C6.28922 16.75 5.94922 16.41 5.94922 16C5.94922 15.59 6.28922 15.25 6.69922 15.25H14.6992C15.1092 15.25 15.4492 15.59 15.4492 16C15.4492 16.41 15.1092 16.75 14.6992 16.75Z" fill="#292D32"/>
</svg>
