<svg width="24" height="24" viewBox="0 0 24 24" fill="none" xmlns="http://www.w3.org/2000/svg">
<path d="M12 22.78C11.31 22.78 10.66 22.43 10.2 21.82L8.70001 19.82C8.67001 19.78 8.55 19.73 8.5 19.72H8C3.83 19.72 1.25 18.59 1.25 12.97V7.96997C1.25 3.54997 3.58 1.21997 8 1.21997H16C20.42 1.21997 22.75 3.54997 22.75 7.96997V12.97C22.75 17.39 20.42 19.72 16 19.72H15.5C15.42 19.72 15.35 19.76 15.3 19.82L13.8 21.82C13.34 22.43 12.69 22.78 12 22.78ZM8 2.71997C4.42 2.71997 2.75 4.38997 2.75 7.96997V12.97C2.75 17.49 4.3 18.22 8 18.22H8.5C9.01 18.22 9.58999 18.51 9.89999 18.92L11.4 20.92C11.75 21.38 12.25 21.38 12.6 20.92L14.1 18.92C14.43 18.48 14.95 18.22 15.5 18.22H16C19.58 18.22 21.25 16.55 21.25 12.97V7.96997C21.25 4.38997 19.58 2.71997 16 2.71997H8Z" fill="#292D32"/>
<path d="M7.99945 13.4499C7.80945 13.4499 7.61945 13.3799 7.46945 13.2299L5.46945 11.2299C5.17945 10.9399 5.17945 10.4599 5.46945 10.1699L7.46945 8.16989C7.75945 7.87989 8.23945 7.87989 8.52945 8.16989C8.81945 8.45989 8.81945 8.93989 8.52945 9.22989L7.05945 10.6999L8.52945 12.1699C8.81945 12.4599 8.81945 12.9399 8.52945 13.2299C8.37945 13.3799 8.18945 13.4499 7.99945 13.4499Z" fill="#292D32"/>
<path d="M15.9995 13.4499C15.8095 13.4499 15.6195 13.3799 15.4695 13.2299C15.1795 12.9399 15.1795 12.4599 15.4695 12.1699L16.9395 10.6999L15.4695 9.22989C15.1795 8.93989 15.1795 8.45989 15.4695 8.16989C15.7595 7.87989 16.2395 7.87989 16.5295 8.16989L18.5295 10.1699C18.8195 10.4599 18.8195 10.9399 18.5295 11.2299L16.5295 13.2299C16.3795 13.3799 16.1895 13.4499 15.9995 13.4499Z" fill="#292D32"/>
<path d="M11.0004 13.78C10.9004 13.78 10.8004 13.76 10.7004 13.72C10.3204 13.56 10.1404 13.12 10.3104 12.73L12.3104 8.05999C12.4704 7.67999 12.9103 7.49998 13.3003 7.66998C13.6803 7.82998 13.8604 8.26997 13.6904 8.65997L11.6904 13.33C11.5704 13.61 11.2904 13.78 11.0004 13.78Z" fill="#292D32"/>
</svg>
