<svg width="24" height="24" viewBox="0 0 24 24" fill="none" xmlns="http://www.w3.org/2000/svg">
<path d="M16 22.75H3C2.04 22.75 1.25 21.96 1.25 21V8C1.25 3.58 3.58 1.25 8 1.25H16C20.42 1.25 22.75 3.58 22.75 8V16C22.75 20.42 20.42 22.75 16 22.75ZM8 2.75C4.42 2.75 2.75 4.42 2.75 8V21C2.75 21.14 2.86 21.25 3 21.25H16C19.58 21.25 21.25 19.58 21.25 16V8C21.25 4.42 19.58 2.75 16 2.75H8Z" fill="#292D32"/>
<path d="M7.94975 17.7501C7.47975 17.7501 7.04975 17.5801 6.72975 17.2701C6.34975 16.8901 6.17972 16.3501 6.26972 15.7701L6.54972 13.7901C6.60972 13.3601 6.87974 12.8101 7.18974 12.5001L12.3797 7.31005C14.1597 5.53005 15.7097 6.33005 16.6897 7.31005C17.4597 8.08005 17.8097 8.89005 17.7297 9.70005C17.6697 10.3601 17.3197 10.9801 16.6897 11.6201L11.4997 16.8101C11.1897 17.1201 10.6497 17.3901 10.2097 17.4601L8.22975 17.7401C8.13975 17.7401 8.03975 17.7501 7.94975 17.7501ZM14.5297 7.75005C14.1597 7.75005 13.8297 7.99005 13.4497 8.36005L8.25974 13.5501C8.17974 13.6301 8.05974 13.8801 8.03974 13.9901L7.75974 15.9701C7.74974 16.0701 7.75972 16.1601 7.79972 16.2001C7.83972 16.2401 7.92973 16.2501 8.02973 16.2401L10.0097 15.9601C10.1297 15.9401 10.3697 15.8201 10.4497 15.7401L15.6397 10.5501C16.0197 10.1701 16.2197 9.84005 16.2497 9.54005C16.2797 9.20005 16.0797 8.80005 15.6397 8.36005C15.1997 7.94005 14.8497 7.75005 14.5297 7.75005Z" fill="#292D32"/>
<path d="M15.4193 12.58C15.3493 12.58 15.2793 12.57 15.2193 12.55C13.4093 12.04 11.9593 10.6 11.4493 8.77997C11.3393 8.37997 11.5693 7.96997 11.9693 7.84997C12.3693 7.73997 12.7793 7.96997 12.8893 8.36997C13.2593 9.67997 14.3093 10.73 15.6193 11.1C16.0193 11.21 16.2493 11.63 16.1393 12.03C16.0493 12.36 15.7493 12.58 15.4193 12.58Z" fill="#292D32"/>
</svg>
