<svg width="24" height="24" viewBox="0 0 24 24" fill="none" xmlns="http://www.w3.org/2000/svg">
<path d="M12 22.78C11.31 22.78 10.66 22.43 10.2 21.82L8.70001 19.82C8.67001 19.78 8.54999 19.72 8.48999 19.72H8C3.83 19.72 1.25 18.59 1.25 12.97V7.96997C1.25 3.54997 3.58 1.21997 8 1.21997H16C20.42 1.21997 22.75 3.54997 22.75 7.96997V12.97C22.75 13.38 22.41 13.72 22 13.72C21.59 13.72 21.25 13.38 21.25 12.97V7.96997C21.25 4.38997 19.58 2.71997 16 2.71997H8C4.42 2.71997 2.75 4.38997 2.75 7.96997V12.97C2.75 17.49 4.3 18.22 8 18.22H8.5C9.01 18.22 9.59999 18.51 9.89999 18.92L11.4 20.92C11.75 21.38 12.25 21.38 12.6 20.92C12.85 20.59 13.32 20.52 13.65 20.77C13.98 21.02 14.05 21.49 13.8 21.82C13.34 22.43 12.69 22.78 12 22.78Z" fill="#292D32"/>
<path d="M12 11.97C11.44 11.97 11 11.52 11 10.97C11 10.42 11.45 9.96997 12 9.96997C12.55 9.96997 13 10.42 13 10.97C13 11.52 12.56 11.97 12 11.97Z" fill="#292D32"/>
<path d="M16 11.97C15.44 11.97 15 11.52 15 10.97C15 10.42 15.45 9.96997 16 9.96997C16.55 9.96997 17 10.42 17 10.97C17 11.52 16.56 11.97 16 11.97Z" fill="#292D32"/>
<path d="M8 11.97C7.44 11.97 7 11.52 7 10.97C7 10.42 7.45 9.96997 8 9.96997C8.55 9.96997 9 10.42 9 10.97C9 11.52 8.56 11.97 8 11.97Z" fill="#292D32"/>
<path d="M18.2 22.15C16.02 22.15 14.25 20.38 14.25 18.2C14.25 16.02 16.02 14.25 18.2 14.25C20.38 14.25 22.15 16.02 22.15 18.2C22.15 20.38 20.38 22.15 18.2 22.15ZM18.2 15.75C16.85 15.75 15.75 16.85 15.75 18.2C15.75 19.55 16.85 20.65 18.2 20.65C19.55 20.65 20.65 19.55 20.65 18.2C20.65 16.85 19.55 15.75 18.2 15.75Z" fill="#292D32"/>
<path d="M21.9995 22.7499C21.8095 22.7499 21.6195 22.6799 21.4695 22.5299L20.4695 21.5299C20.1795 21.2399 20.1795 20.7599 20.4695 20.4699C20.7595 20.1799 21.2395 20.1799 21.5295 20.4699L22.5295 21.4699C22.8195 21.7599 22.8195 22.2399 22.5295 22.5299C22.3795 22.6799 22.1895 22.7499 21.9995 22.7499Z" fill="#292D32"/>
</svg>
