<svg width="24" height="24" viewBox="0 0 24 24" fill="none" xmlns="http://www.w3.org/2000/svg">
<path d="M7.39 17.59C7.18 17.59 6.96 17.5 6.81 17.32C5.8 16.11 5.25 14.58 5.25 13V8C5.25 4.28 8.28 1.25 12 1.25C15.1 1.25 17.79 3.35 18.55 6.35C18.65 6.75 18.41 7.16 18.01 7.26C17.62 7.36 17.2 7.12 17.1 6.72C16.5 4.38 14.41 2.75 12 2.75C9.11 2.75 6.75 5.1 6.75 8V13C6.75 14.23 7.18 15.42 7.96 16.36C8.23 16.68 8.18 17.15 7.86 17.42C7.73 17.53 7.56 17.59 7.39 17.59Z" fill="#292D32"/>
<path d="M11.9998 19.75C11.1898 19.75 10.3998 19.61 9.65984 19.33C9.26984 19.19 9.06984 18.75 9.21984 18.37C9.35984 17.98 9.79984 17.78 10.1798 17.93C10.7598 18.15 11.3798 18.26 11.9998 18.26C14.8898 18.26 17.2498 15.91 17.2498 13.01V9.97998C17.2498 9.56998 17.5898 9.22998 17.9998 9.22998C18.4098 9.22998 18.7498 9.56998 18.7498 9.97998V13C18.7498 16.72 15.7198 19.75 11.9998 19.75Z" fill="#292D32"/>
<path d="M11.9994 22.75C9.51941 22.75 7.15941 21.82 5.34941 20.13C5.04941 19.85 5.02941 19.37 5.30941 19.07C5.58941 18.77 6.06941 18.75 6.36941 19.03C7.89941 20.46 9.89941 21.24 11.9894 21.24C16.5394 21.24 20.2394 17.54 20.2394 12.99V10.99C20.2394 10.58 20.5794 10.24 20.9894 10.24C21.3994 10.24 21.7394 10.58 21.7394 10.99V12.99C21.7494 18.38 17.3794 22.75 11.9994 22.75Z" fill="#292D32"/>
<path d="M2.49945 22.7399C2.30945 22.7399 2.11945 22.6699 1.96945 22.5199C1.67945 22.2299 1.67945 21.7499 1.96945 21.4599L20.9695 2.45993C21.2595 2.16993 21.7395 2.16993 22.0295 2.45993C22.3195 2.74993 22.3195 3.22993 22.0295 3.51993L3.02945 22.5199C2.87945 22.6699 2.68945 22.7399 2.49945 22.7399Z" fill="#292D32"/>
<path d="M11.5508 6.25001C11.1408 6.25001 10.8008 5.91001 10.8008 5.50001V2.26001C10.8008 1.85001 11.1408 1.51001 11.5508 1.51001C11.9608 1.51001 12.3008 1.85001 12.3008 2.26001V5.50001C12.3008 5.92001 11.9608 6.25001 11.5508 6.25001Z" fill="#292D32"/>
<path d="M8.5 8.25C8.09 8.25 7.75 7.91 7.75 7.5V3.5C7.75 3.09 8.09 2.75 8.5 2.75C8.91 2.75 9.25 3.09 9.25 3.5V7.5C9.25 7.91 8.91 8.25 8.5 8.25Z" fill="#292D32"/>
</svg>
