<svg width="24" height="24" viewBox="0 0 24 24" fill="none" xmlns="http://www.w3.org/2000/svg">
<path d="M11 22.75H9C3.57 22.75 1.25 20.43 1.25 15V9C1.25 3.57 3.57 1.25 9 1.25H15C20.43 1.25 22.75 3.57 22.75 9V10C22.75 10.41 22.41 10.75 22 10.75C21.59 10.75 21.25 10.41 21.25 10V9C21.25 4.39 19.61 2.75 15 2.75H9C4.39 2.75 2.75 4.39 2.75 9V15C2.75 19.61 4.39 21.25 9 21.25H11C11.41 21.25 11.75 21.59 11.75 22C11.75 22.41 11.41 22.75 11 22.75Z" fill="#292D32"/>
<path d="M15.2701 22.7501C14.0601 22.7501 13.0801 21.7701 13.0801 20.5601C13.0801 19.3501 14.0601 18.3701 15.2701 18.3701C16.4801 18.3701 17.4601 19.3501 17.4601 20.5601C17.4601 21.7701 16.4801 22.7501 15.2701 22.7501ZM15.2701 19.8601C14.8901 19.8601 14.5801 20.1701 14.5801 20.5501C14.5801 20.9301 14.8901 21.2401 15.2701 21.2401C15.6501 21.2401 15.9601 20.9301 15.9601 20.5501C15.9601 20.1701 15.6501 19.8601 15.2701 19.8601Z" fill="#292D32"/>
<path d="M16.7109 21.31C16.3009 21.31 15.9609 20.97 15.9609 20.56V14.74C15.9609 13.83 16.5209 13.09 17.4009 12.86L20.2909 12.07C21.1909 11.82 21.7509 12.06 22.0709 12.3C22.3809 12.54 22.7509 13.0201 22.7509 13.9501V19.5901C22.7509 20.0001 22.4109 20.3401 22.0009 20.3401C21.5909 20.3401 21.2509 20.0001 21.2509 19.5901V13.9501C21.2509 13.6301 21.1809 13.51 21.1509 13.49C21.1209 13.47 20.9809 13.43 20.6709 13.51L17.7809 14.3C17.4809 14.38 17.4509 14.59 17.4509 14.74V20.56C17.4609 20.97 17.1209 21.31 16.7109 21.31Z" fill="#292D32"/>
<path d="M20.5611 21.79C19.3511 21.79 18.3711 20.81 18.3711 19.6C18.3711 18.39 19.3511 17.41 20.5611 17.41C21.7711 17.41 22.7511 18.39 22.7511 19.6C22.7511 20.81 21.7711 21.79 20.5611 21.79ZM20.5611 18.9001C20.1811 18.9001 19.8711 19.2101 19.8711 19.5901C19.8711 19.9701 20.1811 20.2801 20.5611 20.2801C20.9411 20.2801 21.2511 19.9701 21.2511 19.5901C21.2511 19.2101 20.9411 18.9001 20.5611 18.9001Z" fill="#292D32"/>
<path d="M16.7096 17.1801C16.3796 17.1801 16.0796 16.9601 15.9896 16.6301C15.8796 16.2301 16.1196 15.8201 16.5196 15.7101L21.8096 14.2701C22.2096 14.1601 22.6196 14.4001 22.7296 14.8001C22.8396 15.2001 22.5996 15.6101 22.1996 15.7201L16.9096 17.1601C16.8396 17.1701 16.7696 17.1801 16.7096 17.1801Z" fill="#292D32"/>
</svg>
