<svg width="24" height="24" viewBox="0 0 24 24" fill="none" xmlns="http://www.w3.org/2000/svg">
<path d="M13.05 16.25H11.17C9.84001 16.25 8.75 15.13 8.75 13.75C8.75 13.34 9.09 13 9.5 13C9.91 13 10.25 13.34 10.25 13.75C10.25 14.3 10.66 14.75 11.17 14.75H13.05C13.44 14.75 13.75 14.4 13.75 13.97C13.75 13.43 13.6 13.35 13.26 13.23L10.25 12.18C9.61 11.96 8.75 11.49 8.75 10.02C8.75 8.76999 9.74001 7.73999 10.95 7.73999H12.83C14.16 7.73999 15.25 8.85999 15.25 10.24C15.25 10.65 14.91 10.99 14.5 10.99C14.09 10.99 13.75 10.65 13.75 10.24C13.75 9.68999 13.34 9.23999 12.83 9.23999H10.95C10.56 9.23999 10.25 9.58999 10.25 10.02C10.25 10.56 10.4 10.64 10.74 10.76L13.75 11.81C14.39 12.03 15.25 12.5 15.25 13.97C15.25 15.23 14.26 16.25 13.05 16.25Z" fill="#292D32"/>
<path d="M12 17.25C11.59 17.25 11.25 16.91 11.25 16.5V7.5C11.25 7.09 11.59 6.75 12 6.75C12.41 6.75 12.75 7.09 12.75 7.5V16.5C12.75 16.91 12.41 17.25 12 17.25Z" fill="#292D32"/>
<path d="M12 22.75C6.07 22.75 1.25 17.93 1.25 12C1.25 6.07 6.07 1.25 12 1.25C12.41 1.25 12.75 1.59 12.75 2C12.75 2.41 12.41 2.75 12 2.75C6.9 2.75 2.75 6.9 2.75 12C2.75 17.1 6.9 21.25 12 21.25C17.1 21.25 21.25 17.1 21.25 12C21.25 11.59 21.59 11.25 22 11.25C22.41 11.25 22.75 11.59 22.75 12C22.75 17.93 17.93 22.75 12 22.75Z" fill="#292D32"/>
<path d="M21 7.75H17C16.59 7.75 16.25 7.41 16.25 7V3C16.25 2.59 16.59 2.25 17 2.25C17.41 2.25 17.75 2.59 17.75 3V6.25H21C21.41 6.25 21.75 6.59 21.75 7C21.75 7.41 21.41 7.75 21 7.75Z" fill="#292D32"/>
<path d="M16.9995 7.74994C16.8095 7.74994 16.6195 7.67994 16.4695 7.52994C16.1795 7.23994 16.1795 6.75994 16.4695 6.46994L21.4695 1.46994C21.7595 1.17994 22.2395 1.17994 22.5295 1.46994C22.8195 1.75994 22.8195 2.23994 22.5295 2.52994L17.5295 7.52994C17.3795 7.67994 17.1895 7.74994 16.9995 7.74994Z" fill="#292D32"/>
</svg>
