<svg width="24" height="24" viewBox="0 0 24 24" fill="none" xmlns="http://www.w3.org/2000/svg">
<path d="M14.8892 18.22H6.09921C5.57921 18.22 5.0892 18.17 4.6492 18.07C4.4192 18.04 4.13921 17.96 3.84921 17.85C2.51921 17.35 0.949219 16.12 0.949219 13.06V7.90997C0.949219 4.63997 2.82921 2.76001 6.09921 2.76001H14.8892C17.6492 2.76001 19.4292 4.07998 19.9092 6.47998C19.9992 6.91998 20.0392 7.38997 20.0392 7.90997V13.06C20.0392 16.35 18.1692 18.22 14.8892 18.22ZM6.10919 4.28003C3.64919 4.28003 2.4592 5.46999 2.4592 7.92999V13.08C2.4592 14.87 3.08921 15.97 4.37921 16.46C4.57921 16.53 4.76922 16.58 4.94922 16.61C5.32922 16.69 5.69919 16.73 6.10919 16.73H14.8992C17.3592 16.73 18.5492 15.54 18.5492 13.08V7.92999C18.5492 7.50999 18.5192 7.13999 18.4492 6.79999C18.1092 5.09999 16.9492 4.28003 14.8992 4.28003H6.10919Z" fill="#292D32"/>
<path d="M17.8911 21.22H9.10107C8.25107 21.22 7.49106 21.1 6.84106 20.85C5.37106 20.3 4.41105 19.14 4.08105 17.48C4.03105 17.23 4.11107 16.97 4.29107 16.8C4.47107 16.62 4.73107 16.55 4.98107 16.61C5.31107 16.68 5.68107 16.72 6.10107 16.72H14.8911C17.3511 16.72 18.5411 15.53 18.5411 13.07V7.91997C18.5411 7.49997 18.5111 7.12996 18.4411 6.78996C18.3911 6.53996 18.4711 6.28997 18.6411 6.10997C18.8211 5.92997 19.0711 5.84996 19.3211 5.90996C21.7211 6.39996 23.0411 8.17997 23.0411 10.92V16.07C23.0411 19.35 21.1711 21.22 17.8911 21.22ZM5.92107 18.22C6.24107 18.8 6.72107 19.21 7.38107 19.45C7.86107 19.63 8.44105 19.72 9.11105 19.72H17.9011C20.3611 19.72 21.551 18.53 21.551 16.07V10.92C21.551 9.33997 21.061 8.28997 20.051 7.73997C20.051 7.79997 20.051 7.85997 20.051 7.91997V13.07C20.051 16.34 18.1711 18.22 14.9011 18.22H6.11105C6.04105 18.22 5.98107 18.22 5.92107 18.22Z" fill="#292D32"/>
<path d="M10.4994 13.89C8.62939 13.89 7.10938 12.37 7.10938 10.5C7.10938 8.63 8.62939 7.10999 10.4994 7.10999C12.3694 7.10999 13.8894 8.63 13.8894 10.5C13.8894 12.37 12.3694 13.89 10.4994 13.89ZM10.4994 8.60999C9.45939 8.60999 8.60938 9.46 8.60938 10.5C8.60938 11.54 9.45939 12.39 10.4994 12.39C11.5394 12.39 12.3894 11.54 12.3894 10.5C12.3894 9.46 11.5394 8.60999 10.4994 8.60999Z" fill="#292D32"/>
<path d="M4.78125 13.4501C4.37125 13.4501 4.03125 13.1101 4.03125 12.7001V8.30005C4.03125 7.89005 4.37125 7.55005 4.78125 7.55005C5.19125 7.55005 5.53125 7.89005 5.53125 8.30005V12.7001C5.53125 13.1101 5.20125 13.4501 4.78125 13.4501Z" fill="#292D32"/>
<path d="M16.2109 13.4501C15.8009 13.4501 15.4609 13.1101 15.4609 12.7001V8.30005C15.4609 7.89005 15.8009 7.55005 16.2109 7.55005C16.6209 7.55005 16.9609 7.89005 16.9609 8.30005V12.7001C16.9609 13.1101 16.6309 13.4501 16.2109 13.4501Z" fill="#292D32"/>
</svg>
