<svg width="24" height="24" viewBox="0 0 24 24" fill="none" xmlns="http://www.w3.org/2000/svg">
<path d="M11.9998 10.07C10.3998 10.07 9.08984 8.76 9.08984 7.16C9.08984 5.56 10.3998 4.25 11.9998 4.25C13.5998 4.25 14.9098 5.56 14.9098 7.16C14.9098 8.76 13.5998 10.07 11.9998 10.07ZM11.9998 5.75C11.2198 5.75 10.5898 6.38 10.5898 7.16C10.5898 7.94 11.2198 8.57 11.9998 8.57C12.7798 8.57 13.4098 7.94 13.4098 7.16C13.4098 6.38 12.7798 5.75 11.9998 5.75Z" fill="#292D32"/>
<path d="M6.78988 19.7501C5.18988 19.7501 3.87988 18.4401 3.87988 16.8401C3.87988 15.2401 5.18988 13.9301 6.78988 13.9301C8.38988 13.9301 9.69988 15.2401 9.69988 16.8401C9.69988 18.4401 8.38988 19.7501 6.78988 19.7501ZM6.78988 15.4301C6.00988 15.4301 5.37988 16.0601 5.37988 16.8401C5.37988 17.6201 6.00988 18.2501 6.78988 18.2501C7.56988 18.2501 8.19988 17.6201 8.19988 16.8401C8.19988 16.0601 7.55988 15.4301 6.78988 15.4301Z" fill="#292D32"/>
<path d="M17.2098 19.7501C15.6098 19.7501 14.2998 18.4401 14.2998 16.8401C14.2998 15.2401 15.6098 13.9301 17.2098 13.9301C18.8098 13.9301 20.1198 15.2401 20.1198 16.8401C20.1198 18.4401 18.8198 19.7501 17.2098 19.7501ZM17.2098 15.4301C16.4298 15.4301 15.7998 16.0601 15.7998 16.8401C15.7998 17.6201 16.4298 18.2501 17.2098 18.2501C17.9898 18.2501 18.6198 17.6201 18.6198 16.8401C18.6198 16.0601 17.9898 15.4301 17.2098 15.4301Z" fill="#292D32"/>
</svg>
