<svg width="24" height="24" viewBox="0 0 24 24" fill="none" xmlns="http://www.w3.org/2000/svg">
<path d="M22 3.75H2C1.59 3.75 1.25 3.41 1.25 3C1.25 2.59 1.59 2.25 2 2.25H22C22.41 2.25 22.75 2.59 22.75 3C22.75 3.41 22.41 3.75 22 3.75Z" fill="#292D32"/>
<path d="M11 9.75H2C1.59 9.75 1.25 9.41 1.25 9C1.25 8.59 1.59 8.25 2 8.25H11C11.41 8.25 11.75 8.59 11.75 9C11.75 9.41 11.41 9.75 11 9.75Z" fill="#292D32"/>
<path d="M8 15.75H2C1.59 15.75 1.25 15.41 1.25 15C1.25 14.59 1.59 14.25 2 14.25H8C8.41 14.25 8.75 14.59 8.75 15C8.75 15.41 8.41 15.75 8 15.75Z" fill="#292D32"/>
<path d="M6 21.75H2C1.59 21.75 1.25 21.41 1.25 21C1.25 20.59 1.59 20.25 2 20.25H6C6.41 20.25 6.75 20.59 6.75 21C6.75 21.41 6.41 21.75 6 21.75Z" fill="#292D32"/>
<path d="M11.8402 22.7501C10.2302 22.7501 8.91016 21.4401 8.91016 19.8201C8.91016 18.2101 10.2202 16.8901 11.8402 16.8901C13.4602 16.8901 14.7702 18.2001 14.7702 19.8201C14.7702 21.4401 13.4602 22.7501 11.8402 22.7501ZM11.8402 18.4001C11.0502 18.4001 10.4102 19.0401 10.4102 19.8301C10.4102 20.6201 11.0502 21.2601 11.8402 21.2601C12.6302 21.2601 13.2702 20.6201 13.2702 19.8301C13.2702 19.0401 12.6302 18.4001 11.8402 18.4001Z" fill="#292D32"/>
<path d="M14.0195 20.5701C13.6095 20.5701 13.2695 20.2301 13.2695 19.8201V11.0501C13.2695 9.84007 13.9895 8.8901 15.1595 8.5801L19.5095 7.39009C20.4595 7.13009 21.2795 7.23007 21.8595 7.68007C22.4395 8.13007 22.7395 8.86007 22.7395 9.87007V18.3801C22.7395 18.7901 22.3995 19.1301 21.9895 19.1301C21.5795 19.1301 21.2395 18.7901 21.2395 18.3801V9.87007C21.2395 9.37007 21.1395 9.02008 20.9495 8.88008C20.7595 8.73008 20.3695 8.72005 19.8995 8.85005L15.5495 10.0401C15.2595 10.1201 14.7695 10.3601 14.7695 11.0701V19.8401C14.7695 20.2401 14.4295 20.5701 14.0195 20.5701Z" fill="#292D32"/>
<path d="M19.8206 21.3C18.2106 21.3 16.8906 19.9901 16.8906 18.3701C16.8906 16.7601 18.2006 15.4401 19.8206 15.4401C21.4406 15.4401 22.7506 16.7501 22.7506 18.3701C22.7506 19.9901 21.4406 21.3 19.8206 21.3ZM19.8206 16.9501C19.0306 16.9501 18.3906 17.5901 18.3906 18.3801C18.3906 19.1701 19.0306 19.8101 19.8206 19.8101C20.6106 19.8101 21.2506 19.1701 21.2506 18.3801C21.2506 17.5901 20.6106 16.9501 19.8206 16.9501Z" fill="#292D32"/>
<path d="M14.0202 14.35C13.6902 14.35 13.3902 14.13 13.3002 13.8C13.1902 13.4 13.4302 12.9901 13.8302 12.8801L21.8102 10.7001C22.2102 10.5901 22.6202 10.83 22.7302 11.23C22.8402 11.63 22.6002 12.0401 22.2002 12.1501L14.2202 14.3301C14.1502 14.3401 14.0802 14.35 14.0202 14.35Z" fill="#292D32"/>
</svg>
