<svg width="24" height="24" viewBox="0 0 24 24" fill="none" xmlns="http://www.w3.org/2000/svg">
<path d="M12.35 21.75H8.64999C3.45999 21.75 1.25 19.54 1.25 14.35V8.65002C1.25 3.46002 3.45999 1.25 8.64999 1.25H14.35C19.54 1.25 21.75 3.46002 21.75 8.65002V12.35C21.75 12.76 21.41 13.1 21 13.1C20.59 13.1 20.25 12.76 20.25 12.35V8.65002C20.25 4.29002 18.71 2.75 14.35 2.75H8.64999C4.28999 2.75 2.75 4.29002 2.75 8.65002V14.35C2.75 18.71 4.28999 20.25 8.64999 20.25H12.35C12.76 20.25 13.1 20.59 13.1 21C13.1 21.41 12.76 21.75 12.35 21.75Z" fill="#292D32"/>
<path d="M6.71953 15.17C5.50953 15.17 4.51953 14.18 4.51953 12.97C4.51953 11.76 5.50953 10.77 6.71953 10.77C7.92953 10.77 8.91953 11.76 8.91953 12.97C8.91953 14.18 7.92953 15.17 6.71953 15.17ZM6.71953 12.27C6.33953 12.27 6.01953 12.58 6.01953 12.97C6.01953 13.35 6.32953 13.67 6.71953 13.67C7.10953 13.67 7.41953 13.36 7.41953 12.97C7.41953 12.58 7.10953 12.27 6.71953 12.27Z" fill="#292D32"/>
<path d="M8.16992 13.7199C7.75992 13.7199 7.41992 13.3799 7.41992 12.9699V7.13993C7.41992 6.22993 7.98992 5.48992 8.85992 5.24992L11.7599 4.45994C12.6599 4.20994 13.2299 4.44992 13.5399 4.68992C13.8499 4.92992 14.2299 5.40994 14.2299 6.33994V11.9999C14.2299 12.4099 13.8899 12.7499 13.4799 12.7499C13.0699 12.7499 12.7299 12.4099 12.7299 11.9999V6.33994C12.7299 6.01994 12.6599 5.89992 12.6299 5.87992C12.5999 5.85992 12.4599 5.81994 12.1499 5.89994L9.25992 6.68992C8.95992 6.76992 8.91992 6.97992 8.91992 7.12992V12.9599C8.91992 13.3799 8.57992 13.7199 8.16992 13.7199Z" fill="#292D32"/>
<path d="M12.0301 14.2C10.8201 14.2 9.83008 13.2099 9.83008 11.9999C9.83008 10.7899 10.8201 9.79993 12.0301 9.79993C13.2401 9.79993 14.2301 10.7899 14.2301 11.9999C14.2301 13.2199 13.2401 14.2 12.0301 14.2ZM12.0301 11.3099C11.6501 11.3099 11.3301 11.6199 11.3301 12.0099C11.3301 12.3899 11.6401 12.71 12.0301 12.71C12.4201 12.71 12.7301 12.3999 12.7301 12.0099C12.7301 11.6199 12.4101 11.3099 12.0301 11.3099Z" fill="#292D32"/>
<path d="M8.17055 9.57996C7.84055 9.57996 7.54055 9.35997 7.45055 9.02997C7.34055 8.62997 7.58054 8.21992 7.98054 8.10992L13.2905 6.65991C13.6905 6.55991 14.1006 6.78994 14.2106 7.18994C14.3206 7.58994 14.0805 7.99992 13.6805 8.10992L8.37054 9.55994C8.30054 9.56994 8.23055 9.57996 8.17055 9.57996Z" fill="#292D32"/>
<path d="M17.9402 22.03C15.7602 22.03 13.9902 20.26 13.9902 18.08C13.9902 15.9 15.7602 14.13 17.9402 14.13C20.1202 14.13 21.8902 15.9 21.8902 18.08C21.8902 20.26 20.1202 22.03 17.9402 22.03ZM17.9402 15.63C16.5902 15.63 15.4902 16.73 15.4902 18.08C15.4902 19.43 16.5902 20.53 17.9402 20.53C19.2902 20.53 20.3902 19.43 20.3902 18.08C20.3902 16.73 19.2902 15.63 17.9402 15.63Z" fill="#292D32"/>
<path d="M21.7397 22.63C21.5497 22.63 21.3597 22.5599 21.2097 22.4099L20.2097 21.4099C19.9197 21.1199 19.9197 20.6399 20.2097 20.3499C20.4997 20.0599 20.9797 20.0599 21.2697 20.3499L22.2697 21.3499C22.5597 21.6399 22.5597 22.1199 22.2697 22.4099C22.1197 22.5499 21.9297 22.63 21.7397 22.63Z" fill="#292D32"/>
</svg>
