<svg width="24" height="24" viewBox="0 0 24 24" fill="none" xmlns="http://www.w3.org/2000/svg">
<path d="M5.58994 22.7001C3.24994 22.7001 1.26993 20.7201 1.26993 18.3801V12.22C1.20993 9.31003 2.29995 6.56005 4.31995 4.49005C6.33995 2.43005 9.05994 1.30005 11.9699 1.30005C17.9299 1.30005 22.7699 6.15005 22.7699 12.11V18.2701C22.7699 20.6501 20.83 22.5901 18.45 22.5901C16.07 22.5901 14.1299 20.6501 14.1299 18.2701V15.4601C14.1299 14.0301 15.2899 12.8701 16.7199 12.8701C18.1499 12.8701 19.3099 14.0301 19.3099 15.4601V18.4901C19.3099 18.9001 18.9699 19.2401 18.5599 19.2401C18.1499 19.2401 17.8099 18.9001 17.8099 18.4901V15.4601C17.8099 14.7801 17.2599 14.3701 16.7199 14.3701C16.0399 14.3701 15.6299 14.9201 15.6299 15.4601V18.2701C15.6299 19.8001 16.92 21.0901 18.45 21.0901C19.98 21.0901 21.2699 19.8001 21.2699 18.2701V12.11C21.2699 6.98005 17.0999 2.80005 11.9699 2.80005C9.45994 2.80005 7.12996 3.77004 5.38996 5.54004C3.64996 7.31004 2.71993 9.68007 2.76993 12.2001V18.3701C2.76993 19.9001 4.05994 21.1901 5.58994 21.1901C7.11994 21.1901 8.40994 19.9001 8.40994 18.3701V15.5601C8.40994 14.8801 7.85995 14.47 7.31995 14.47C6.63995 14.47 6.22995 15.0201 6.22995 15.5601V18.48C6.22995 18.89 5.88995 19.23 5.47995 19.23C5.06995 19.23 4.72995 18.89 4.72995 18.48V15.5601C4.72995 14.1101 5.86995 12.97 7.31995 12.97C8.74995 12.97 9.90994 14.1301 9.90994 15.5601V18.3701C9.90994 20.7601 7.96994 22.7001 5.58994 22.7001Z" fill="#292D32"/>
<path d="M13.1797 11.86C12.7797 11.86 12.4197 11.64 12.2497 11.28L10.7997 8.39001L10.3797 9.16998C10.1497 9.59998 9.68974 9.87 9.19974 9.87H8.46973C8.05973 9.87 7.71973 9.53 7.71973 9.12C7.71973 8.71 8.05973 8.37 8.46973 8.37H9.10971L9.89972 6.90997C10.0897 6.56997 10.4397 6.38999 10.8297 6.35999C11.2197 6.35999 11.5697 6.58999 11.7497 6.92999L13.1797 9.78998L13.5197 9.09998C13.7497 8.63998 14.1997 8.35999 14.7197 8.35999H15.5297C15.9397 8.35999 16.2797 8.69999 16.2797 9.10999C16.2797 9.51999 15.9397 9.85999 15.5297 9.85999H14.8197L14.1097 11.27C13.9297 11.64 13.5797 11.86 13.1797 11.86Z" fill="#292D32"/>
</svg>
