<svg width="24" height="24" viewBox="0 0 24 24" fill="none" xmlns="http://www.w3.org/2000/svg">
<path d="M17 22.75H7C3.35 22.75 1.25 20.65 1.25 17V12C1.25 8.35 3.35 6.25 7 6.25H17C20.65 6.25 22.75 8.35 22.75 12V17C22.75 20.65 20.65 22.75 17 22.75ZM7 7.75C4.14 7.75 2.75 9.14 2.75 12V17C2.75 19.86 4.14 21.25 7 21.25H17C19.86 21.25 21.25 19.86 21.25 17V12C21.25 9.14 19.86 7.75 17 7.75H7Z" fill="#292D32"/>
<path d="M18 5.25H6C5.59 5.25 5.25 4.91 5.25 4.5C5.25 4.09 5.59 3.75 6 3.75H18C18.41 3.75 18.75 4.09 18.75 4.5C18.75 4.91 18.41 5.25 18 5.25Z" fill="#292D32"/>
<path d="M15 2.75H9C8.59 2.75 8.25 2.41 8.25 2C8.25 1.59 8.59 1.25 9 1.25H15C15.41 1.25 15.75 1.59 15.75 2C15.75 2.41 15.41 2.75 15 2.75Z" fill="#292D32"/>
<path d="M8.88953 19.86C7.71953 19.86 6.76953 18.91 6.76953 17.74C6.76953 16.57 7.71953 15.62 8.88953 15.62C10.0595 15.62 11.0095 16.57 11.0095 17.74C11.0095 18.91 10.0595 19.86 8.88953 19.86ZM8.88953 17.12C8.54953 17.12 8.26953 17.4 8.26953 17.74C8.26953 18.08 8.54953 18.36 8.88953 18.36C9.22953 18.36 9.50952 18.08 9.50952 17.74C9.50952 17.4 9.22953 17.12 8.88953 17.12Z" fill="#292D32"/>
<path d="M10.2598 18.49C9.84977 18.49 9.50977 18.15 9.50977 17.74V12.23C9.50977 11.35 10.0598 10.64 10.8998 10.41L13.6398 9.65998C14.5098 9.41998 15.0597 9.65003 15.3597 9.89003C15.6597 10.12 16.0198 10.59 16.0198 11.48V16.83C16.0198 17.24 15.6798 17.58 15.2698 17.58C14.8598 17.58 14.5198 17.24 14.5198 16.83V11.48C14.5198 11.2 14.4598 11.09 14.4398 11.08C14.4198 11.07 14.2998 11.03 14.0198 11.11L11.2897 11.86C11.0397 11.93 10.9998 12.1 10.9998 12.24V17.75C11.0098 18.15 10.6698 18.49 10.2598 18.49Z" fill="#292D32"/>
<path d="M13.9091 18.95C12.7391 18.95 11.7891 18 11.7891 16.83C11.7891 15.66 12.7391 14.71 13.9091 14.71C15.0791 14.71 16.0291 15.66 16.0291 16.83C16.0291 18 15.0791 18.95 13.9091 18.95ZM13.9091 16.21C13.5691 16.21 13.2891 16.49 13.2891 16.83C13.2891 17.17 13.5691 17.45 13.9091 17.45C14.2491 17.45 14.5291 17.17 14.5291 16.83C14.5291 16.49 14.2491 16.21 13.9091 16.21Z" fill="#292D32"/>
<path d="M10.2604 14.58C9.93042 14.58 9.63039 14.36 9.54039 14.03C9.43039 13.63 9.67042 13.22 10.0704 13.11L15.0804 11.74C15.4904 11.63 15.8904 11.87 16.0004 12.27C16.1104 12.67 15.8704 13.08 15.4704 13.19L10.4604 14.56C10.3904 14.57 10.3304 14.58 10.2604 14.58Z" fill="#292D32"/>
</svg>
