<svg width="24" height="24" viewBox="0 0 24 24" fill="none" xmlns="http://www.w3.org/2000/svg">
<path d="M17 22.75H7C3.35 22.75 1.25 20.65 1.25 17V13C1.25 9.4 3.17003 8.06 4.78003 7.56C5.43003 7.35 6.18 7.25 7 7.25H17C17.82 7.25 18.57 7.36001 19.23 7.57001C20.83 8.06001 22.75 9.41 22.75 13V17C22.75 20.65 20.65 22.75 17 22.75ZM7 8.75C6.34 8.75 5.73998 8.83 5.22998 9C3.55998 9.51 2.75 10.82 2.75 13V17C2.75 19.86 4.14 21.25 7 21.25H17C19.86 21.25 21.25 19.86 21.25 17V13C21.25 10.82 20.44 9.51 18.78 9C18.26 8.83 17.66 8.75 17 8.75H7Z" fill="#292D32"/>
<path d="M19 9.03003C18.92 9.03003 18.85 9.01999 18.77 8.98999C18.26 8.82999 17.66 8.73999 17 8.73999H7C6.34 8.73999 5.73998 8.81999 5.22998 8.98999C4.99998 9.05999 4.75 9.02 4.56 8.88C4.37 8.74 4.25 8.51002 4.25 8.27002V7C4.25 5.48 5.48 4.25 7 4.25H17C18.52 4.25 19.75 5.48 19.75 7V8.28003C19.75 8.52003 19.64 8.74001 19.44 8.89001C19.31 8.98001 19.16 9.03003 19 9.03003ZM7 5.75C6.31 5.75 5.75 6.31 5.75 7V7.34003C6.14 7.28003 6.56 7.25 7 7.25H17C17.44 7.25 17.86 7.28003 18.25 7.34003V7C18.25 6.31 17.69 5.75 17 5.75H7Z" fill="#292D32"/>
<path d="M16 5.75H8C7.59 5.75 7.25 5.41 7.25 5V3.51001C7.25 2.26001 8.26001 1.25 9.51001 1.25H14.49C15.74 1.25 16.75 2.26001 16.75 3.51001V5C16.75 5.41 16.41 5.75 16 5.75ZM8.75 4.25H15.25V3.51001C15.25 3.09001 14.91 2.75 14.49 2.75H9.51001C9.09001 2.75 8.75 3.09001 8.75 3.51001V4.25Z" fill="#292D32"/>
<path d="M9.07001 20.2101C7.93001 20.2101 7 19.2801 7 18.1401C7 17.0001 7.93001 16.0701 9.07001 16.0701C10.21 16.0701 11.14 17.0001 11.14 18.1401C11.14 19.2801 10.22 20.2101 9.07001 20.2101ZM9.07001 17.5601C8.75001 17.5601 8.5 17.8201 8.5 18.1301C8.5 18.4401 8.76001 18.7001 9.07001 18.7001C9.38001 18.7001 9.64001 18.4401 9.64001 18.1301C9.64001 17.8201 9.39001 17.5601 9.07001 17.5601Z" fill="#292D32"/>
<path d="M10.4004 18.88C9.99039 18.88 9.65039 18.54 9.65039 18.13V12.8C9.65039 11.94 10.1904 11.24 11.0204 11.01L13.6703 10.29C14.5203 10.06 15.0604 10.28 15.3604 10.51C15.6604 10.74 16.0104 11.19 16.0104 12.07V17.24C16.0104 17.65 15.6704 17.99 15.2604 17.99C14.8504 17.99 14.5104 17.65 14.5104 17.24V12.07C14.5104 11.82 14.4604 11.72 14.4404 11.7C14.4204 11.69 14.3004 11.67 14.0604 11.73L11.4103 12.45C11.1803 12.51 11.1504 12.66 11.1504 12.79V18.12C11.1504 18.55 10.8104 18.88 10.4004 18.88Z" fill="#292D32"/>
<path d="M13.9294 19.3199C12.7894 19.3199 11.8594 18.3899 11.8594 17.2499C11.8594 16.1099 12.7894 15.1799 13.9294 15.1799C15.0694 15.1799 15.9994 16.1099 15.9994 17.2499C15.9994 18.3899 15.0694 19.3199 13.9294 19.3199ZM13.9294 16.6799C13.6094 16.6799 13.3594 16.9399 13.3594 17.2499C13.3594 17.5599 13.6194 17.8199 13.9294 17.8199C14.2394 17.8199 14.4994 17.5599 14.4994 17.2499C14.4994 16.9399 14.2394 16.6799 13.9294 16.6799Z" fill="#292D32"/>
<path d="M10.3991 15.0999C10.0691 15.0999 9.76906 14.8799 9.67906 14.5499C9.56906 14.1499 9.80909 13.7399 10.2091 13.6299L15.0591 12.3099C15.4591 12.1999 15.869 12.4399 15.979 12.8399C16.089 13.2399 15.8491 13.6499 15.4491 13.7599L10.599 15.0799C10.529 15.0899 10.4591 15.0999 10.3991 15.0999Z" fill="#292D32"/>
</svg>
