<svg width="24" height="24" viewBox="0 0 24 24" fill="none" xmlns="http://www.w3.org/2000/svg">
<path d="M6.28016 22.75C4.15016 22.75 2.41016 21.01 2.41016 18.88C2.41016 16.75 4.15016 15.01 6.28016 15.01C8.41016 15.01 10.1502 16.75 10.1502 18.88C10.1502 21.01 8.41016 22.75 6.28016 22.75ZM6.28016 16.51C4.97016 16.51 3.91016 17.57 3.91016 18.88C3.91016 20.19 4.97016 21.25 6.28016 21.25C7.59016 21.25 8.65016 20.19 8.65016 18.88C8.65016 17.57 7.59016 16.51 6.28016 16.51Z" fill="#292D32"/>
<path d="M9.40039 19.63C8.99039 19.63 8.65039 19.29 8.65039 18.88V6.30001C8.65039 4.72001 9.60039 3.48001 11.1204 3.07001L17.3604 1.37001C18.6304 1.02001 19.7004 1.15001 20.4504 1.73001C21.2104 2.31001 21.5904 3.28001 21.5904 4.61001V16.81C21.5904 17.22 21.2504 17.56 20.8404 17.56C20.4304 17.56 20.0904 17.22 20.0904 16.81V4.60001C20.0904 4.02001 19.9904 3.26001 19.5404 2.92001C19.0504 2.54001 18.2104 2.69001 17.7504 2.82001L11.5104 4.52001C10.6404 4.76001 10.1504 5.41001 10.1504 6.31001V18.89C10.1504 19.29 9.81039 19.63 9.40039 19.63Z" fill="#292D32"/>
<path d="M17.7196 20.6701C15.5896 20.6701 13.8496 18.9301 13.8496 16.8001C13.8496 14.6701 15.5896 12.9301 17.7196 12.9301C19.8496 12.9301 21.5896 14.6701 21.5896 16.8001C21.5896 18.9301 19.8496 20.6701 17.7196 20.6701ZM17.7196 14.4301C16.4096 14.4301 15.3496 15.4901 15.3496 16.8001C15.3496 18.1101 16.4096 19.1701 17.7196 19.1701C19.0296 19.1701 20.0896 18.1101 20.0896 16.8001C20.0896 15.4901 19.0296 14.4301 17.7196 14.4301Z" fill="#292D32"/>
<path d="M9.3998 10.27C9.0698 10.27 8.7698 10.05 8.6798 9.72003C8.5698 9.32003 8.7998 8.90003 9.1998 8.79003L20.6398 5.67003C21.0398 5.56003 21.4498 5.80003 21.5598 6.20003C21.6698 6.60003 21.4298 7.01003 21.0298 7.12003L9.5998 10.24C9.5298 10.26 9.4598 10.27 9.3998 10.27Z" fill="#292D32"/>
</svg>
