<svg width="24" height="24" viewBox="0 0 24 24" fill="none" xmlns="http://www.w3.org/2000/svg">
<path d="M15 22.75H9C3.57 22.75 1.25 20.43 1.25 15V9C1.25 3.57 3.57 1.25 9 1.25H15C20.43 1.25 22.75 3.57 22.75 9V15C22.75 20.43 20.43 22.75 15 22.75ZM9 2.75C4.39 2.75 2.75 4.39 2.75 9V15C2.75 19.61 4.39 21.25 9 21.25H15C19.61 21.25 21.25 19.61 21.25 15V9C21.25 4.39 19.61 2.75 15 2.75H9Z" fill="#292D32"/>
<path d="M7 22.25C6.59 22.25 6.25 21.91 6.25 21.5V2.5C6.25 2.09 6.59 1.75 7 1.75C7.41 1.75 7.75 2.09 7.75 2.5V21.5C7.75 21.91 7.41 22.25 7 22.25Z" fill="#292D32"/>
<path d="M11.4705 17.55C10.2305 17.55 9.23047 16.5401 9.23047 15.3101C9.23047 14.0801 10.2405 13.0701 11.4705 13.0701C12.7005 13.0701 13.7105 14.0801 13.7105 15.3101C13.7105 16.5401 12.7005 17.55 11.4705 17.55ZM11.4705 14.5601C11.0605 14.5601 10.7305 14.89 10.7305 15.3C10.7305 15.71 11.0605 16.04 11.4705 16.04C11.8805 16.04 12.2105 15.71 12.2105 15.3C12.2105 14.89 11.8705 14.5601 11.4705 14.5601Z" fill="#292D32"/>
<path d="M12.9609 16.06C12.5509 16.06 12.2109 15.72 12.2109 15.31V9.3C12.2109 8.38 12.7909 7.62002 13.6809 7.38002L16.6609 6.57002C17.5809 6.32002 18.1609 6.56001 18.4809 6.81001C18.9409 7.16001 19.1809 7.73001 19.1809 8.50001V14.33C19.1809 14.74 18.8409 15.08 18.4309 15.08C18.0209 15.08 17.6809 14.74 17.6809 14.33V8.50001C17.6809 8.17001 17.6109 8.03002 17.5709 8.01002C17.5209 7.97002 17.3509 7.95004 17.0609 8.03004L14.0809 8.84004C13.8409 8.91004 13.7209 9.06002 13.7209 9.32002V15.33C13.7109 15.72 13.3709 16.06 12.9609 16.06Z" fill="#292D32"/>
<path d="M16.9295 16.55C15.6895 16.55 14.6895 15.5401 14.6895 14.3101C14.6895 13.0701 15.6995 12.0701 16.9295 12.0701C18.1595 12.0701 19.1695 13.0801 19.1695 14.3101C19.1795 15.5501 18.1695 16.55 16.9295 16.55ZM16.9295 13.5701C16.5195 13.5701 16.1895 13.9001 16.1895 14.3101C16.1895 14.7201 16.5195 15.05 16.9295 15.05C17.3395 15.05 17.6695 14.7201 17.6695 14.3101C17.6695 13.9001 17.3395 13.5701 16.9295 13.5701Z" fill="#292D32"/>
<path d="M12.9596 11.7899C12.6296 11.7899 12.3296 11.5699 12.2396 11.2399C12.1296 10.8399 12.3696 10.4299 12.7696 10.3199L18.2396 8.82994C18.6396 8.71994 19.0496 8.95991 19.1596 9.35991C19.2696 9.75991 19.0296 10.17 18.6296 10.28L13.1596 11.7699C13.0896 11.7799 13.0196 11.7899 12.9596 11.7899Z" fill="#292D32"/>
</svg>
