<svg width="24" height="24" viewBox="0 0 24 24" fill="none" xmlns="http://www.w3.org/2000/svg">
<path d="M15 22.75H9C3.57 22.75 1.25 20.43 1.25 15V9C1.25 3.57 3.57 1.25 9 1.25H15C20.43 1.25 22.75 3.57 22.75 9V15C22.75 20.43 20.43 22.75 15 22.75ZM9 2.75C4.39 2.75 2.75 4.39 2.75 9V15C2.75 19.61 4.39 21.25 9 21.25H15C19.61 21.25 21.25 19.61 21.25 15V9C21.25 4.39 19.61 2.75 15 2.75H9Z" fill="#292D32"/>
<path d="M8.41962 17.86C7.13962 17.86 6.09961 16.82 6.09961 15.54C6.09961 14.26 7.13962 13.22 8.41962 13.22C9.69962 13.22 10.7396 14.26 10.7396 15.54C10.7396 16.82 9.69962 17.86 8.41962 17.86ZM8.41962 14.72C7.96962 14.72 7.59961 15.09 7.59961 15.54C7.59961 15.99 7.96962 16.36 8.41962 16.36C8.86962 16.36 9.23962 15.99 9.23962 15.54C9.23962 15.09 8.86962 14.72 8.41962 14.72Z" fill="#292D32"/>
<path d="M9.99023 16.2901C9.58023 16.2901 9.24023 15.9501 9.24023 15.5401V9.21011C9.24023 8.25011 9.84025 7.47006 10.7603 7.22006L13.9003 6.36007C14.8503 6.10007 15.4503 6.35006 15.7803 6.60006C16.2603 6.97006 16.5002 7.55011 16.5002 8.34011V14.4801C16.5002 14.8901 16.1602 15.2301 15.7502 15.2301C15.3402 15.2301 15.0002 14.8901 15.0002 14.4801V8.34011C15.0002 8.01011 14.9302 7.83006 14.8702 7.79006C14.8202 7.75006 14.6402 7.71007 14.2902 7.80007L11.1503 8.66006C10.8703 8.74006 10.7402 8.9101 10.7402 9.2001V15.5301C10.7402 15.9501 10.4002 16.2901 9.99023 16.2901Z" fill="#292D32"/>
<path d="M14.1794 16.8101C12.8994 16.8101 11.8594 15.7701 11.8594 14.4901C11.8594 13.2101 12.8994 12.17 14.1794 12.17C15.4594 12.17 16.4994 13.2101 16.4994 14.4901C16.4994 15.7701 15.4594 16.8101 14.1794 16.8101ZM14.1794 13.67C13.7294 13.67 13.3594 14.0401 13.3594 14.4901C13.3594 14.9401 13.7294 15.3101 14.1794 15.3101C14.6294 15.3101 14.9994 14.9401 14.9994 14.4901C14.9994 14.0401 14.6294 13.67 14.1794 13.67Z" fill="#292D32"/>
<path d="M9.98888 11.7901C9.65888 11.7901 9.35891 11.5701 9.26891 11.2401C9.15891 10.8401 9.39888 10.4301 9.79888 10.3201L15.5589 8.7501C15.9689 8.6401 16.3689 8.88013 16.4789 9.28013C16.5889 9.68013 16.3489 10.0901 15.9489 10.2001L10.1889 11.7701C10.1189 11.7801 10.0489 11.7901 9.98888 11.7901Z" fill="#292D32"/>
</svg>
