<svg width="24" height="24" viewBox="0 0 24 24" fill="none" xmlns="http://www.w3.org/2000/svg">
<path d="M9.5005 14.0001C9.3305 14.0001 9.15051 13.9401 9.01051 13.8201C8.78051 13.6201 8.69049 13.3101 8.78049 13.0301L11.2805 5.03006C11.3705 4.73006 11.6405 4.52006 11.9505 4.51006C12.2705 4.49006 12.5505 4.67006 12.6805 4.95006L15.1805 10.4501C15.3505 10.8201 15.1905 11.2501 14.8305 11.4301L9.83048 13.9301C9.73048 13.9701 9.6105 14.0001 9.5005 14.0001ZM12.1305 7.35007L10.7405 11.7901L13.5205 10.4001L12.1305 7.35007Z" fill="black"/>
<path d="M13.4997 15.4999C13.4197 15.4999 13.3397 15.4899 13.2597 15.4599L5.75974 12.9599C5.46974 12.8599 5.26973 12.5999 5.24973 12.2999C5.22973 11.9999 5.38973 11.7099 5.65973 11.5799L9.65973 9.57994C10.0297 9.39994 10.4797 9.54994 10.6697 9.91994C10.8597 10.2899 10.7097 10.7399 10.3297 10.9299L7.94974 12.1199L13.4197 13.9399L16.1397 12.4299L13.8497 11.6699C13.4597 11.5399 13.2397 11.1199 13.3697 10.7199C13.4997 10.3299 13.9197 10.1099 14.3197 10.2399L18.2397 11.5299C18.5197 11.6199 18.7197 11.8799 18.7497 12.1699C18.7797 12.4699 18.6297 12.7499 18.3697 12.8999L13.8697 15.3999C13.7497 15.4699 13.6297 15.4999 13.4997 15.4999Z" fill="black"/>
<path d="M12.0003 19C11.7203 19 11.4703 18.85 11.3403 18.6L8.84028 13.92C8.64028 13.55 8.78028 13.1 9.15028 12.9C9.52028 12.7 9.9703 12.84 10.1703 13.21L11.8503 16.35L12.3003 15C12.4303 14.61 12.8603 14.4 13.2503 14.53C13.6403 14.66 13.8503 15.09 13.7203 15.48L12.7203 18.48C12.6303 18.76 12.3703 18.96 12.0703 18.99C12.0403 19 12.0203 19 12.0003 19Z" fill="black"/>
<path d="M12 22.75C6.07 22.75 1.25 17.93 1.25 12C1.25 6.07 6.07 1.25 12 1.25C17.93 1.25 22.75 6.07 22.75 12C22.75 17.93 17.93 22.75 12 22.75ZM12 2.75C6.9 2.75 2.75 6.9 2.75 12C2.75 17.1 6.9 21.25 12 21.25C17.1 21.25 21.25 17.1 21.25 12C21.25 6.9 17.1 2.75 12 2.75Z" fill="black"/>
</svg>
