<svg width="24" height="24" viewBox="0 0 24 24" fill="none" xmlns="http://www.w3.org/2000/svg">
<path d="M12 14.75H7C6.59 14.75 6.25 14.41 6.25 14C6.25 13.59 6.59 13.25 7 13.25H12C12.41 13.25 12.75 13.59 12.75 14C12.75 14.41 12.41 14.75 12 14.75Z" fill="#292D32"/>
<path d="M6.99945 6.71002C6.80945 6.71002 6.61945 6.64002 6.46945 6.49002L2.71945 2.74002C2.42945 2.45002 2.42945 1.97002 2.71945 1.68002C3.00945 1.39002 3.48945 1.39002 3.77945 1.68002L7.52945 5.43002C7.81945 5.72002 7.81945 6.20002 7.52945 6.49002C7.37945 6.63002 7.18945 6.71002 6.99945 6.71002Z" fill="#292D32"/>
<path d="M3.21039 6.74994C3.02039 6.74994 2.83039 6.67994 2.68039 6.52994C2.39039 6.23994 2.39039 5.75994 2.68039 5.46994L6.43039 1.71994C6.72039 1.42994 7.20039 1.42994 7.49039 1.71994C7.78039 2.00994 7.78039 2.48994 7.49039 2.77994L3.74039 6.52994C3.60039 6.67994 3.40039 6.74994 3.21039 6.74994Z" fill="#292D32"/>
<path d="M15 10.75H7C6.59 10.75 6.25 10.41 6.25 10C6.25 9.59 6.59 9.25 7 9.25H15C15.41 9.25 15.75 9.59 15.75 10C15.75 10.41 15.41 10.75 15 10.75Z" fill="#292D32"/>
<path d="M21 16.75C20.59 16.75 20.25 16.41 20.25 16V7.99C20.25 3.76 18.81 2.9 15.96 2.75H10C9.59 2.75 9.25 2.41 9.25 2C9.25 1.59 9.59 1.25 10 1.25H16C20.1 1.47 21.75 3.42 21.75 7.99V16C21.75 16.41 21.41 16.75 21 16.75Z" fill="#292D32"/>
<path d="M15 22.75H9C3.38 22.75 2.25 20.16 2.25 15.98V9.01001C2.25 8.60001 2.59 8.26001 3 8.26001C3.41 8.26001 3.75 8.60001 3.75 9.01001V15.98C3.75 19.7 4.48 21.25 9 21.25H15C15.41 21.25 15.75 21.59 15.75 22C15.75 22.41 15.41 22.75 15 22.75Z" fill="#292D32"/>
<path d="M15 22.75C14.9 22.75 14.81 22.73 14.71 22.69C14.43 22.57 14.25 22.3 14.25 22V19C14.25 16.58 15.58 15.25 18 15.25H21C21.3 15.25 21.58 15.43 21.69 15.71C21.8 15.99 21.74 16.31 21.53 16.53L15.53 22.53C15.39 22.67 15.19 22.75 15 22.75ZM18 16.75C16.42 16.75 15.75 17.42 15.75 19V20.19L19.19 16.75H18Z" fill="#292D32"/>
</svg>
