<svg width="24" height="24" viewBox="0 0 24 24" fill="none" xmlns="http://www.w3.org/2000/svg">
<path d="M19 8.75C16.93 8.75 15.25 7.07 15.25 5C15.25 2.93 16.93 1.25 19 1.25C21.07 1.25 22.75 2.93 22.75 5C22.75 7.07 21.07 8.75 19 8.75ZM19 2.75C17.76 2.75 16.75 3.76 16.75 5C16.75 6.24 17.76 7.25 19 7.25C20.24 7.25 21.25 6.24 21.25 5C21.25 3.76 20.24 2.75 19 2.75Z" fill="#292D32"/>
<path d="M15 22.75H9C3.57 22.75 1.25 20.43 1.25 15V9C1.25 3.57 3.57 1.25 9 1.25H14C14.41 1.25 14.75 1.59 14.75 2C14.75 2.41 14.41 2.75 14 2.75H9C4.39 2.75 2.75 4.39 2.75 9V15C2.75 19.61 4.39 21.25 9 21.25H15C19.61 21.25 21.25 19.61 21.25 15V10C21.25 9.59 21.59 9.25 22 9.25C22.41 9.25 22.75 9.59 22.75 10V15C22.75 20.43 20.43 22.75 15 22.75Z" fill="#292D32"/>
<path d="M9.81041 18.33C8.89041 18.33 6.75041 17.21 6.09041 15.15C5.64041 13.74 6.16041 11.89 7.79041 11.36C8.49041 11.13 9.22041 11.24 9.80041 11.61C10.3704 11.24 11.1204 11.13 11.8204 11.36C13.4504 11.89 13.9804 13.74 13.5204 15.15C12.8704 17.25 10.6304 18.33 9.81041 18.33ZM7.52041 14.7C7.98041 16.15 9.54041 16.81 9.82041 16.84C10.1404 16.81 11.6704 16.07 12.0904 14.71C12.3204 13.98 12.0904 13.04 11.3604 12.8C11.0504 12.7 10.6304 12.76 10.4304 13.05C10.2904 13.26 10.0704 13.38 9.82041 13.39C9.58041 13.39 9.34041 13.28 9.20041 13.08C8.96041 12.75 8.54041 12.7 8.25041 12.8C7.53041 13.03 7.29041 13.97 7.52041 14.7Z" fill="#292D32"/>
</svg>
