<svg width="24" height="24" viewBox="0 0 24 24" fill="none" xmlns="http://www.w3.org/2000/svg">
<path d="M11.7005 22.75C11.6005 22.75 11.5105 22.75 11.4105 22.75C5.93046 22.6 1.48047 17.88 1.48047 12.24V5.21003C1.48047 4.70003 1.78046 4.25002 2.25046 4.06002C2.72046 3.87002 3.25044 3.97002 3.61044 4.33002L18.4405 19.16C18.5905 19.31 18.6705 19.51 18.6605 19.72C18.6505 19.93 18.5605 20.12 18.4005 20.26C16.5405 21.87 14.1705 22.75 11.7005 22.75ZM2.98047 5.81002V12.24C2.98047 17.08 6.78047 21.12 11.4505 21.25C13.3805 21.29 15.2505 20.73 16.7805 19.62L2.98047 5.81002Z" fill="black"/>
<path d="M21.2696 19.9C20.9496 19.9 20.6296 19.77 20.3896 19.53L5.68959 4.82996C5.53959 4.67996 5.45959 4.47996 5.46959 4.26996C5.47959 4.05996 5.5696 3.86995 5.7296 3.72995C7.6396 2.05995 10.1096 1.16996 12.6696 1.24996C18.0996 1.39996 22.5196 6.07995 22.5196 11.6799V18.64C22.5196 19.15 22.2196 19.5999 21.7496 19.7899C21.5996 19.8599 21.4396 19.9 21.2696 19.9ZM7.34959 4.36995L21.0296 18.05V11.69C21.0296 6.89996 17.2596 2.88995 12.6296 2.75995C10.7196 2.71995 8.86959 3.26995 7.34959 4.36995Z" fill="black"/>
</svg>
