<svg width="24" height="24" viewBox="0 0 24 24" fill="none" xmlns="http://www.w3.org/2000/svg">
<path d="M10.0605 21.58C9.06049 21.58 8.05049 20.9 6.70049 19.56L3.24049 16.1C0.300494 13.16 0.600494 12.03 3.24049 9.37995L8.81049 3.79995C10.7805 1.82995 12.4105 0.679952 15.5305 3.79995L18.9905 7.25995C21.8005 10.07 21.1205 11.85 18.9905 13.98L13.4205 19.55C12.0705 20.9 11.0705 21.58 10.0605 21.58ZM4.30049 15.03L7.76049 18.49C9.88049 20.61 10.2305 20.62 12.3605 18.49L17.9305 12.92C19.6005 11.25 20.0305 10.42 17.9305 8.31995L14.4705 4.85995C12.2805 2.66995 11.6205 3.11995 9.87049 4.85995L4.30049 10.43C2.18049 12.56 2.00049 12.73 4.30049 15.03Z" fill="#292D32"/>
<path d="M20.1409 21.4599C19.0009 21.4599 18.1009 21.0199 17.6609 20.2499C17.2209 19.4799 17.3109 18.4799 17.9009 17.4999L18.5609 16.4099C18.9509 15.7699 19.5209 15.3999 20.1409 15.3999C20.7609 15.3999 21.3409 15.7699 21.7209 16.4099L22.3809 17.4999C22.9709 18.4799 23.0509 19.4799 22.6209 20.2499C22.1909 21.0199 21.2709 21.4599 20.1409 21.4599ZM20.1409 16.8999C20.0909 16.8999 19.9709 16.9799 19.8409 17.1799L19.1809 18.2699C18.8809 18.7699 18.8009 19.2199 18.9609 19.5099C19.1209 19.7999 19.5509 19.9599 20.1309 19.9599C20.7109 19.9599 21.1409 19.7999 21.3009 19.5099C21.4609 19.2199 21.3809 18.7799 21.0809 18.2699L20.4209 17.1799C20.3109 16.9699 20.1909 16.8999 20.1409 16.8999Z" fill="#292D32"/>
<path d="M2.00062 12.9901C1.67062 12.9901 1.37062 12.7701 1.28062 12.4401C1.17062 12.0401 1.41062 11.6301 1.81062 11.5201C7.48062 9.98011 13.4906 9.93011 19.1906 11.3901L19.6906 11.5201C20.0906 11.6201 20.3306 12.0301 20.2306 12.4301C20.1306 12.8301 19.7206 13.0701 19.3206 12.9701L18.8206 12.8401C13.3706 11.4401 7.63062 11.4901 2.21062 12.9701C2.13062 12.9901 2.06062 12.9901 2.00062 12.9901Z" fill="#292D32"/>
</svg>
