<svg width="24" height="24" viewBox="0 0 24 24" fill="none" xmlns="http://www.w3.org/2000/svg">
<path d="M12.3291 21.34C11.2391 21.34 10.1491 20.93 9.31906 20.1C7.65906 18.44 7.65906 15.75 9.31906 14.09L11.7991 11.62C12.0891 11.33 12.5691 11.33 12.8591 11.62C13.1491 11.91 13.1491 12.39 12.8591 12.68L10.3791 15.15C9.30906 16.22 9.30906 17.97 10.3791 19.04C11.4491 20.11 13.1991 20.11 14.2691 19.04L18.1591 15.15C19.3391 13.97 19.9891 12.4 19.9891 10.73C19.9891 9.05998 19.3391 7.48999 18.1591 6.30999C15.7191 3.86999 11.7591 3.86999 9.31906 6.30999L5.07906 10.55C4.08906 11.54 3.53906 12.86 3.53906 14.26C3.53906 15.66 4.08906 16.98 5.07906 17.97C5.36906 18.26 5.36906 18.74 5.07906 19.03C4.78906 19.32 4.30906 19.32 4.01906 19.03C2.74906 17.75 2.03906 16.06 2.03906 14.26C2.03906 12.46 2.73906 10.76 4.01906 9.48998L8.25906 5.24999C11.2791 2.22999 16.1991 2.22999 19.2191 5.24999C20.6791 6.70999 21.4891 8.65998 21.4891 10.73C21.4891 12.8 20.6791 14.75 19.2191 16.21L15.3291 20.1C14.4991 20.93 13.4191 21.34 12.3291 21.34Z" fill="#292D32"/>
</svg>
