<svg width="24" height="24" viewBox="0 0 24 24" fill="none" xmlns="http://www.w3.org/2000/svg">
<path d="M11.9707 22.75C6.0507 22.75 1.2207 17.93 1.2207 12C1.2207 6.07 6.0507 1.25 11.9707 1.25C17.8907 1.25 22.7207 6.07 22.7207 12C22.7207 17.93 17.9007 22.75 11.9707 22.75ZM11.9707 2.75C6.8707 2.75 2.7207 6.9 2.7207 12C2.7207 17.1 6.8707 21.25 11.9707 21.25C17.0707 21.25 21.2207 17.1 21.2207 12C21.2207 6.9 17.0707 2.75 11.9707 2.75Z" fill="#292D32"/>
<path d="M10.01 15.95H8.71C7.79 15.95 7.25 15.42 7.25 14.53V9.47005C7.25 8.58005 7.8 8.05005 8.71 8.05005H10C10.92 8.05005 11.46 8.58005 11.46 9.47005V14.53C11.47 15.42 10.92 15.95 10.01 15.95ZM8.75 14.45H9.97V9.55005H8.76L8.75 14.45Z" fill="#292D32"/>
<path d="M15.2891 15.95H13.9991C13.0791 15.95 12.5391 15.42 12.5391 14.53V9.47005C12.5391 8.58005 13.0891 8.05005 13.9991 8.05005H15.2891C16.2091 8.05005 16.7491 8.58005 16.7491 9.47005V14.53C16.7491 15.42 16.1991 15.95 15.2891 15.95ZM14.0291 14.45H15.2491V9.55005H14.0391L14.0291 14.45Z" fill="#292D32"/>
</svg>
