<svg width="24" height="24" viewBox="0 0 24 24" fill="none" xmlns="http://www.w3.org/2000/svg">
<path d="M18.2512 14.22C18.0612 14.22 17.8612 14.14 17.7212 14L12.0512 8.33001C11.8012 8.08001 11.7612 7.70001 11.9512 7.40001L13.7212 4.59996C14.2012 3.82996 14.9512 3.36 15.8112 3.26C16.7612 3.15 17.7712 3.54 18.5512 4.32L21.7312 7.49999C22.4812 8.24999 22.8512 9.24999 22.7412 10.25C22.6412 11.12 22.1812 11.8699 21.4612 12.3299L18.6612 14.1C18.5312 14.18 18.3912 14.22 18.2512 14.22ZM13.5412 7.7L18.3612 12.52L20.6512 11.07C20.9912 10.86 21.2012 10.51 21.2412 10.09C21.3012 9.56002 21.0812 8.99 20.6612 8.57L17.4812 5.39C17.0212 4.93 16.4712 4.7 15.9712 4.76C15.5712 4.8 15.2312 5.02996 14.9912 5.40996L13.5412 7.7Z" fill="#292D32"/>
<path d="M6.6291 22.75C5.6891 22.75 4.8591 22.4201 4.2391 21.8001C3.5191 21.0801 3.1991 20.07 3.3291 18.95L4.3091 10.67C4.3591 10.26 4.7191 9.97003 5.1391 10.01C5.5491 10.06 5.8491 10.43 5.7991 10.84L4.81911 19.12C4.73911 19.77 4.9091 20.34 5.2991 20.73C5.6891 21.12 6.26909 21.3 6.92909 21.22L15.6491 20.19C17.5091 19.97 17.9191 19.47 17.7391 17.65L17.4991 13.5C17.4791 13.09 17.7891 12.73 18.2091 12.71C18.6191 12.69 18.9791 13.0001 18.9991 13.4201L19.2391 17.5401C19.4991 20.1201 18.4791 21.37 15.8291 21.69L7.1091 22.72C6.9491 22.74 6.7891 22.75 6.6291 22.75Z" fill="#292D32"/>
<path d="M12.5801 8.55993C12.5601 8.55993 12.5501 8.55993 12.5301 8.55993L10.7801 8.44995C10.3701 8.41995 10.0501 8.06996 10.0801 7.64996C10.1101 7.23996 10.4601 6.91995 10.8801 6.94995L12.6301 7.05993C13.0401 7.08993 13.3601 7.43992 13.3301 7.85992C13.3001 8.24992 12.9701 8.55993 12.5801 8.55993Z" fill="#292D32"/>
<path d="M5.2807 21.53C5.0907 21.53 4.9007 21.46 4.7507 21.31C4.4607 21.02 4.4607 20.54 4.7507 20.25L7.9307 17.0699C8.2207 16.7799 8.70071 16.7799 8.99071 17.0699C9.28071 17.3599 9.28071 17.84 8.99071 18.13L5.8107 21.31C5.6607 21.46 5.4707 21.53 5.2807 21.53Z" fill="#292D32"/>
<path d="M6.5 11.75C5.91 11.75 5.34 11.65 4.81 11.47C3.65 11.08 2.64999 10.28 2.00999 9.21002C1.50999 8.39002 1.25 7.45 1.25 6.5C1.25 4.88 1.97 3.39002 3.23 2.40002C4.15 1.66002 5.31 1.25 6.5 1.25C9.4 1.25 11.75 3.61 11.75 6.5C11.75 6.97 11.68 7.45997 11.55 7.90997C11.42 8.36997 11.24 8.79002 10.99 9.21002C10.7 9.69002 10.35 10.1 9.94 10.45C9 11.29 7.78 11.75 6.5 11.75ZM6.5 2.75C5.65 2.75 4.82 3.04001 4.16 3.57001C3.26 4.28001 2.75 5.34 2.75 6.5C2.75 7.17 2.93999 7.83999 3.28999 8.42999C3.74999 9.18999 4.45999 9.76998 5.28999 10.04C6.49999 10.47 7.95001 10.2 8.96001 9.31C9.25001 9.06 9.50001 8.75999 9.71001 8.42999C9.89001 8.12999 10.02 7.83 10.11 7.5C10.2 7.17 10.25 6.83 10.25 6.5C10.25 4.43 8.57 2.75 6.5 2.75Z" fill="#292D32"/>
<path d="M7.69977 8.42996C7.50977 8.42996 7.31977 8.35999 7.16977 8.20999L4.78977 5.82999C4.49977 5.53999 4.49977 5.05999 4.78977 4.76999C5.07977 4.47999 5.55978 4.47999 5.84978 4.76999L8.22977 7.15C8.51977 7.44 8.51977 7.91999 8.22977 8.20999C8.08977 8.34999 7.88977 8.42996 7.69977 8.42996Z" fill="#292D32"/>
<path d="M5.30023 8.45004C5.11023 8.45004 4.92023 8.38001 4.77023 8.23001C4.48023 7.94001 4.48023 7.46001 4.77023 7.17001L7.15022 4.79001C7.44022 4.50001 7.92024 4.50001 8.21024 4.79001C8.50024 5.08001 8.50024 5.56001 8.21024 5.85001L5.83023 8.23001C5.68023 8.38001 5.49023 8.45004 5.30023 8.45004Z" fill="#292D32"/>
</svg>
