<svg width="24" height="24" viewBox="0 0 24 24" fill="none" xmlns="http://www.w3.org/2000/svg">
<path d="M13.2698 23.25H10.7498C10.0498 23.25 9.41978 22.9499 8.99978 22.4399C8.62978 21.9799 8.48978 21.39 8.61978 20.83L9.02978 19.02C9.10978 18.68 9.40978 18.4399 9.75978 18.4399H14.2598C14.6098 18.4399 14.9098 18.68 14.9898 19.02L15.3998 20.83C15.5298 21.43 15.4098 22.01 15.0398 22.47C14.6298 22.96 13.9898 23.25 13.2698 23.25ZM10.3598 19.92L10.0798 21.15C10.0498 21.3 10.1098 21.42 10.1698 21.49C10.2998 21.65 10.5098 21.74 10.7498 21.74H13.2698C13.5298 21.74 13.7498 21.66 13.8698 21.51C13.9498 21.41 13.9698 21.29 13.9398 21.14L13.6598 19.91H10.3598V19.92Z" fill="#292D32"/>
<path d="M14.2595 19.92C14.0495 19.92 13.8495 19.84 13.6995 19.67C13.4295 19.36 13.4495 18.89 13.7595 18.61L15.4895 17.0699C16.1795 16.4599 16.1495 16.31 15.6395 15.67L12.5895 11.8C12.4195 11.59 12.2195 11.47 12.0095 11.47C11.7995 11.47 11.5995 11.59 11.4295 11.8L8.37953 15.67C7.83953 16.36 7.84954 16.51 8.50954 17.05L10.2595 18.61C10.5695 18.88 10.5995 19.36 10.3195 19.67C10.0395 19.98 9.56954 20.01 9.25954 19.73L7.52953 18.1899C6.26953 17.1599 6.15953 16.06 7.19953 14.74L10.2495 10.87C10.6995 10.3 11.3395 9.96997 12.0095 9.96997C12.6795 9.96997 13.3195 10.3 13.7695 10.87L16.8195 14.74C17.8495 16.04 17.7495 17.0799 16.4895 18.1899L14.7595 19.73C14.6095 19.86 14.4295 19.92 14.2595 19.92Z" fill="#292D32"/>
<path d="M12.0098 14.4001C11.5998 14.4001 11.2598 14.0601 11.2598 13.6501V11.1201C11.2598 10.7101 11.5998 10.3701 12.0098 10.3701C12.4198 10.3701 12.7598 10.7101 12.7598 11.1201V13.6501C12.7598 14.0701 12.4198 14.4001 12.0098 14.4001Z" fill="#292D32"/>
<path d="M11.9995 6.29003C11.4995 6.29003 10.9995 6.10002 10.6195 5.72002L9.83953 4.94006C9.07953 4.18006 9.07953 2.94005 9.83953 2.18005L10.6195 1.40008C11.3795 0.640078 12.6195 0.640078 13.3795 1.40008L14.1595 2.18005C14.9195 2.94005 14.9195 4.18006 14.1595 4.94006L13.3795 5.72002C12.9995 6.10002 12.4995 6.29003 11.9995 6.29003ZM11.9995 2.33007C11.8795 2.33007 11.7695 2.37008 11.6795 2.46008L10.8995 3.24004C10.8195 3.32004 10.7695 3.44005 10.7695 3.56005C10.7695 3.68005 10.8195 3.79006 10.8995 3.88006L11.6795 4.66003C11.8495 4.83003 12.1495 4.83003 12.3195 4.66003L13.0995 3.88006C13.1795 3.80006 13.2295 3.68005 13.2295 3.56005C13.2295 3.44005 13.1795 3.33004 13.0995 3.24004L12.3195 2.46008C12.2295 2.38008 12.1195 2.33007 11.9995 2.33007Z" fill="#292D32"/>
<path d="M20.55 14.0601H19.45C18.37 14.0601 17.5 13.18 17.5 12.11V11.0101C17.5 9.93007 18.38 9.06006 19.45 9.06006H20.55C21.63 9.06006 22.5 9.94007 22.5 11.0101V12.11C22.5 13.19 21.62 14.0601 20.55 14.0601ZM19.45 10.5601C19.2 10.5601 19 10.7601 19 11.0101V12.11C19 12.36 19.2 12.5601 19.45 12.5601H20.55C20.8 12.5601 21 12.36 21 12.11V11.0101C21 10.7601 20.8 10.5601 20.55 10.5601H19.45V10.5601Z" fill="#292D32"/>
<path d="M4.55 14.0601H3.45C2.37 14.0601 1.5 13.18 1.5 12.11V11.0101C1.5 9.93007 2.38 9.06006 3.45 9.06006H4.55C5.63 9.06006 6.5 9.94007 6.5 11.0101V12.11C6.5 13.19 5.62 14.0601 4.55 14.0601ZM3.45 10.5601C3.2 10.5601 3 10.7601 3 11.0101V12.11C3 12.36 3.2 12.5601 3.45 12.5601H4.55C4.8 12.5601 5 12.36 5 12.11V11.0101C5 10.7601 4.8 10.5601 4.55 10.5601H3.45V10.5601Z" fill="#292D32"/>
<path d="M18.5397 10.8499C18.3497 10.8499 18.1597 10.78 18.0097 10.63L12.7097 5.32999C12.4197 5.03999 12.4197 4.55999 12.7097 4.26999C12.9997 3.97999 13.4797 3.97999 13.7697 4.26999L19.0697 9.56998C19.3597 9.85998 19.3597 10.34 19.0697 10.63C18.9197 10.78 18.7297 10.8499 18.5397 10.8499Z" fill="#292D32"/>
<path d="M5.46039 10.8499C5.27039 10.8499 5.08039 10.78 4.93039 10.63C4.64039 10.34 4.64039 9.85998 4.93039 9.56998L10.2304 4.26999C10.5204 3.97999 11.0004 3.97999 11.2904 4.26999C11.5804 4.55999 11.5804 5.03999 11.2904 5.32999L5.99039 10.63C5.84039 10.78 5.65039 10.8499 5.46039 10.8499Z" fill="#292D32"/>
</svg>
