<svg width="24" height="24" viewBox="0 0 24 24" fill="none" xmlns="http://www.w3.org/2000/svg">
<path d="M21 22.75H3C2.59 22.75 2.25 22.41 2.25 22C2.25 21.59 2.59 21.25 3 21.25H21C21.41 21.25 21.75 21.59 21.75 22C21.75 22.41 21.41 22.75 21 22.75Z" fill="#292D32"/>
<path d="M21 2.75H3C2.59 2.75 2.25 2.41 2.25 2C2.25 1.59 2.59 1.25 3 1.25H21C21.41 1.25 21.75 1.59 21.75 2C21.75 2.41 21.41 2.75 21 2.75Z" fill="#292D32"/>
<path d="M12 18.75C11.59 18.75 11.25 18.41 11.25 18V6C11.25 5.59 11.59 5.25 12 5.25C12.41 5.25 12.75 5.59 12.75 6V18C12.75 18.41 12.41 18.75 12 18.75Z" fill="#292D32"/>
<path d="M14.8294 8.47002C14.6394 8.47002 14.4494 8.40002 14.2994 8.25002L11.9994 5.95002L9.69937 8.25002C9.40937 8.54002 8.92937 8.54002 8.63938 8.25002C8.34938 7.96002 8.34938 7.48002 8.63938 7.19002L11.4694 4.36002C11.7494 4.08002 12.2494 4.08002 12.5294 4.36002L15.3594 7.19002C15.6494 7.48002 15.6494 7.96002 15.3594 8.25002C15.2094 8.40002 15.0194 8.47002 14.8294 8.47002Z" fill="#292D32"/>
<path d="M11.9994 19.47C11.7994 19.47 11.6094 19.39 11.4694 19.25L8.63938 16.42C8.34938 16.13 8.34938 15.65 8.63938 15.36C8.92937 15.07 9.40937 15.07 9.69937 15.36L11.9994 17.66L14.2994 15.36C14.5894 15.07 15.0694 15.07 15.3594 15.36C15.6494 15.65 15.6494 16.13 15.3594 16.42L12.5294 19.25C12.3894 19.39 12.1994 19.47 11.9994 19.47Z" fill="#292D32"/>
</svg>
