<svg width="24" height="24" viewBox="0 0 24 24" fill="none" xmlns="http://www.w3.org/2000/svg">
<path d="M15 22.75H9C3.57 22.75 1.25 20.43 1.25 15V9C1.25 3.57 3.57 1.25 9 1.25H15C20.43 1.25 22.75 3.57 22.75 9V15C22.75 20.43 20.43 22.75 15 22.75ZM9 2.75C4.39 2.75 2.75 4.39 2.75 9V15C2.75 19.61 4.39 21.25 9 21.25H15C19.61 21.25 21.25 19.61 21.25 15V9C21.25 4.39 19.61 2.75 15 2.75H9Z" fill="#292D32"/>
<path d="M13.9501 22.7499C13.6101 22.7499 13.31 22.5199 13.22 22.1799L8.2701 2.17993C8.1701 1.77993 8.42009 1.36995 8.82009 1.26995C9.22009 1.16995 9.63006 1.40995 9.73006 1.81995L14.6801 21.8199C14.7801 22.2199 14.5301 22.6299 14.1301 22.7299C14.0701 22.7399 14.0101 22.7499 13.9501 22.7499Z" fill="#292D32"/>
<path d="M1.99985 15.75C1.66985 15.75 1.37988 15.54 1.27988 15.21C1.15988 14.81 1.38983 14.4 1.78983 14.28L11.3199 11.5C11.7199 11.38 12.1299 11.61 12.2499 12.01C12.3699 12.41 12.1398 12.82 11.7398 12.94L2.20987 15.72C2.13987 15.74 2.06985 15.75 1.99985 15.75Z" fill="#292D32"/>
</svg>
