<svg width="24" height="24" viewBox="0 0 24 24" fill="none" xmlns="http://www.w3.org/2000/svg">
<path d="M19.0698 19.82C18.8798 19.82 18.6898 19.7499 18.5398 19.5999C18.2498 19.3099 18.2498 18.8299 18.5398 18.5399C22.1498 14.9299 22.1498 9.05999 18.5398 5.45999C18.2498 5.16999 18.2498 4.69 18.5398 4.4C18.8298 4.11 19.3098 4.11 19.5998 4.4C23.7898 8.59 23.7898 15.4099 19.5998 19.5999C19.4498 19.7499 19.2598 19.82 19.0698 19.82Z" fill="#292D32"/>
<path d="M4.93031 19.82C4.74031 19.82 4.55031 19.7499 4.40031 19.5999C0.210312 15.4099 0.210312 8.59 4.40031 4.4C4.69031 4.11 5.17031 4.11 5.46031 4.4C5.75031 4.69 5.75031 5.16999 5.46031 5.45999C1.85031 9.06999 1.85031 14.9399 5.46031 18.5399C5.75031 18.8299 5.75031 19.3099 5.46031 19.5999C5.31031 19.7499 5.12031 19.82 4.93031 19.82Z" fill="#292D32"/>
<path d="M11.9988 22.71C10.7488 22.7 9.5588 22.4999 8.4488 22.1099C8.0588 21.9699 7.84878 21.54 7.98878 21.15C8.12878 20.76 8.5488 20.55 8.9488 20.69C9.9088 21.02 10.9288 21.2 12.0088 21.2C13.0788 21.2 14.1088 21.02 15.0588 20.69C15.4488 20.56 15.8788 20.76 16.0188 21.15C16.1588 21.54 15.9488 21.9699 15.5588 22.1099C14.4388 22.4999 13.2488 22.71 11.9988 22.71Z" fill="#292D32"/>
<path d="M15.3009 3.34009C15.2209 3.34009 15.1309 3.33005 15.0509 3.30005C14.0909 2.97005 13.061 2.79004 11.991 2.79004C10.921 2.79004 9.90096 2.97005 8.94096 3.30005C8.55096 3.43005 8.12097 3.23009 7.98097 2.84009C7.84097 2.45009 8.05096 2.02007 8.44096 1.88007C9.55096 1.49007 10.751 1.29004 11.991 1.29004C13.231 1.29004 14.431 1.49007 15.541 1.88007C15.931 2.02007 16.141 2.45009 16.001 2.84009C15.901 3.15009 15.6109 3.34009 15.3009 3.34009Z" fill="#292D32"/>
<path d="M10.5602 16.76C10.1202 16.76 9.70023 16.65 9.33023 16.44C8.47023 15.94 7.99023 14.96 7.99023 13.68V10.33C7.99023 9.05003 8.46023 8.07002 9.33023 7.57002C10.1902 7.07002 11.2803 7.15 12.3903 7.79L15.2903 9.46004C16.4003 10.1 17.0103 11 17.0103 12C17.0103 13 16.4003 13.9 15.2903 14.54L12.3903 16.21C11.7603 16.58 11.1302 16.76 10.5602 16.76ZM10.5602 8.74001C10.3802 8.74001 10.2102 8.78 10.0802 8.86C9.71023 9.08 9.49023 9.61002 9.49023 10.32V13.67C9.49023 14.38 9.70023 14.92 10.0802 15.13C10.4502 15.34 11.0203 15.26 11.6403 14.91L14.5403 13.24C15.1603 12.88 15.5103 12.43 15.5103 12C15.5103 11.57 15.1603 11.12 14.5403 10.76L11.6403 9.09004C11.2403 8.86004 10.8702 8.74001 10.5602 8.74001Z" fill="#292D32"/>
</svg>
