<svg width="24" height="24" viewBox="0 0 24 24" fill="none" xmlns="http://www.w3.org/2000/svg">
<path d="M7.50023 15.45C7.37023 15.45 7.24022 15.42 7.12022 15.35L2.62022 12.75C2.39022 12.62 2.24023 12.37 2.24023 12.1V6.89999C2.24023 6.62999 2.38022 6.37999 2.62022 6.24999L7.12022 3.64999C7.35022 3.51999 7.64022 3.51999 7.87022 3.64999L12.3702 6.24999C12.6002 6.37999 12.7502 6.62999 12.7502 6.89999V8.46999C12.7502 8.87999 12.4102 9.21999 12.0002 9.21999C11.5902 9.21999 11.2502 8.87999 11.2502 8.46999V7.32999L7.50023 5.15999L3.75023 7.32999V11.66L7.50023 13.83L11.6202 11.45C11.9802 11.24 12.4402 11.37 12.6402 11.72C12.8502 12.08 12.7202 12.54 12.3702 12.74L7.87022 15.34C7.76022 15.41 7.63023 15.45 7.50023 15.45Z" fill="black"/>
<path d="M16.5002 20.6399C16.3702 20.6399 16.2402 20.6099 16.1202 20.5399L11.6202 17.9399C11.3902 17.8099 11.2402 17.5599 11.2402 17.2899V15.6399C11.2402 15.2299 11.5802 14.8899 11.9902 14.8899C12.4002 14.8899 12.7402 15.2299 12.7402 15.6399V16.8599L16.4902 19.0299L20.2402 16.8599V12.5299L16.4902 10.3599L12.3702 12.7399C12.0102 12.9499 11.5502 12.8199 11.3502 12.4699C11.1402 12.1099 11.2702 11.6499 11.6202 11.4499L16.1202 8.84994C16.3502 8.71994 16.6402 8.71994 16.8702 8.84994L21.3702 11.4499C21.6002 11.5799 21.7502 11.8299 21.7502 12.0999V17.2999C21.7502 17.5699 21.6102 17.8199 21.3702 17.9499L16.8702 20.5499C16.7602 20.6099 16.6302 20.6399 16.5002 20.6399Z" fill="black"/>
</svg>
