<svg width="24" height="24" viewBox="0 0 24 24" fill="none" xmlns="http://www.w3.org/2000/svg">
<path d="M17.6896 20.0899C17.1196 20.0899 16.5596 19.9399 16.0396 19.6399L7.7496 14.8599C6.7196 14.2599 6.09961 13.1899 6.09961 11.9999C6.09961 10.8099 6.7196 9.73994 7.7496 9.13994L16.0396 4.35991C17.0696 3.75991 18.2996 3.75991 19.3396 4.35991C20.3796 4.95991 20.9896 6.01993 20.9896 7.21993V16.7899C20.9896 17.9799 20.3696 19.0499 19.3396 19.6499C18.8196 19.9399 18.2596 20.0899 17.6896 20.0899ZM17.6896 5.40993C17.3796 5.40993 17.0696 5.48992 16.7896 5.64992L8.4996 10.4299C7.9396 10.7599 7.59961 11.3399 7.59961 11.9899C7.59961 12.6399 7.9396 13.2199 8.4996 13.5499L16.7896 18.3299C17.3496 18.6599 18.0296 18.6599 18.5896 18.3299C19.1496 17.9999 19.4896 17.4199 19.4896 16.7699V7.19994C19.4896 6.54994 19.1496 5.96994 18.5896 5.63994C18.3096 5.49994 17.9996 5.40993 17.6896 5.40993Z" fill="#292D32"/>
<path d="M3.75977 18.9301C3.34977 18.9301 3.00977 18.5901 3.00977 18.1801V5.82007C3.00977 5.41007 3.34977 5.07007 3.75977 5.07007C4.16977 5.07007 4.50977 5.41007 4.50977 5.82007V18.1801C4.50977 18.5901 4.16977 18.9301 3.75977 18.9301Z" fill="#292D32"/>
</svg>
