<svg width="24" height="24" viewBox="0 0 24 24" fill="none" xmlns="http://www.w3.org/2000/svg">
<path d="M12 22.7499C11.87 22.7499 11.75 22.7199 11.64 22.6599L2.64001 17.6599C2.40001 17.5299 2.25 17.2799 2.25 16.9999V6.99994C2.25 6.72994 2.40001 6.47993 2.64001 6.33993L11.64 1.33993C11.87 1.20993 12.14 1.20993 12.37 1.33993L21.37 6.33993C21.61 6.46993 21.76 6.71994 21.76 6.99994V11.9999C21.76 12.2499 21.64 12.4799 21.44 12.6199L18.43 14.7099L21.38 16.3499C21.62 16.4799 21.77 16.7299 21.77 17.0099V22.0099C21.77 22.2799 21.62 22.5299 21.38 22.6699C21.14 22.7999 20.85 22.7999 20.62 22.6499L16.98 20.3699L12.36 22.6799C12.23 22.7199 12.12 22.7499 12 22.7499ZM3.75 16.5599L12.02 21.1499L16.67 18.8299C16.9 18.7099 17.18 18.7299 17.4 18.8599L20.25 20.6399V17.4299L16.64 15.4199C16.41 15.2899 16.27 15.0599 16.26 14.7999C16.25 14.5399 16.37 14.2899 16.58 14.1499L20.26 11.5999V7.42993L12.01 2.84994L3.76001 7.42993V16.5599H3.75Z" fill="black"/>
<path d="M12 18.31C11.87 18.31 11.75 18.28 11.64 18.22L6.64001 15.44C6.40001 15.31 6.25 15.06 6.25 14.78V9.22C6.25 8.95 6.40001 8.69999 6.64001 8.55999L11.64 5.78C11.87 5.65 12.14 5.65 12.37 5.78L17.37 8.55999C17.61 8.68999 17.76 8.94 17.76 9.22V14.78C17.76 15.05 17.61 15.3 17.37 15.44L12.37 18.22C12.25 18.27 12.13 18.31 12 18.31ZM7.75 14.34L12 16.7L16.25 14.34V9.66999L12 7.3L7.75 9.66V14.34Z" fill="black"/>
<path d="M6.99978 9.98C6.87978 9.98 6.74979 9.95 6.63979 9.89L2.63979 7.66001C2.27979 7.46001 2.14975 7 2.34975 6.64C2.54975 6.28 2.99977 6.15001 3.36977 6.35001L7.36977 8.58C7.72977 8.78 7.85975 9.24001 7.65975 9.60001C7.50975 9.84001 7.25978 9.98 6.99978 9.98Z" fill="black"/>
<path d="M2.99998 17.75C2.73998 17.75 2.48 17.61 2.34 17.36C2.14 17 2.26998 16.54 2.62998 16.34L6.62998 14.11C6.99998 13.91 7.45 14.04 7.65 14.4C7.85 14.76 7.71996 15.22 7.35996 15.42L3.35996 17.65C3.24996 17.72 3.11998 17.75 2.99998 17.75Z" fill="black"/>
<path d="M17 9.97999C16.74 9.97999 16.48 9.83999 16.34 9.58999C16.14 9.22999 16.27 8.77001 16.63 8.57001L20.63 6.33999C21 6.13999 21.45 6.27 21.65 6.63C21.85 6.99 21.72 7.44999 21.36 7.64999L17.36 9.88C17.25 9.95 17.13 9.97999 17 9.97999Z" fill="black"/>
<path d="M12 6.75C11.59 6.75 11.25 6.41 11.25 6V2C11.25 1.59 11.59 1.25 12 1.25C12.41 1.25 12.75 1.59 12.75 2V6C12.75 6.41 12.41 6.75 12 6.75Z" fill="black"/>
<path d="M12 22.75C11.59 22.75 11.25 22.41 11.25 22V18C11.25 17.59 11.59 17.25 12 17.25C12.41 17.25 12.75 17.59 12.75 18V22C12.75 22.41 12.41 22.75 12 22.75Z" fill="black"/>
<path d="M17.75 15H16.25V20H17.75V15Z" fill="black"/>
</svg>
