<svg width="24" height="24" viewBox="0 0 24 24" fill="none" xmlns="http://www.w3.org/2000/svg">
<path d="M9.67999 16.78H8.19C7.12 16.78 6.25 15.91 6.25 14.84V12.1699C6.25 11.7599 6.59 11.4199 7 11.4199H9.67999C10.77 11.4199 11.62 12.2699 11.62 13.3599V14.8499C11.61 15.9199 10.76 16.78 9.67999 16.78ZM7.75 12.9099V14.83C7.75 15.07 7.95 15.27 8.19 15.27H9.67999C9.99999 15.27 10.12 15.03 10.12 14.83V13.34C10.12 13.14 10.01 12.9 9.67999 12.9H7.75V12.9099Z" fill="#292D32"/>
<path d="M7 12.91C6.59 12.91 6.25 12.57 6.25 12.16C6.25 9.07998 6.92001 8.39002 8.71001 7.33002C9.06001 7.12002 9.53001 7.24003 9.74001 7.59003C9.95001 7.94003 9.83 8.41 9.48 8.62C8.12 9.43 7.75 9.63998 7.75 12.16C7.75 12.58 7.41 12.91 7 12.91Z" fill="#292D32"/>
<path d="M15.8089 16.78H14.3189C13.2489 16.78 12.3789 15.91 12.3789 14.84V12.1699C12.3789 11.7599 12.7189 11.4199 13.1289 11.4199H15.8089C16.8989 11.4199 17.7489 12.2699 17.7489 13.3599V14.8499C17.7489 15.9199 16.8989 16.78 15.8089 16.78ZM13.8889 12.9099V14.83C13.8889 15.07 14.0889 15.27 14.3289 15.27H15.8189C16.1389 15.27 16.2589 15.03 16.2589 14.83V13.34C16.2589 13.14 16.1489 12.9 15.8189 12.9H13.8889V12.9099Z" fill="#292D32"/>
<path d="M13.1406 12.91C12.7306 12.91 12.3906 12.57 12.3906 12.16C12.3906 9.07998 13.0606 8.39002 14.8506 7.33002C15.2106 7.12002 15.6706 7.24003 15.8806 7.59003C16.0906 7.95003 15.9706 8.41 15.6206 8.62C14.2606 9.43 13.8906 9.63998 13.8906 12.16C13.8906 12.58 13.5506 12.91 13.1406 12.91Z" fill="#292D32"/>
<path d="M12 22.75C6.07 22.75 1.25 17.93 1.25 12C1.25 6.07 6.07 1.25 12 1.25C17.93 1.25 22.75 6.07 22.75 12C22.75 17.93 17.93 22.75 12 22.75ZM12 2.75C6.9 2.75 2.75 6.9 2.75 12C2.75 17.1 6.9 21.25 12 21.25C17.1 21.25 21.25 17.1 21.25 12C21.25 6.9 17.1 2.75 12 2.75Z" fill="#292D32"/>
</svg>
