<svg width="24" height="24" viewBox="0 0 24 24" fill="none" xmlns="http://www.w3.org/2000/svg">
<path d="M16.9989 12.59H14.3189C13.2289 12.59 12.3789 11.74 12.3789 10.65V9.15997C12.3789 8.06997 13.2289 7.21997 14.3189 7.21997H15.8089C16.8789 7.21997 17.7489 8.08997 17.7489 9.15997V11.83C17.7489 12.25 17.4089 12.59 16.9989 12.59ZM14.3189 8.71997C13.9989 8.71997 13.8789 8.95997 13.8789 9.15997V10.65C13.8789 10.85 13.9889 11.09 14.3189 11.09H16.2489V9.16998C16.2489 8.92998 16.0489 8.72998 15.8089 8.72998H14.3189V8.71997Z" fill="#292D32"/>
<path d="M14.91 16.7801C14.65 16.7801 14.4 16.65 14.26 16.41C14.05 16.05 14.17 15.5901 14.52 15.3801C15.88 14.5701 16.25 14.3601 16.25 11.8401C16.25 11.4301 16.59 11.0901 17 11.0901C17.41 11.0901 17.75 11.4301 17.75 11.8401C17.75 14.9201 17.08 15.61 15.29 16.67C15.17 16.74 15.04 16.7801 14.91 16.7801Z" fill="#292D32"/>
<path d="M10.8602 12.59H8.18022C7.09022 12.59 6.24023 11.74 6.24023 10.65V9.15997C6.24023 8.06997 7.09022 7.21997 8.18022 7.21997H9.67023C10.7402 7.21997 11.6102 8.08997 11.6102 9.15997V11.83C11.6102 12.25 11.2802 12.59 10.8602 12.59ZM8.19023 8.71997C7.87023 8.71997 7.75023 8.95997 7.75023 9.15997V10.65C7.75023 10.85 7.86023 11.09 8.19023 11.09H10.1202V9.16998C10.1202 8.92998 9.92022 8.72998 9.68022 8.72998H8.19023V8.71997Z" fill="#292D32"/>
<path d="M8.76934 16.7801C8.50934 16.7801 8.25933 16.65 8.11933 16.41C7.90933 16.05 8.02934 15.5901 8.37934 15.3801C9.73934 14.5701 10.1093 14.3601 10.1093 11.8401C10.1093 11.4301 10.4493 11.0901 10.8593 11.0901C11.2693 11.0901 11.6093 11.4301 11.6093 11.8401C11.6093 14.9201 10.9393 15.61 9.14933 16.67C9.02933 16.74 8.89934 16.7801 8.76934 16.7801Z" fill="#292D32"/>
<path d="M12 22.75C6.07 22.75 1.25 17.93 1.25 12C1.25 6.07 6.07 1.25 12 1.25C17.93 1.25 22.75 6.07 22.75 12C22.75 17.93 17.93 22.75 12 22.75ZM12 2.75C6.9 2.75 2.75 6.9 2.75 12C2.75 17.1 6.9 21.25 12 21.25C17.1 21.25 21.25 17.1 21.25 12C21.25 6.9 17.1 2.75 12 2.75Z" fill="#292D32"/>
</svg>
