<svg width="24" height="24" viewBox="0 0 24 24" fill="none" xmlns="http://www.w3.org/2000/svg">
<path d="M7.79999 21.47H4.58002C2.75002 21.47 1.25 19.9801 1.25 18.1401V12.3401C1.25 11.9301 1.59 11.5901 2 11.5901H7.79999C9.69999 11.5901 11.13 13.02 11.13 14.92V18.1401C11.12 20.0401 9.68999 21.47 7.79999 21.47ZM2.75 13.1V18.1501C2.75 19.1601 3.57002 19.98 4.58002 19.98H7.79999C8.85999 19.98 9.63 19.2101 9.63 18.1501V14.9301C9.63 13.8701 8.85999 13.1 7.79999 13.1H2.75V13.1Z" fill="#292D32"/>
<path d="M2 13.1C1.59 13.1 1.25 12.76 1.25 12.35C1.25 6.10004 2.52002 4.79008 6.15002 2.64008C6.51002 2.43008 6.96999 2.55009 7.17999 2.90009C7.38999 3.26009 7.26998 3.72006 6.91998 3.93006C3.67998 5.85006 2.75 6.65004 2.75 12.35C2.75 12.76 2.41 13.1 2 13.1Z" fill="#292D32"/>
<path d="M19.4211 21.47H16.2011C14.3711 21.47 12.8711 19.9801 12.8711 18.1401V12.3401C12.8711 11.9301 13.2111 11.5901 13.6211 11.5901H19.4211C21.3211 11.5901 22.7511 13.02 22.7511 14.92V18.1401C22.7511 20.0401 21.3211 21.47 19.4211 21.47ZM14.3811 13.1V18.1501C14.3811 19.1601 15.2011 19.98 16.2111 19.98H19.4311C20.4911 19.98 21.2611 19.2101 21.2611 18.1501V14.9301C21.2611 13.8701 20.4911 13.1 19.4311 13.1H14.3811V13.1Z" fill="#292D32"/>
<path d="M13.6289 13.1C13.2189 13.1 12.8789 12.76 12.8789 12.35C12.8789 6.10004 14.1489 4.79008 17.7789 2.64008C18.1389 2.43008 18.5989 2.55009 18.8089 2.90009C19.0189 3.26009 18.8989 3.72006 18.5489 3.93006C15.3089 5.85006 14.3789 6.65004 14.3789 12.35C14.3789 12.76 14.0389 13.1 13.6289 13.1Z" fill="#292D32"/>
</svg>
