<svg width="24" height="24" viewBox="0 0 24 24" fill="none" xmlns="http://www.w3.org/2000/svg">
<path d="M22.0011 12.4H16.2011C14.3011 12.4 12.8711 10.97 12.8711 9.07001V5.84998C12.8711 3.94998 14.3011 2.52002 16.2011 2.52002H19.4211C21.2511 2.52002 22.7511 4.00998 22.7511 5.84998V11.65C22.7511 12.07 22.4111 12.4 22.0011 12.4ZM16.2011 4.03003C15.1411 4.03003 14.3711 4.79999 14.3711 5.85999V9.08002C14.3711 10.14 15.1411 10.91 16.2011 10.91H21.2511V5.85999C21.2511 4.84999 20.4311 4.03003 19.4211 4.03003H16.2011V4.03003Z" fill="#292D32"/>
<path d="M17.4705 21.47C17.2105 21.47 16.9605 21.34 16.8205 21.1C16.6105 20.74 16.7305 20.28 17.0805 20.07C20.3105 18.15 21.2505 17.35 21.2505 11.65C21.2505 11.24 21.5905 10.9 22.0005 10.9C22.4105 10.9 22.7505 11.24 22.7505 11.65C22.7505 17.9 21.4805 19.21 17.8505 21.36C17.7305 21.44 17.6005 21.47 17.4705 21.47Z" fill="#292D32"/>
<path d="M10.3702 12.4H4.57023C2.67023 12.4 1.24023 10.97 1.24023 9.07001V5.84998C1.24023 3.94998 2.67023 2.52002 4.57023 2.52002H7.80023C9.63023 2.52002 11.1302 4.00998 11.1302 5.84998V11.65C11.1202 12.07 10.7902 12.4 10.3702 12.4ZM4.58023 4.03003C3.52023 4.03003 2.75023 4.79999 2.75023 5.85999V9.08002C2.75023 10.14 3.52023 10.91 4.58023 10.91H9.63023V5.85999C9.63023 4.84999 8.81023 4.03003 7.80023 4.03003H4.58023V4.03003Z" fill="#292D32"/>
<path d="M5.83964 21.47C5.57964 21.47 5.32964 21.34 5.18964 21.1C4.97964 20.74 5.09964 20.28 5.44964 20.07C8.67964 18.15 9.61964 17.35 9.61964 11.65C9.61964 11.24 9.95964 10.9 10.3696 10.9C10.7796 10.9 11.1196 11.24 11.1196 11.65C11.1196 17.9 9.84964 19.21 6.21964 21.36C6.09964 21.44 5.96964 21.47 5.83964 21.47Z" fill="#292D32"/>
</svg>
