<svg width="24" height="24" viewBox="0 0 24 24" fill="none" xmlns="http://www.w3.org/2000/svg">
<path d="M12 22.75C6.07 22.75 1.25 17.93 1.25 12C1.25 10.12 1.73999 8.27001 2.67999 6.64001C2.88999 6.28001 3.34001 6.15999 3.70001 6.35999L12.37 11.34C12.73 11.55 12.85 12 12.65 12.36C12.44 12.72 11.99 12.84 11.63 12.64L3.63 8.04999C3.05 9.27999 2.75 10.62 2.75 11.99C2.75 17.09 6.9 21.24 12 21.24C17.1 21.24 21.25 17.09 21.25 11.99C21.25 6.88999 17.1 2.73999 12 2.73999C9.98 2.73999 8.06001 3.38 6.45001 4.59C6.12001 4.84 5.64999 4.77 5.39999 4.44C5.14999 4.11 5.21999 3.64001 5.54999 3.39001C7.41999 1.99001 9.65 1.23999 12 1.23999C17.93 1.23999 22.75 6.05999 22.75 11.99C22.75 17.92 17.93 22.75 12 22.75Z" fill="#292D32"/>
</svg>
