<svg width="24" height="24" viewBox="0 0 24 24" fill="none" xmlns="http://www.w3.org/2000/svg">
<path d="M12 14.75C10.48 14.75 9.25 13.52 9.25 12C9.25 10.48 10.48 9.25 12 9.25C13.52 9.25 14.75 10.48 14.75 12C14.75 13.52 13.52 14.75 12 14.75ZM12 10.75C11.31 10.75 10.75 11.31 10.75 12C10.75 12.69 11.31 13.25 12 13.25C12.69 13.25 13.25 12.69 13.25 12C13.25 11.31 12.69 10.75 12 10.75Z" fill="#292D32"/>
<path d="M20.0003 18.75C19.8403 18.75 19.6903 18.7 19.5503 18.6C19.2203 18.35 19.1503 17.88 19.4003 17.55C20.6103 15.94 21.2503 14.02 21.2503 12C21.2503 9.98004 20.6103 8.06005 19.4003 6.45005C19.1503 6.12005 19.2203 5.65003 19.5503 5.40003C19.8803 5.15003 20.3503 5.22002 20.6003 5.55002C22.0103 7.42002 22.7503 9.65004 22.7503 12C22.7503 14.35 22.0103 16.58 20.6003 18.45C20.4503 18.65 20.2303 18.75 20.0003 18.75Z" fill="#292D32"/>
<path d="M4 18.75C3.77 18.75 3.54999 18.65 3.39999 18.45C1.98999 16.58 1.25 14.35 1.25 12C1.25 9.65004 1.98999 7.42002 3.39999 5.55002C3.64999 5.22002 4.12001 5.15003 4.45001 5.40003C4.78001 5.65003 4.85001 6.12005 4.60001 6.45005C3.39001 8.06005 2.75 9.98004 2.75 12C2.75 14.02 3.39001 15.94 4.60001 17.55C4.85001 17.88 4.78001 18.35 4.45001 18.6C4.32001 18.7 4.16 18.75 4 18.75Z" fill="#292D32"/>
<path d="M16.801 16.35C16.641 16.35 16.4911 16.3 16.3511 16.2C16.0211 15.95 15.9511 15.48 16.2011 15.15C16.8911 14.24 17.251 13.15 17.251 12C17.251 10.85 16.8911 9.76 16.2011 8.85C15.9511 8.52 16.0211 8.04998 16.3511 7.79998C16.6811 7.54998 17.151 7.62001 17.401 7.95001C18.281 9.13001 18.751 10.53 18.751 12C18.751 13.47 18.281 14.88 17.401 16.05C17.251 16.25 17.031 16.35 16.801 16.35Z" fill="#292D32"/>
<path d="M7.20001 16.35C6.97001 16.35 6.75001 16.25 6.60001 16.05C5.72001 14.87 5.25 13.47 5.25 12C5.25 10.53 5.72001 9.12001 6.60001 7.95001C6.85001 7.62001 7.31999 7.54998 7.64999 7.79998C7.97999 8.04998 8.04999 8.52 7.79999 8.85C7.10999 9.76 6.75 10.85 6.75 12C6.75 13.15 7.10999 14.24 7.79999 15.15C8.04999 15.48 7.97999 15.95 7.64999 16.2C7.51999 16.3 7.36001 16.35 7.20001 16.35Z" fill="#292D32"/>
</svg>
