<svg width="24" height="24" viewBox="0 0 24 24" fill="none" xmlns="http://www.w3.org/2000/svg">
<path d="M12 22.75C6.07 22.75 1.25 17.93 1.25 12C1.25 10.12 1.73999 8.27001 2.67999 6.64001C2.88999 6.28001 3.34001 6.15999 3.70001 6.35999L12.37 11.34C12.73 11.55 12.85 12 12.65 12.36C12.44 12.72 11.99 12.84 11.63 12.64L3.63 8.04999C3.05 9.27999 2.75 10.62 2.75 11.99C2.75 17.09 6.9 21.24 12 21.24C17.1 21.24 21.25 17.09 21.25 11.99C21.25 6.88999 17.1 2.73999 12 2.73999C9.98 2.73999 8.06001 3.38 6.45001 4.59C6.12001 4.84 5.64999 4.77 5.39999 4.44C5.14999 4.11 5.21999 3.64001 5.54999 3.39001C7.41999 1.99001 9.65 1.23999 12 1.23999C17.93 1.23999 22.75 6.05999 22.75 11.99C22.75 17.92 17.93 22.75 12 22.75Z" fill="#292D32"/>
<path d="M12 18.75C8.28 18.75 5.25 15.72 5.25 12C5.25 10.8 5.56999 9.60999 6.17999 8.57999C6.38999 8.21999 6.84999 8.1 7.20999 8.31C7.56999 8.52 7.69001 8.98 7.48001 9.34C7.01001 10.14 6.76001 11.06 6.76001 12C6.76001 14.9 9.12001 17.25 12.01 17.25C14.9 17.25 17.26 14.9 17.26 12C17.26 9.1 14.9 6.75 12.01 6.75C11.23 6.75 10.48 6.92 9.76999 7.25C9.38999 7.42 8.94999 7.26001 8.76999 6.89001C8.58999 6.51001 8.75 6.07001 9.13 5.89001C10.03 5.47001 11 5.25 12 5.25C15.72 5.25 18.75 8.28 18.75 12C18.75 15.72 15.72 18.75 12 18.75Z" fill="#292D32"/>
</svg>
