<svg width="24" height="24" viewBox="0 0 24 24" fill="none" xmlns="http://www.w3.org/2000/svg">
<path d="M15 22.75H9C3.57 22.75 1.25 20.43 1.25 15V9C1.25 3.57 3.57 1.25 9 1.25H15C20.43 1.25 22.75 3.57 22.75 9V15C22.75 20.43 20.43 22.75 15 22.75ZM9 2.75C4.39 2.75 2.75 4.39 2.75 9V15C2.75 19.61 4.39 21.25 9 21.25H15C19.61 21.25 21.25 19.61 21.25 15V9C21.25 4.39 19.61 2.75 15 2.75H9Z" fill="#292D32"/>
<path d="M14.8298 14.09H10.5898C10.1798 14.09 9.83984 13.75 9.83984 13.34C9.83984 12.93 10.1798 12.59 10.5898 12.59H14.0798V9.09998C14.0798 8.68998 14.4198 8.34998 14.8298 8.34998C15.2398 8.34998 15.5798 8.68998 15.5798 9.09998V13.34C15.5798 13.76 15.2398 14.09 14.8298 14.09Z" fill="#292D32"/>
<path d="M14.8294 14.09C14.6394 14.09 14.4494 14.02 14.2994 13.87L8.63938 8.21001C8.34938 7.92001 8.34938 7.44 8.63938 7.15C8.92937 6.86 9.40937 6.86 9.69937 7.15L15.3594 12.81C15.6494 13.1 15.6494 13.58 15.3594 13.87C15.2094 14.02 15.0194 14.09 14.8294 14.09Z" fill="#292D32"/>
<path d="M12.0004 18.23C9.89044 18.23 7.77043 17.89 5.76043 17.22C5.37043 17.09 5.16043 16.66 5.29043 16.27C5.42043 15.88 5.85045 15.66 6.24045 15.8C9.96045 17.04 14.0504 17.04 17.7704 15.8C18.1604 15.67 18.5904 15.88 18.7204 16.27C18.8504 16.66 18.6404 17.09 18.2504 17.22C16.2304 17.9 14.1104 18.23 12.0004 18.23Z" fill="#292D32"/>
</svg>
