<svg width="24" height="24" viewBox="0 0 24 24" fill="none" xmlns="http://www.w3.org/2000/svg">
<path d="M15 22.75H9C3.57 22.75 1.25 20.43 1.25 15V9C1.25 3.57 3.57 1.25 9 1.25H15C20.43 1.25 22.75 3.57 22.75 9V15C22.75 20.43 20.43 22.75 15 22.75ZM9 2.75C4.39 2.75 2.75 4.39 2.75 9V15C2.75 19.61 4.39 21.25 9 21.25H15C19.61 21.25 21.25 19.61 21.25 15V9C21.25 4.39 19.61 2.75 15 2.75H9Z" fill="#292D32"/>
<path d="M12 18.63C11.44 18.63 10.91 18.35 10.54 17.86L9.94 17.06C9.87 16.97 9.79001 16.92 9.70001 16.91C9.61001 16.91 9.53001 16.95 9.45001 17.03L8.89999 16.52L9.45001 17.03C8.48001 18.07 7.68999 17.97 7.29999 17.82C6.90999 17.66 6.25 17.18 6.25 15.7V9.06999C6.25 6.28999 7.14 5.35999 9.78 5.35999H14.23C16.87 5.35999 17.76 6.29999 17.76 9.06999V15.7C17.76 17.18 17.1 17.67 16.71 17.82C16.33 17.97 15.54 18.07 14.56 17.03C14.48 16.95 14.39 16.91 14.3 16.91C14.21 16.91 14.13 16.97 14.06 17.06L13.47 17.85C13.09 18.35 12.56 18.63 12 18.63ZM9.69 15.41C9.72 15.41 9.75 15.41 9.78 15.41C10.31 15.44 10.8 15.71 11.13 16.16L11.73 16.96C11.9 17.18 12.09 17.18 12.25 16.96L12.84 16.17C13.17 15.72 13.67 15.45 14.2 15.42C14.72 15.38 15.25 15.61 15.63 16.02C15.91 16.32 16.09 16.4 16.16 16.42C16.15 16.37 16.24 16.17 16.24 15.71V9.07999C16.24 7.02999 15.93 6.86998 14.21 6.86998H9.76001C8.04001 6.86998 7.73001 7.02999 7.73001 9.07999V15.71C7.73001 16.17 7.82001 16.37 7.85001 16.43C7.88001 16.39 8.05999 16.31 8.32999 16.01C8.32999 16 8.34001 16 8.35001 15.99C8.72001 15.63 9.2 15.41 9.69 15.41Z" fill="#292D32"/>
</svg>
