<svg width="24" height="24" viewBox="0 0 24 24" fill="none" xmlns="http://www.w3.org/2000/svg">
<path d="M11.42 19.25H8.69C6 19.25 4.75 18 4.75 15.31V12.58C4.75 9.90002 6 8.65002 8.69 8.65002H11.42C14.1 8.65002 15.36 9.90002 15.36 12.59V15.32C15.35 18 14.1 19.25 11.42 19.25ZM8.69 10.15C6.82 10.15 6.25 10.72 6.25 12.59V15.32C6.25 17.19 6.82 17.76 8.69 17.76H11.42C13.29 17.76 13.86 17.19 13.86 15.32V12.59C13.86 10.72 13.29 10.15 11.42 10.15H8.69V10.15Z" fill="#292D32"/>
<path d="M15.3104 15.35H14.6004C14.1904 15.35 13.8504 15.01 13.8504 14.6V12.58C13.8504 10.71 13.2804 10.14 11.4104 10.14H9.40039C8.99039 10.14 8.65039 9.8 8.65039 9.39V8.69C8.65039 6.01 9.90039 4.75 12.5904 4.75H15.3204C18.0004 4.75 19.2604 6 19.2604 8.69V11.42C19.2504 14.1 18.0004 15.35 15.3104 15.35ZM10.1504 8.65H11.4204C14.1004 8.65 15.3604 9.9 15.3604 12.59V13.86C17.2004 13.85 17.7604 13.28 17.7604 11.42V8.69C17.7604 6.82 17.1904 6.25 15.3204 6.25H12.5904C10.7304 6.25 10.1604 6.81 10.1504 8.65Z" fill="#292D32"/>
<path d="M15.0002 22.75C14.7302 22.75 14.4802 22.6 14.3502 22.37C14.2202 22.13 14.2202 21.85 14.3602 21.61L15.4102 19.86C15.6202 19.5 16.0802 19.39 16.4402 19.6C16.8002 19.81 16.9102 20.27 16.7002 20.63L16.4302 21.08C19.1902 20.43 21.2602 17.95 21.2602 14.99C21.2602 14.58 21.6002 14.24 22.0102 14.24C22.4202 14.24 22.7602 14.58 22.7602 14.99C22.7502 19.27 19.2702 22.75 15.0002 22.75Z" fill="#292D32"/>
<path d="M2 9.75C1.59 9.75 1.25 9.41 1.25 9C1.25 4.73 4.73 1.25 9 1.25C9.27 1.25 9.52 1.4 9.65 1.63C9.78 1.87 9.78 2.15 9.64 2.39L8.59 4.14C8.38 4.49 7.92 4.61 7.56 4.39C7.21 4.18 7.09 3.72 7.31 3.36L7.58 2.91C4.81 3.56 2.75 6.04 2.75 9C2.75 9.41 2.41 9.75 2 9.75Z" fill="#292D32"/>
</svg>
