<svg width="24" height="24" viewBox="0 0 24 24" fill="none" xmlns="http://www.w3.org/2000/svg">
<path d="M16.8691 19.0601H8.86914C5.69914 19.0601 3.11914 16.4801 3.11914 13.3101C3.11914 10.1401 5.69914 7.56006 8.86914 7.56006H19.8691C20.2791 7.56006 20.6191 7.90006 20.6191 8.31006C20.6191 8.72006 20.2791 9.06006 19.8691 9.06006H8.86914C6.52914 9.06006 4.61914 10.9701 4.61914 13.3101C4.61914 15.6501 6.52914 17.5601 8.86914 17.5601H16.8691C17.2791 17.5601 17.6191 17.9001 17.6191 18.3101C17.6191 18.7201 17.2891 19.0601 16.8691 19.0601Z" fill="#292D32"/>
<path d="M17.5698 11.56C17.3798 11.56 17.1898 11.49 17.0398 11.34C16.7498 11.05 16.7498 10.57 17.0398 10.28L19.0698 8.25001L17.0398 6.22C16.7498 5.93 16.7498 5.45 17.0398 5.16C17.3298 4.87 17.8098 4.87 18.0998 5.16L20.6598 7.72C20.9498 8.01 20.9498 8.49 20.6598 8.78L18.0998 11.34C17.9498 11.49 17.7598 11.56 17.5698 11.56Z" fill="#292D32"/>
</svg>
