<svg width="24" height="24" viewBox="0 0 24 24" fill="none" xmlns="http://www.w3.org/2000/svg">
<path d="M15 22.75H9C3.57 22.75 1.25 20.43 1.25 15V9C1.25 3.57 3.57 1.25 9 1.25H15C20.43 1.25 22.75 3.57 22.75 9V15C22.75 20.43 20.43 22.75 15 22.75ZM9 2.75C4.39 2.75 2.75 4.39 2.75 9V15C2.75 19.61 4.39 21.25 9 21.25H15C19.61 21.25 21.25 19.61 21.25 15V9C21.25 4.39 19.61 2.75 15 2.75H9Z" fill="#292D32"/>
<path d="M12 18.01C8.83 18.01 6.25 15.43 6.25 12.26C6.25 9.09001 8.83 6.51001 12 6.51001C12.64 6.51001 13.28 6.60001 13.89 6.79001C14.29 6.91001 14.51 7.33001 14.39 7.73001C14.27 8.13001 13.85 8.35001 13.45 8.23001C12.99 8.09001 12.5 8.02 12 8.02C9.66 8.02 7.75 9.93 7.75 12.27C7.75 14.61 9.66 16.52 12 16.52C14.34 16.52 16.25 14.61 16.25 12.27C16.25 11.42 16 10.61 15.54 9.91001C15.31 9.57001 15.4 9.10001 15.75 8.87001C16.09 8.64001 16.56 8.73001 16.79 9.08001C17.42 10.03 17.76 11.13 17.76 12.27C17.75 15.44 15.17 18.01 12 18.01Z" fill="#292D32"/>
<path d="M14.3811 8.39996C14.1711 8.39996 13.9611 8.30996 13.8111 8.13996L12.1411 6.22996C11.8711 5.91996 11.9012 5.43995 12.2112 5.16995C12.5212 4.89995 13.0011 4.92995 13.2711 5.23995L14.9411 7.14996C15.2111 7.45996 15.1811 7.93996 14.8711 8.20996C14.7311 8.33996 14.5611 8.39996 14.3811 8.39996Z" fill="#292D32"/>
<path d="M12.4399 9.81998C12.2099 9.81998 11.9799 9.70999 11.8299 9.50999C11.5899 9.17999 11.6599 8.70998 11.9899 8.45998L13.9299 7.03998C14.2599 6.79998 14.7299 6.86998 14.9799 7.19998C15.2199 7.52998 15.1499 7.99998 14.8199 8.24998L12.8799 9.66998C12.7499 9.76998 12.5899 9.81998 12.4399 9.81998Z" fill="#292D32"/>
</svg>
