<svg width="24" height="24" viewBox="0 0 24 24" fill="none" xmlns="http://www.w3.org/2000/svg">
<path d="M16.5 12.47C16.09 12.47 15.75 12.13 15.75 11.72V9.95001C15.75 9.48001 15.37 9.09998 14.9 9.09998H7.5C7.09 9.09998 6.75 8.75998 6.75 8.34998C6.75 7.93998 7.09 7.59998 7.5 7.59998H14.9C16.2 7.59998 17.25 8.66001 17.25 9.95001V11.72C17.25 12.13 16.91 12.47 16.5 12.47Z" fill="#292D32"/>
<path d="M9.18945 10.78C8.99945 10.78 8.80946 10.71 8.65946 10.56L6.96945 8.86997C6.67945 8.57997 6.67945 8.09997 6.96945 7.80997L8.65946 6.11997C8.94946 5.82997 9.42945 5.82997 9.71945 6.11997C10.0095 6.40997 10.0095 6.88996 9.71945 7.17996L8.55945 8.34L9.71945 9.49997C10.0095 9.78997 10.0095 10.27 9.71945 10.56C9.56945 10.71 9.37945 10.78 9.18945 10.78Z" fill="#292D32"/>
<path d="M16.5 16.41H9.10001C7.80001 16.41 6.75 15.3501 6.75 14.0601V12.29C6.75 11.88 7.09 11.54 7.5 11.54C7.91 11.54 8.25 11.88 8.25 12.29V14.0601C8.25 14.5301 8.63001 14.91 9.10001 14.91H16.5C16.91 14.91 17.25 15.25 17.25 15.66C17.25 16.07 16.91 16.41 16.5 16.41Z" fill="#292D32"/>
<path d="M14.81 18.0899C14.62 18.0899 14.43 18.0199 14.28 17.8699C13.99 17.5799 13.99 17.0999 14.28 16.8099L15.44 15.6499L14.28 14.4899C13.99 14.1999 13.99 13.7199 14.28 13.4299C14.57 13.1399 15.05 13.1399 15.34 13.4299L17.03 15.1199C17.32 15.4099 17.32 15.8899 17.03 16.1799L15.34 17.8699C15.2 18.0199 15 18.0899 14.81 18.0899Z" fill="#292D32"/>
<path d="M12 22.75C6.07 22.75 1.25 17.93 1.25 12C1.25 6.07 6.07 1.25 12 1.25C17.93 1.25 22.75 6.07 22.75 12C22.75 17.93 17.93 22.75 12 22.75ZM12 2.75C6.9 2.75 2.75 6.9 2.75 12C2.75 17.1 6.9 21.25 12 21.25C17.1 21.25 21.25 17.1 21.25 12C21.25 6.9 17.1 2.75 12 2.75Z" fill="#292D32"/>
</svg>
