<svg width="24" height="24" viewBox="0 0 24 24" fill="none" xmlns="http://www.w3.org/2000/svg">
<path d="M12.0001 22.75C6.80008 22.75 2.58008 18.52 2.58008 13.33C2.58008 11.46 3.13008 9.65001 4.17008 8.09001C4.40008 7.75001 4.87008 7.65001 5.21008 7.88001C5.55008 8.11001 5.65008 8.58001 5.42008 8.92001C4.55008 10.22 4.09008 11.75 4.09008 13.32C4.09008 17.69 7.64008 21.24 12.0101 21.24C16.3801 21.24 19.9301 17.69 19.9301 13.32C19.9301 8.95001 16.3701 5.40001 12.0001 5.40001C11.0801 5.40001 10.1801 5.53001 9.33008 5.79001C8.93008 5.91001 8.51008 5.69001 8.39008 5.29001C8.27008 4.89001 8.49008 4.47001 8.89008 4.35001C9.89008 4.05001 10.9301 3.89001 12.0001 3.89001C17.2001 3.89001 21.4201 8.12001 21.4201 13.31C21.4201 18.5 17.2001 22.75 12.0001 22.75Z" fill="#292D32"/>
<path d="M7.87036 6.07C7.70036 6.07 7.52036 6.01 7.38036 5.89C7.06036 5.61 7.03036 5.14 7.30036 4.83L10.1904 1.51C10.4604 1.2 10.9404 1.16 11.2504 1.44C11.5604 1.71 11.5904 2.19 11.3204 2.5L8.43036 5.81C8.28036 5.98 8.07036 6.07 7.87036 6.07Z" fill="#292D32"/>
<path d="M11.2396 8.53C11.0896 8.53 10.9296 8.48 10.7996 8.39L7.41959 5.92C7.08959 5.68 7.01959 5.21 7.25959 4.88C7.49959 4.54 7.96959 4.47 8.30959 4.71L11.6796 7.17C12.0096 7.41 12.0896 7.88 11.8396 8.22C11.6996 8.43 11.4696 8.53 11.2396 8.53Z" fill="#292D32"/>
</svg>
