<svg width="24" height="24" viewBox="0 0 24 24" fill="none" xmlns="http://www.w3.org/2000/svg">
<path d="M5.46967 10.75C4.75967 10.75 4.03967 10.49 3.48967 9.96C1.64967 8.21 0.909667 6.3 1.33967 4.43C1.84967 2.23 3.77967 1.25 5.46967 1.25C7.15967 1.25 9.09967 2.24 9.59967 4.43C10.0297 6.3 9.27967 8.21 7.44967 9.96C6.89967 10.49 6.18967 10.75 5.46967 10.75ZM2.79967 4.77C2.41967 6.44 3.52967 7.92 4.52967 8.87C5.05967 9.38 5.88967 9.37 6.41967 8.87C7.41967 7.92 8.52967 6.44 8.13967 4.76C7.79967 3.28 6.48967 2.75 5.47967 2.75C4.45967 2.75 3.14967 3.28 2.79967 4.77Z" fill="#292D32"/>
<path d="M5.50977 6.19995C4.95977 6.19995 4.50977 5.74995 4.50977 5.19995C4.50977 4.64995 4.94977 4.19995 5.50977 4.19995H5.51977C6.06977 4.19995 6.51977 4.64995 6.51977 5.19995C6.51977 5.74995 6.06977 6.19995 5.50977 6.19995Z" fill="#292D32"/>
<path d="M18.4894 22.75C17.7794 22.75 17.0594 22.49 16.4994 21.96C14.6494 20.21 13.8994 18.3 14.3394 16.42C14.8494 14.23 16.7894 13.24 18.4894 13.24C20.1894 13.24 22.1294 14.23 22.6394 16.42C23.0694 18.29 22.3194 20.21 20.4694 21.95C19.9194 22.49 19.2094 22.75 18.4894 22.75ZM18.4894 14.75C17.4694 14.75 16.1494 15.28 15.7994 16.77C15.4094 18.44 16.5294 19.93 17.5294 20.88C18.0594 21.39 18.8994 21.39 19.4394 20.88C20.4394 19.93 21.5594 18.45 21.1694 16.78C20.8394 15.28 19.5194 14.75 18.4894 14.75Z" fill="#292D32"/>
<path d="M18.5293 18.2C17.9793 18.2 17.5293 17.75 17.5293 17.2C17.5293 16.65 17.9693 16.2 18.5293 16.2H18.5393C19.0893 16.2 19.5393 16.65 19.5393 17.2C19.5393 17.75 19.0793 18.2 18.5293 18.2Z" fill="#292D32"/>
<path d="M11.9995 19.75H9.31945C8.15945 19.75 7.14945 19.05 6.74945 17.97C6.33945 16.89 6.63945 15.7 7.50945 14.93L15.4995 7.94C15.9795 7.52 15.9895 6.95 15.8495 6.56C15.6995 6.17 15.3195 5.75 14.6795 5.75H11.9995C11.5895 5.75 11.2495 5.41 11.2495 5C11.2495 4.59 11.5895 4.25 11.9995 4.25H14.6795C15.8395 4.25 16.8495 4.95 17.2495 6.03C17.6595 7.11 17.3595 8.3 16.4895 9.07L8.49945 16.06C8.01945 16.48 8.00945 17.05 8.14945 17.44C8.29945 17.83 8.67945 18.25 9.31945 18.25H11.9995C12.4095 18.25 12.7495 18.59 12.7495 19C12.7495 19.41 12.4095 19.75 11.9995 19.75Z" fill="#292D32"/>
<path d="M11.9995 19.75H9.31945C8.15945 19.75 7.14945 19.05 6.74945 17.97C6.33945 16.89 6.63945 15.7 7.50945 14.93L15.4995 7.94C15.9795 7.52 15.9895 6.95 15.8495 6.56C15.6995 6.17 15.3195 5.75 14.6795 5.75H11.9995C11.5895 5.75 11.2495 5.41 11.2495 5C11.2495 4.59 11.5895 4.25 11.9995 4.25H14.6795C15.8395 4.25 16.8495 4.95 17.2495 6.03C17.6595 7.11 17.3595 8.3 16.4895 9.07L8.49945 16.06C8.01945 16.48 8.00945 17.05 8.14945 17.44C8.29945 17.83 8.67945 18.25 9.31945 18.25H11.9995C12.4095 18.25 12.7495 18.59 12.7495 19C12.7495 19.41 12.4095 19.75 11.9995 19.75Z" fill="#292D32"/>
</svg>
