<svg width="24" height="24" viewBox="0 0 24 24" fill="none" xmlns="http://www.w3.org/2000/svg">
<path d="M14.69 22.75C14.25 22.75 13.79 22.62 13.32 22.37L9.39001 20.18C9.20001 20.08 8.78998 20.08 8.59998 20.18L4.67999 22.37C3.82999 22.84 2.95999 22.88 2.29999 22.49C1.62999 22.1 1.25 21.32 1.25 20.36V9C1.25 6.87 2.97999 5.14001 5.10999 5.14001H12.89C15.02 5.14001 16.75 6.87 16.75 9V20.36C16.75 21.32 16.37 22.1 15.7 22.49C15.4 22.66 15.06 22.75 14.69 22.75ZM9 18.6C9.4 18.6 9.79 18.69 10.12 18.87L14.05 21.06C14.41 21.26 14.74 21.31 14.94 21.19C15.13 21.08 15.25 20.76 15.25 20.35V8.98999C15.25 7.68999 14.19 6.63 12.89 6.63H5.10999C3.80999 6.63 2.75 7.68999 2.75 8.98999V20.35C2.75 20.76 2.87 21.08 3.06 21.19C3.25 21.3 3.59001 21.25 3.95001 21.05L7.88 18.86C8.2 18.69 8.6 18.6 9 18.6Z" fill="#292D32"/>
<path d="M20.69 18.87C20.25 18.87 19.79 18.74 19.32 18.49L15.63 16.43C15.39 16.3 15.25 16.05 15.25 15.78V9C15.25 7.7 14.19 6.64001 12.89 6.64001H8C7.59 6.64001 7.25 6.30001 7.25 5.89001V5.12C7.25 2.99 8.97999 1.26001 11.11 1.26001H18.89C21.02 1.26001 22.75 2.99 22.75 5.12V16.48C22.75 17.44 22.37 18.22 21.7 18.61C21.4 18.78 21.06 18.87 20.69 18.87ZM16.75 15.33L20.05 17.18C20.41 17.38 20.74 17.43 20.94 17.31C21.13 17.2 21.25 16.88 21.25 16.47V5.10999C21.25 3.80999 20.19 2.75 18.89 2.75H11.11C9.80999 2.75 8.75 3.80999 8.75 5.10999V5.13H12.89C15.02 5.13 16.75 6.85999 16.75 8.98999V15.33V15.33Z" fill="#292D32"/>
<path d="M11 12.75H7C6.59 12.75 6.25 12.41 6.25 12C6.25 11.59 6.59 11.25 7 11.25H11C11.41 11.25 11.75 11.59 11.75 12C11.75 12.41 11.41 12.75 11 12.75Z" fill="#292D32"/>
</svg>
