<svg width="24" height="24" viewBox="0 0 24 24" fill="none" xmlns="http://www.w3.org/2000/svg">
<path d="M14.6902 22.75C14.2502 22.75 13.7902 22.62 13.3202 22.37L9.39023 20.18C9.20023 20.08 8.79023 20.08 8.60023 20.18L4.67023 22.37C3.82023 22.84 2.96023 22.88 2.29023 22.49C1.63023 22.1 1.24023 21.32 1.24023 20.36V9C1.24023 6.87 2.97023 5.14001 5.10023 5.14001H12.8802C15.0102 5.14001 16.7402 6.87 16.7402 9V20.36C16.7402 21.32 16.3602 22.1 15.6902 22.49C15.4002 22.66 15.0602 22.75 14.6902 22.75ZM9.00023 18.6C9.40023 18.6 9.79023 18.69 10.1202 18.87L14.0602 21.06C14.4202 21.26 14.7502 21.31 14.9502 21.19C15.1402 21.08 15.2602 20.76 15.2602 20.35V8.98999C15.2602 7.68999 14.2002 6.63 12.9002 6.63H5.11023C3.81023 6.63 2.75023 7.68999 2.75023 8.98999V20.35C2.75023 20.76 2.87023 21.08 3.06023 21.19C3.25023 21.3 3.59023 21.25 3.95023 21.05L7.88023 18.86C8.20023 18.69 8.60023 18.6 9.00023 18.6Z" fill="#292D32"/>
<path d="M7.5893 14.16C7.3993 14.16 7.2093 14.09 7.0593 13.94C6.7693 13.65 6.7693 13.17 7.0593 12.88L9.8893 10.05C10.1793 9.76002 10.6593 9.76002 10.9493 10.05C11.2393 10.34 11.2393 10.82 10.9493 11.11L8.1193 13.94C7.9693 14.09 7.7793 14.16 7.5893 14.16Z" fill="#292D32"/>
<path d="M10.4095 14.16C10.2195 14.16 10.0295 14.09 9.87953 13.94L7.04953 11.11C6.75953 10.82 6.75953 10.34 7.04953 10.05C7.33953 9.76002 7.81953 9.76002 8.10953 10.05L10.9395 12.88C11.2295 13.17 11.2295 13.65 10.9395 13.94C10.7995 14.09 10.6095 14.16 10.4095 14.16Z" fill="#292D32"/>
<path d="M20.69 18.87C20.25 18.87 19.79 18.74 19.32 18.49L15.63 16.43C15.39 16.3 15.25 16.05 15.25 15.78V9C15.25 7.7 14.19 6.64001 12.89 6.64001H8C7.59 6.64001 7.25 6.30001 7.25 5.89001V5.12C7.25 2.99 8.98 1.26001 11.11 1.26001H18.89C21.02 1.26001 22.75 2.99 22.75 5.12V16.48C22.75 17.44 22.37 18.22 21.7 18.61C21.4 18.78 21.06 18.87 20.69 18.87ZM16.75 15.33L20.06 17.18C20.42 17.38 20.75 17.43 20.95 17.31C21.14 17.2 21.26 16.88 21.26 16.47V5.10999C21.26 3.80999 20.2 2.75 18.9 2.75H11.12C9.82 2.75 8.76 3.80999 8.76 5.10999V5.13H12.9C15.03 5.13 16.76 6.85999 16.76 8.98999V15.33H16.75Z" fill="#292D32"/>
</svg>
