<svg width="24" height="24" viewBox="0 0 24 24" fill="none" xmlns="http://www.w3.org/2000/svg">
<path d="M15 22.75H9C3.57 22.75 1.25 20.43 1.25 15V9C1.25 3.57 3.57 1.25 9 1.25H15C20.43 1.25 22.75 3.57 22.75 9V15C22.75 20.43 20.43 22.75 15 22.75ZM9 2.75C4.39 2.75 2.75 4.39 2.75 9V15C2.75 19.61 4.39 21.25 9 21.25H15C19.61 21.25 21.25 19.61 21.25 15V9C21.25 4.39 19.61 2.75 15 2.75H9Z" fill="#292D32"/>
<path d="M8.41998 11.65C6.94998 11.65 5.75 10.45 5.75 8.98004C5.75 7.51004 6.94998 6.30005 8.41998 6.30005C9.88998 6.30005 11.09 7.50004 11.09 8.98004C11.09 10.46 9.89998 11.65 8.41998 11.65ZM8.41998 7.80005C7.76998 7.80005 7.25 8.33004 7.25 8.98004C7.25 9.63004 7.77998 10.15 8.41998 10.15C9.05998 10.15 9.59003 9.62004 9.59003 8.98004C9.59003 8.34004 9.06998 7.80005 8.41998 7.80005Z" fill="#292D32"/>
<path d="M8.41998 17.7C6.94998 17.7 5.75 16.5 5.75 15.02C5.75 13.54 6.94998 12.35 8.41998 12.35C9.88998 12.35 11.09 13.55 11.09 15.02C11.09 16.49 9.89998 17.7 8.41998 17.7ZM8.41998 13.85C7.76998 13.85 7.25 14.38 7.25 15.02C7.25 15.66 7.77998 16.2 8.41998 16.2C9.05998 16.2 9.59003 15.67 9.59003 15.02C9.59003 14.37 9.06998 13.85 8.41998 13.85Z" fill="#292D32"/>
<path d="M10.1604 14.94C9.9304 14.94 9.71042 14.84 9.56042 14.64C9.31042 14.31 9.38044 13.84 9.71044 13.59L17.0504 8.09998C17.3804 7.84998 17.8504 7.91998 18.1004 8.24998C18.3504 8.57998 18.2804 9.04998 17.9504 9.29998L10.6104 14.79C10.4704 14.89 10.3204 14.94 10.1604 14.94Z" fill="#292D32"/>
<path d="M17.5004 16.0301C17.3404 16.0301 17.1904 15.9801 17.0504 15.8801L9.71044 10.3901C9.38044 10.1401 9.31042 9.67006 9.56042 9.34006C9.81042 9.01006 10.2804 8.94007 10.6104 9.19007L17.9504 14.6801C18.2804 14.9301 18.3504 15.4001 18.1004 15.7301C17.9504 15.9301 17.7304 16.0301 17.5004 16.0301Z" fill="#292D32"/>
</svg>
