<svg width="24" height="24" viewBox="0 0 24 24" fill="none" xmlns="http://www.w3.org/2000/svg">
<path d="M15 22.75H9C3.57 22.75 1.25 20.43 1.25 15V9C1.25 3.57 3.57 1.25 9 1.25H15C20.43 1.25 22.75 3.57 22.75 9V15C22.75 20.43 20.43 22.75 15 22.75ZM9 2.75C4.39 2.75 2.75 4.39 2.75 9V15C2.75 19.61 4.39 21.25 9 21.25H15C19.61 21.25 21.25 19.61 21.25 15V9C21.25 4.39 19.61 2.75 15 2.75H9Z" fill="#292D32"/>
<path d="M9.59922 15.78C9.40922 15.78 9.21922 15.71 9.06922 15.56L6.57922 13.07C5.98922 12.48 5.98922 11.53 6.57922 10.94L9.06922 8.45004C9.35922 8.16004 9.83922 8.16004 10.1292 8.45004C10.4192 8.74004 10.4192 9.22004 10.1292 9.51004L7.63922 12L10.1292 14.5C10.4192 14.79 10.4192 15.27 10.1292 15.56C9.97922 15.7 9.78922 15.78 9.59922 15.78Z" fill="#292D32"/>
<path d="M14.3998 15.78C14.2098 15.78 14.0198 15.71 13.8698 15.56C13.5798 15.27 13.5798 14.79 13.8698 14.5L16.3598 12L13.8698 9.50003C13.5798 9.21003 13.5798 8.73003 13.8698 8.44003C14.1598 8.15003 14.6398 8.15003 14.9298 8.44003L17.4198 10.93C18.0098 11.52 18.0098 12.47 17.4198 13.06L14.9298 15.55C14.7898 15.7 14.5898 15.78 14.3998 15.78Z" fill="#292D32"/>
</svg>
