<svg width="24" height="24" viewBox="0 0 24 24" fill="none" xmlns="http://www.w3.org/2000/svg">
<path d="M11.5 21.75C5.85 21.75 1.25 17.15 1.25 11.5C1.25 5.85 5.85 1.25 11.5 1.25C11.91 1.25 12.25 1.59 12.25 2C12.25 2.41 11.91 2.75 11.5 2.75C6.67 2.75 2.75 6.68 2.75 11.5C2.75 16.32 6.67 20.25 11.5 20.25C16.33 20.25 20.25 16.32 20.25 11.5C20.25 11.09 20.59 10.75 21 10.75C21.41 10.75 21.75 11.09 21.75 11.5C21.75 17.15 17.15 21.75 11.5 21.75Z" fill="#292D32"/>
<path d="M22.0004 22.75C21.8104 22.75 21.6204 22.68 21.4704 22.53L19.4704 20.53C19.1804 20.24 19.1804 19.76 19.4704 19.47C19.7604 19.18 20.2404 19.18 20.5304 19.47L22.5304 21.47C22.8204 21.76 22.8204 22.24 22.5304 22.53C22.3804 22.68 22.1904 22.75 22.0004 22.75Z" fill="#292D32"/>
<path d="M17.4999 9.54C16.5799 9.54 14.4399 8.42 13.7799 6.36C13.3299 4.95 13.8499 3.1 15.4799 2.57C16.1799 2.34 16.9099 2.45 17.4899 2.82C18.0599 2.45 18.8099 2.35 19.5099 2.57C21.1399 3.1 21.6699 4.95 21.2099 6.36C20.5599 8.46 18.3099 9.54 17.4999 9.54ZM15.2099 5.91C15.6699 7.36 17.2299 8.02 17.5099 8.05C17.8299 8.02 19.3599 7.28 19.7799 5.92C20.0099 5.19 19.7799 4.25 19.0499 4.01C18.7399 3.91 18.3199 3.97 18.1199 4.26C17.9799 4.47 17.7599 4.59 17.5099 4.6C17.2899 4.61 17.0299 4.49 16.8899 4.29C16.6599 3.96 16.2399 3.91 15.9399 4C15.2199 4.24 14.9799 5.18 15.2099 5.91Z" fill="#292D32"/>
</svg>
