<svg width="24" height="24" viewBox="0 0 24 24" fill="none" xmlns="http://www.w3.org/2000/svg">
<path d="M20 5.75H14C13.59 5.75 13.25 5.41 13.25 5C13.25 4.59 13.59 4.25 14 4.25H20C20.41 4.25 20.75 4.59 20.75 5C20.75 5.41 20.41 5.75 20 5.75Z" fill="#292D32"/>
<path d="M17 8.75H14C13.59 8.75 13.25 8.41 13.25 8C13.25 7.59 13.59 7.25 14 7.25H17C17.41 7.25 17.75 7.59 17.75 8C17.75 8.41 17.41 8.75 17 8.75Z" fill="#292D32"/>
<path d="M11.5 21.75C5.85 21.75 1.25 17.15 1.25 11.5C1.25 5.85 5.85 1.25 11.5 1.25C11.91 1.25 12.25 1.59 12.25 2C12.25 2.41 11.91 2.75 11.5 2.75C6.67 2.75 2.75 6.68 2.75 11.5C2.75 16.32 6.67 20.25 11.5 20.25C16.33 20.25 20.25 16.32 20.25 11.5C20.25 11.09 20.59 10.75 21 10.75C21.41 10.75 21.75 11.09 21.75 11.5C21.75 17.15 17.15 21.75 11.5 21.75Z" fill="#292D32"/>
<path d="M22.0004 22.75C21.8104 22.75 21.6204 22.68 21.4704 22.53L19.4704 20.53C19.1804 20.24 19.1804 19.76 19.4704 19.47C19.7604 19.18 20.2404 19.18 20.5304 19.47L22.5304 21.47C22.8204 21.76 22.8204 22.24 22.5304 22.53C22.3804 22.68 22.1904 22.75 22.0004 22.75Z" fill="#292D32"/>
</svg>
