<svg width="24" height="24" viewBox="0 0 24 24" fill="none" xmlns="http://www.w3.org/2000/svg">
<path d="M10.5598 22.71C9.47977 22.71 8.38977 22.4 7.54977 21.77L3.26978 18.57C2.13978 17.73 1.25977 15.96 1.25977 14.54V7.12998C1.25977 5.59998 2.37978 3.96997 3.81978 3.42997L8.79977 1.55997C9.78977 1.18997 11.3398 1.18997 12.3298 1.55997L17.2998 3.42997C18.4698 3.86997 19.4598 5.03997 19.7798 6.33997C19.8298 6.55997 19.7798 6.79998 19.6398 6.97998C19.4998 7.15998 19.2798 7.26996 19.0498 7.26996L11.1398 7.27997C9.86977 7.35997 9.55977 7.56999 9.55977 9.41999V14.85C9.55977 16.76 9.80977 17 11.7498 17H17.6698C17.9798 17 18.2598 17.19 18.3698 17.48C18.4798 17.77 18.3998 18.1 18.1698 18.31C18.0598 18.4 17.9698 18.49 17.8598 18.57L13.5798 21.78C12.7198 22.4 11.6398 22.71 10.5598 22.71ZM10.5598 2.78998C10.1098 2.78998 9.64978 2.84998 9.31978 2.97998L4.33977 4.84998C3.49977 5.16998 2.74977 6.23997 2.74977 7.14997V14.56C2.74977 15.5 3.40977 16.82 4.15977 17.38L8.43977 20.58C9.58977 21.43 11.5198 21.43 12.6698 20.58L15.4398 18.51H11.7398C8.97978 18.51 8.04977 17.59 8.04977 14.86V9.42997C8.04977 7.29997 8.55977 5.94998 11.0898 5.78998L11.7398 5.77997H17.8898C17.5898 5.34997 17.1898 5.00998 16.7698 4.84998L11.7998 2.97998C11.4598 2.84998 11.0098 2.78998 10.5598 2.78998Z" fill="#292D32"/>
<path d="M22.0008 11.97H8.80078C8.39078 11.97 8.05078 11.63 8.05078 11.22C8.05078 10.81 8.39078 10.47 8.80078 10.47H22.0008C22.4108 10.47 22.7508 10.81 22.7508 11.22C22.7508 11.63 22.4108 11.97 22.0008 11.97Z" fill="#292D32"/>
<path d="M19.0608 18.5H11.7408C8.98078 18.5 8.05078 17.58 8.05078 14.85V9.42004C8.05078 7.29004 8.56077 5.94003 11.0908 5.78003L11.7408 5.77002H19.0608C21.8208 5.77002 22.7508 6.69004 22.7508 9.42004V14.97C22.7308 17.61 21.8008 18.5 19.0608 18.5ZM11.7408 7.27002L11.1308 7.28003C9.86078 7.36003 9.55078 7.57004 9.55078 9.42004V14.85C9.55078 16.76 9.80078 17 11.7408 17H19.0608C20.9708 17 21.2308 16.75 21.2508 14.97V9.43002C21.2508 7.52002 21.0008 7.28003 19.0608 7.28003H11.7408V7.27002Z" fill="#292D32"/>
<path d="M12.6505 16.01H11.3105C10.9005 16.01 10.5605 15.67 10.5605 15.26C10.5605 14.85 10.9005 14.51 11.3105 14.51H12.6505C13.0605 14.51 13.4005 14.85 13.4005 15.26C13.4005 15.67 13.0705 16.01 12.6505 16.01Z" fill="#292D32"/>
<path d="M18.02 16.01H14.75C14.34 16.01 14 15.67 14 15.26C14 14.85 14.34 14.51 14.75 14.51H18.02C18.43 14.51 18.77 14.85 18.77 15.26C18.77 15.67 18.44 16.01 18.02 16.01Z" fill="#292D32"/>
</svg>
