<svg width="24" height="24" viewBox="0 0 24 24" fill="none" xmlns="http://www.w3.org/2000/svg">
<path d="M12.0004 22.76C10.9104 22.76 9.83041 22.44 8.98041 21.81L4.68039 18.6C3.54039 17.75 2.65039 15.98 2.65039 14.56V7.13001C2.65039 5.59001 3.78041 3.95001 5.23041 3.41001L10.2204 1.54001C11.2104 1.17001 12.7704 1.17001 13.7604 1.54001L18.7604 3.41001C20.2104 3.95001 21.3404 5.59001 21.3404 7.13001V14.56C21.3404 15.98 20.4504 17.75 19.3104 18.6L15.0104 21.81C14.1704 22.44 13.0904 22.76 12.0004 22.76ZM10.7504 2.94001L5.76041 4.81C4.90041 5.13 4.15039 6.21001 4.15039 7.13001V14.56C4.15039 15.51 4.8204 16.84 5.5704 17.4L9.87039 20.61C11.0204 21.47 12.9704 21.47 14.1204 20.61L18.4204 17.4C19.1804 16.83 19.8404 15.5 19.8404 14.56V7.13001C19.8404 6.22001 19.0904 5.14 18.2304 4.81L13.2404 2.94001C12.5804 2.69001 11.4204 2.69001 10.7504 2.94001Z" fill="#292D32"/>
<path d="M11.9999 11.67C11.9799 11.67 11.9599 11.67 11.9299 11.67C10.4799 11.63 9.41992 10.52 9.41992 9.17004C9.41992 7.79004 10.5499 6.66003 11.9299 6.66003C13.3099 6.66003 14.4399 7.79004 14.4399 9.17004C14.4299 10.53 13.3699 11.63 12.0199 11.68C12.0099 11.67 12.0099 11.67 11.9999 11.67ZM11.9299 8.16003C11.3699 8.16003 10.9199 8.61004 10.9199 9.17004C10.9199 9.72004 11.3499 10.16 11.8899 10.18C11.8899 10.18 11.9399 10.18 11.9999 10.18C12.5299 10.15 12.9399 9.71004 12.9399 9.17004C12.9499 8.61004 12.4899 8.16003 11.9299 8.16003Z" fill="#292D32"/>
<path d="M12.0008 17.35C11.1408 17.35 10.2708 17.12 9.6008 16.67C8.9308 16.23 8.55078 15.58 8.55078 14.89C8.55078 14.2 8.9308 13.55 9.6008 13.1C10.9508 12.2 13.0608 12.21 14.4008 13.1C15.0708 13.54 15.4508 14.19 15.4508 14.88C15.4508 15.57 15.0708 16.22 14.4008 16.67C13.7308 17.12 12.8608 17.35 12.0008 17.35ZM10.4308 14.34C10.1808 14.5 10.0408 14.7 10.0508 14.88C10.0508 15.06 10.1908 15.26 10.4308 15.42C11.2708 15.98 12.7308 15.98 13.5708 15.42C13.8208 15.26 13.9608 15.06 13.9608 14.88C13.9608 14.7 13.8208 14.5 13.5808 14.34C12.7408 13.79 11.2708 13.79 10.4308 14.34Z" fill="#292D32"/>
</svg>
