<svg width="24" height="24" viewBox="0 0 24 24" fill="none" xmlns="http://www.w3.org/2000/svg">
<path d="M12.0004 22.76C10.9104 22.76 9.83041 22.44 8.98041 21.81L4.68039 18.6C3.54039 17.75 2.65039 15.97 2.65039 14.56V7.12C2.65039 5.58 3.78041 3.94 5.23041 3.4L10.2204 1.53C11.2104 1.16 12.7704 1.16 13.7604 1.53L18.7504 3.4C20.2004 3.94 21.3304 5.58 21.3304 7.12V14.55C21.3304 15.97 20.4404 17.74 19.3004 18.59L15.0004 21.8C14.1704 22.44 13.0904 22.76 12.0004 22.76ZM10.7504 2.94L5.76041 4.81C4.91041 5.13 4.1604 6.21 4.1604 7.13V14.56C4.1604 15.51 4.83038 16.84 5.58038 17.4L9.8804 20.61C11.0304 21.47 12.9704 21.47 14.1304 20.61L18.4304 17.4C19.1904 16.83 19.8504 15.51 19.8504 14.56V7.12C19.8504 6.21 19.1004 5.13 18.2504 4.8L13.2604 2.93C12.5804 2.69 11.4204 2.69 10.7504 2.94Z" fill="#292D32"/>
<path d="M12 16.25C9.38 16.25 7.25 14.12 7.25 11.5C7.25 8.88 9.38 6.75 12 6.75C14.62 6.75 16.75 8.88 16.75 11.5C16.75 14.12 14.62 16.25 12 16.25ZM12 8.25C10.21 8.25 8.75 9.71 8.75 11.5C8.75 13.29 10.21 14.75 12 14.75C13.79 14.75 15.25 13.29 15.25 11.5C15.25 9.71 13.79 8.25 12 8.25Z" fill="#292D32"/>
<path d="M10.9999 13.25C10.7499 13.25 10.4999 13.12 10.3599 12.89C10.1499 12.53 10.2599 12.07 10.6199 11.86L11.3799 11.4C11.4599 11.35 11.4999 11.27 11.4999 11.19V10.26C11.4999 9.85001 11.8399 9.51001 12.2499 9.51001C12.6599 9.51001 12.9999 9.84001 12.9999 10.25V11.18C12.9999 11.79 12.6699 12.37 12.1499 12.68L11.3799 13.14C11.2699 13.22 11.1299 13.25 10.9999 13.25Z" fill="#292D32"/>
</svg>
