<svg width="24" height="24" viewBox="0 0 24 24" fill="none" xmlns="http://www.w3.org/2000/svg">
<path d="M15 22.75H9C3.57 22.75 1.25 20.43 1.25 15V9C1.25 3.57 3.57 1.25 9 1.25H15C20.43 1.25 22.75 3.57 22.75 9V15C22.75 20.43 20.43 22.75 15 22.75ZM9 2.75C4.39 2.75 2.75 4.39 2.75 9V15C2.75 19.61 4.39 21.25 9 21.25H15C19.61 21.25 21.25 19.61 21.25 15V9C21.25 4.39 19.61 2.75 15 2.75H9Z" fill="#292D32"/>
<path d="M14.8298 12.68C14.4198 12.68 14.0798 12.34 14.0798 11.93V8.44H10.5898C10.1798 8.44 9.83984 8.1 9.83984 7.69C9.83984 7.28 10.1798 6.94 10.5898 6.94H14.8298C15.2398 6.94 15.5798 7.28 15.5798 7.69V11.93C15.5798 12.34 15.2398 12.68 14.8298 12.68Z" fill="#292D32"/>
<path d="M9.16937 14.09C8.97937 14.09 8.78938 14.02 8.63938 13.87C8.34938 13.58 8.34938 13.1 8.63938 12.81L14.2994 7.15C14.5894 6.86 15.0694 6.86 15.3594 7.15C15.6494 7.44 15.6494 7.92001 15.3594 8.21001L9.69937 13.87C9.55937 14.02 9.35937 14.09 9.16937 14.09Z" fill="#292D32"/>
<path d="M12.0004 18.23C9.89044 18.23 7.77043 17.89 5.76043 17.22C5.37043 17.09 5.16043 16.66 5.29043 16.27C5.42043 15.88 5.85045 15.66 6.24045 15.8C9.96045 17.04 14.0504 17.04 17.7704 15.8C18.1604 15.67 18.5904 15.88 18.7204 16.27C18.8504 16.66 18.6404 17.09 18.2504 17.22C16.2304 17.9 14.1104 18.23 12.0004 18.23Z" fill="#292D32"/>
</svg>
