<svg width="24" height="24" viewBox="0 0 24 24" fill="none" xmlns="http://www.w3.org/2000/svg">
<path d="M15 22.75H9C3.57 22.75 1.25 20.43 1.25 15V9C1.25 3.57 3.57 1.25 9 1.25H15C20.43 1.25 22.75 3.57 22.75 9V15C22.75 20.43 20.43 22.75 15 22.75ZM9 2.75C4.39 2.75 2.75 4.39 2.75 9V15C2.75 19.61 4.39 21.25 9 21.25H15C19.61 21.25 21.25 19.61 21.25 15V9C21.25 4.39 19.61 2.75 15 2.75H9Z" fill="#292D32"/>
<path d="M14.9995 10.26C14.8095 10.26 14.6195 10.19 14.4695 10.04L11.9995 7.57002L9.52945 10.04C9.23945 10.33 8.75945 10.33 8.46945 10.04C8.17945 9.75001 8.17945 9.27001 8.46945 8.98001L11.4695 5.98001C11.7595 5.69001 12.2395 5.69001 12.5295 5.98001L15.5295 8.98001C15.8195 9.27001 15.8195 9.75001 15.5295 10.04C15.3795 10.19 15.1895 10.26 14.9995 10.26Z" fill="#292D32"/>
<path d="M12 15.26C11.59 15.26 11.25 14.92 11.25 14.51V6.51001C11.25 6.10001 11.59 5.76001 12 5.76001C12.41 5.76001 12.75 6.10001 12.75 6.51001V14.51C12.75 14.93 12.41 15.26 12 15.26Z" fill="#292D32"/>
<path d="M12.0004 18.23C9.89044 18.23 7.77043 17.89 5.76043 17.22C5.37043 17.09 5.16043 16.66 5.29043 16.27C5.42043 15.88 5.85045 15.66 6.24045 15.8C9.96045 17.04 14.0504 17.04 17.7704 15.8C18.1604 15.67 18.5904 15.88 18.7204 16.27C18.8504 16.66 18.6404 17.09 18.2504 17.22C16.2304 17.9 14.1104 18.23 12.0004 18.23Z" fill="#292D32"/>
</svg>
