<svg width="24" height="24" viewBox="0 0 24 24" fill="none" xmlns="http://www.w3.org/2000/svg">
<path d="M11.7207 22.75H7.2207C3.0707 22.75 1.2207 20.9 1.2207 16.75V12.25C1.2207 8.1 3.0707 6.25 7.2207 6.25H11.7207C15.8707 6.25 17.7207 8.1 17.7207 12.25V16.75C17.7207 20.9 15.8707 22.75 11.7207 22.75ZM7.2207 7.75C3.9007 7.75 2.7207 8.93 2.7207 12.25V16.75C2.7207 20.07 3.9007 21.25 7.2207 21.25H11.7207C15.0407 21.25 16.2207 20.07 16.2207 16.75V12.25C16.2207 8.93 15.0407 7.75 11.7207 7.75H7.2207Z" fill="#292D32"/>
<path d="M16.9692 13.72C16.7792 13.72 16.5992 13.65 16.4592 13.52C16.2992 13.38 16.2192 13.18 16.2192 12.97V12.25C16.2192 8.93001 15.0392 7.75001 11.7192 7.75001H10.9992C10.7892 7.75001 10.5892 7.66001 10.4492 7.51001C10.3092 7.35001 10.2392 7.15001 10.2592 6.94001C10.5492 3.70001 13.2192 1.26001 16.4792 1.26001C19.5992 1.26001 22.2592 3.59001 22.6592 6.68001C22.6992 6.92001 22.7292 7.21001 22.7292 7.51001C22.7292 10.77 20.2892 13.44 17.0492 13.73C17.0192 13.72 16.9992 13.72 16.9692 13.72ZM11.8892 6.25001C15.8592 6.30001 17.6692 8.10001 17.7192 12.08C19.7592 11.54 21.2192 9.69001 21.2192 7.50001C21.2192 7.29001 21.1992 7.09001 21.1692 6.90001C20.8592 4.52001 18.8392 2.75001 16.4692 2.75001C14.2792 2.75001 12.4392 4.21001 11.8892 6.25001Z" fill="#292D32"/>
</svg>
