<svg width="24" height="24" viewBox="0 0 24 24" fill="none" xmlns="http://www.w3.org/2000/svg">
<path d="M20.6196 13.07C20.2396 13.07 19.9196 12.78 19.8696 12.4C19.6296 10.14 18.4096 8.08998 16.5296 6.78998C16.1896 6.54998 16.1096 6.08998 16.3396 5.74998C16.5796 5.40998 17.0496 5.32998 17.3796 5.55998C19.6196 7.10998 21.0596 9.54998 21.3496 12.24C21.3896 12.65 21.0996 13.02 20.6796 13.07C20.6696 13.07 20.6396 13.07 20.6196 13.07Z" fill="#292D32"/>
<path d="M3.48991 13.12C3.45991 13.12 3.43991 13.12 3.40991 13.12C2.99991 13.07 2.69991 12.7 2.73991 12.29C3.00991 9.60001 4.43991 7.17001 6.64991 5.60001C6.98991 5.36001 7.45991 5.44001 7.69991 5.78001C7.93991 6.12001 7.85991 6.59001 7.51991 6.83001C5.65991 8.14001 4.45991 10.19 4.22991 12.45C4.19991 12.83 3.86991 13.12 3.48991 13.12Z" fill="#292D32"/>
<path d="M12.06 22.61C10.58 22.61 9.16997 22.27 7.84997 21.61C7.47997 21.42 7.32997 20.97 7.51997 20.6C7.70997 20.23 8.15997 20.08 8.52997 20.27C10.69 21.36 13.29 21.38 15.47 20.33C15.84 20.15 16.29 20.31 16.47 20.68C16.65 21.05 16.49 21.5 16.12 21.68C14.84 22.3 13.48 22.61 12.06 22.61Z" fill="#292D32"/>
<path d="M12.0593 8.44C10.1093 8.44 8.5293 6.86 8.5293 4.91C8.5293 2.96 10.1093 1.38 12.0593 1.38C14.0093 1.38 15.5893 2.96 15.5893 4.91C15.5893 6.86 13.9993 8.44 12.0593 8.44ZM12.0593 2.89C10.9393 2.89 10.0293 3.8 10.0293 4.92C10.0293 6.04 10.9393 6.95 12.0593 6.95C13.1793 6.95 14.0893 6.04 14.0893 4.92C14.0893 3.8 13.1693 2.89 12.0593 2.89Z" fill="#292D32"/>
<path d="M4.83078 20.67C2.88078 20.67 1.30078 19.09 1.30078 17.14C1.30078 15.2 2.88078 13.61 4.83078 13.61C6.78078 13.61 8.36078 15.19 8.36078 17.14C8.36078 19.08 6.78078 20.67 4.83078 20.67ZM4.83078 15.11C3.71078 15.11 2.80078 16.02 2.80078 17.14C2.80078 18.26 3.71078 19.17 4.83078 19.17C5.95078 19.17 6.86078 18.26 6.86078 17.14C6.86078 16.02 5.95078 15.11 4.83078 15.11Z" fill="#292D32"/>
<path d="M19.1706 20.67C17.2206 20.67 15.6406 19.09 15.6406 17.14C15.6406 15.2 17.2206 13.61 19.1706 13.61C21.1206 13.61 22.7006 15.19 22.7006 17.14C22.6906 19.08 21.1106 20.67 19.1706 20.67ZM19.1706 15.11C18.0506 15.11 17.1406 16.02 17.1406 17.14C17.1406 18.26 18.0506 19.17 19.1706 19.17C20.2906 19.17 21.2006 18.26 21.2006 17.14C21.1906 16.02 20.2906 15.11 19.1706 15.11Z" fill="#292D32"/>
</svg>
