<svg width="24" height="24" viewBox="0 0 24 24" fill="none" xmlns="http://www.w3.org/2000/svg">
<path d="M12.0004 22.76C10.9104 22.76 9.83039 22.44 8.98039 21.81L4.68039 18.6C3.54039 17.75 2.65039 15.97 2.65039 14.56V7.12C2.65039 5.58 3.78039 3.94 5.23039 3.4L10.2204 1.53C11.2104 1.16 12.7704 1.16 13.7604 1.53L18.7504 3.4C20.2004 3.94 21.3304 5.58 21.3304 7.12V14.55C21.3304 15.97 20.4404 17.74 19.3004 18.59L15.0004 21.8C14.1704 22.44 13.0904 22.76 12.0004 22.76ZM10.7504 2.94L5.76039 4.81C4.91039 5.13 4.16039 6.21 4.16039 7.13V14.56C4.16039 15.51 4.83039 16.84 5.58039 17.4L9.88039 20.61C11.0304 21.47 12.9704 21.47 14.1304 20.61L18.4304 17.4C19.1904 16.83 19.8504 15.51 19.8504 14.56V7.12C19.8504 6.21 19.1004 5.13 18.2504 4.8L13.2604 2.93C12.5804 2.69 11.4204 2.69 10.7504 2.94Z" fill="#292D32"/>
<path d="M14.1498 14.19C13.9598 14.19 13.7698 14.12 13.6198 13.97L9.36984 9.72C9.07984 9.43 9.07984 8.95 9.36984 8.66C9.65984 8.37 10.1398 8.37 10.4298 8.66L14.6798 12.91C14.9698 13.2 14.9698 13.68 14.6798 13.97C14.5298 14.11 14.3398 14.19 14.1498 14.19Z" fill="#292D32"/>
<path d="M9.84906 14.23C9.65906 14.23 9.46906 14.16 9.31906 14.01C9.02906 13.72 9.02906 13.24 9.31906 12.95L13.5691 8.7C13.8591 8.41 14.3391 8.41 14.6291 8.7C14.9191 8.99 14.9191 9.47 14.6291 9.76L10.3791 14.01C10.2391 14.16 10.0391 14.23 9.84906 14.23Z" fill="#292D32"/>
</svg>
