<svg width="24" height="24" viewBox="0 0 24 24" fill="none" xmlns="http://www.w3.org/2000/svg">
<path d="M12.0004 22.75C10.8704 22.75 9.79039 22.42 8.98039 21.81L4.68039 18.6C3.54039 17.75 2.65039 15.98 2.65039 14.56V7.12C2.65039 5.58 3.78039 3.94 5.23039 3.4L10.2204 1.53C11.2104 1.16 12.7704 1.16 13.7604 1.53L18.7604 3.4C20.2104 3.94 21.3404 5.58 21.3404 7.12V10.55C21.3404 10.96 21.0004 11.3 20.5904 11.3C20.1804 11.3 19.8404 10.96 19.8404 10.55V7.12C19.8404 6.21 19.0904 5.13 18.2304 4.8L13.2404 2.93C12.5804 2.68 11.4104 2.68 10.7504 2.93L5.76039 4.81C4.90039 5.13 4.15039 6.21 4.15039 7.13V14.56C4.15039 15.51 4.82039 16.84 5.57039 17.4L9.87039 20.61C10.4204 21.02 11.1904 21.25 11.9904 21.25C12.4004 21.25 12.7404 21.59 12.7404 22C12.7404 22.41 12.4104 22.75 12.0004 22.75Z" fill="#292D32"/>
<path d="M16 20.75C13.38 20.75 11.25 18.62 11.25 16C11.25 13.38 13.38 11.25 16 11.25C18.62 11.25 20.75 13.38 20.75 16C20.75 18.62 18.62 20.75 16 20.75ZM16 12.76C14.21 12.76 12.75 14.22 12.75 16.01C12.75 17.8 14.21 19.26 16 19.26C17.79 19.26 19.25 17.8 19.25 16.01C19.25 14.22 17.79 12.76 16 12.76Z" fill="#292D32"/>
<path d="M21 22C20.93 22 20.87 21.99 20.8 21.98C20.74 21.97 20.68 21.95 20.62 21.92C20.56 21.9 20.5 21.87 20.44 21.83C20.39 21.79 20.34 21.75 20.29 21.71C20.11 21.52 20 21.26 20 21C20 20.87 20.03 20.74 20.08 20.62C20.13 20.5 20.2 20.39 20.29 20.29C20.66 19.92 21.34 19.92 21.71 20.29C21.8 20.39 21.87 20.5 21.92 20.62C21.97 20.74 22 20.87 22 21C22 21.26 21.89 21.52 21.71 21.71C21.52 21.89 21.26 22 21 22Z" fill="#292D32"/>
</svg>
