<svg width="24" height="24" viewBox="0 0 24 24" fill="none" xmlns="http://www.w3.org/2000/svg">
<path d="M12.0001 22.76C10.9101 22.76 9.83012 22.44 8.98012 21.81L7.39012 20.62C7.06012 20.37 6.99012 19.9 7.24012 19.57C7.49012 19.24 7.96012 19.17 8.29012 19.42L9.88012 20.61C11.0301 21.47 12.9801 21.47 14.1301 20.61L18.4301 17.4C19.1901 16.83 19.8501 15.5 19.8501 14.56V7.12C19.8501 6.71 20.1901 6.37 20.6001 6.37C21.0101 6.37 21.3501 6.71 21.3501 7.12V14.55C21.3501 15.97 20.4601 17.74 19.3201 18.59L15.0201 21.8C14.1701 22.44 13.0901 22.76 12.0001 22.76Z" fill="#292D32"/>
<path d="M5.33039 18.9C5.17039 18.9 5.02039 18.85 4.88039 18.75L4.68039 18.6C3.54039 17.75 2.65039 15.97 2.65039 14.56V7.12C2.65039 5.58 3.78039 3.94 5.23039 3.4L10.2204 1.53C11.2104 1.16 12.7704 1.16 13.7604 1.53L18.7604 3.4C18.9704 3.48 19.1704 3.58 19.3704 3.7C19.7204 3.92 19.8304 4.38 19.6104 4.73C19.3904 5.08 18.9304 5.19 18.5804 4.97C18.4704 4.9 18.3604 4.84 18.2404 4.8L13.2404 2.93C12.5804 2.68 11.4104 2.68 10.7504 2.93L5.76039 4.81C4.90039 5.13 4.15039 6.21 4.15039 7.13V14.56C4.15039 15.51 4.82039 16.84 5.57039 17.4L5.77039 17.55C6.10039 17.8 6.17039 18.27 5.92039 18.6C5.79039 18.79 5.56039 18.9 5.33039 18.9Z" fill="#292D32"/>
<path d="M1.99945 22.75C1.80945 22.75 1.61945 22.68 1.46945 22.53C1.17945 22.24 1.17945 21.76 1.46945 21.47L21.4695 1.47C21.7595 1.18 22.2395 1.18 22.5295 1.47C22.8195 1.76 22.8195 2.24 22.5295 2.53L2.52945 22.53C2.37945 22.68 2.18945 22.75 1.99945 22.75Z" fill="#292D32"/>
</svg>
