<svg width="24" height="24" viewBox="0 0 24 24" fill="none" xmlns="http://www.w3.org/2000/svg">
<path d="M14.9707 22.75H8.9707C3.5407 22.75 1.2207 20.43 1.2207 15V9C1.2207 3.57 3.5407 1.25 8.9707 1.25H14.9707C20.4007 1.25 22.7207 3.57 22.7207 9V15C22.7207 20.43 20.4107 22.75 14.9707 22.75ZM8.9707 2.75C4.3607 2.75 2.7207 4.39 2.7207 9V15C2.7207 19.61 4.3607 21.25 8.9707 21.25H14.9707C19.5807 21.25 21.2207 19.61 21.2207 15V9C21.2207 4.39 19.5807 2.75 14.9707 2.75H8.9707Z" fill="#292D32"/>
<path d="M7.9707 22.75C7.5607 22.75 7.2207 22.41 7.2207 22V2C7.2207 1.59 7.5607 1.25 7.9707 1.25C8.3807 1.25 8.7207 1.59 8.7207 2V22C8.7207 22.41 8.3907 22.75 7.9707 22.75Z" fill="#292D32"/>
<path d="M14.9696 15.31C14.7796 15.31 14.5896 15.24 14.4396 15.09L11.8796 12.53C11.5896 12.24 11.5896 11.76 11.8796 11.47L14.4396 8.91C14.7296 8.62 15.2096 8.62 15.4996 8.91C15.7896 9.2 15.7896 9.68001 15.4996 9.97001L13.4796 12L15.5096 14.03C15.7996 14.32 15.7996 14.8 15.5096 15.09C15.3596 15.24 15.1696 15.31 14.9696 15.31Z" fill="#292D32"/>
</svg>
