<svg width="24" height="24" viewBox="0 0 24 24" fill="none" xmlns="http://www.w3.org/2000/svg">
<path d="M14.9707 22.75H8.9707C3.5407 22.75 1.2207 20.43 1.2207 15V9C1.2207 3.57 3.5407 1.25 8.9707 1.25H14.9707C20.4007 1.25 22.7207 3.57 22.7207 9V15C22.7207 20.43 20.4107 22.75 14.9707 22.75ZM8.9707 2.75C4.3607 2.75 2.7207 4.39 2.7207 9V15C2.7207 19.61 4.3607 21.25 8.9707 21.25H14.9707C19.5807 21.25 21.2207 19.61 21.2207 15V9C21.2207 4.39 19.5807 2.75 14.9707 2.75H8.9707Z" fill="#292D32"/>
<path d="M14.9707 22.75C14.5607 22.75 14.2207 22.41 14.2207 22V2C14.2207 1.59 14.5607 1.25 14.9707 1.25C15.3807 1.25 15.7207 1.59 15.7207 2V22C15.7207 22.41 15.3907 22.75 14.9707 22.75Z" fill="#292D32"/>
<path d="M7.97016 15.31C7.78016 15.31 7.59016 15.24 7.44016 15.09C7.15016 14.8 7.15016 14.32 7.44016 14.03L9.47016 12L7.44016 9.97001C7.15016 9.68001 7.15016 9.2 7.44016 8.91C7.73016 8.62 8.21016 8.62 8.50016 8.91L11.0602 11.47C11.3502 11.76 11.3502 12.24 11.0602 12.53L8.50016 15.09C8.36016 15.24 8.17016 15.31 7.97016 15.31Z" fill="#292D32"/>
</svg>
