<svg width="24" height="24" viewBox="0 0 24 24" fill="none" xmlns="http://www.w3.org/2000/svg">
<path d="M13 22.75H11C7.7 22.75 5.71 22.09 5.34 18.74C5.28 18.29 5.25 17.75 5.25 17V7C5.25 6.25 5.28 5.71 5.35 5.23C5.71 1.91 7.7 1.25 11 1.25H13C16.3 1.25 18.29 1.91 18.66 5.26C18.72 5.71 18.75 6.25 18.75 7V17C18.75 17.75 18.72 18.29 18.65 18.77C18.29 22.09 16.3 22.75 13 22.75ZM11 2.75C7.69 2.75 7.06 3.42 6.84 5.42C6.78 5.85 6.75 6.32 6.75 7V17C6.75 17.68 6.78 18.15 6.83 18.55C7.05 20.58 7.69 21.25 11 21.25H13C16.31 21.25 16.94 20.58 17.16 18.58C17.22 18.16 17.25 17.68 17.25 17V7C17.25 6.33 17.22 5.85 17.17 5.45C16.95 3.42 16.31 2.75 13 2.75H11Z" fill="#292D32"/>
<path d="M5.67 19.42H5.33C2.24 19.42 1.25 18.43 1.25 15.33V8.66996C1.25 5.56996 2.24 4.57996 5.33 4.57996H5.67C5.84 4.57996 5.98 4.57996 6.14 4.58996C6.35 4.59996 6.54 4.69996 6.67 4.86996C6.8 5.03996 6.86 5.23996 6.83 5.44996C6.78 5.84996 6.75 6.31996 6.75 6.99996V17C6.75 17.68 6.78 18.15 6.83 18.55C6.86 18.76 6.8 18.97 6.67 19.13C6.54 19.29 6.35 19.39 6.14 19.41C5.98 19.42 5.84 19.42 5.67 19.42ZM5.27 6.07996C3.08 6.08996 2.75 6.43996 2.75 8.66996V15.33C2.75 17.56 3.08 17.91 5.27 17.92C5.26 17.65 5.25 17.35 5.25 17V6.99996C5.25 6.64996 5.26 6.34996 5.27 6.07996Z" fill="#292D32"/>
<path d="M18.6697 19.42H18.3297C18.1597 19.42 18.0197 19.42 17.8597 19.41C17.6497 19.4 17.4597 19.3 17.3297 19.13C17.1997 18.97 17.1397 18.76 17.1697 18.55C17.2297 18.15 17.2497 17.67 17.2497 17V6.99996C17.2497 6.32996 17.2197 5.84996 17.1697 5.44996C17.1397 5.23996 17.1997 5.02996 17.3297 4.86996C17.4597 4.70996 17.6497 4.60996 17.8597 4.58996C18.0197 4.57996 18.1597 4.57996 18.3297 4.57996H18.6697C21.7597 4.57996 22.7497 5.56996 22.7497 8.66996V15.33C22.7497 18.43 21.7597 19.42 18.6697 19.42ZM18.7297 6.07996C18.7397 6.34996 18.7497 6.64996 18.7497 6.99996V17C18.7497 17.35 18.7397 17.65 18.7297 17.92C20.9197 17.91 21.2497 17.56 21.2497 15.33V8.66996C21.2497 6.43996 20.9197 6.08996 18.7297 6.07996Z" fill="#292D32"/>
</svg>
