<svg width="24" height="24" viewBox="0 0 24 24" fill="none" xmlns="http://www.w3.org/2000/svg">
<path d="M18.6102 6.67995C18.2002 6.67995 17.8602 6.33995 17.8602 5.92995V4.41995C17.8602 3.81995 17.3702 3.31995 16.7602 3.31995H3.83023C3.23023 3.31995 2.73023 3.80995 2.73023 4.41995V5.92995C2.73023 6.33995 2.39023 6.67995 1.98023 6.67995C1.57023 6.67995 1.24023 6.33995 1.24023 5.92995V4.41995C1.24023 2.98995 2.41023 1.81995 3.84023 1.81995H16.7602C18.1902 1.81995 19.3602 2.97995 19.3602 4.41995V5.92995C19.3602 6.33995 19.0202 6.67995 18.6102 6.67995Z" fill="#292D32"/>
<path d="M10.3008 18.8499C9.89078 18.8499 9.55078 18.5099 9.55078 18.0999V3.31995C9.55078 2.90995 9.89078 2.56995 10.3008 2.56995C10.7108 2.56995 11.0508 2.90995 11.0508 3.31995V18.0999C11.0508 18.5199 10.7108 18.8499 10.3008 18.8499Z" fill="#292D32"/>
<path d="M12.4804 18.85H6.90039C6.49039 18.85 6.15039 18.51 6.15039 18.1C6.15039 17.69 6.49039 17.35 6.90039 17.35H12.4804C12.8904 17.35 13.2304 17.69 13.2304 18.1C13.2304 18.51 12.8904 18.85 12.4804 18.85Z" fill="#292D32"/>
<path d="M22.0097 13.2C21.5997 13.2 21.2597 12.86 21.2597 12.45V11.65C21.2597 11.34 20.9997 11.08 20.6897 11.08H13.6797C13.2697 11.08 12.9297 10.74 12.9297 10.33C12.9297 9.91996 13.2697 9.57996 13.6797 9.57996H20.6897C21.8297 9.57996 22.7597 10.51 22.7597 11.65V12.45C22.7597 12.87 22.4297 13.2 22.0097 13.2Z" fill="#292D32"/>
<path d="M16.0801 22.18C15.6701 22.18 15.3301 21.84 15.3301 21.43V10.87C15.3301 10.46 15.6701 10.12 16.0801 10.12C16.4901 10.12 16.8301 10.46 16.8301 10.87V21.43C16.8301 21.84 16.4901 22.18 16.0801 22.18Z" fill="#292D32"/>
<path d="M18.2195 22.1801H13.9395C13.5295 22.1801 13.1895 21.8401 13.1895 21.4301C13.1895 21.0201 13.5295 20.6801 13.9395 20.6801H18.2195C18.6295 20.6801 18.9695 21.0201 18.9695 21.4301C18.9695 21.8401 18.6295 22.1801 18.2195 22.1801Z" fill="#292D32"/>
</svg>
