<svg width="24" height="24" viewBox="0 0 24 24" fill="none" xmlns="http://www.w3.org/2000/svg">
<path d="M17.5998 22.56H11.3998C10.9898 22.56 10.6498 22.22 10.6498 21.81C10.6498 21.4 10.9898 21.06 11.3998 21.06H17.5998C18.6698 21.06 19.7198 20.1699 19.8998 19.1099L21.2298 11.15C21.3498 10.43 20.9499 9.39991 20.3899 8.94991L13.4598 3.40999C12.6598 2.76999 11.3298 2.76998 10.5398 3.39998L3.60982 8.94991C3.03982 9.40991 2.64982 10.43 2.76982 11.15L3.04982 12.8399C3.11982 13.2499 2.83983 13.6399 2.42983 13.6999C2.01983 13.7799 1.63984 13.4899 1.56984 13.0799L1.28984 11.4C1.07984 10.16 1.67985 8.56999 2.66985 7.77999L9.59984 2.22994C10.9398 1.14994 13.0498 1.15995 14.3998 2.23995L21.3298 7.77999C22.3098 8.56999 22.9098 10.16 22.7098 11.4L21.3798 19.3599C21.0798 21.1299 19.3898 22.56 17.5998 22.56Z" fill="#292D32"/>
<path d="M5.00022 22.75C4.59022 22.75 4.26022 22.42 4.25022 22.02C4.22022 20.67 3.33023 19.78 1.98023 19.75C1.57023 19.74 1.24022 19.4 1.25022 18.98C1.26022 18.57 1.59022 18.25 2.00022 18.25C2.01022 18.25 2.01021 18.25 2.02021 18.25C4.17021 18.3 5.71022 19.83 5.75022 21.98C5.76022 22.39 5.43021 22.74 5.02021 22.75C5.01021 22.75 5.01022 22.75 5.00022 22.75Z" fill="#292D32"/>
<path d="M8.00022 22.75C7.59022 22.75 7.25022 22.42 7.25022 22.01C7.24022 21.35 7.13021 20.72 6.93021 20.13C6.42021 18.67 5.33021 17.5899 3.87021 17.0699C3.28021 16.8599 2.65021 16.75 1.99021 16.75C1.58021 16.75 1.24022 16.41 1.25022 15.99C1.25022 15.58 1.59022 15.25 2.00022 15.25H2.01022C2.84022 15.26 3.63021 15.4 4.37021 15.66C6.26021 16.33 7.67021 17.74 8.34021 19.63C8.60021 20.37 8.74022 21.17 8.75022 21.99C8.75022 22.41 8.42022 22.75 8.00022 22.75C8.00022 22.75 8.01022 22.75 8.00022 22.75Z" fill="#292D32"/>
<path d="M2 23C1.44 23 1 22.55 1 22C1 21.45 1.45 21 2 21C2.55 21 3 21.45 3 22C3 22.55 2.56 23 2 23Z" fill="#292D32"/>
</svg>
