<svg width="24" height="24" viewBox="0 0 24 24" fill="none" xmlns="http://www.w3.org/2000/svg">
<path d="M10 14.75H6.2C2.78 14.75 1.25 13.22 1.25 9.80005V6.19995C1.25 2.77995 2.78 1.25 6.2 1.25H9.8C13.22 1.25 14.75 2.77995 14.75 6.19995V10C14.75 10.41 14.42 10.74 14.01 10.75C11.61 10.79 10.79 11.62 10.75 14.01C10.74 14.42 10.41 14.75 10 14.75ZM6.2 2.75C3.62 2.75 2.75 3.61995 2.75 6.19995V9.80005C2.75 12.38 3.62 13.25 6.2 13.25H9.29C9.53 10.81 10.81 9.54004 13.25 9.29004V6.19995C13.25 3.61995 12.38 2.75 9.8 2.75H6.2Z" fill="#292D32"/>
<path d="M5.19952 6.63002C4.96952 6.63002 4.72952 6.52007 4.58952 6.31007C4.34952 5.97007 4.42952 5.50002 4.76952 5.26002C5.54952 4.71002 6.59951 4.7 7.38951 5.24C7.72951 5.47 7.81952 5.94004 7.58952 6.28004C7.35952 6.62004 6.88951 6.70999 6.54951 6.47999C6.27951 6.29999 5.91952 6.3 5.64952 6.49C5.49952 6.59 5.34952 6.63002 5.19952 6.63002Z" fill="#292D32"/>
<path d="M9.19952 6.63002C8.96952 6.63002 8.72952 6.52007 8.58952 6.31007C8.34952 5.97007 8.42952 5.50002 8.76952 5.26002C9.54952 4.71002 10.5995 4.7 11.3895 5.24C11.7295 5.47 11.8195 5.94004 11.5895 6.28004C11.3595 6.62004 10.8895 6.70999 10.5495 6.47999C10.2795 6.29999 9.91952 6.3 9.64952 6.49C9.49952 6.59 9.34952 6.63002 9.19952 6.63002Z" fill="#292D32"/>
<path d="M8.16078 12.17H5.84078C5.13078 12.17 4.55078 11.59 4.55078 10.88C4.55078 8.98 6.10078 7.43005 8.00078 7.43005C8.78078 7.43005 9.55078 7.69994 10.1608 8.18994C10.4808 8.44994 10.5408 8.91999 10.2808 9.23999C10.0208 9.55999 9.55078 9.60999 9.23078 9.35999C8.88078 9.07999 8.46078 8.93005 8.01078 8.93005C7.01078 8.93005 6.18078 9.69004 6.07078 10.67H8.17078C8.58078 10.67 8.92078 11.01 8.92078 11.42C8.92078 11.83 8.57078 12.17 8.16078 12.17Z" fill="#292D32"/>
<path d="M17.8 22.75H14.2C10.78 22.75 9.25 21.22 9.25 17.8V14C9.31 10.81 10.81 9.31 13.99 9.25H17.8C21.22 9.25 22.75 10.78 22.75 14.2V17.8C22.75 21.22 21.22 22.75 17.8 22.75ZM14 10.75C11.62 10.79 10.79 11.62 10.75 14.01V17.8C10.75 20.38 11.62 21.25 14.2 21.25H17.8C20.38 21.25 21.25 20.38 21.25 17.8V14.2C21.25 11.62 20.38 10.75 17.8 10.75H14Z" fill="#292D32"/>
<path d="M14.0895 14.63C13.6195 14.63 13.1595 14.49 12.7695 14.21C12.4295 13.97 12.3495 13.5001 12.5895 13.1601C12.8295 12.8201 13.2995 12.74 13.6395 12.98C13.9095 13.17 14.2695 13.17 14.5395 12.99C14.8795 12.76 15.3495 12.84 15.5795 13.19C15.8095 13.53 15.7295 14 15.3795 14.23C14.9895 14.5 14.5395 14.63 14.0895 14.63Z" fill="#292D32"/>
<path d="M18.0895 14.63C17.6195 14.63 17.1595 14.49 16.7695 14.21C16.4295 13.97 16.3495 13.5001 16.5895 13.1601C16.8295 12.8201 17.2995 12.74 17.6395 12.98C17.9095 13.17 18.2695 13.17 18.5395 12.99C18.8795 12.76 19.3495 12.84 19.5795 13.19C19.8095 13.53 19.7295 14 19.3795 14.23C18.9895 14.5 18.5395 14.63 18.0895 14.63Z" fill="#292D32"/>
<path d="M16.0008 20.17C14.1008 20.17 12.5508 18.62 12.5508 16.72C12.5508 16.01 13.1308 15.4301 13.8408 15.4301H18.1608C18.8708 15.4301 19.4508 16.01 19.4508 16.72C19.4508 18.62 17.9008 20.17 16.0008 20.17ZM14.0608 16.9301C14.1608 17.9101 14.9908 18.67 16.0008 18.67C17.0108 18.67 17.8308 17.9101 17.9408 16.9301H14.0608Z" fill="#292D32"/>
</svg>
