<svg width="24" height="24" viewBox="0 0 24 24" fill="none" xmlns="http://www.w3.org/2000/svg">
<path d="M17 21.25H7C3.35 21.25 1.25 19.15 1.25 15.5V8.5C1.25 4.85 3.35 2.75 7 2.75H12C12.41 2.75 12.75 3.09 12.75 3.5C12.75 3.91 12.41 4.25 12 4.25H7C4.14 4.25 2.75 5.64 2.75 8.5V15.5C2.75 18.36 4.14 19.75 7 19.75H17C19.86 19.75 21.25 18.36 21.25 15.5V11.5C21.25 11.09 21.59 10.75 22 10.75C22.41 10.75 22.75 11.09 22.75 11.5V15.5C22.75 19.15 20.65 21.25 17 21.25Z" fill="#292D32"/>
<path d="M11.9988 12.87C11.1588 12.87 10.3088 12.61 9.6588 12.08L6.5288 9.58002C6.2088 9.32002 6.14881 8.85002 6.4088 8.53002C6.6688 8.21002 7.13879 8.15003 7.45879 8.41003L10.5888 10.91C11.3488 11.52 12.6388 11.52 13.3988 10.91C13.7188 10.65 14.1888 10.7 14.4488 11.03C14.7088 11.35 14.6588 11.83 14.3288 12.08C13.6888 12.61 12.8388 12.87 11.9988 12.87Z" fill="#292D32"/>
<path d="M16.7407 9.74998C16.3307 9.74998 16.0507 9.60998 15.8707 9.47998C15.5407 9.23998 15.0307 8.63999 15.3307 7.31999L15.3807 7.10999C15.4007 7.02999 15.3407 6.83998 15.2907 6.77998L14.9407 6.42998C14.3507 5.82998 14.1207 5.12998 14.3207 4.49998C14.5207 3.87998 15.1107 3.43999 15.9407 3.29999L16.3207 3.23999C16.3907 3.21999 16.5307 3.11999 16.5707 3.04999L16.8507 2.47998C17.2407 1.68998 17.8407 1.23999 18.5007 1.23999C19.1607 1.23999 19.7607 1.68998 20.1507 2.47998L20.4307 3.04999C20.4607 3.10999 20.6107 3.21999 20.6807 3.23999L21.0607 3.29999C21.8907 3.43999 22.4807 3.87998 22.6807 4.49998C22.8807 5.11998 22.6607 5.81998 22.0607 6.42998L21.7107 6.77998C21.6607 6.83998 21.6007 7.02999 21.6207 7.10999L21.6707 7.31999C21.9707 8.63999 21.4607 9.23998 21.1307 9.47998C20.8007 9.71998 20.0807 10.01 18.9307 9.31999L18.6807 9.16998C18.6107 9.12998 18.4107 9.12998 18.3407 9.16998L18.0807 9.31999C17.5407 9.63999 17.0907 9.74998 16.7407 9.74998ZM18.4907 2.74998C18.4807 2.75998 18.3407 2.85998 18.2007 3.14998L17.9207 3.71999C17.6807 4.20999 17.1107 4.62999 16.5807 4.71999L16.2007 4.77998C15.8807 4.82998 15.7707 4.93999 15.7607 4.95999C15.7607 4.97999 15.7907 5.13998 16.0207 5.36998L16.3707 5.71999C16.7807 6.13999 16.9907 6.85998 16.8607 7.42998L16.8107 7.63998C16.7307 7.99998 16.7607 8.18998 16.7807 8.25998C16.8007 8.23998 16.9807 8.21999 17.3107 8.01999L17.5707 7.86998C18.1207 7.53998 18.9107 7.53998 19.4607 7.86998L19.7107 8.01999C20.0407 8.21999 20.2107 8.23999 20.2707 8.23999C20.2607 8.20999 20.3007 8.02998 20.2107 7.63998L20.1607 7.42998C20.0307 6.84998 20.2407 6.13999 20.6507 5.71999L21.0007 5.36998C21.2307 5.13998 21.2607 4.97998 21.2607 4.94998C21.2507 4.92998 21.1407 4.82999 20.8207 4.76999L20.4407 4.70999C19.9007 4.61999 19.3407 4.19999 19.1007 3.70999L18.8207 3.14998C18.6607 2.84998 18.5307 2.75998 18.4907 2.74998Z" fill="#292D32"/>
</svg>
