<svg width="24" height="24" viewBox="0 0 24 24" fill="none" xmlns="http://www.w3.org/2000/svg">
<path d="M12 18.1801C10.98 18.1801 10.37 17.8 9.97 17.55C9.78 17.43 9.64 17.35 9.5 17.3C9.17 17.19 8.86 17.1801 8.59 17.1601C8.28 17.1501 7.97001 17.1401 7.70001 16.9601C7.42001 16.7701 7.33001 16.5001 7.29001 16.3201C7.27001 16.3101 7.25001 16.31 7.23001 16.3C6.97001 16.23 6.67999 16.1501 6.32999 15.9601C5.80999 15.6701 5.75 15.2801 5.75 15.0701C5.76 14.8701 5.84 14.4901 6.34 14.2601C7.55 13.6801 7.97001 12.8701 8.10001 12.5201C7.99001 12.4501 7.85999 12.3701 7.73999 12.2901L7.42999 12.0901C6.60999 11.5201 6.75001 10.84 6.85001 10.58C7.01001 10.14 7.41999 9.87006 7.92999 9.87006C8.02999 9.87006 8.11999 9.88005 8.20999 9.90005C8.22999 9.90005 8.24001 9.91006 8.26001 9.91006C8.26001 9.60006 8.26 9.33006 8.28 9.09006C8.38 8.02006 8.76 7.45006 9.13 7.03006C9.45 6.67006 10.36 5.82007 11.98 5.82007C13.09 5.82007 14.13 6.25006 14.82 7.00006C15.22 7.47006 15.59 8.03005 15.68 9.08005C15.7 9.36005 15.71 9.64005 15.71 9.90005C15.72 9.90005 15.72 9.90005 15.73 9.90005C15.77 9.88005 15.9 9.86005 16.03 9.86005C16.54 9.86005 16.95 10.1401 17.11 10.5901C17.21 10.8401 17.35 11.5101 16.53 12.0901C16.47 12.1301 16.36 12.2101 16.22 12.2901C16.09 12.3701 15.97 12.4501 15.87 12.5201C16.01 12.8801 16.44 13.6801 17.64 14.2701C18.12 14.5301 18.22 14.8601 18.22 15.1001C18.22 15.3501 18.12 15.7001 17.64 15.9601C17.29 16.1501 16.99 16.2401 16.74 16.3101C16.72 16.3101 16.7 16.32 16.67 16.33C16.62 16.54 16.53 16.7801 16.28 16.9501C15.99 17.1401 15.69 17.1501 15.39 17.1601C15.11 17.1701 14.8 17.19 14.45 17.3C14.33 17.34 14.19 17.4301 14.02 17.5301C13.6 17.8101 13.01 18.1801 12 18.1801ZM8.69 15.6701C9.03 15.6901 9.47 15.7201 9.97 15.8801C10.27 15.9801 10.51 16.1201 10.77 16.2801C11.1 16.4901 11.41 16.6801 12 16.6801C12.58 16.6801 12.89 16.4901 13.24 16.2701C13.49 16.1201 13.73 15.9801 14.02 15.8801C14.56 15.7101 15.01 15.6801 15.32 15.6701C15.38 15.4801 15.51 15.2801 15.75 15.1201C15.83 15.0701 15.9 15.0301 15.99 14.9901C14.57 13.9101 14.37 12.6401 14.36 12.5701C14.36 12.5601 14.36 12.5401 14.36 12.5301C14.33 12.3401 14.3 11.9401 14.68 11.5701C14.57 11.5201 14.48 11.4501 14.42 11.3801C14.3 11.2601 14.17 11.0401 14.2 10.6901C14.22 10.2701 14.26 9.71005 14.22 9.21005C14.16 8.54005 13.96 8.26005 13.73 7.99005C13.51 7.75005 12.97 7.31006 12.02 7.31006C10.99 7.31006 10.44 7.84006 10.3 8.00006C10.08 8.25006 9.88001 8.54007 9.82001 9.20007C9.79001 9.57007 9.78999 10.0501 9.82999 10.6001C9.83999 10.6501 9.84 10.7101 9.84 10.7401C9.86 11.0301 9.72999 11.2501 9.60999 11.3701C9.55999 11.4301 9.47001 11.5001 9.35001 11.5601C9.74001 11.9301 9.70001 12.3401 9.67001 12.5301C9.67001 12.5401 9.67001 12.5501 9.67001 12.5701C9.66001 12.6301 9.45999 13.9001 8.04999 14.9801C8.12999 15.0201 8.21999 15.0601 8.29999 15.1201C8.50999 15.2801 8.63 15.4901 8.69 15.6701ZM17.31 15.3101L16.96 14.6501C16.96 14.6501 16.95 14.6501 16.95 14.6601L17.31 15.3101L16.95 14.6601L17.31 15.3101Z" fill="black"/>
<path d="M12 22.75C6.07 22.75 1.25 17.93 1.25 12C1.25 6.07 6.07 1.25 12 1.25C17.93 1.25 22.75 6.07 22.75 12C22.75 17.93 17.93 22.75 12 22.75ZM12 2.75C6.9 2.75 2.75 6.9 2.75 12C2.75 17.1 6.9 21.25 12 21.25C17.1 21.25 21.25 17.1 21.25 12C21.25 6.9 17.1 2.75 12 2.75Z" fill="black"/>
</svg>
