<svg width="24" height="24" viewBox="0 0 24 24" fill="none" xmlns="http://www.w3.org/2000/svg">
<path d="M12 22.75C6.07 22.75 1.25 17.93 1.25 12C1.25 6.07 6.07 1.25 12 1.25C17.93 1.25 22.75 6.07 22.75 12C22.75 17.93 17.93 22.75 12 22.75ZM12 2.75C6.9 2.75 2.75 6.9 2.75 12C2.75 17.1 6.9 21.25 12 21.25C17.1 21.25 21.25 17.1 21.25 12C21.25 6.9 17.1 2.75 12 2.75Z" fill="black"/>
<path d="M17.4797 11.42C17.3297 11.42 17.1797 11.37 17.0397 11.28C14.0597 9.14002 10.2397 8.67002 6.83973 10.03C6.44973 10.18 6.01973 9.99001 5.86973 9.61001C5.71973 9.23001 5.90973 8.79003 6.28973 8.64003C10.1697 7.10003 14.5197 7.63003 17.9197 10.07C18.2597 10.31 18.3297 10.78 18.0897 11.12C17.9497 11.31 17.7197 11.42 17.4797 11.42Z" fill="black"/>
<path d="M15.9098 14.1099C15.7598 14.1099 15.6098 14.0599 15.4698 13.9699C13.3498 12.4499 10.6399 12.1199 8.20985 13.0799C7.82985 13.2299 7.38985 13.0399 7.23985 12.6599C7.08985 12.2699 7.27985 11.8399 7.65985 11.6899C10.5598 10.5399 13.8098 10.9399 16.3398 12.7599C16.6798 12.9999 16.7498 13.4699 16.5098 13.8099C16.3698 13.9999 16.1398 14.1099 15.9098 14.1099Z" fill="black"/>
<path d="M14.8105 16.9C14.6605 16.9 14.5105 16.8501 14.3705 16.7601C12.8305 15.6601 10.8605 15.42 9.10048 16.11C8.72048 16.26 8.28047 16.0701 8.13047 15.6901C7.98047 15.3001 8.17047 14.8701 8.55047 14.7201C10.7905 13.8301 13.2905 14.1401 15.2405 15.5401C15.5805 15.7801 15.6505 16.2501 15.4105 16.5901C15.2805 16.7901 15.0505 16.9 14.8105 16.9Z" fill="black"/>
</svg>
