<svg width="24" height="24" viewBox="0 0 24 24" fill="none" xmlns="http://www.w3.org/2000/svg">
<path d="M9.48117 20.69C8.98117 20.69 8.63118 20.52 8.42118 20.36C8.02118 20.07 7.40117 19.32 7.79117 17.64L8.36115 15.18C8.41115 14.97 8.30116 14.59 8.15116 14.43L6.16117 12.44C5.11117 11.39 5.20116 10.48 5.34116 10.03C5.48116 9.58 5.94116 8.78999 7.40116 8.53999L9.95117 8.12C10.1412 8.09 10.4512 7.86 10.5312 7.69L11.9412 4.87C12.6212 3.51 13.5212 3.31 14.0012 3.31C14.4812 3.31 15.3812 3.51 16.0612 4.87L17.4712 7.69C17.5612 7.86 17.8611 8.09 18.0511 8.12L20.6012 8.53999C22.0612 8.77999 22.5212 9.58 22.6612 10.03C22.8012 10.48 22.8912 11.39 21.8412 12.44L19.8512 14.43C19.7012 14.58 19.5912 14.97 19.6412 15.18L20.2112 17.64C20.6012 19.33 19.9811 20.07 19.5811 20.36C19.1811 20.65 18.2912 21.02 16.7912 20.13L14.4012 18.71C14.2012 18.59 13.7811 18.59 13.5811 18.71L11.1912 20.13C10.5012 20.55 9.92117 20.69 9.48117 20.69ZM14.0012 4.81C13.8412 4.81 13.5512 4.99999 13.2812 5.53999L11.8712 8.36C11.5712 8.97 10.8612 9.49001 10.1912 9.60001L7.64118 10.02C7.07118 10.12 6.81117 10.33 6.76117 10.49C6.71117 10.65 6.80115 10.97 7.21115 11.38L9.20117 13.37C9.71117 13.88 9.98117 14.81 9.82117 15.51L9.25116 17.97C9.08116 18.68 9.19115 19.06 9.30115 19.15C9.41115 19.23 9.81115 19.22 10.4312 18.84L12.8311 17.42C13.5011 17.02 14.5112 17.02 15.1712 17.42L17.5612 18.84C18.1912 19.21 18.5912 19.23 18.7012 19.15C18.8112 19.07 18.9212 18.69 18.7512 17.97L18.1812 15.51C18.0212 14.8 18.2811 13.88 18.8011 13.37L20.7912 11.38C21.2012 10.97 21.2912 10.64 21.2412 10.49C21.1912 10.34 20.9311 10.12 20.3611 10.02L17.8112 9.60001C17.1412 9.49001 16.4312 8.97 16.1312 8.36L14.7212 5.53999C14.4512 4.99999 14.1612 4.81 14.0012 4.81Z" fill="#292D32"/>
<path d="M8 5.75H2C1.59 5.75 1.25 5.41 1.25 5C1.25 4.59 1.59 4.25 2 4.25H8C8.41 4.25 8.75 4.59 8.75 5C8.75 5.41 8.41 5.75 8 5.75Z" fill="#292D32"/>
<path d="M5 19.75H2C1.59 19.75 1.25 19.41 1.25 19C1.25 18.59 1.59 18.25 2 18.25H5C5.41 18.25 5.75 18.59 5.75 19C5.75 19.41 5.41 19.75 5 19.75Z" fill="#292D32"/>
<path d="M3 12.75H2C1.59 12.75 1.25 12.41 1.25 12C1.25 11.59 1.59 11.25 2 11.25H3C3.41 11.25 3.75 11.59 3.75 12C3.75 12.41 3.41 12.75 3 12.75Z" fill="#292D32"/>
</svg>
