<svg width="24" height="24" viewBox="0 0 24 24" fill="none" xmlns="http://www.w3.org/2000/svg">
<path d="M5.28012 19.4C5.22012 19.4 5.17012 19.39 5.11012 19.38C4.71012 19.29 4.45012 18.88 4.55012 18.48L5.12012 16.02C5.20012 15.7 5.04012 15.15 4.80012 14.91L2.32012 12.43C1.08012 11.19 1.18012 10.13 1.35012 9.61C1.52012 9.09 2.06012 8.17 3.78012 7.88L6.97012 7.35C7.27012 7.29 7.70012 6.97 7.83012 6.7L9.60012 3.17C10.4001 1.56 11.4501 1.33 12.0001 1.33C12.5501 1.33 13.6001 1.57 14.4001 3.17L16.1601 6.69C16.2201 6.81 16.3501 6.95 16.5001 7.07C16.8301 7.32 16.8901 7.8 16.6301 8.12C16.3801 8.45 15.9101 8.51 15.5801 8.25C15.3401 8.07 15.0201 7.76 14.8201 7.36L13.0601 3.84C12.7501 3.21 12.3501 2.83 12.0001 2.83C11.6501 2.83 11.2501 3.21 10.9401 3.85L9.17012 7.37C8.82012 8.07 7.98012 8.69 7.21012 8.82L4.03012 9.35C3.35012 9.46 2.89012 9.73 2.78012 10.06C2.67012 10.39 2.90012 10.88 3.39012 11.36L5.87012 13.84C6.47012 14.44 6.78012 15.52 6.59012 16.35L6.02012 18.81C5.93012 19.16 5.63012 19.4 5.28012 19.4Z" fill="#292D32"/>
<path d="M17.6593 22.67C17.1293 22.67 16.4493 22.5 15.5993 22L12.6093 20.23C12.2993 20.05 11.6993 20.05 11.3993 20.23L8.39933 22C8.04933 22.21 7.57933 22.09 7.36933 21.74C7.15933 21.38 7.27933 20.92 7.62933 20.71L10.6193 18.94C11.3993 18.48 12.5793 18.48 13.3593 18.94L16.3493 20.71C17.2193 21.23 17.7693 21.23 17.9793 21.08C18.1893 20.93 18.3393 20.4 18.1193 19.42L17.4093 16.35C17.2193 15.52 17.5293 14.45 18.1293 13.84L20.6093 11.36C21.0993 10.87 21.3193 10.39 21.2193 10.06C21.1093 9.73 20.6493 9.46 19.9693 9.35C19.5593 9.28 19.2893 8.9 19.3493 8.49C19.4193 8.08 19.7993 7.81 20.2093 7.87C21.9393 8.16 22.4793 9.08 22.6393 9.6C22.7993 10.12 22.8993 11.18 21.6693 12.42L19.1993 14.9C18.9593 15.14 18.8093 15.68 18.8793 16.01L19.5893 19.08C20.0493 21.08 19.3393 21.95 18.8793 22.29C18.6293 22.47 18.2293 22.67 17.6593 22.67Z" fill="#292D32"/>
<path d="M1.99945 22.75C1.80945 22.75 1.61945 22.68 1.46945 22.53C1.17945 22.24 1.17945 21.76 1.46945 21.47L21.4695 1.47C21.7595 1.18 22.2395 1.18 22.5295 1.47C22.8195 1.76 22.8195 2.24 22.5295 2.53L2.52945 22.53C2.37945 22.68 2.18945 22.75 1.99945 22.75Z" fill="#292D32"/>
</svg>
