<svg width="24" height="24" viewBox="0 0 24 24" fill="none" xmlns="http://www.w3.org/2000/svg">
<path d="M9.9898 22.55C9.9398 22.55 9.8898 22.55 9.8398 22.53C6.0098 21.75 2.8998 18.93 1.7398 15.19C1.6198 14.79 1.8398 14.37 2.2298 14.25C2.6298 14.13 3.0498 14.35 3.1698 14.74C4.1698 17.96 6.8398 20.38 10.1398 21.05C10.5498 21.13 10.8098 21.53 10.7198 21.94C10.6498 22.3 10.3298 22.55 9.9898 22.55Z" fill="#292D32"/>
<path d="M21.9502 11.73C21.5702 11.73 21.2402 11.44 21.2002 11.06C20.7202 6.32 16.7602 2.75 12.0002 2.75C7.23022 2.75 3.28022 6.32 2.80022 11.05C2.76022 11.46 2.40022 11.77 1.98022 11.72C1.57022 11.68 1.27022 11.31 1.31022 10.9C1.87022 5.4 6.47022 1.25 12.0002 1.25C17.5402 1.25 22.1402 5.4 22.6902 10.9C22.7302 11.31 22.4302 11.68 22.0202 11.72C22.0002 11.73 21.9702 11.73 21.9502 11.73Z" fill="#292D32"/>
<path d="M14.0101 22.55C13.6601 22.55 13.3501 22.31 13.2801 21.95C13.2001 21.54 13.4601 21.15 13.8601 21.07C17.1401 20.4 19.8101 18 20.8201 14.8C20.9401 14.4 21.3701 14.18 21.7601 14.31C22.1601 14.43 22.3701 14.86 22.2501 15.25C21.0701 18.97 17.9701 21.76 14.1601 22.54C14.1101 22.54 14.0601 22.55 14.0101 22.55Z" fill="#292D32"/>
</svg>
