<svg width="24" height="24" viewBox="0 0 24 24" fill="none" xmlns="http://www.w3.org/2000/svg">
<path d="M11.9693 22.75C11.3593 22.75 10.7293 22.7 10.0893 22.59C5.68932 21.84 2.09932 18.24 1.36932 13.82C0.789319 10.31 1.87932 6.87997 4.36932 4.38997C6.85932 1.89997 10.2893 0.81997 13.7893 1.38997C18.1993 2.11997 21.8093 5.69997 22.5593 10.1C22.7193 11.07 22.7593 12.02 22.6793 12.92V12.93C22.6593 13.16 22.6193 13.38 22.5593 13.6C22.4893 13.85 22.2993 14.04 22.0593 14.12C21.8193 14.2 21.5493 14.14 21.3493 13.98C20.4093 13.19 19.2093 12.75 17.9693 12.75C15.0693 12.75 12.7193 15.11 12.7193 18C12.7193 19.24 13.1593 20.44 13.9493 21.38C14.1193 21.58 14.1693 21.84 14.0893 22.09C14.0093 22.34 13.8193 22.52 13.5693 22.59C13.3493 22.65 13.1293 22.69 12.8993 22.71C12.5993 22.74 12.2893 22.75 11.9693 22.75ZM11.9693 2.74997C9.51932 2.74997 7.19932 3.69997 5.43932 5.45997C3.29932 7.59997 2.35932 10.56 2.85932 13.58C3.48932 17.37 6.55932 20.47 10.3493 21.11C10.9493 21.21 11.5193 21.27 12.0693 21.25C11.5293 20.26 11.2393 19.14 11.2393 18C11.2393 14.28 14.2693 11.25 17.9893 11.25C19.1293 11.25 20.2493 11.54 21.2393 12.08C21.2493 11.53 21.1993 10.96 21.0993 10.36C20.4593 6.57997 17.3593 3.49997 13.5693 2.87997C13.0193 2.78997 12.4893 2.74997 11.9693 2.74997Z" fill="#292D32"/>
<path d="M13.3807 22.61C13.1607 22.61 12.9507 22.52 12.8107 22.34C11.7907 21.13 11.2207 19.59 11.2207 18C11.2207 14.28 14.2507 11.25 17.9707 11.25C19.5607 11.25 21.1007 11.81 22.3107 12.84C22.5407 13.03 22.6307 13.34 22.5507 13.62C22.3707 14.24 22.0507 14.78 21.5907 15.24L15.2107 21.62C14.7507 22.08 14.2007 22.4 13.5907 22.58C13.5207 22.6 13.4507 22.61 13.3807 22.61ZM17.9707 12.75C15.0707 12.75 12.7207 15.11 12.7207 18C12.7207 19.06 13.0407 20.09 13.6307 20.95C13.8207 20.85 13.9907 20.72 14.1507 20.56L20.5307 14.18C20.6907 14.02 20.8207 13.85 20.9207 13.66C20.0607 13.07 19.0307 12.75 17.9707 12.75Z" fill="#292D32"/>
</svg>
