<svg width="24" height="24" viewBox="0 0 24 24" fill="none" xmlns="http://www.w3.org/2000/svg">
<path d="M11.9995 19.3701C10.2095 19.3701 8.41945 18.6901 7.04945 17.3201C4.31945 14.5901 4.31945 10.1501 7.04945 7.42006C9.77945 4.69006 14.2195 4.69006 16.9495 7.42006C19.6795 10.1501 19.6795 14.5901 16.9495 17.3201C15.5795 18.6901 13.7895 19.3701 11.9995 19.3701ZM11.9995 6.87007C10.5895 6.87007 9.17945 7.41006 8.10945 8.48006C5.96945 10.6301 5.96945 14.1101 8.10945 16.2601C10.2595 18.4101 13.7495 18.4001 15.8895 16.2601C18.0295 14.1101 18.0295 10.6301 15.8895 8.48006C14.8195 7.41006 13.4095 6.87007 11.9995 6.87007Z" fill="#292D32"/>
<path d="M8.24906 22.39C8.15906 22.39 8.05906 22.37 7.96906 22.34C5.71906 21.44 3.89905 19.85 2.67905 17.75C1.49905 15.7 1.02905 13.38 1.33905 11.02C1.38905 10.61 1.76905 10.32 2.17905 10.37C2.58905 10.42 2.87904 10.8 2.82904 11.21C2.56904 13.23 2.96907 15.23 3.97907 16.99C5.01907 18.79 6.58905 20.16 8.51905 20.93C8.89905 21.09 9.08906 21.52 8.93906 21.91C8.82906 22.21 8.53906 22.39 8.24906 22.39Z" fill="#292D32"/>
<path d="M5.84961 5.22998C5.62961 5.22998 5.40961 5.13 5.25961 4.94C4.99961 4.61 5.05962 4.14001 5.38962 3.89001C7.29962 2.40001 9.57961 1.60999 11.9996 1.60999C14.3596 1.60999 16.6096 2.37 18.4996 3.81C18.8296 4.06 18.8896 4.52999 18.6396 4.85999C18.3896 5.18999 17.9196 5.25 17.5896 5C15.9696 3.76 14.0396 3.10999 11.9996 3.10999C9.91961 3.10999 7.9496 3.79001 6.3096 5.07001C6.1696 5.18001 6.00961 5.22998 5.84961 5.22998Z" fill="#292D32"/>
<path d="M15.7507 22.39C15.4507 22.39 15.1707 22.21 15.0507 21.92C14.9007 21.54 15.0807 21.1 15.4707 20.94C17.4007 20.16 18.9707 18.8 20.0107 17C21.0307 15.24 21.4307 13.24 21.1607 11.22C21.1107 10.81 21.4007 10.43 21.8107 10.38C22.2107 10.33 22.6007 10.62 22.6507 11.03C22.9507 13.38 22.4907 15.71 21.3107 17.76C20.1007 19.86 18.2707 21.44 16.0207 22.35C15.9407 22.37 15.8507 22.39 15.7507 22.39Z" fill="#292D32"/>
</svg>
