<svg width="24" height="24" viewBox="0 0 24 24" fill="none" xmlns="http://www.w3.org/2000/svg">
<path d="M15 22.75H9C3.57 22.75 1.25 20.43 1.25 15V9C1.25 3.57 3.57 1.25 9 1.25H15C20.43 1.25 22.75 3.57 22.75 9V15C22.75 20.43 20.43 22.75 15 22.75ZM9 2.75C4.39 2.75 2.75 4.39 2.75 9V15C2.75 19.61 4.39 21.25 9 21.25H15C19.61 21.25 21.25 19.61 21.25 15V9C21.25 4.39 19.61 2.75 15 2.75H9Z" fill="#292D32"/>
<path d="M12.0011 16.56C10.9011 16.56 10.0011 15.66 10.0011 14.56V12.96C9.4111 12.47 9.0111 11.78 8.9111 11.01C8.8911 10.89 8.87109 10.72 8.87109 10.56C8.87109 9.58998 9.31109 8.68998 10.0911 8.08998C10.8711 7.48998 11.8711 7.29998 12.8311 7.54998C13.8811 7.82998 14.7511 8.68999 15.0211 9.73998C15.1311 10.15 15.1611 10.58 15.0911 11.01C14.9811 11.77 14.5911 12.46 14.0011 12.95V14.55C14.0011 15.66 13.1011 16.56 12.0011 16.56ZM11.9911 8.93998C11.6311 8.93998 11.2911 9.04998 11.0011 9.27998C10.6011 9.58998 10.3711 10.06 10.3711 10.56C10.3711 10.63 10.3711 10.71 10.3911 10.77C10.4611 11.27 10.7311 11.68 11.1511 11.94L11.5011 12.16V14.56C11.5011 14.84 11.7211 15.06 12.0011 15.06C12.2811 15.06 12.5011 14.84 12.5011 14.56V12.16L12.8511 11.94C13.2611 11.68 13.5411 11.27 13.6011 10.8V10.78C13.6411 10.56 13.6311 10.34 13.5711 10.13C13.4311 9.57998 12.9811 9.13998 12.4411 8.99998C12.2911 8.95998 12.1411 8.93998 11.9911 8.93998Z" fill="#292D32"/>
<path d="M21.9996 10.16H14.3496V11.66H21.9996V10.16Z" fill="#292D32"/>
<path d="M9.64999 10.16H2V11.66H9.64999V10.16Z" fill="#292D32"/>
</svg>
