<svg width="24" height="24" viewBox="0 0 24 24" fill="none" xmlns="http://www.w3.org/2000/svg">
<path d="M14.6694 21.65H4.21943C3.11943 21.65 2.14945 21.08 1.61945 20.12C1.08945 19.16 1.11947 18.03 1.69947 17.1L4.46943 12.67C4.68943 12.32 4.68943 11.67 4.46943 11.33L1.69947 6.89998C1.11947 5.96998 1.08945 4.83998 1.61945 3.87998C2.14945 2.91998 3.12943 2.34998 4.21943 2.34998H15.6594C16.5994 2.34998 17.6894 2.94998 18.1794 3.74998L22.3594 10.43C22.9194 11.33 22.8694 12.71 22.2294 13.56L17.0494 20.46C16.5394 21.14 15.5194 21.65 14.6694 21.65ZM4.21943 3.84998C3.67943 3.84998 3.18945 4.12998 2.92945 4.60998C2.66945 5.08998 2.67943 5.64998 2.96943 6.10998L5.73945 10.54C6.25945 11.38 6.25945 12.64 5.73945 13.48L2.96943 17.91C2.67943 18.37 2.66945 18.93 2.92945 19.41C3.18945 19.89 3.67943 20.17 4.21943 20.17H14.6694C15.0494 20.17 15.6194 19.88 15.8494 19.58L21.0295 12.68C21.2995 12.32 21.3295 11.63 21.0895 11.25L16.9094 4.56998C16.6894 4.20998 16.0794 3.87998 15.6594 3.87998H4.21943V3.84998Z" fill="#292D32"/>
</svg>
