<svg width="24" height="24" viewBox="0 0 24 24" fill="none" xmlns="http://www.w3.org/2000/svg">
<path d="M12.0691 21.9801C10.6591 21.9801 9.23911 21.4401 8.16911 20.3701L3.63911 15.8401C2.53911 14.7401 1.95911 13.2201 2.02911 11.6701L2.26911 6.67005C2.37911 4.28005 4.26911 2.39005 6.66911 2.27005L11.6691 2.03005C13.2191 1.97005 14.7391 2.54005 15.8391 3.64005L20.3691 8.17005C22.5191 10.3201 22.5191 13.8301 20.3691 15.9801L15.9791 20.3701C14.8991 21.4401 13.4891 21.9801 12.0691 21.9801ZM4.69911 14.7701L9.22911 19.3001C9.98911 20.0601 10.9991 20.4801 12.0691 20.4801C13.1391 20.4801 14.1491 20.0601 14.9091 19.3001L19.2991 14.9101C20.0591 14.1501 20.4791 13.1401 20.4791 12.0701C20.4791 11.0001 20.0591 9.99005 19.2991 9.23005L14.7691 4.70005C13.9691 3.90005 12.8591 3.47005 11.7391 3.53005L6.73911 3.77005C5.10911 3.84005 3.83911 5.11005 3.75911 6.73005L3.51911 11.7301C3.46911 12.8601 3.89911 13.9701 4.69911 14.7701Z" fill="#292D32"/>
<path d="M9.5 12.75C7.71 12.75 6.25 11.29 6.25 9.5C6.25 7.71 7.71 6.25 9.5 6.25C11.29 6.25 12.75 7.71 12.75 9.5C12.75 11.29 11.29 12.75 9.5 12.75ZM9.5 7.75C8.54 7.75 7.75 8.54 7.75 9.5C7.75 10.46 8.54 11.25 9.5 11.25C10.46 11.25 11.25 10.46 11.25 9.5C11.25 8.54 10.46 7.75 9.5 7.75Z" fill="#292D32"/>
</svg>
