<svg width="24" height="24" viewBox="0 0 24 24" fill="none" xmlns="http://www.w3.org/2000/svg">
<path d="M17.6191 9.62H12.3691C11.9591 9.62 11.6191 9.28 11.6191 8.87C11.6191 8.46 11.9591 8.12 12.3691 8.12H17.6191C18.0291 8.12 18.3691 8.46 18.3691 8.87C18.3691 9.28 18.0391 9.62 17.6191 9.62Z" fill="#292D32"/>
<path d="M7.12055 10.3799C6.93055 10.3799 6.74055 10.3099 6.59055 10.1599L5.84055 9.40995C5.55055 9.11995 5.55055 8.63995 5.84055 8.34995C6.13055 8.05995 6.61055 8.05995 6.90055 8.34995L7.12055 8.56995L8.84055 6.84995C9.13055 6.55995 9.61055 6.55995 9.90055 6.84995C10.1905 7.13995 10.1905 7.61995 9.90055 7.90995L7.65055 10.1599C7.51055 10.2999 7.32055 10.3799 7.12055 10.3799Z" fill="#292D32"/>
<path d="M17.6191 16.62H12.3691C11.9591 16.62 11.6191 16.28 11.6191 15.87C11.6191 15.46 11.9591 15.12 12.3691 15.12H17.6191C18.0291 15.12 18.3691 15.46 18.3691 15.87C18.3691 16.28 18.0391 16.62 17.6191 16.62Z" fill="#292D32"/>
<path d="M7.12055 17.3799C6.93055 17.3799 6.74055 17.3099 6.59055 17.1599L5.84055 16.4099C5.55055 16.1199 5.55055 15.6399 5.84055 15.3499C6.13055 15.0599 6.61055 15.0599 6.90055 15.3499L7.12055 15.5699L8.84055 13.8499C9.13055 13.5599 9.61055 13.5599 9.90055 13.8499C10.1905 14.1399 10.1905 14.6199 9.90055 14.9099L7.65055 17.1599C7.51055 17.2999 7.32055 17.3799 7.12055 17.3799Z" fill="#292D32"/>
<path d="M15 22.75H9C3.57 22.75 1.25 20.43 1.25 15V9C1.25 3.57 3.57 1.25 9 1.25H15C20.43 1.25 22.75 3.57 22.75 9V15C22.75 20.43 20.43 22.75 15 22.75ZM9 2.75C4.39 2.75 2.75 4.39 2.75 9V15C2.75 19.61 4.39 21.25 9 21.25H15C19.61 21.25 21.25 19.61 21.25 15V9C21.25 4.39 19.61 2.75 15 2.75H9Z" fill="#292D32"/>
</svg>
