<svg width="24" height="24" viewBox="0 0 24 24" fill="none" xmlns="http://www.w3.org/2000/svg">
<path d="M12.0103 17C11.1603 17 10.3003 16.78 9.63031 16.35L3.61031 12.42C2.49031 11.69 1.82031 10.46 1.82031 9.11997C1.82031 7.77997 2.49031 6.54997 3.61031 5.81997L9.64031 1.89997C10.9803 1.02997 13.0703 1.02997 14.4003 1.90997L20.3903 5.83997C21.5003 6.56997 22.1703 7.79997 22.1703 9.12997C22.1703 10.46 21.5003 11.69 20.3903 12.42L14.4003 16.35C13.7303 16.79 12.8703 17 12.0103 17ZM12.0103 2.74997C11.4403 2.74997 10.8703 2.87997 10.4603 3.15997L4.44031 7.07997C3.74031 7.53997 3.33031 8.27997 3.33031 9.11997C3.33031 9.95997 3.73031 10.7 4.44031 11.16L10.4603 15.09C11.2903 15.63 12.7503 15.63 13.5803 15.09L19.5703 11.16C20.2703 10.7 20.6703 9.95997 20.6703 9.11997C20.6703 8.27997 20.2703 7.53997 19.5703 7.07997L13.5803 3.14997C13.1603 2.88997 12.5903 2.74997 12.0103 2.74997Z" fill="#292D32"/>
<path d="M11.9992 22.75C11.5592 22.75 11.1092 22.69 10.7492 22.57L7.5592 21.51C6.0492 21.01 4.8592 19.36 4.8692 17.77L4.8792 13.08C4.8792 12.67 5.2192 12.33 5.6292 12.33C6.0392 12.33 6.3792 12.67 6.3792 13.08L6.3692 17.77C6.3692 18.71 7.1492 19.79 8.0392 20.09L11.2292 21.15C11.6292 21.28 12.3692 21.28 12.7692 21.15L15.9592 20.09C16.8492 19.79 17.6292 18.71 17.6292 17.78V13.14C17.6292 12.73 17.9692 12.39 18.3792 12.39C18.7892 12.39 19.1292 12.73 19.1292 13.14V17.78C19.1292 19.37 17.9492 21.01 16.4392 21.52L13.2492 22.58C12.8892 22.69 12.4392 22.75 11.9992 22.75Z" fill="#292D32"/>
<path d="M21.4004 15.75C20.9904 15.75 20.6504 15.41 20.6504 15V9C20.6504 8.59 20.9904 8.25 21.4004 8.25C21.8104 8.25 22.1504 8.59 22.1504 9V15C22.1504 15.41 21.8104 15.75 21.4004 15.75Z" fill="#292D32"/>
</svg>
