<svg width="24" height="24" viewBox="0 0 24 24" fill="none" xmlns="http://www.w3.org/2000/svg">
<path d="M11.9997 21.4001C11.0597 21.4001 10.1197 21.0801 9.40973 20.4301L2.47972 14.1401C1.26972 13.0401 0.889723 11.0301 1.61972 9.57011L4.01973 4.75011C4.61973 3.55011 6.12973 2.61011 7.46973 2.61011H16.5297C17.8697 2.61011 19.3797 3.55011 19.9797 4.75011L22.3797 9.57011C23.1097 11.0301 22.7297 13.0401 21.5197 14.1401L14.5897 20.4301C13.8797 21.0701 12.9397 21.4001 11.9997 21.4001ZM7.46973 4.10011C6.68973 4.10011 5.70973 4.71011 5.35973 5.41011L2.95973 10.2301C2.53973 11.0801 2.77973 12.3801 3.48973 13.0201L10.4197 19.3101C11.2797 20.0901 12.7297 20.0901 13.5797 19.3101L20.5097 13.0201C21.2097 12.3801 21.4597 11.0801 21.0397 10.2301L18.6397 5.41011C18.2897 4.72011 17.3097 4.11011 16.5297 4.11011H7.46973V4.10011Z" fill="black"/>
<path d="M12 15.25C11.59 15.25 11.25 14.91 11.25 14.5V8.5C11.25 8.09 11.59 7.75 12 7.75C12.41 7.75 12.75 8.09 12.75 8.5V14.5C12.75 14.91 12.41 15.25 12 15.25Z" fill="black"/>
<path d="M16 9.25H8C7.59 9.25 7.25 8.91 7.25 8.5C7.25 8.09 7.59 7.75 8 7.75H16C16.41 7.75 16.75 8.09 16.75 8.5C16.75 8.91 16.41 9.25 16 9.25Z" fill="black"/>
</svg>
