<svg width="24" height="24" viewBox="0 0 24 24" fill="none" xmlns="http://www.w3.org/2000/svg">
<path d="M18.8809 3.75H9.62086C9.21086 3.75 8.88086 3.41 8.88086 3C8.88086 2.59 9.22086 2.25 9.63086 2.25H18.8809C19.2909 2.25 19.6309 2.59 19.6309 3C19.6309 3.41 19.2909 3.75 18.8809 3.75Z" fill="#292D32"/>
<path d="M14.3791 21.75H5.11914C4.70914 21.75 4.36914 21.41 4.36914 21C4.36914 20.59 4.70914 20.25 5.11914 20.25H14.3691C14.7791 20.25 15.1191 20.59 15.1191 21C15.1191 21.41 14.7891 21.75 14.3791 21.75Z" fill="#292D32"/>
<path d="M9.7501 21.75C9.6901 21.75 9.6301 21.74 9.5701 21.73C9.1701 21.63 8.9201 21.22 9.0201 20.82L13.5201 2.81998C13.6201 2.41998 14.0201 2.16998 14.4301 2.26998C14.8301 2.36998 15.0801 2.77998 14.9801 3.17998L10.4801 21.18C10.3901 21.52 10.0901 21.75 9.7501 21.75Z" fill="#292D32"/>
</svg>
