<svg width="24" height="24" viewBox="0 0 24 24" fill="none" xmlns="http://www.w3.org/2000/svg">
<path d="M21.3299 7.92003C20.9199 7.92003 20.5799 7.58003 20.5799 7.17003V5.35003C20.5799 4.62003 19.9899 4.03003 19.2599 4.03003H4.73992C4.00992 4.03003 3.41992 4.62003 3.41992 5.35003V7.18003C3.41992 7.59003 3.07992 7.93003 2.66992 7.93003C2.25992 7.93003 1.91992 7.59003 1.91992 7.17003V5.35003C1.91992 3.79003 3.18992 2.53003 4.73992 2.53003H19.2599C20.8199 2.53003 22.0799 3.80003 22.0799 5.35003V7.18003C22.0799 7.59003 21.7499 7.92003 21.3299 7.92003Z" fill="#292D32"/>
<path d="M12 21.47C11.59 21.47 11.25 21.13 11.25 20.72V4.10999C11.25 3.69999 11.59 3.35999 12 3.35999C12.41 3.35999 12.75 3.69999 12.75 4.10999V20.72C12.75 21.14 12.41 21.47 12 21.47Z" fill="#292D32"/>
<path d="M15.9405 21.47H8.06055C7.65055 21.47 7.31055 21.13 7.31055 20.72C7.31055 20.31 7.65055 19.97 8.06055 19.97H15.9405C16.3505 19.97 16.6905 20.31 16.6905 20.72C16.6905 21.13 16.3505 21.47 15.9405 21.47Z" fill="#292D32"/>
</svg>
