<svg width="24" height="24" viewBox="0 0 24 24" fill="none" xmlns="http://www.w3.org/2000/svg">
<path d="M5.64043 22.75C5.06043 22.75 4.52039 22.47 4.16039 21.96C3.65039 21.24 3.71042 20.31 4.31042 19.67L11.6404 11.71L8.09044 8.12002C7.66044 7.69002 7.48039 7.07002 7.60039 6.47002C7.72039 5.87002 8.13042 5.38002 8.69042 5.14002L17.6304 1.39002C18.4204 1.06002 19.2904 1.30002 19.8104 1.98002C20.3204 2.67002 20.3004 3.57002 19.7604 4.24002L13.6904 11.65L17.2704 15.28C17.7004 15.71 17.8804 16.33 17.7604 16.93C17.6404 17.53 17.2304 18.02 16.6704 18.26L6.37041 22.6C6.13041 22.7 5.89043 22.75 5.64043 22.75ZM12.6904 12.79L5.4204 20.69C5.2604 20.86 5.34043 21.02 5.39043 21.11C5.45043 21.19 5.5804 21.32 5.7904 21.22L16.0904 16.88C16.2304 16.82 16.2704 16.7 16.2904 16.64C16.3004 16.58 16.3104 16.45 16.2004 16.34L12.6904 12.79ZM9.16039 7.07002L12.6304 10.58L18.5904 3.30002C18.7304 3.13002 18.6604 2.97002 18.6004 2.89002C18.5404 2.81002 18.4204 2.69002 18.2004 2.78002L9.26043 6.53002C9.12043 6.59002 9.08042 6.71002 9.06042 6.77002C9.04042 6.83002 9.06039 6.96002 9.16039 7.07002Z" fill="black"/>
</svg>
