<svg width="24" height="24" viewBox="0 0 24 24" fill="none" xmlns="http://www.w3.org/2000/svg">
<path d="M17.0007 20.75H7.0007C2.7507 20.75 1.3607 19.48 1.2607 15.52C1.2607 15.32 1.3307 15.12 1.4707 14.98C1.6107 14.84 1.8007 14.75 2.0107 14.75C3.5207 14.75 4.7507 13.51 4.7507 12C4.7507 10.49 3.5207 9.25 2.0107 9.25C1.8107 9.25 1.6207 9.17 1.4707 9.02C1.3207 8.87 1.2507 8.68 1.2607 8.48C1.3607 4.52 2.7507 3.25 7.0007 3.25H17.0007C21.4107 3.25 22.7507 4.59 22.7507 9V15C22.7507 19.41 21.4107 20.75 17.0007 20.75ZM2.7907 16.18C2.9607 18.72 3.8207 19.25 7.0007 19.25H17.0007C20.5807 19.25 21.2507 18.57 21.2507 15V9C21.2507 5.43 20.5807 4.75 17.0007 4.75H7.0007C3.8207 4.75 2.9607 5.29 2.7907 7.82C4.7607 8.2 6.2507 9.93 6.2507 12C6.2507 14.07 4.7607 15.8 2.7907 16.18Z" fill="#292D32"/>
<path d="M9 8.25C8.59 8.25 8.25 7.91 8.25 7.5V4C8.25 3.59 8.59 3.25 9 3.25C9.41 3.25 9.75 3.59 9.75 4V7.5C9.75 7.91 9.41 8.25 9 8.25Z" fill="#292D32"/>
<path d="M9 20.75C8.59 20.75 8.25 20.41 8.25 20V16.5C8.25 16.09 8.59 15.75 9 15.75C9.41 15.75 9.75 16.09 9.75 16.5V20C9.75 20.41 9.41 20.75 9 20.75Z" fill="#292D32"/>
<path d="M13.0401 15.65C12.8001 15.65 12.5601 15.57 12.3601 15.43C12.0001 15.17 11.8201 14.73 11.9001 14.29L12.1101 13.1L11.2401 12.25C10.9201 11.94 10.8101 11.48 10.9401 11.06C11.0801 10.64 11.4401 10.33 11.8801 10.27L13.0801 10.09L13.6201 8.99998C13.8201 8.59998 14.2201 8.34998 14.6601 8.34998C15.1101 8.34998 15.5101 8.59998 15.7001 8.99998L16.2401 10.09L17.4401 10.27C17.8801 10.33 18.2401 10.64 18.3801 11.06C18.5201 11.48 18.4001 11.94 18.0801 12.25L17.2101 13.1L17.4201 14.29C17.5001 14.73 17.3201 15.17 16.9601 15.43C16.6001 15.69 16.1301 15.72 15.7401 15.52L14.6701 14.96L13.5901 15.52C13.4201 15.61 13.2301 15.65 13.0401 15.65ZM12.7701 11.65L13.2801 12.15C13.5601 12.42 13.6801 12.8 13.6201 13.18L13.5001 13.88L14.1301 13.55C14.4701 13.37 14.8701 13.37 15.2101 13.55L15.8401 13.88L15.7201 13.18C15.6601 12.79 15.7801 12.41 16.0601 12.15L16.5701 11.65L15.8701 11.55C15.4901 11.49 15.1601 11.25 14.9901 10.91L14.6801 10.27L14.3701 10.91C14.2001 11.25 13.8701 11.49 13.4901 11.55L12.7701 11.65Z" fill="#292D32"/>
</svg>
