<svg width="24" height="24" viewBox="0 0 24 24" fill="none" xmlns="http://www.w3.org/2000/svg">
<path d="M17.3802 20.75H10.9102C10.5002 20.75 10.1602 20.41 10.1602 20C10.1602 19.59 10.5002 19.25 10.9102 19.25H17.3802C20.4402 19.25 21.1602 18.75 21.2402 16.03C19.9202 15.69 18.9402 14.49 18.9402 13.07C18.9402 11.64 19.9202 10.43 21.2502 10.09V9.82996C21.2502 6.53996 20.6702 5.95996 17.3802 5.95996H11.7502V12C11.7502 12.41 11.4102 12.75 11.0002 12.75C10.5902 12.75 10.2502 12.41 10.2502 12V5.20996C10.2502 4.79996 10.5902 4.45996 11.0002 4.45996H17.3802C21.5002 4.45996 22.7502 5.70996 22.7502 9.82996V10.75C22.7502 11.16 22.4102 11.5 22.0002 11.5C21.1402 11.5 20.4402 12.2 20.4402 13.07C20.4402 13.93 21.1402 14.63 22.0002 14.63C22.4102 14.63 22.7502 14.97 22.7502 15.38C22.7502 19.5 21.5002 20.75 17.3802 20.75Z" fill="#292D32"/>
<path d="M11.0004 20.75H8.23044C6.21044 20.75 5.17044 19.23 4.22044 16.95L4.03044 16.49C3.96044 16.31 3.96044 16.1 4.04044 15.92C4.12044 15.74 4.27044 15.59 4.45044 15.52C4.85044 15.36 5.16044 15.05 5.33044 14.66C5.50044 14.26 5.50044 13.82 5.33044 13.42C5.00044 12.58 4.05044 12.19 3.21044 12.52C3.02044 12.6 2.82044 12.59 2.63044 12.51C2.45044 12.43 2.30044 12.28 2.23044 12.1L2.06044 11.67C0.460436 7.77997 1.16044 6.10997 5.05044 4.49997L7.69044 3.41997C8.07044 3.25997 8.51044 3.44997 8.67044 3.82997L11.7004 11.17C11.7404 11.26 11.7604 11.36 11.7604 11.46V14C11.7604 14.41 11.4204 14.75 11.0104 14.75C10.6004 14.75 10.2604 14.41 10.2604 14V11.6L7.56044 5.08997L5.62044 5.88997C2.54044 7.15997 2.17044 7.93997 3.38044 10.94C4.77044 10.74 6.17044 11.49 6.72044 12.84C7.04044 13.61 7.04044 14.46 6.71044 15.23C6.49044 15.76 6.13044 16.21 5.67044 16.54C6.63044 18.8 7.33044 19.25 8.22044 19.25H10.2404V17C10.2404 16.59 10.5804 16.25 10.9904 16.25C11.4004 16.25 11.7404 16.59 11.7404 17V20C11.7504 20.41 11.4104 20.75 11.0004 20.75Z" fill="#292D32"/>
<path d="M8.17 20.75H8C7.59 20.75 7.25 20.41 7.25 20C7.25 19.59 7.59 19.25 8 19.25H8.17C8.58 19.25 8.92 19.59 8.92 20C8.92 20.41 8.58 20.75 8.17 20.75Z" fill="#292D32"/>
</svg>
