<svg width="24" height="24" viewBox="0 0 24 24" fill="none" xmlns="http://www.w3.org/2000/svg">
<path d="M16.6891 22.75H7.30914C3.13914 22.75 1.86914 21.48 1.86914 17.31V16.85C1.86914 16.44 2.20914 16.1 2.61914 16.1C3.49914 16.1 4.21914 15.38 4.21914 14.5C4.21914 13.62 3.49914 12.9 2.61914 12.9C2.20914 12.9 1.86914 12.56 1.86914 12.15V11.69C1.86914 7.52 3.13914 6.25 7.30914 6.25H16.6891C20.8591 6.25 22.1291 7.52 22.1291 11.69V12.63C22.1291 13.04 21.7891 13.38 21.3791 13.38C20.4991 13.38 19.7791 14.1 19.7791 14.98C19.7791 15.86 20.4991 16.57 21.3791 16.57C21.7891 16.57 22.1291 16.91 22.1291 17.32C22.1191 21.48 20.8491 22.75 16.6891 22.75ZM3.37914 17.51C3.39914 20.69 4.02914 21.25 7.31914 21.25H16.6991C19.8191 21.25 20.5391 20.74 20.6291 17.97C19.2891 17.63 18.2891 16.42 18.2891 14.97C18.2891 13.52 19.2891 12.3 20.6391 11.96V11.68C20.6391 8.33 20.0491 7.74 16.6991 7.74H7.30914C4.02914 7.74 3.39914 8.31 3.36914 11.48C4.71914 11.82 5.71914 13.04 5.71914 14.49C5.71914 15.94 4.71914 17.17 3.37914 17.51Z" fill="#292D32"/>
<path d="M10 10.25C9.59 10.25 9.25 9.91 9.25 9.5V7C9.25 6.59 9.59 6.25 10 6.25C10.41 6.25 10.75 6.59 10.75 7V9.5C10.75 9.91 10.41 10.25 10 10.25Z" fill="#292D32"/>
<path d="M10 16.92C9.59 16.92 9.25 16.58 9.25 16.17V12.84C9.25 12.43 9.59 12.09 10 12.09C10.41 12.09 10.75 12.43 10.75 12.84V16.17C10.75 16.58 10.41 16.92 10 16.92Z" fill="#292D32"/>
<path d="M10 22.75C9.59 22.75 9.25 22.41 9.25 22V19.5C9.25 19.09 9.59 18.75 10 18.75C10.41 18.75 10.75 19.09 10.75 19.5V22C10.75 22.41 10.41 22.75 10 22.75Z" fill="#292D32"/>
<path d="M16.3302 7.75001H7.24017C6.94017 7.75001 6.66017 7.57001 6.55017 7.29001C6.44017 7.01001 6.50017 6.68001 6.71017 6.47001L9.64017 3.54001C12.3402 0.840015 13.9902 0.840015 16.6802 3.54001L17.2802 4.14001C17.4202 4.28001 17.5002 4.47001 17.5002 4.67001C17.5002 4.87001 17.4202 5.06001 17.2802 5.20001C16.8802 5.60001 16.7702 6.19001 17.0002 6.70001C17.1102 6.93001 17.0902 7.20001 16.9502 7.42001C16.8202 7.62001 16.5802 7.75001 16.3302 7.75001ZM9.05017 6.25001H15.3802C15.3602 5.72001 15.4902 5.19001 15.7602 4.73001L15.6302 4.60001C13.5402 2.51001 12.8002 2.51001 10.7102 4.60001L9.05017 6.25001Z" fill="#292D32"/>
</svg>
