<svg width="24" height="24" viewBox="0 0 24 24" fill="none" xmlns="http://www.w3.org/2000/svg">
<path d="M12 13.75C11.59 13.75 11.25 13.41 11.25 13V8C11.25 7.59 11.59 7.25 12 7.25C12.41 7.25 12.75 7.59 12.75 8V13C12.75 13.41 12.41 13.75 12 13.75Z" fill="#292D32"/>
<path d="M12 22.75C6.76 22.75 2.5 18.49 2.5 13.25C2.5 8.01 6.76 3.75 12 3.75C17.24 3.75 21.5 8.01 21.5 13.25C21.5 13.66 21.16 14 20.75 14C20.34 14 20 13.66 20 13.25C20 8.84 16.41 5.25 12 5.25C7.59 5.25 4 8.84 4 13.25C4 17.66 7.59 21.25 12 21.25C12.41 21.25 12.75 21.59 12.75 22C12.75 22.41 12.41 22.75 12 22.75Z" fill="#292D32"/>
<path d="M15 2.75H9C8.59 2.75 8.25 2.41 8.25 2C8.25 1.59 8.59 1.25 9 1.25H15C15.41 1.25 15.75 1.59 15.75 2C15.75 2.41 15.41 2.75 15 2.75Z" fill="#292D32"/>
<path d="M16.1504 22.02C15.8004 22.02 15.4804 21.94 15.1904 21.77C14.5304 21.39 14.1504 20.62 14.1504 19.66V17.35C14.1504 16.39 14.5304 15.62 15.1904 15.24C15.8504 14.86 16.7004 14.92 17.5304 15.39L19.5304 16.55C20.3604 17.03 20.8404 17.74 20.8404 18.5C20.8404 19.26 20.3604 19.97 19.5304 20.45L17.5304 21.61C17.0704 21.88 16.6004 22.02 16.1504 22.02ZM16.1604 16.48C16.0804 16.48 16.0004 16.5 15.9404 16.53C15.7604 16.63 15.6504 16.94 15.6504 17.34V19.65C15.6504 20.05 15.7604 20.36 15.9404 20.46C16.1204 20.56 16.4404 20.51 16.7804 20.31L18.7804 19.15C19.1304 18.95 19.3404 18.7 19.3404 18.5C19.3404 18.3 19.1304 18.05 18.7804 17.85L16.7804 16.69C16.5504 16.55 16.3304 16.48 16.1604 16.48Z" fill="#292D32"/>
</svg>
