<svg width="24" height="24" viewBox="0 0 24 24" fill="none" xmlns="http://www.w3.org/2000/svg">
<path d="M15 22.75H9C3.57 22.75 1.25 20.43 1.25 15V9C1.25 3.57 3.57 1.25 9 1.25H15C20.43 1.25 22.75 3.57 22.75 9V15C22.75 20.43 20.43 22.75 15 22.75ZM9 2.75C4.39 2.75 2.75 4.39 2.75 9V15C2.75 19.61 4.39 21.25 9 21.25H15C19.61 21.25 21.25 19.61 21.25 15V9C21.25 4.39 19.61 2.75 15 2.75H9Z" fill="black"/>
<path d="M9.54987 18.47H7.09985C6.00985 18.47 5.12988 17.58 5.12988 16.49V7.51004C5.12988 6.42004 6.01985 5.53003 7.09985 5.53003H9.54987C10.6399 5.53003 11.5299 6.42004 11.5299 7.51004V16.49C11.5299 17.58 10.6399 18.47 9.54987 18.47ZM7.09985 7.03003C6.83985 7.03003 6.62988 7.25004 6.62988 7.51004V16.49C6.62988 16.75 6.84985 16.97 7.09985 16.97H9.54987C9.80987 16.97 10.0299 16.75 10.0299 16.49V7.51004C10.0299 7.25004 9.80987 7.03003 9.54987 7.03003H7.09985Z" fill="black"/>
<path d="M17.1398 14.38H14.1998C13.2398 14.38 12.4697 13.6 12.4697 12.65V7.26004C12.4697 6.30004 13.2498 5.53003 14.1998 5.53003H17.1398C18.0998 5.53003 18.8698 6.31004 18.8698 7.26004V12.65C18.8798 13.61 18.0998 14.38 17.1398 14.38ZM14.2098 7.03003C14.0798 7.03003 13.9797 7.14004 13.9797 7.26004V12.65C13.9797 12.78 14.0898 12.88 14.2098 12.88H17.1498C17.2798 12.88 17.3798 12.77 17.3798 12.65V7.26004C17.3798 7.13004 17.2698 7.03003 17.1498 7.03003H14.2098Z" fill="black"/>
</svg>
