<svg width="24" height="24" viewBox="0 0 24 24" fill="none" xmlns="http://www.w3.org/2000/svg">
<path d="M18.0605 22.16H5.94046C3.99046 22.16 2.50046 21.45 1.74046 20.17C0.990464 18.89 1.09046 17.24 2.04046 15.54L8.10046 4.63003C9.10046 2.83003 10.4805 1.84003 12.0005 1.84003C13.5205 1.84003 14.9005 2.83003 15.9005 4.63003L21.9605 15.54C22.9105 17.25 23.0205 18.89 22.2605 20.17C21.5005 21.45 20.0105 22.16 18.0605 22.16ZM12.0005 3.34003C11.0605 3.34003 10.1405 4.06003 9.41046 5.36003L3.36046 16.27C2.68046 17.49 2.57046 18.61 3.04046 19.42C3.51046 20.22 4.55046 20.67 5.95046 20.67H18.0705C19.4705 20.67 20.5005 20.23 20.9805 19.42C21.4505 18.61 21.3405 17.5 20.6605 16.27L14.5905 5.36003C13.8605 4.06003 12.9405 3.34003 12.0005 3.34003Z" fill="#292D32"/>
<path d="M21.4408 20.75C21.2908 20.75 21.1408 20.71 21.0108 20.61L12.0008 14.3L2.99084 20.61C2.65084 20.85 2.18084 20.77 1.95084 20.43C1.71084 20.09 1.79084 19.62 2.13084 19.39L11.5708 12.78C11.8308 12.6 12.1708 12.6 12.4308 12.78L21.8708 19.39C22.2108 19.63 22.2908 20.1 22.0508 20.43C21.9108 20.64 21.6808 20.75 21.4408 20.75Z" fill="#292D32"/>
<path d="M12 14.14C11.59 14.14 11.25 13.8 11.25 13.39V3C11.25 2.59 11.59 2.25 12 2.25C12.41 2.25 12.75 2.59 12.75 3V13.39C12.75 13.8 12.41 14.14 12 14.14Z" fill="#292D32"/>
</svg>
