<svg width="24" height="24" viewBox="0 0 24 24" fill="none" xmlns="http://www.w3.org/2000/svg">
<path d="M10.2302 21.88C10.1602 21.88 10.0903 21.88 10.0203 21.86C9.43026 21.78 8.93022 21.34 8.66022 20.66L1.94025 3.86001C1.67025 3.19001 1.73027 2.54001 2.09027 2.07001C2.46027 1.60001 3.07022 1.38001 3.79022 1.48001L16.7603 3.21001C17.1103 3.26001 17.5203 3.46001 17.7703 3.71001L20.9003 6.84001C21.5103 7.46001 21.5802 8.47001 21.0402 9.16001L11.6602 21.1C11.2602 21.61 10.7502 21.88 10.2302 21.88ZM3.46027 2.96001C3.34027 2.96001 3.28026 2.99001 3.27026 3.00001C3.27026 3.01001 3.25026 3.12001 3.33026 3.31001L10.0502 20.11C10.1302 20.31 10.2202 20.38 10.2302 20.38C10.2402 20.38 10.3402 20.34 10.4702 20.17L19.8502 8.23001C19.9202 8.15001 19.9103 7.97001 19.8303 7.90001L16.7003 4.77001C16.6803 4.75001 16.5902 4.71001 16.5502 4.70001L3.60022 2.97001C3.55022 2.96001 3.50027 2.96001 3.46027 2.96001Z" fill="black"/>
<path d="M10.0003 21.75C9.98034 21.75 9.95033 21.75 9.93033 21.75C9.52033 21.71 9.21034 21.35 9.25034 20.94L10.2203 10.32L2.51035 3.47001C2.20035 3.19001 2.17035 2.72001 2.45035 2.41001C2.73035 2.10001 3.20035 2.07001 3.51035 2.35001L11.5003 9.45001C11.6803 9.61001 11.7703 9.84001 11.7503 10.08L10.7503 21.08C10.7103 21.46 10.3803 21.75 10.0003 21.75Z" fill="black"/>
<path d="M10.9998 10.7499C10.7298 10.7499 10.4699 10.5999 10.3399 10.3499C10.1799 10.0599 10.2398 9.69994 10.4698 9.46994L16.4698 3.46994C16.7598 3.17994 17.2399 3.17994 17.5299 3.46994C17.8199 3.75994 17.8199 4.23994 17.5299 4.52994L13.2799 8.77994L19.8898 7.45994C20.2998 7.37994 20.6899 7.63994 20.7699 8.04994C20.8499 8.45994 20.5898 8.84994 20.1798 8.92994L11.1398 10.7399C11.0998 10.7499 11.0498 10.7499 10.9998 10.7499Z" fill="black"/>
</svg>
