<svg width="24" height="24" viewBox="0 0 24 24" fill="none" xmlns="http://www.w3.org/2000/svg">
<path d="M10.4998 22.54C10.0998 22.54 9.70977 22.4499 9.33977 22.2799L2.83977 19.2199C1.87977 18.7699 1.25977 17.79 1.25977 16.73V9.26993C1.25977 8.20993 1.87977 7.22994 2.83977 6.77994L9.33977 3.71995C10.0798 3.36995 10.9298 3.37995 11.6698 3.71995L14.3398 4.97995C14.6498 5.12995 14.8198 5.45995 14.7598 5.78995C14.7498 5.85995 14.7498 5.92994 14.7498 5.99994C14.7498 7.78994 16.2098 9.24994 17.9998 9.24994C18.2898 9.24994 18.5498 9.21994 18.7998 9.14994C19.0198 9.07994 19.2698 9.12993 19.4598 9.26993C19.6498 9.40993 19.7598 9.62994 19.7598 9.86994V16.73C19.7598 17.79 19.1398 18.7699 18.1798 19.2199L11.6798 22.2799C11.2998 22.4499 10.8998 22.54 10.4998 22.54ZM10.4998 4.95994C10.3198 4.95994 10.1298 4.99993 9.95978 5.07993L3.45978 8.13996C3.01978 8.34996 2.73978 8.77993 2.73978 9.26993V16.73C2.73978 17.22 3.01978 17.6499 3.45978 17.8599L9.95978 20.92C10.2998 21.07 10.6898 21.08 11.0298 20.92L17.5298 17.8599C17.9698 17.6499 18.2498 17.22 18.2498 16.73V10.7399C18.1698 10.7399 18.0798 10.7499 17.9998 10.7499C15.4198 10.7499 13.3198 8.68995 13.2498 6.12995L11.0298 5.07993C10.8598 4.99993 10.6798 4.95994 10.4998 4.95994Z" fill="black"/>
<path d="M9 16.25C7.48 16.25 6.25 15.02 6.25 13.5V10.5C6.25 10.09 6.59 9.75 7 9.75C7.41 9.75 7.75 10.09 7.75 10.5V13.5C7.75 14.19 8.31 14.75 9 14.75C9.69 14.75 10.25 14.19 10.25 13.5V10.5C10.25 10.09 10.59 9.75 11 9.75C11.41 9.75 11.75 10.09 11.75 10.5V13.5C11.75 15.02 10.52 16.25 9 16.25Z" fill="black"/>
<path d="M14 16.19C13.59 16.19 13.25 15.85 13.25 15.44V10.5C13.25 10.09 13.59 9.75 14 9.75C14.41 9.75 14.75 10.09 14.75 10.5V15.44C14.75 15.86 14.41 16.19 14 16.19Z" fill="black"/>
<path d="M18 10.75C15.38 10.75 13.25 8.62 13.25 6C13.25 5.85 13.25 5.68 13.28 5.53C13.48 3.12 15.51 1.25 18 1.25C20.62 1.25 22.75 3.38 22.75 6C22.75 8.17 21.28 10.06 19.19 10.6C18.82 10.7 18.43 10.75 18 10.75ZM18 2.75C16.3 2.75 14.91 4.03 14.77 5.72C14.75 5.86 14.75 5.93 14.75 6C14.75 7.79 16.21 9.25 18 9.25C18.29 9.25 18.55 9.21999 18.8 9.14999C20.25 8.77999 21.25 7.49 21.25 6C21.25 4.21 19.79 2.75 18 2.75Z" fill="black"/>
<path d="M19.0901 5.91006C19.3301 5.70006 19.4602 5.42005 19.4602 5.08005C19.4602 4.31005 18.8802 3.80005 18.0002 3.80005C17.1202 3.80005 16.5401 4.32005 16.5401 5.08005C16.5401 5.41005 16.6702 5.70006 16.9102 5.91006C16.5902 6.15006 16.4102 6.50008 16.4102 6.89008C16.4102 7.70008 17.0201 8.20007 18.0101 8.20007C19.0001 8.20007 19.6102 7.70008 19.6102 6.89008C19.6002 6.49008 19.4201 6.14006 19.0901 5.91006ZM18.0002 5.51007C17.7302 5.51007 17.5602 5.36007 17.5602 5.13007C17.5602 4.85007 17.7902 4.76007 18.0002 4.76007C18.2102 4.76007 18.4402 4.86007 18.4402 5.13007C18.4402 5.36007 18.2702 5.51007 18.0002 5.51007ZM18.0002 6.34006C18.2802 6.34006 18.5802 6.46007 18.5802 6.79007C18.5802 7.08007 18.3602 7.25006 18.0002 7.25006C17.6402 7.25006 17.4202 7.08007 17.4202 6.79007C17.4202 6.38007 17.8602 6.34006 18.0002 6.34006Z" fill="black"/>
</svg>
