<svg width="24" height="24" viewBox="0 0 24 24" fill="none" xmlns="http://www.w3.org/2000/svg">
<path d="M15.1309 19.0601H7.13086C6.72086 19.0601 6.38086 18.7201 6.38086 18.3101C6.38086 17.9001 6.72086 17.5601 7.13086 17.5601H15.1309C17.4709 17.5601 19.3809 15.6501 19.3809 13.3101C19.3809 10.9701 17.4709 9.06006 15.1309 9.06006H4.13086C3.72086 9.06006 3.38086 8.72006 3.38086 8.31006C3.38086 7.90006 3.72086 7.56006 4.13086 7.56006H15.1309C18.3009 7.56006 20.8809 10.1401 20.8809 13.3101C20.8809 16.4801 18.3009 19.0601 15.1309 19.0601Z" fill="#292D32"/>
<path d="M6.43055 11.56C6.24055 11.56 6.05055 11.49 5.90055 11.34L3.34055 8.78C3.05055 8.49 3.05055 8.01 3.34055 7.72L5.90055 5.16C6.19055 4.87 6.67055 4.87 6.96055 5.16C7.25055 5.45 7.25055 5.93 6.96055 6.22L4.93055 8.25001L6.96055 10.28C7.25055 10.57 7.25055 11.05 6.96055 11.34C6.82055 11.49 6.62055 11.56 6.43055 11.56Z" fill="#292D32"/>
</svg>
