<svg width="24" height="24" viewBox="0 0 24 24" fill="none" xmlns="http://www.w3.org/2000/svg">
<path d="M12 12.75C8.83 12.75 6.25 10.17 6.25 7C6.25 3.83 8.83 1.25 12 1.25C15.17 1.25 17.75 3.83 17.75 7C17.75 10.17 15.17 12.75 12 12.75ZM12 2.75C9.66 2.75 7.75 4.66 7.75 7C7.75 9.34 9.66 11.25 12 11.25C14.34 11.25 16.25 9.34 16.25 7C16.25 4.66 14.34 2.75 12 2.75Z" fill="#292D32"/>
<path d="M15.8196 22.75C15.4396 22.75 15.0796 22.61 14.8196 22.35C14.5096 22.04 14.3696 21.59 14.4396 21.12L14.6296 19.77C14.6796 19.42 14.8896 19.01 15.1396 18.75L18.6796 15.21C20.0996 13.79 21.3496 14.6 21.9596 15.21C22.4796 15.73 22.7496 16.29 22.7496 16.85C22.7496 17.42 22.4896 17.95 21.9596 18.48L18.4195 22.02C18.1695 22.27 17.7496 22.48 17.3996 22.53L16.0495 22.72C15.9695 22.74 15.8996 22.75 15.8196 22.75ZM20.3096 15.92C20.1296 15.92 19.9696 16.04 19.7396 16.27L16.1996 19.81C16.1696 19.84 16.1196 19.94 16.1196 19.98L15.9396 21.23L17.1896 21.05C17.2296 21.04 17.3295 20.99 17.3595 20.96L20.8996 17.42C21.0596 17.26 21.2496 17.03 21.2496 16.85C21.2496 16.7 21.1296 16.49 20.8996 16.27C20.6596 16.03 20.4796 15.92 20.3096 15.92Z" fill="#292D32"/>
<path d="M20.9206 19.22C20.8506 19.22 20.7806 19.21 20.7206 19.19C19.4006 18.82 18.3506 17.77 17.9806 16.45C17.8706 16.05 18.1006 15.64 18.5006 15.53C18.9006 15.42 19.3106 15.65 19.4206 16.05C19.6506 16.87 20.3006 17.52 21.1206 17.75C21.5206 17.86 21.7506 18.28 21.6406 18.67C21.5506 19 21.2506 19.22 20.9206 19.22Z" fill="#292D32"/>
<path d="M3.41016 22.75C3.00016 22.75 2.66016 22.41 2.66016 22C2.66016 17.73 6.85018 14.25 12.0002 14.25C13.0902 14.25 14.1702 14.41 15.1802 14.71C15.5802 14.83 15.8002 15.25 15.6802 15.64C15.5602 16.04 15.1402 16.26 14.7502 16.14C13.8702 15.88 12.9502 15.74 12.0002 15.74C7.68018 15.74 4.16016 18.54 4.16016 21.99C4.16016 22.41 3.82016 22.75 3.41016 22.75Z" fill="#292D32"/>
</svg>
