<svg width="24" height="24" viewBox="0 0 24 24" fill="none" xmlns="http://www.w3.org/2000/svg">
<path d="M22 3.78003H2C1.59 3.78003 1.25 3.44003 1.25 3.03003C1.25 2.62003 1.59 2.28003 2 2.28003H22C22.41 2.28003 22.75 2.62003 22.75 3.03003C22.75 3.44003 22.41 3.78003 22 3.78003Z" fill="black"/>
<path d="M11.9997 21.7201C11.3597 21.7201 10.7797 21.4001 10.4297 20.8701L2.46966 8.48011C2.09966 7.91011 2.07965 7.18011 2.39965 6.58011C2.72965 5.98011 3.34966 5.61011 4.02966 5.61011H19.9597C20.6397 5.61011 21.2697 5.98011 21.5897 6.58011C21.9197 7.18011 21.8896 7.91011 21.5196 8.48011L13.5597 20.8701C13.2197 21.4001 12.6397 21.7201 11.9997 21.7201ZM4.03967 7.11011C3.84967 7.11011 3.74966 7.24011 3.71966 7.30011C3.68966 7.36011 3.62967 7.5101 3.72967 7.6701L11.6897 20.0601C11.7797 20.2001 11.9196 20.2301 11.9896 20.2301C12.0596 20.2301 12.1997 20.2101 12.2897 20.0601L20.2497 7.6701C20.3497 7.5101 20.2897 7.36011 20.2597 7.30011C20.2297 7.24011 20.1397 7.11011 19.9397 7.11011H4.03967Z" fill="black"/>
</svg>
