<svg width="24" height="24" viewBox="0 0 24 24" fill="none" xmlns="http://www.w3.org/2000/svg">
<path d="M12.0002 22.75C11.3302 22.75 10.6501 22.58 10.0501 22.23L4.11014 18.8C2.91014 18.1 2.16016 16.81 2.16016 15.42V8.57999C2.16016 7.18999 2.91014 5.89999 4.11014 5.19999L10.0501 1.77C11.2501 1.07 12.7402 1.07 13.9502 1.77L19.8902 5.19999C21.0902 5.89999 21.8401 7.18999 21.8401 8.57999V15.42C21.8401 16.81 21.0902 18.1 19.8902 18.8L13.9502 22.23C13.3502 22.58 12.6702 22.75 12.0002 22.75ZM12.0002 2.74998C11.5902 2.74998 11.1701 2.85998 10.8001 3.06998L4.86014 6.49998C4.12014 6.92998 3.66016 7.71999 3.66016 8.57999V15.42C3.66016 16.27 4.12014 17.07 4.86014 17.5L10.8001 20.93C11.5401 21.36 12.4602 21.36 13.2002 20.93L19.1402 17.5C19.8802 17.07 20.3401 16.28 20.3401 15.42V8.57999C20.3401 7.72999 19.8802 6.92998 19.1402 6.49998L13.2002 3.06998C12.8302 2.85998 12.4102 2.74998 12.0002 2.74998Z" fill="#292D32"/>
<path d="M11.0902 15.67C10.7302 15.67 10.3902 15.58 10.0802 15.41C9.39023 15.01 8.99023 14.2 8.99023 13.19V10.79C8.99023 9.78002 9.39023 8.97005 10.0802 8.57005C10.7702 8.17005 11.6703 8.23004 12.5403 8.74004L14.6202 9.94005C15.4902 10.44 16.0002 11.19 16.0002 11.99C16.0002 12.79 15.5002 13.53 14.6202 14.04L12.5403 15.24C12.0603 15.53 11.5602 15.67 11.0902 15.67ZM11.1003 9.82005C11.0003 9.82005 10.9102 9.84005 10.8402 9.88005C10.6302 10.0001 10.5002 10.34 10.5002 10.8V13.2001C10.5002 13.6501 10.6302 13.99 10.8402 14.12C11.0502 14.24 11.4102 14.1801 11.8002 13.9501L13.8802 12.75C14.2702 12.52 14.5002 12.24 14.5002 12C14.5002 11.76 14.2702 11.48 13.8802 11.25L11.8002 10.05C11.5402 9.90003 11.2903 9.82005 11.1003 9.82005Z" fill="#292D32"/>
</svg>
