<svg width="24" height="24" viewBox="0 0 24 24" fill="none" xmlns="http://www.w3.org/2000/svg">
<path d="M15 22.75H9C3.57 22.75 1.25 20.43 1.25 15V9C1.25 3.57 3.57 1.25 9 1.25H15C20.43 1.25 22.75 3.57 22.75 9V15C22.75 20.43 20.43 22.75 15 22.75ZM9 2.75C4.39 2.75 2.75 4.39 2.75 9V15C2.75 19.61 4.39 21.25 9 21.25H15C19.61 21.25 21.25 19.61 21.25 15V9C21.25 4.39 19.61 2.75 15 2.75H9Z" fill="#292D32"/>
<path d="M21.4795 17.86H2.51953C2.10953 17.86 1.76953 17.52 1.76953 17.11C1.76953 16.7 2.10953 16.36 2.51953 16.36H21.4795C21.8895 16.36 22.2295 16.7 22.2295 17.11C22.2295 17.52 21.8995 17.86 21.4795 17.86Z" fill="#292D32"/>
<path d="M21.4795 7.85999H2.51953C2.10953 7.85999 1.76953 7.51999 1.76953 7.10999C1.76953 6.69999 2.09953 6.35999 2.51953 6.35999H21.4795C21.8895 6.35999 22.2295 6.69999 22.2295 7.10999C22.2295 7.51999 21.8995 7.85999 21.4795 7.85999Z" fill="#292D32"/>
<path d="M6.9707 22.21C6.5607 22.21 6.2207 21.87 6.2207 21.46V17.11C6.2207 16.7 6.5607 16.36 6.9707 16.36C7.3807 16.36 7.7207 16.7 7.7207 17.11V21.46C7.7207 21.88 7.3807 22.21 6.9707 22.21Z" fill="#292D32"/>
<path d="M12 22.72C11.59 22.72 11.25 22.38 11.25 21.97V17.11C11.25 16.7 11.59 16.36 12 16.36C12.41 16.36 12.75 16.7 12.75 17.11V21.97C12.75 22.38 12.41 22.72 12 22.72Z" fill="#292D32"/>
<path d="M16.9707 22.27C16.5607 22.27 16.2207 21.93 16.2207 21.52V17.11C16.2207 16.7 16.5607 16.36 16.9707 16.36C17.3807 16.36 17.7207 16.7 17.7207 17.11V21.52C17.7207 21.94 17.3807 22.27 16.9707 22.27Z" fill="#292D32"/>
<path d="M6.9707 7.20999C6.5607 7.20999 6.2207 6.86999 6.2207 6.45999V2.10999C6.2207 1.69999 6.5607 1.35999 6.9707 1.35999C7.3807 1.35999 7.7207 1.69999 7.7207 2.10999V6.45999C7.7207 6.87999 7.3807 7.20999 6.9707 7.20999Z" fill="#292D32"/>
<path d="M12 7.71999C11.59 7.71999 11.25 7.37999 11.25 6.96999V2.10999C11.25 1.69999 11.59 1.35999 12 1.35999C12.41 1.35999 12.75 1.69999 12.75 2.10999V6.96999C12.75 7.37999 12.41 7.71999 12 7.71999Z" fill="#292D32"/>
<path d="M12 18.78C11.59 18.78 11.25 18.44 11.25 18.03V7.03003C11.25 6.62003 11.59 6.28003 12 6.28003C12.41 6.28003 12.75 6.62003 12.75 7.03003V18.03C12.75 18.44 12.41 18.78 12 18.78Z" fill="#292D32"/>
<path d="M16.9707 7.26999C16.5607 7.26999 16.2207 6.92999 16.2207 6.51999V2.10999C16.2207 1.69999 16.5607 1.35999 16.9707 1.35999C17.3807 1.35999 17.7207 1.69999 17.7207 2.10999V6.51999C17.7207 6.93999 17.3807 7.26999 16.9707 7.26999Z" fill="#292D32"/>
</svg>
