<svg width="24" height="24" viewBox="0 0 24 24" fill="none" xmlns="http://www.w3.org/2000/svg">
<path d="M15 22.75H9C3.57 22.75 1.25 20.43 1.25 15V9C1.25 3.57 3.57 1.25 9 1.25H15C20.43 1.25 22.75 3.57 22.75 9V15C22.75 20.43 20.43 22.75 15 22.75ZM9 2.75C4.39 2.75 2.75 4.39 2.75 9V15C2.75 19.61 4.39 21.25 9 21.25H15C19.61 21.25 21.25 19.61 21.25 15V9C21.25 4.39 19.61 2.75 15 2.75H9Z" fill="#292D32"/>
<path d="M21.4795 7.85999H2.51953C2.10953 7.85999 1.76953 7.51999 1.76953 7.10999C1.76953 6.69999 2.09953 6.35999 2.51953 6.35999H21.4795C21.8895 6.35999 22.2295 6.69999 22.2295 7.10999C22.2295 7.51999 21.8995 7.85999 21.4795 7.85999Z" fill="#292D32"/>
<path d="M8.51953 7.71999C8.10953 7.71999 7.76953 7.37999 7.76953 6.96999V2.10999C7.76953 1.69999 8.10953 1.35999 8.51953 1.35999C8.92953 1.35999 9.26953 1.69999 9.26953 2.10999V6.96999C9.26953 7.37999 8.92953 7.71999 8.51953 7.71999Z" fill="#292D32"/>
<path d="M15.4805 7.26999C15.0705 7.26999 14.7305 6.92999 14.7305 6.51999V2.10999C14.7305 1.69999 15.0705 1.35999 15.4805 1.35999C15.8905 1.35999 16.2305 1.69999 16.2305 2.10999V6.51999C16.2305 6.93999 15.9005 7.26999 15.4805 7.26999Z" fill="#292D32"/>
<path d="M11.09 18.12C10.73 18.12 10.39 18.03 10.08 17.86C9.4 17.46 9 16.66 9 15.65V13.25C9 12.24 9.4 11.43 10.09 11.03C10.78 10.63 11.68 10.69 12.55 11.2L14.63 12.4C15.5 12.9 16.01 13.65 16.01 14.45C16.01 15.25 15.5 16 14.62 16.5L12.54 17.7C12.06 17.98 11.56 18.12 11.09 18.12ZM11.1 12.27C11 12.27 10.91 12.29 10.84 12.33C10.63 12.45 10.5 12.79 10.5 13.25V15.65C10.5 16.1 10.63 16.44 10.84 16.57C11.05 16.69 11.41 16.63 11.8 16.4L13.88 15.2C14.27 14.97 14.51 14.69 14.51 14.45C14.51 14.21 14.28 13.93 13.88 13.7L11.8 12.5C11.54 12.35 11.29 12.27 11.1 12.27Z" fill="#292D32"/>
</svg>
