<svg width="24" height="24" viewBox="0 0 24 24" fill="none" xmlns="http://www.w3.org/2000/svg">
<path d="M7 17.7501H5C2.58 17.7501 1.25 16.4201 1.25 14.0001V10.0001C1.25 7.58012 2.58 6.25012 5 6.25012H6.43C6.66 6.25012 6.89 6.18012 7.09 6.06012L10.01 4.23012C11.47 3.32012 12.89 3.15012 14.01 3.77012C15.13 4.39012 15.74 5.68012 15.74 7.41012V8.37012C15.74 8.78012 15.4 9.12012 14.99 9.12012C14.58 9.12012 14.24 8.78012 14.24 8.37012V7.41012C14.24 6.27012 13.89 5.42012 13.28 5.09012C12.67 4.75012 11.77 4.90012 10.8 5.51012L7.88 7.33012C7.45 7.61012 6.94 7.75012 6.43 7.75012H5C3.42 7.75012 2.75 8.42012 2.75 10.0001V14.0001C2.75 15.5801 3.42 16.2501 5 16.2501H7C7.41 16.2501 7.75 16.5901 7.75 17.0001C7.75 17.4101 7.41 17.7501 7 17.7501Z" fill="#292D32"/>
<path d="M12.5496 20.59C11.7596 20.59 10.8896 20.31 10.0196 19.76C9.6696 19.54 9.5596 19.08 9.7796 18.73C9.9996 18.38 10.4596 18.27 10.8096 18.49C11.7796 19.09 12.6796 19.25 13.2896 18.91C13.8996 18.57 14.2496 17.72 14.2496 16.59V12.95C14.2496 12.54 14.5896 12.2 14.9996 12.2C15.4096 12.2 15.7496 12.54 15.7496 12.95V16.59C15.7496 18.31 15.1296 19.61 14.0196 20.23C13.5696 20.47 13.0696 20.59 12.5496 20.59Z" fill="#292D32"/>
<path d="M18.0003 16.7501C17.8403 16.7501 17.6903 16.7001 17.5503 16.6001C17.2203 16.3501 17.1503 15.8801 17.4003 15.5501C18.6603 13.8701 18.9303 11.6401 18.1203 9.71007C17.9603 9.33007 18.1403 8.89007 18.5203 8.73007C18.9003 8.57007 19.3403 8.75007 19.5003 9.13007C20.5203 11.5501 20.1703 14.3601 18.6003 16.4601C18.4503 16.6501 18.2303 16.7501 18.0003 16.7501Z" fill="#292D32"/>
<path d="M19.8304 19.25C19.6704 19.25 19.5204 19.2 19.3804 19.1C19.0504 18.85 18.9804 18.38 19.2304 18.05C21.3704 15.2 21.8404 11.38 20.4604 8.08995C20.3004 7.70995 20.4804 7.26995 20.8604 7.10995C21.2504 6.94996 21.6804 7.12996 21.8404 7.50996C23.4304 11.29 22.8904 15.67 20.4304 18.95C20.2904 19.15 20.0604 19.25 19.8304 19.25Z" fill="#292D32"/>
<path d="M1.99945 22.7499C1.80945 22.7499 1.61945 22.6799 1.46945 22.5299C1.17945 22.2399 1.17945 21.7599 1.46945 21.4699L21.4695 1.46994C21.7595 1.17994 22.2395 1.17994 22.5295 1.46994C22.8195 1.75994 22.8195 2.23994 22.5295 2.52994L2.52945 22.5299C2.37945 22.6799 2.18945 22.7499 1.99945 22.7499Z" fill="#292D32"/>
</svg>
