<svg width="24" height="24" viewBox="0 0 24 24" fill="none" xmlns="http://www.w3.org/2000/svg">
<path d="M12.55 20.5901C11.76 20.5901 10.89 20.3101 10.02 19.7601L7.1 17.9301C6.9 17.8101 6.67 17.7401 6.44 17.7401H5C2.58 17.7401 1.25 16.4101 1.25 13.9901V9.99011C1.25 7.57011 2.58 6.24011 5 6.24011H6.43C6.66 6.24011 6.89 6.17011 7.09 6.05011L10.01 4.22011C11.47 3.31011 12.89 3.14011 14.01 3.76011C15.13 4.38011 15.74 5.67011 15.74 7.40011V16.5701C15.74 18.2901 15.12 19.5901 14.01 20.2101C13.57 20.4701 13.07 20.5901 12.55 20.5901ZM5 7.75011C3.42 7.75011 2.75 8.42011 2.75 10.0001V14.0001C2.75 15.5801 3.42 16.2501 5 16.2501H6.43C6.95 16.2501 7.45 16.3901 7.89 16.6701L10.81 18.5001C11.77 19.1001 12.68 19.2601 13.29 18.9201C13.9 18.5801 14.25 17.7301 14.25 16.6001V7.41011C14.25 6.27011 13.9 5.42011 13.29 5.09011C12.68 4.75011 11.77 4.90011 10.81 5.51011L7.88 7.33011C7.45 7.61011 6.94 7.75011 6.43 7.75011H5Z" fill="#292D32"/>
<path d="M18.0003 16.75C17.8403 16.75 17.6903 16.7 17.5503 16.6C17.2203 16.35 17.1503 15.88 17.4003 15.55C18.9703 13.46 18.9703 10.54 17.4003 8.45003C17.1503 8.12003 17.2203 7.65003 17.5503 7.40003C17.8803 7.15003 18.3503 7.22003 18.6003 7.55003C20.5603 10.17 20.5603 13.83 18.6003 16.45C18.4503 16.65 18.2303 16.75 18.0003 16.75Z" fill="#292D32"/>
<path d="M19.8304 19.25C19.6704 19.25 19.5204 19.2 19.3804 19.1C19.0504 18.85 18.9804 18.38 19.2304 18.05C21.9004 14.49 21.9004 9.51003 19.2304 5.95003C18.9804 5.62003 19.0504 5.15003 19.3804 4.90003C19.7104 4.65003 20.1804 4.72003 20.4304 5.05003C23.5004 9.14003 23.5004 14.86 20.4304 18.95C20.2904 19.15 20.0604 19.25 19.8304 19.25Z" fill="#292D32"/>
</svg>
