<svg width="24" height="24" viewBox="0 0 24 24" fill="none" xmlns="http://www.w3.org/2000/svg">
<path d="M11.9998 22.75C11.7498 22.75 11.5098 22.62 11.3698 22.41L2.32981 8.41C2.10981 8.06 2.20981 7.59999 2.54981 7.36999C2.89981 7.14999 3.35982 7.23999 3.58982 7.58999L11.9898 20.61L20.3598 7.58999C20.5798 7.23999 21.0498 7.13998 21.3998 7.35998C21.7498 7.57998 21.8498 8.04999 21.6298 8.39999L12.6298 22.4C12.4898 22.62 12.2598 22.75 11.9998 22.75Z" fill="black"/>
<path d="M11.9996 18.75C11.7396 18.75 11.5096 18.62 11.3696 18.41L2.36956 4.41C2.21956 4.18 2.20956 3.88999 2.33956 3.64999C2.46956 3.40999 2.71956 3.26001 2.99956 3.26001H5.99956C6.24956 3.26001 6.47956 3.38 6.61956 3.59L11.9996 11.65L17.3796 3.59C17.5196 3.38 17.7496 3.26001 17.9996 3.26001H20.9996C21.2696 3.26001 21.5296 3.40999 21.6596 3.64999C21.7896 3.88999 21.7796 4.18 21.6296 4.41L12.6296 18.41C12.4896 18.62 12.2596 18.75 11.9996 18.75ZM4.36956 4.75L11.9996 16.61L19.6296 4.75H18.3996L12.6196 13.42C12.3396 13.84 11.6496 13.84 11.3696 13.42L5.58956 4.75H4.36956Z" fill="black"/>
<path d="M11.9998 9.75C11.7498 9.75 11.5198 9.63001 11.3798 9.42001L7.37985 3.42001C7.19985 3.15001 7.20985 2.80001 7.40985 2.54001C7.60985 2.29001 7.94984 2.18999 8.24984 2.29999L10.0498 2.94V2C10.0498 1.59 10.3898 1.25 10.7998 1.25H13.1999C13.6099 1.25 13.9499 1.59 13.9499 2V2.94L15.7498 2.29999C16.0498 2.18999 16.3898 2.29001 16.5898 2.54001C16.7898 2.79001 16.7998 3.15001 16.6198 3.42001L12.6198 9.42001C12.4798 9.62001 12.2498 9.75 11.9998 9.75ZM9.87985 4.47L11.9998 7.64999L14.1198 4.47L13.4499 4.70999C13.2199 4.78999 12.9698 4.76 12.7698 4.62C12.5698 4.48 12.4499 4.25001 12.4499 4.01001V2.76001H11.5498V4C11.5498 4.24 11.4299 4.46999 11.2299 4.60999C11.0299 4.74999 10.7698 4.78001 10.5498 4.70001L9.87985 4.47Z" fill="black"/>
</svg>
