<svg width="24" height="24" viewBox="0 0 24 24" fill="none" xmlns="http://www.w3.org/2000/svg">
<path d="M16.9996 19.75C16.7396 19.75 16.4896 19.61 16.3596 19.38L14.5096 16.28C14.3696 16.05 14.3696 15.76 14.4996 15.52L17.8396 9.68999L15.3496 5.35999C15.2196 5.12999 15.2196 4.83999 15.3496 4.60999C15.4796 4.37999 15.7296 4.23999 15.9996 4.23999H19.4996C19.7696 4.23999 20.0196 4.37998 20.1496 4.61998L22.8496 9.31999C22.9796 9.54999 22.9796 9.82998 22.8496 10.06L17.6496 19.36C17.5196 19.59 17.2696 19.74 17.0096 19.74C17.0096 19.75 16.9996 19.75 16.9996 19.75ZM16.0196 15.89L16.9796 17.5L21.3396 9.69998L19.0696 5.73999H17.2996L19.3496 9.31999C19.4796 9.54999 19.4796 9.83999 19.3496 10.07L16.0196 15.89Z" fill="black"/>
<path d="M9.9996 19.75C9.7396 19.75 9.48959 19.61 9.35959 19.38L7.50961 16.28C7.36961 16.05 7.3696 15.76 7.4996 15.52L10.8396 9.68999L8.34961 5.35999C8.21961 5.12999 8.21961 4.83999 8.34961 4.60999C8.47961 4.37999 8.7296 4.23999 8.9996 4.23999H12.4996C12.7696 4.23999 13.0196 4.37998 13.1496 4.61998L15.8496 9.31999C15.9796 9.54999 15.9796 9.82998 15.8496 10.06L10.6496 19.36C10.5196 19.59 10.2696 19.74 10.0096 19.74C10.0096 19.75 9.9996 19.75 9.9996 19.75ZM9.01959 15.89L9.97961 17.5L14.3396 9.69998L12.0696 5.73999H10.2996L12.3496 9.31999C12.4796 9.54999 12.4796 9.83999 12.3496 10.07L9.01959 15.89Z" fill="black"/>
<path d="M6.29992 13.45C6.02992 13.45 5.78992 13.31 5.64992 13.08L1.14992 5.38C1.00992 5.15 1.00992 4.86 1.14992 4.63C1.27992 4.4 1.52992 4.25 1.79992 4.25H5.29992C5.56992 4.25 5.81994 4.4 5.94994 4.63L8.64992 9.42999C8.77992 9.65999 8.77994 9.94999 8.63994 10.18L6.93993 13.08C6.80993 13.31 6.56992 13.45 6.29992 13.45ZM3.10991 5.75L6.29992 11.22L7.12993 9.8L4.85991 5.75999H3.10991V5.75Z" fill="black"/>
</svg>
