<svg width="24" height="24" viewBox="0 0 24 24" fill="none" xmlns="http://www.w3.org/2000/svg">
<path d="M11.9998 11.49C10.6798 11.49 9.43986 10.98 8.50986 10.04L2.77988 4.30999C2.25988 3.78999 2.10986 3.01999 2.38986 2.34999C2.66986 1.67999 3.31983 1.23999 4.04983 1.23999H5.45987C6.49987 1.23999 7.47987 1.64999 8.20987 2.37999L11.7898 5.95999C11.9398 6.10999 12.0599 6.10999 12.2099 5.95999L15.7898 2.37999C16.5298 1.63999 17.4998 1.23999 18.5398 1.23999H19.9499C20.6799 1.23999 21.3298 1.67999 21.6098 2.34999C21.8898 3.01999 21.7398 3.78999 21.2198 4.30999L15.4898 10.04C14.5598 10.98 13.3198 11.49 11.9998 11.49ZM4.04983 2.74999C3.87983 2.74999 3.79987 2.86999 3.76987 2.92999C3.73987 2.98999 3.70986 3.12999 3.82986 3.24999L9.55984 8.97999C10.8598 10.28 13.1298 10.28 14.4298 8.97999L20.1598 3.24999C20.2798 3.12999 20.2498 2.98999 20.2198 2.92999C20.1898 2.86999 20.1198 2.74999 19.9398 2.74999H18.5299C17.8899 2.74999 17.2899 2.99999 16.8399 3.44999L13.2599 7.02999C12.5599 7.72999 11.4198 7.72999 10.7198 7.02999L7.13986 3.44999C6.68986 2.99999 6.08986 2.74999 5.44986 2.74999H4.04983Z" fill="black"/>
<path d="M19.9499 22.72H18.5398C17.4998 22.72 16.5198 22.31 15.7898 21.58L12.2099 18C12.0599 17.85 11.9398 17.85 11.7898 18L8.20987 21.58C7.46987 22.32 6.49987 22.72 5.45987 22.72H4.04983C3.31983 22.72 2.66986 22.28 2.38986 21.61C2.10986 20.94 2.25988 20.17 2.77988 19.65L8.50986 13.92C9.43986 12.99 10.6798 12.47 11.9998 12.47C13.3198 12.47 14.5598 12.98 15.4898 13.92L21.2198 19.65C21.7398 20.17 21.8898 20.94 21.6098 21.61C21.3298 22.28 20.6799 22.72 19.9499 22.72ZM11.9998 16.42C12.4598 16.42 12.9199 16.6 13.2699 16.95L16.8498 20.53C17.2998 20.98 17.8998 21.23 18.5398 21.23H19.9499C20.1199 21.23 20.1998 21.11 20.2298 21.05C20.2598 20.99 20.2898 20.85 20.1698 20.73L14.4398 15C13.1398 13.7 10.8699 13.7 9.56985 15L3.83987 20.73C3.71987 20.85 3.74988 20.99 3.77988 21.05C3.80988 21.11 3.87984 21.23 4.05984 21.23H5.46982C6.10982 21.23 6.70982 20.98 7.15982 20.53L10.7398 16.95C11.0798 16.59 11.5398 16.42 11.9998 16.42Z" fill="black"/>
</svg>
