<svg width="24" height="24" viewBox="0 0 24 24" fill="none" xmlns="http://www.w3.org/2000/svg">
<path d="M17 20.75H7C3.56 20.75 1.25 18.44 1.25 15V9C1.25 5.56 3.56 3.25 7 3.25H17C20.44 3.25 22.75 5.56 22.75 9V15C22.75 18.44 20.44 20.75 17 20.75ZM7 4.75C4.42 4.75 2.75 6.42 2.75 9V15C2.75 17.58 4.42 19.25 7 19.25H17C19.58 19.25 21.25 17.58 21.25 15V9C21.25 6.42 19.58 4.75 17 4.75H7Z" fill="black"/>
<path d="M10.5897 15.53C10.2997 15.53 10.0197 15.46 9.76965 15.32C9.18965 14.99 8.84961 14.32 8.84961 13.49V10.53C8.84961 9.69997 9.17965 9.02999 9.76965 8.69999C10.3497 8.36999 11.0996 8.42996 11.8096 8.85996L14.2797 10.34C14.9597 10.75 15.3496 11.36 15.3496 12.01C15.3496 12.66 14.9597 13.27 14.2797 13.68L11.8096 15.16C11.3996 15.4 10.9797 15.53 10.5897 15.53ZM10.5897 9.96998C10.5497 9.96998 10.5196 9.97997 10.4996 9.98997C10.4296 10.03 10.3496 10.21 10.3496 10.52V13.48C10.3496 13.78 10.4296 13.96 10.4996 14.01C10.5796 14.05 10.7697 14.03 11.0297 13.87L13.4996 12.39C13.7496 12.24 13.8397 12.09 13.8397 12C13.8397 11.91 13.7496 11.77 13.4996 11.61L11.0297 10.13C10.8497 10.02 10.6897 9.96998 10.5897 9.96998Z" fill="black"/>
</svg>
