<svg width="24" height="24" viewBox="0 0 24 24" fill="none" xmlns="http://www.w3.org/2000/svg">
<path d="M8 16.5C7.87 16.5 7.74 16.47 7.63 16.4L5.13 14.96C4.9 14.83 4.75 14.58 4.75 14.31V11.46C4.75 11.19 4.89 10.94 5.13 10.81L7.63 9.36996C7.86 9.23996 8.15 9.23996 8.38 9.36996L10.88 10.81C11.11 10.94 11.26 11.19 11.26 11.46V14.31C11.26 14.58 11.12 14.83 10.88 14.96L8.38 16.4C8.26 16.47 8.13 16.5 8 16.5ZM6.25 13.88L8 14.89L9.75 13.88V11.89L8 10.88L6.25 11.89V13.88Z" fill="black"/>
<path d="M16 16.5C15.87 16.5 15.74 16.47 15.63 16.4L13.13 14.96C12.9 14.83 12.75 14.58 12.75 14.31V11.46C12.75 11.19 12.89 10.94 13.13 10.81L15.63 9.36996C15.86 9.23996 16.15 9.23996 16.38 9.36996L18.88 10.81C19.11 10.94 19.26 11.19 19.26 11.46V14.31C19.26 14.58 19.12 14.83 18.88 14.96L16.38 16.4C16.26 16.47 16.13 16.5 16 16.5ZM14.25 13.88L16 14.89L17.75 13.88V11.89L16 10.88L14.25 11.89V13.88Z" fill="black"/>
<path d="M12 14.7999C11.87 14.7999 11.74 14.7699 11.63 14.6999L10.13 13.8399C9.9 13.7099 9.75 13.4599 9.75 13.1899V11.8899L8.88 11.3899C8.65 11.2599 8.5 11.0099 8.5 10.7399V9.31994C8.5 9.04994 8.64 8.79993 8.88 8.66993L11.63 7.08993C11.86 6.95993 12.15 6.95993 12.38 7.08993L15.13 8.66993C15.36 8.79993 15.51 9.04994 15.51 9.31994V10.7399C15.51 11.0099 15.37 11.2599 15.13 11.3899L14.26 11.8899V13.1899C14.26 13.4599 14.12 13.7099 13.88 13.8399L12.38 14.6999C12.26 14.7699 12.13 14.7999 12 14.7999ZM11.25 12.7599L12 13.1899L12.75 12.7599V11.4599C12.75 11.1899 12.89 10.9399 13.13 10.8099L14 10.3099V9.75993L12 8.60994L10 9.75993V10.3099L10.87 10.8099C11.1 10.9399 11.25 11.1899 11.25 11.4599V12.7599Z" fill="black"/>
<path d="M12 22.75C6.07 22.75 1.25 17.93 1.25 12C1.25 6.07 6.07 1.25 12 1.25C17.93 1.25 22.75 6.07 22.75 12C22.75 17.93 17.93 22.75 12 22.75ZM12 2.75C6.9 2.75 2.75 6.9 2.75 12C2.75 17.1 6.9 21.25 12 21.25C17.1 21.25 21.25 17.1 21.25 12C21.25 6.9 17.1 2.75 12 2.75Z" fill="black"/>
</svg>
